M48
METRIC,LZ,000.000
;FILE_FORMAT=3:3
;TYPE=PLATED
;Layer: PTH_Through
;EasyEDA v6.5.54, 2026-02-14 17:59:59
;2bbe276c55c74596aa95547dd797203b,b56bf7277742442884ecbff68b5c164c,10
;Gerber Generator version 0.2
;Holesize 1 = 0.310 mm
T01C0.310
;Holesize 2 = 2.501 mm
T02C2.501
%
G05
G90
T01
X017780Y024003
X021082Y024130
X024257Y024384
X014859Y024638
X014859Y019050
X013462Y004826
X026354Y027556
X026670Y028575
X026670Y029845
X026670Y031115
X026670Y032385
X026670Y033655
X026670Y034925
X026670Y036195
X026670Y037465
X026670Y038735
X025400Y038735
X024130Y038735
X022860Y038735
X021590Y038735
X020320Y038735
X019050Y038735
X017145Y038735
X015875Y038735
X013335Y038735
X012065Y038735
X010795Y038735
X010160Y038100
X008890Y038100
X009525Y038735
X008890Y036830
X008890Y035560
X009525Y037465
X021590Y036830
X008890Y017145
X008890Y016510
X009525Y016510
X010160Y016510
X010795Y016510
X010795Y022225
X008890Y034290
X008890Y033020
X008890Y031750
X008890Y030480
X008890Y029210
X008890Y027940
X008890Y026670
X001270Y015875
X002032Y016510
X002794Y017145
X003556Y017780
X004318Y018415
X005080Y019050
X005842Y019685
X009525Y019050
X011684Y021590
X008890Y021590
X013462Y021336
X011430Y015240
X012700Y016510
X012065Y019050
X013335Y019050
X026670Y019050
X026670Y017780
X026670Y016510
X026670Y015240
X026670Y013970
X026670Y010795
X026670Y012065
X026035Y011430
X025400Y010795
X026035Y013335
X025400Y013970
X026035Y014605
X024765Y014605
X024765Y013335
X001270Y014605
X001270Y013335
X001270Y012065
X001270Y010795
X001905Y011430
X001905Y012700
X001905Y013970
X002540Y014605
X002540Y013335
X002540Y012065
X002540Y010795
X022225Y001270
X022225Y002540
X022225Y003810
X022225Y005080
X022225Y006350
X022860Y006985
X012954Y025019
X010606Y023485
X011243Y003175
X016891Y015621
X014605Y038735
X001270Y005715
X001905Y006350
X002540Y005715
X003175Y006350
X003810Y005715
X004445Y006350
X005080Y006985
X004445Y008255
X005080Y008890
X004445Y010160
X005080Y010795
X004445Y011430
X012700Y036830
T02
X025146Y002413
X002667Y002413
M30
