G04 Layer: TopLayer*
G04 EasyEDA v6.5.54, 2026-02-14 17:59:59*
G04 2bbe276c55c74596aa95547dd797203b,b56bf7277742442884ecbff68b5c164c,10*
G04 Gerber Generator version 0.2*
G04 Scale: 100 percent, Rotated: No, Reflected: No *
G04 Dimensions in millimeters *
G04 leading zeros omitted , absolute positions ,4 integer and 5 decimal *
%FSLAX45Y45*%
%MOMM*%

%AMMACRO1*21,1,$1,$2,0,0,$3*%
%ADD10C,0.4000*%
%ADD11C,0.2000*%
%ADD12C,1.0000*%
%ADD13R,0.5320X1.0720*%
%ADD14O,0.3556X1.814805*%
%ADD15O,0.356006X1.815008*%
%ADD16O,0.0138X1.815008*%
%ADD17R,0.9000X0.8000*%
%ADD18R,0.8000X0.9000*%
%ADD19R,0.6000X1.6000*%
%ADD20R,1.1500X2.2000*%
%ADD21R,1.1500X2.5000*%
%ADD22R,1.5000X1.1500*%
%ADD23R,1.1600X1.2000*%
%ADD24R,1.1600X1.2500*%
%ADD25MACRO1,0.8X0.9X51.0001*%
%ADD26R,0.2000X0.7000*%
%ADD27C,5.0000*%
%ADD28C,0.6200*%

%LPD*%
G36*
X145491Y25908D02*
G01*
X141630Y26670D01*
X138328Y28905D01*
X136144Y32156D01*
X135331Y36068D01*
X135331Y109931D01*
X36068Y109931D01*
X32156Y110744D01*
X28905Y112928D01*
X26670Y116230D01*
X25908Y120091D01*
X25908Y362508D01*
X26670Y366369D01*
X28905Y369671D01*
X32156Y371856D01*
X36068Y372668D01*
X135331Y372668D01*
X135331Y483666D01*
X128727Y480212D01*
X109220Y467868D01*
X90830Y453898D01*
X73660Y438404D01*
X57861Y421589D01*
X44043Y404164D01*
X40843Y401472D01*
X36830Y400304D01*
X32715Y400862D01*
X29159Y402996D01*
X26771Y406400D01*
X25908Y410464D01*
X25908Y1583588D01*
X26822Y1587754D01*
X29362Y1591208D01*
X816813Y2280158D01*
X820115Y2283612D01*
X823772Y2289860D01*
X825195Y2293924D01*
X826008Y2300579D01*
X826008Y3963924D01*
X826769Y3967835D01*
X829005Y3971086D01*
X832256Y3973322D01*
X836168Y3974084D01*
X2764028Y3974084D01*
X2767939Y3973322D01*
X2771190Y3971086D01*
X2773426Y3967835D01*
X2774188Y3963924D01*
X2774188Y381152D01*
X2773273Y376885D01*
X2770632Y373430D01*
X2767939Y371856D01*
X2771190Y369671D01*
X2773426Y366369D01*
X2774188Y362508D01*
X2774188Y120091D01*
X2773426Y116230D01*
X2771190Y112928D01*
X2767736Y110693D01*
X2770632Y109169D01*
X2773273Y105714D01*
X2774188Y101447D01*
X2774188Y36068D01*
X2773426Y32156D01*
X2771190Y28905D01*
X2767939Y26670D01*
X2764028Y25908D01*
X2713532Y25908D01*
X2709621Y26670D01*
X2706319Y28905D01*
X2704084Y32207D01*
X2703372Y36118D01*
X2704185Y40030D01*
X2706420Y43332D01*
X2715717Y52425D01*
X2730804Y69900D01*
X2744368Y88595D01*
X2755341Y106680D01*
X2758592Y109931D01*
X2645918Y109931D01*
X2645918Y36068D01*
X2645156Y32156D01*
X2642971Y28905D01*
X2639669Y26670D01*
X2635758Y25908D01*
X2393391Y25908D01*
X2389530Y26670D01*
X2386228Y28905D01*
X2383993Y32156D01*
X2383231Y36068D01*
X2383231Y109931D01*
X2272233Y109931D01*
X2278583Y98399D01*
X2291384Y79146D01*
X2305710Y61010D01*
X2321560Y44196D01*
X2324557Y40386D01*
X2325522Y36423D01*
X2324862Y32410D01*
X2322677Y29006D01*
X2319324Y26720D01*
X2315362Y25908D01*
X465632Y25908D01*
X461721Y26670D01*
X458419Y28905D01*
X456234Y32207D01*
X455472Y36118D01*
X456285Y40030D01*
X458520Y43332D01*
X467817Y52425D01*
X482904Y69900D01*
X496519Y88595D01*
X509270Y109931D01*
X398068Y109931D01*
X398068Y36068D01*
X397256Y32156D01*
X395071Y28905D01*
X391769Y26670D01*
X387908Y25908D01*
G37*

%LPC*%
G36*
X874877Y81788D02*
G01*
X933703Y81788D01*
X940053Y82499D01*
X945489Y84429D01*
X950417Y87528D01*
X952093Y89204D01*
X955395Y91440D01*
X959307Y92202D01*
X963168Y91440D01*
X966469Y89204D01*
X968197Y87528D01*
X973074Y84429D01*
X978560Y82499D01*
X984859Y81788D01*
X1043736Y81788D01*
X1050036Y82499D01*
X1055522Y84429D01*
X1060399Y87528D01*
X1062126Y89255D01*
X1065428Y91440D01*
X1069340Y92202D01*
X1073200Y91440D01*
X1076502Y89255D01*
X1078179Y87528D01*
X1083106Y84480D01*
X1088542Y82550D01*
X1094892Y81838D01*
X1102969Y81838D01*
X1102969Y141376D01*
X1080363Y141376D01*
X1076502Y142189D01*
X1073200Y144373D01*
X1070965Y147675D01*
X1070203Y151536D01*
X1070203Y223926D01*
X1070965Y227838D01*
X1073200Y231140D01*
X1076502Y233324D01*
X1080363Y234086D01*
X1102969Y234086D01*
X1102969Y293674D01*
X1094892Y293674D01*
X1088542Y292963D01*
X1083106Y291033D01*
X1081125Y289814D01*
X1077417Y288391D01*
X1073454Y288493D01*
X1069848Y290118D01*
X1067104Y293014D01*
X1065682Y296722D01*
X1060246Y329031D01*
X1060145Y539394D01*
X1061059Y543661D01*
X1063650Y547116D01*
X1067003Y549960D01*
X1077925Y560984D01*
X1083208Y567944D01*
X1086967Y575513D01*
X1089253Y583641D01*
X1090117Y592531D01*
X1090066Y643280D01*
X1088948Y652068D01*
X1086358Y660095D01*
X1082294Y667613D01*
X1077976Y673201D01*
X1071321Y680059D01*
X1069187Y683361D01*
X1068425Y687171D01*
X1069187Y691032D01*
X1071372Y694283D01*
X1077925Y700938D01*
X1083208Y707898D01*
X1086967Y715467D01*
X1089253Y723595D01*
X1090117Y732485D01*
X1090066Y783234D01*
X1088948Y792022D01*
X1086358Y800049D01*
X1082294Y807567D01*
X1077976Y813155D01*
X1071270Y820064D01*
X1069136Y823315D01*
X1068374Y827125D01*
X1069136Y830986D01*
X1071270Y834237D01*
X1077874Y841095D01*
X1083208Y848106D01*
X1086967Y855675D01*
X1089253Y863803D01*
X1090117Y872693D01*
X1090066Y923188D01*
X1088948Y931976D01*
X1086358Y940003D01*
X1082294Y947521D01*
X1077976Y953109D01*
X1071168Y960119D01*
X1069035Y963371D01*
X1068324Y967232D01*
X1069086Y971042D01*
X1071270Y974344D01*
X1077925Y981100D01*
X1083208Y988060D01*
X1086967Y995629D01*
X1089253Y1003757D01*
X1090117Y1012647D01*
X1090066Y1064006D01*
X1088847Y1072743D01*
X1086154Y1080770D01*
X1082040Y1088136D01*
X1076299Y1095044D01*
X1067003Y1104341D01*
X1063650Y1107186D01*
X1061059Y1110640D01*
X1060145Y1114907D01*
X1060145Y1168806D01*
X1060907Y1172667D01*
X1063091Y1175969D01*
X1170940Y1283817D01*
X1174242Y1286002D01*
X1178102Y1286764D01*
X1182014Y1286002D01*
X1185316Y1283817D01*
X1187500Y1280515D01*
X1188262Y1276604D01*
X1188262Y1064869D01*
X1187348Y1060602D01*
X1184757Y1057148D01*
X1181404Y1054303D01*
X1170482Y1043279D01*
X1165199Y1036319D01*
X1161440Y1028750D01*
X1159154Y1020622D01*
X1158290Y1011732D01*
X1158341Y960983D01*
X1159459Y952195D01*
X1162050Y944168D01*
X1166114Y936650D01*
X1170432Y931062D01*
X1177137Y924153D01*
X1179271Y920902D01*
X1180033Y917041D01*
X1179271Y913231D01*
X1177137Y909980D01*
X1170533Y903122D01*
X1165199Y896112D01*
X1161440Y888542D01*
X1159154Y880414D01*
X1158290Y871524D01*
X1158341Y820166D01*
X1159560Y811428D01*
X1162253Y803402D01*
X1166368Y796036D01*
X1172108Y789127D01*
X1181404Y779830D01*
X1184757Y776986D01*
X1187348Y773531D01*
X1188262Y769264D01*
X1188161Y328980D01*
X1182827Y296824D01*
X1181455Y293065D01*
X1178712Y290169D01*
X1175105Y288544D01*
X1171143Y288442D01*
X1167384Y289864D01*
X1165504Y291033D01*
X1160068Y292963D01*
X1153718Y293674D01*
X1145641Y293674D01*
X1145641Y234086D01*
X1168196Y234086D01*
X1172108Y233324D01*
X1175410Y231140D01*
X1177594Y227838D01*
X1178356Y223926D01*
X1178356Y151536D01*
X1177594Y147675D01*
X1175410Y144373D01*
X1172108Y142189D01*
X1168196Y141376D01*
X1145641Y141376D01*
X1145641Y81838D01*
X1153718Y81838D01*
X1160068Y82550D01*
X1165504Y84480D01*
X1170432Y87528D01*
X1172108Y89204D01*
X1175410Y91440D01*
X1179271Y92202D01*
X1183182Y91440D01*
X1186484Y89204D01*
X1188161Y87528D01*
X1193088Y84429D01*
X1198524Y82499D01*
X1204874Y81788D01*
X1263700Y81788D01*
X1270050Y82499D01*
X1275486Y84429D01*
X1280414Y87528D01*
X1282090Y89204D01*
X1285392Y91440D01*
X1289304Y92202D01*
X1293164Y91440D01*
X1296466Y89204D01*
X1298194Y87528D01*
X1303070Y84429D01*
X1308557Y82499D01*
X1314856Y81788D01*
X1373733Y81788D01*
X1380032Y82499D01*
X1385519Y84429D01*
X1390396Y87528D01*
X1392123Y89204D01*
X1395425Y91389D01*
X1399286Y92202D01*
X1403197Y91389D01*
X1406499Y89204D01*
X1408176Y87528D01*
X1413103Y84429D01*
X1418539Y82499D01*
X1424889Y81788D01*
X1483715Y81788D01*
X1490065Y82499D01*
X1495501Y84429D01*
X1500428Y87528D01*
X1502105Y89204D01*
X1505407Y91389D01*
X1509318Y92202D01*
X1513179Y91389D01*
X1516481Y89204D01*
X1518158Y87528D01*
X1523085Y84429D01*
X1528521Y82499D01*
X1534871Y81788D01*
X1593697Y81788D01*
X1600047Y82499D01*
X1605483Y84429D01*
X1610410Y87528D01*
X1612087Y89204D01*
X1615389Y91389D01*
X1619300Y92202D01*
X1623161Y91389D01*
X1626463Y89204D01*
X1628190Y87528D01*
X1633067Y84429D01*
X1638554Y82499D01*
X1644853Y81788D01*
X1703730Y81788D01*
X1710029Y82499D01*
X1715516Y84429D01*
X1720392Y87528D01*
X1724507Y91592D01*
X1727555Y96520D01*
X1729486Y101955D01*
X1730197Y108305D01*
X1730197Y267309D01*
X1729790Y272338D01*
X1724050Y306933D01*
X1724050Y310134D01*
X1725015Y313182D01*
X1726895Y315772D01*
X1989480Y578408D01*
X1994814Y585470D01*
X1998573Y593039D01*
X2000859Y601167D01*
X2001723Y610057D01*
X2001723Y1253185D01*
X2002637Y1257452D01*
X2005228Y1260906D01*
X2009038Y1262989D01*
X2013407Y1263243D01*
X2017420Y1261719D01*
X2021078Y1257655D01*
X2025192Y1253540D01*
X2030069Y1250492D01*
X2035556Y1248562D01*
X2041855Y1247851D01*
X2063699Y1247851D01*
X2063699Y1322425D01*
X2011883Y1322425D01*
X2007971Y1323187D01*
X2004669Y1325372D01*
X2002485Y1328674D01*
X2001723Y1332585D01*
X2001723Y1434947D01*
X2002485Y1438859D01*
X2004669Y1442110D01*
X2007971Y1444345D01*
X2011883Y1445107D01*
X2063699Y1445107D01*
X2063699Y1519682D01*
X2053640Y1519682D01*
X2049729Y1520444D01*
X2046427Y1522628D01*
X2044242Y1525930D01*
X2043480Y1529842D01*
X2044242Y1533702D01*
X2046427Y1537004D01*
X2302052Y1792630D01*
X2305354Y1794814D01*
X2309215Y1795576D01*
X2478278Y1795627D01*
X2487015Y1796846D01*
X2495042Y1799539D01*
X2502408Y1803654D01*
X2509316Y1809394D01*
X2643276Y1943404D01*
X2648610Y1950466D01*
X2652369Y1958035D01*
X2654706Y1966264D01*
X2655163Y1970532D01*
X2661716Y2011425D01*
X2662123Y2016302D01*
X2662123Y2122525D01*
X2661412Y2128875D01*
X2660040Y2132736D01*
X2659481Y2136241D01*
X2660142Y2139696D01*
X2661970Y2142744D01*
X2664714Y2144979D01*
X2667508Y2146554D01*
X2674416Y2152294D01*
X2726080Y2204008D01*
X2731414Y2211070D01*
X2735173Y2218639D01*
X2737459Y2226767D01*
X2738323Y2235657D01*
X2738272Y2465578D01*
X2737053Y2474315D01*
X2734360Y2482342D01*
X2730246Y2489708D01*
X2724505Y2496616D01*
X2678684Y2542438D01*
X2676448Y2545842D01*
X2675737Y2549804D01*
X2676652Y2553817D01*
X2679039Y2557119D01*
X2682544Y2559202D01*
X2686608Y2560624D01*
X2691485Y2563672D01*
X2695600Y2567787D01*
X2698648Y2572664D01*
X2700578Y2578150D01*
X2701290Y2584450D01*
X2701290Y2600045D01*
X2661716Y2600045D01*
X2661716Y2569768D01*
X2660853Y2565654D01*
X2658414Y2562250D01*
X2654808Y2560116D01*
X2650642Y2559608D01*
X2641142Y2560523D01*
X2619197Y2560523D01*
X2615285Y2561285D01*
X2612034Y2563469D01*
X2609799Y2566771D01*
X2609037Y2570683D01*
X2609037Y2600045D01*
X2571496Y2600045D01*
X2567584Y2600807D01*
X2564282Y2603042D01*
X2562098Y2606294D01*
X2561336Y2610205D01*
X2561336Y2647594D01*
X2562098Y2651455D01*
X2564282Y2654757D01*
X2567584Y2656992D01*
X2571496Y2657754D01*
X2609037Y2657754D01*
X2609037Y2699816D01*
X2595930Y2699816D01*
X2589631Y2699105D01*
X2584196Y2697175D01*
X2579268Y2694076D01*
X2575204Y2690012D01*
X2573985Y2688132D01*
X2571191Y2685186D01*
X2567432Y2683560D01*
X2563368Y2683560D01*
X2559608Y2685186D01*
X2556814Y2688132D01*
X2555595Y2690012D01*
X2551531Y2694076D01*
X2546604Y2697175D01*
X2541168Y2699105D01*
X2534818Y2699816D01*
X2455976Y2699816D01*
X2449677Y2699105D01*
X2444191Y2697175D01*
X2439314Y2694076D01*
X2435199Y2690012D01*
X2432100Y2685084D01*
X2430881Y2681630D01*
X2428748Y2678074D01*
X2425395Y2675636D01*
X2421331Y2674823D01*
X2345893Y2674823D01*
X2341676Y2675737D01*
X2338171Y2678379D01*
X2336139Y2682189D01*
X2325928Y2718003D01*
X2325573Y2720797D01*
X2325573Y2731312D01*
X2324709Y2740202D01*
X2323744Y2743657D01*
X2323338Y2746451D01*
X2323338Y2791510D01*
X2322576Y2799994D01*
X2320340Y2807766D01*
X2316784Y2814980D01*
X2311908Y2821381D01*
X2305964Y2826816D01*
X2299106Y2831084D01*
X2291588Y2833979D01*
X2283663Y2835452D01*
X2275636Y2835452D01*
X2267712Y2833979D01*
X2260193Y2831084D01*
X2253234Y2826766D01*
X2249779Y2825445D01*
X2246020Y2825445D01*
X2242566Y2826766D01*
X2235606Y2831084D01*
X2228088Y2833979D01*
X2220163Y2835452D01*
X2212136Y2835452D01*
X2204212Y2833979D01*
X2196693Y2831084D01*
X2189683Y2826766D01*
X2186228Y2825394D01*
X2182469Y2825394D01*
X2179015Y2826766D01*
X2172106Y2831033D01*
X2164588Y2833928D01*
X2156663Y2835402D01*
X2148636Y2835402D01*
X2140712Y2833928D01*
X2133193Y2831033D01*
X2126234Y2826715D01*
X2122779Y2825394D01*
X2119020Y2825394D01*
X2115566Y2826715D01*
X2108606Y2831033D01*
X2101088Y2833928D01*
X2093163Y2835402D01*
X2085136Y2835402D01*
X2077212Y2833928D01*
X2069693Y2831033D01*
X2062734Y2826715D01*
X2059279Y2825394D01*
X2055520Y2825394D01*
X2052066Y2826715D01*
X2045106Y2831033D01*
X2037588Y2833928D01*
X2029663Y2835402D01*
X2021636Y2835402D01*
X2013712Y2833928D01*
X2006193Y2831033D01*
X1999234Y2826715D01*
X1995779Y2825394D01*
X1992020Y2825394D01*
X1988566Y2826715D01*
X1981606Y2831033D01*
X1974088Y2833928D01*
X1966163Y2835402D01*
X1958136Y2835402D01*
X1950212Y2833928D01*
X1942693Y2831033D01*
X1935734Y2826715D01*
X1932279Y2825394D01*
X1928520Y2825394D01*
X1925066Y2826715D01*
X1918106Y2831033D01*
X1910588Y2833928D01*
X1902663Y2835402D01*
X1894636Y2835402D01*
X1886712Y2833928D01*
X1879193Y2831033D01*
X1872234Y2826715D01*
X1868779Y2825394D01*
X1865020Y2825394D01*
X1861566Y2826715D01*
X1854606Y2831033D01*
X1850389Y2832658D01*
X1850389Y2769057D01*
X1852828Y2766771D01*
X1854403Y2763875D01*
X1854962Y2760573D01*
X1854962Y2746502D01*
X1854555Y2743708D01*
X1853590Y2740202D01*
X1852726Y2731312D01*
X1852726Y2677464D01*
X1852117Y2673959D01*
X1850389Y2670911D01*
X1850389Y2643428D01*
X1849628Y2639517D01*
X1847392Y2636215D01*
X1837232Y2626055D01*
X1833930Y2623870D01*
X1830070Y2623108D01*
X1826158Y2623870D01*
X1822856Y2626055D01*
X1820672Y2629357D01*
X1819910Y2633268D01*
X1819910Y2667304D01*
X1791462Y2667304D01*
X1791462Y2646527D01*
X1792224Y2638044D01*
X1794459Y2630271D01*
X1798015Y2623058D01*
X1802892Y2616657D01*
X1808073Y2611932D01*
X1810461Y2608630D01*
X1811375Y2604668D01*
X1810664Y2600655D01*
X1808429Y2597251D01*
X1623923Y2412695D01*
X1618589Y2405634D01*
X1614830Y2398064D01*
X1612493Y2389835D01*
X1611934Y2385364D01*
X1605838Y2359202D01*
X1605076Y2352294D01*
X1605076Y2246274D01*
X1605432Y2242972D01*
X1605026Y2238756D01*
X1602943Y2235047D01*
X1599539Y2232558D01*
X1595424Y2231644D01*
X1591310Y2232507D01*
X1547215Y2251760D01*
X1543659Y2254300D01*
X1541526Y2258161D01*
X1541221Y2262479D01*
X1542745Y2266594D01*
X1547012Y2270353D01*
X1551076Y2274468D01*
X1554175Y2279345D01*
X1556105Y2284831D01*
X1556816Y2291130D01*
X1556816Y2304237D01*
X1514754Y2304237D01*
X1514754Y2266696D01*
X1513992Y2262784D01*
X1511757Y2259482D01*
X1508455Y2257298D01*
X1504594Y2256536D01*
X1467205Y2256536D01*
X1463294Y2257298D01*
X1460042Y2259482D01*
X1457807Y2262784D01*
X1457045Y2266696D01*
X1457045Y2304237D01*
X1414983Y2304237D01*
X1414983Y2291130D01*
X1415694Y2284831D01*
X1417624Y2279345D01*
X1420672Y2274468D01*
X1424787Y2270353D01*
X1426667Y2269185D01*
X1429613Y2266391D01*
X1431188Y2262632D01*
X1431188Y2258568D01*
X1429613Y2254808D01*
X1426667Y2252014D01*
X1424787Y2250795D01*
X1420672Y2246731D01*
X1417624Y2241804D01*
X1415694Y2236368D01*
X1414983Y2230069D01*
X1414983Y2151176D01*
X1415745Y2144725D01*
X1417167Y2140254D01*
X1439214Y2087321D01*
X1439976Y2083409D01*
X1439976Y1949907D01*
X1438198Y1937156D01*
X1437030Y1933702D01*
X1434084Y1928418D01*
X1430883Y1919325D01*
X1429258Y1909825D01*
X1429258Y1900174D01*
X1430883Y1890674D01*
X1434084Y1881581D01*
X1438757Y1873148D01*
X1444853Y1865630D01*
X1452067Y1859280D01*
X1460296Y1854200D01*
X1469237Y1850643D01*
X1478686Y1848612D01*
X1488287Y1848154D01*
X1498752Y1849526D01*
X1502918Y1849170D01*
X1506626Y1847189D01*
X1509166Y1843938D01*
X1510182Y1839874D01*
X1509522Y1835759D01*
X1507236Y1832254D01*
X870559Y1195527D01*
X865225Y1188466D01*
X861466Y1180896D01*
X859180Y1172768D01*
X858316Y1163878D01*
X858316Y1151229D01*
X857402Y1146962D01*
X854811Y1143508D01*
X851458Y1140663D01*
X840536Y1129639D01*
X835253Y1122680D01*
X831494Y1115110D01*
X829208Y1106982D01*
X828344Y1098092D01*
X828395Y1047343D01*
X829513Y1038555D01*
X832103Y1030528D01*
X836168Y1023010D01*
X840486Y1017422D01*
X847191Y1010513D01*
X849325Y1007262D01*
X850087Y1003401D01*
X849325Y999591D01*
X847191Y996340D01*
X840587Y989482D01*
X835253Y982471D01*
X831494Y974902D01*
X829208Y966774D01*
X828344Y957884D01*
X828395Y906526D01*
X829614Y897788D01*
X832307Y889762D01*
X836472Y882294D01*
X840435Y877265D01*
X847090Y870559D01*
X849274Y867308D01*
X850036Y863447D01*
X849274Y859637D01*
X847140Y856335D01*
X840587Y849528D01*
X835253Y842518D01*
X831494Y834948D01*
X829208Y826820D01*
X828344Y817930D01*
X828395Y766572D01*
X829614Y757834D01*
X832307Y749808D01*
X836472Y742340D01*
X840435Y737311D01*
X847140Y730554D01*
X849325Y727252D01*
X850087Y723392D01*
X849325Y719531D01*
X847140Y716229D01*
X840536Y709523D01*
X835253Y702564D01*
X831494Y694994D01*
X829208Y686866D01*
X828344Y677976D01*
X828395Y626618D01*
X829614Y617880D01*
X832307Y609854D01*
X836472Y602386D01*
X840435Y597357D01*
X847140Y590600D01*
X849325Y587298D01*
X850087Y583438D01*
X849325Y579577D01*
X847140Y576275D01*
X840536Y569569D01*
X835253Y562610D01*
X831494Y555040D01*
X829208Y546912D01*
X828344Y538022D01*
X828395Y486664D01*
X829614Y477926D01*
X832307Y469900D01*
X836421Y462534D01*
X842162Y455625D01*
X851458Y446328D01*
X854811Y443484D01*
X857402Y440029D01*
X858316Y435762D01*
X858215Y328980D01*
X848817Y272338D01*
X848410Y267309D01*
X848410Y108254D01*
X849121Y101955D01*
X851001Y96520D01*
X854100Y91592D01*
X858164Y87528D01*
X863092Y84429D01*
X868527Y82499D01*
G37*
G36*
X704900Y99822D02*
G01*
X726744Y99822D01*
X733044Y100533D01*
X738530Y102463D01*
X743407Y105562D01*
X747522Y109626D01*
X750570Y114554D01*
X752500Y119989D01*
X753211Y126339D01*
X753211Y174396D01*
X704900Y174396D01*
G37*
G36*
X612851Y99822D02*
G01*
X634695Y99822D01*
X634695Y174396D01*
X586384Y174396D01*
X586384Y126339D01*
X587095Y119989D01*
X589026Y114554D01*
X592074Y109626D01*
X596188Y105562D01*
X601065Y102463D01*
X606552Y100533D01*
G37*
G36*
X2133904Y99822D02*
G01*
X2155698Y99822D01*
X2162048Y100533D01*
X2167483Y102463D01*
X2172411Y105562D01*
X2176475Y109626D01*
X2179574Y114554D01*
X2181504Y119989D01*
X2182215Y126339D01*
X2182215Y181914D01*
X2133904Y181914D01*
G37*
G36*
X2041855Y99822D02*
G01*
X2063699Y99822D01*
X2063699Y181914D01*
X2015388Y181914D01*
X2015388Y126339D01*
X2016099Y119989D01*
X2017979Y114554D01*
X2021078Y109626D01*
X2025192Y105562D01*
X2030069Y102463D01*
X2035556Y100533D01*
G37*
G36*
X586384Y297078D02*
G01*
X634695Y297078D01*
X634695Y381812D01*
X635457Y385724D01*
X637692Y389026D01*
X640994Y391210D01*
X644855Y391972D01*
X674928Y391972D01*
X674928Y413156D01*
X626364Y413156D01*
X626364Y388823D01*
X627024Y382981D01*
X626618Y378714D01*
X624535Y375056D01*
X621080Y372567D01*
X616966Y371652D01*
X612851Y371652D01*
X606552Y370941D01*
X601065Y369062D01*
X596188Y365963D01*
X592074Y361848D01*
X589026Y356971D01*
X587095Y351485D01*
X586384Y345186D01*
G37*
G36*
X704900Y297078D02*
G01*
X753211Y297078D01*
X753211Y345186D01*
X752551Y351028D01*
X752957Y355244D01*
X755091Y358952D01*
X758494Y361442D01*
X762660Y362356D01*
X767740Y362356D01*
X774039Y363067D01*
X779526Y364947D01*
X784402Y368046D01*
X788517Y372110D01*
X791565Y377037D01*
X793496Y382473D01*
X794207Y388823D01*
X794207Y413156D01*
X745642Y413156D01*
X745642Y352196D01*
X744880Y348284D01*
X742645Y344982D01*
X739343Y342798D01*
X735482Y342036D01*
X704900Y342036D01*
G37*
G36*
X2133904Y319582D02*
G01*
X2182215Y319582D01*
X2182215Y375158D01*
X2181504Y381508D01*
X2179574Y386943D01*
X2176475Y391871D01*
X2172411Y395935D01*
X2167483Y399034D01*
X2162048Y400964D01*
X2155698Y401675D01*
X2133904Y401675D01*
G37*
G36*
X2015388Y319582D02*
G01*
X2063699Y319582D01*
X2063699Y401675D01*
X2041855Y401675D01*
X2035556Y400964D01*
X2030069Y399034D01*
X2025192Y395935D01*
X2021078Y391871D01*
X2017979Y386943D01*
X2016099Y381508D01*
X2015388Y375158D01*
G37*
G36*
X2272233Y372668D02*
G01*
X2383231Y372668D01*
X2383231Y483666D01*
X2376627Y480212D01*
X2357120Y467868D01*
X2338730Y453898D01*
X2321560Y438404D01*
X2305710Y421589D01*
X2291384Y403453D01*
X2278583Y384200D01*
G37*
G36*
X398068Y372668D02*
G01*
X509270Y372668D01*
X496519Y394004D01*
X482904Y412648D01*
X467817Y430174D01*
X451307Y446328D01*
X433527Y461060D01*
X414528Y474268D01*
X398068Y483768D01*
G37*
G36*
X2645918Y372668D02*
G01*
X2758592Y372668D01*
X2755341Y375920D01*
X2744368Y394004D01*
X2730804Y412648D01*
X2715717Y430174D01*
X2699207Y446328D01*
X2681376Y461060D01*
X2662428Y474268D01*
X2645918Y483768D01*
G37*
G36*
X745642Y488340D02*
G01*
X794207Y488340D01*
X794207Y512673D01*
X793496Y519023D01*
X791565Y524459D01*
X788517Y529386D01*
X784402Y533450D01*
X779526Y536549D01*
X774039Y538429D01*
X767740Y539140D01*
X745642Y539140D01*
G37*
G36*
X626364Y488340D02*
G01*
X674928Y488340D01*
X674928Y539140D01*
X652881Y539140D01*
X646531Y538429D01*
X641096Y536549D01*
X636168Y533450D01*
X632104Y529386D01*
X629005Y524459D01*
X627075Y519023D01*
X626364Y512673D01*
G37*
G36*
X2514600Y736092D02*
G01*
X2529992Y737057D01*
X2545130Y739800D01*
X2559812Y744372D01*
X2573832Y750722D01*
X2587040Y758698D01*
X2599131Y768197D01*
X2610002Y779068D01*
X2619502Y791159D01*
X2627477Y804367D01*
X2633827Y818388D01*
X2638399Y833069D01*
X2641142Y848207D01*
X2642108Y863600D01*
X2641142Y878992D01*
X2638399Y894130D01*
X2633827Y908812D01*
X2627477Y922832D01*
X2619502Y936040D01*
X2610002Y948131D01*
X2599131Y959002D01*
X2587040Y968502D01*
X2573832Y976477D01*
X2559812Y982827D01*
X2545130Y987399D01*
X2529992Y990142D01*
X2514600Y991108D01*
X2499207Y990142D01*
X2484069Y987399D01*
X2469388Y982827D01*
X2455367Y976477D01*
X2442159Y968502D01*
X2430068Y959002D01*
X2419197Y948131D01*
X2409698Y936040D01*
X2401722Y922832D01*
X2395372Y908812D01*
X2390800Y894130D01*
X2388057Y878992D01*
X2387092Y863600D01*
X2388057Y848207D01*
X2390800Y833069D01*
X2395372Y818388D01*
X2401722Y804367D01*
X2409698Y791159D01*
X2419197Y779068D01*
X2430068Y768197D01*
X2442159Y758698D01*
X2455367Y750722D01*
X2469388Y744372D01*
X2484069Y739800D01*
X2499207Y737057D01*
G37*
G36*
X266700Y736092D02*
G01*
X282092Y737057D01*
X297230Y739800D01*
X311912Y744372D01*
X325932Y750722D01*
X339140Y758698D01*
X351231Y768197D01*
X362102Y779068D01*
X371602Y791159D01*
X379577Y804367D01*
X385927Y818388D01*
X390499Y833069D01*
X393242Y848207D01*
X394208Y863600D01*
X393242Y878992D01*
X390499Y894130D01*
X385927Y908812D01*
X379577Y922832D01*
X371602Y936040D01*
X362102Y948131D01*
X351231Y959002D01*
X339140Y968502D01*
X325932Y976477D01*
X311912Y982827D01*
X297230Y987399D01*
X282092Y990142D01*
X266700Y991108D01*
X251307Y990142D01*
X236169Y987399D01*
X221488Y982827D01*
X207467Y976477D01*
X194259Y968502D01*
X182168Y959002D01*
X171297Y948131D01*
X161798Y936040D01*
X153822Y922832D01*
X147472Y908812D01*
X142900Y894130D01*
X140157Y878992D01*
X139192Y863600D01*
X140157Y848207D01*
X142900Y833069D01*
X147472Y818388D01*
X153822Y804367D01*
X161798Y791159D01*
X171297Y779068D01*
X182168Y768197D01*
X194259Y758698D01*
X207467Y750722D01*
X221488Y744372D01*
X236169Y739800D01*
X251307Y737057D01*
G37*
G36*
X2133904Y1247851D02*
G01*
X2155698Y1247851D01*
X2162048Y1248562D01*
X2167483Y1250492D01*
X2172411Y1253540D01*
X2176475Y1257655D01*
X2179574Y1262532D01*
X2181504Y1268018D01*
X2182215Y1274318D01*
X2182215Y1322425D01*
X2133904Y1322425D01*
G37*
G36*
X745642Y1264818D02*
G01*
X767740Y1264818D01*
X774039Y1265529D01*
X779526Y1267460D01*
X784402Y1270508D01*
X788517Y1274622D01*
X791565Y1279499D01*
X793496Y1284986D01*
X794207Y1291285D01*
X794207Y1314399D01*
X745642Y1314399D01*
G37*
G36*
X652881Y1264818D02*
G01*
X674928Y1264818D01*
X674928Y1314399D01*
X626364Y1314399D01*
X626364Y1291285D01*
X627075Y1284986D01*
X629005Y1279499D01*
X632104Y1274622D01*
X636168Y1270508D01*
X641096Y1267460D01*
X646531Y1265529D01*
G37*
G36*
X934161Y1379829D02*
G01*
X964742Y1379829D01*
X971042Y1380540D01*
X976528Y1382471D01*
X981405Y1385519D01*
X985519Y1389634D01*
X988568Y1394510D01*
X990498Y1399997D01*
X991209Y1406296D01*
X991209Y1428140D01*
X934161Y1428140D01*
G37*
G36*
X815848Y1379829D02*
G01*
X846429Y1379829D01*
X846429Y1428140D01*
X779221Y1428140D01*
X775360Y1428902D01*
X772058Y1431086D01*
X769823Y1434388D01*
X769416Y1436471D01*
X767740Y1436624D01*
X745642Y1436624D01*
X745642Y1387094D01*
X804367Y1387094D01*
X808075Y1386382D01*
X811276Y1384401D01*
X813511Y1381353D01*
X813866Y1380032D01*
G37*
G36*
X626364Y1387094D02*
G01*
X674928Y1387094D01*
X674928Y1436624D01*
X652881Y1436624D01*
X646531Y1435912D01*
X641096Y1434033D01*
X636168Y1430934D01*
X632104Y1426870D01*
X629005Y1421942D01*
X627075Y1416507D01*
X626364Y1410157D01*
G37*
G36*
X2133904Y1445107D02*
G01*
X2182215Y1445107D01*
X2182215Y1493164D01*
X2181504Y1499514D01*
X2179574Y1504950D01*
X2176475Y1509877D01*
X2172411Y1513941D01*
X2167483Y1517040D01*
X2162048Y1518970D01*
X2155698Y1519682D01*
X2133904Y1519682D01*
G37*
G36*
X789381Y1498346D02*
G01*
X846429Y1498346D01*
X846429Y1546656D01*
X815848Y1546656D01*
X809548Y1545945D01*
X804062Y1544015D01*
X799185Y1540916D01*
X795070Y1536852D01*
X792022Y1531924D01*
X790092Y1526489D01*
X789381Y1520190D01*
G37*
G36*
X934161Y1498346D02*
G01*
X991209Y1498346D01*
X991209Y1520190D01*
X990498Y1526489D01*
X988568Y1531924D01*
X985519Y1536852D01*
X982421Y1539951D01*
X980236Y1543253D01*
X979424Y1547114D01*
X980236Y1551025D01*
X982421Y1554327D01*
X985723Y1556512D01*
X989584Y1557274D01*
X1082243Y1557274D01*
X1088288Y1557934D01*
X1093774Y1559864D01*
X1098702Y1562963D01*
X1101039Y1565097D01*
X1126083Y1590090D01*
X1127709Y1591919D01*
X1131366Y1597507D01*
X1143558Y1621891D01*
X1145743Y1627835D01*
X1146556Y1634591D01*
X1146556Y1679956D01*
X1147318Y1683867D01*
X1149502Y1687169D01*
X1152804Y1689354D01*
X1156716Y1690116D01*
X1159713Y1690116D01*
X1170228Y1691690D01*
X1174546Y1690776D01*
X1178966Y1690319D01*
X1178966Y1698243D01*
X1179880Y1702511D01*
X1182471Y1705965D01*
X1186281Y1708048D01*
X1190599Y1708302D01*
X1194663Y1706778D01*
X1197711Y1703679D01*
X1200099Y1699869D01*
X1201267Y1697278D01*
X1201623Y1694484D01*
X1201623Y1690319D01*
X1210310Y1691690D01*
X1214526Y1690776D01*
X1220876Y1690065D01*
X1239723Y1690065D01*
X1246073Y1690776D01*
X1250340Y1691690D01*
X1254556Y1690827D01*
X1258925Y1690319D01*
X1258925Y1694484D01*
X1259332Y1697278D01*
X1260500Y1699869D01*
X1262888Y1703679D01*
X1265936Y1706727D01*
X1269949Y1708302D01*
X1274267Y1707997D01*
X1278128Y1705965D01*
X1280718Y1702460D01*
X1281633Y1698243D01*
X1281633Y1690319D01*
X1290218Y1691690D01*
X1294536Y1690776D01*
X1298956Y1690319D01*
X1298956Y1727149D01*
X1276350Y1727149D01*
X1272489Y1727911D01*
X1269187Y1730095D01*
X1267002Y1733397D01*
X1266190Y1737309D01*
X1266190Y1764741D01*
X1267002Y1768602D01*
X1269187Y1771904D01*
X1272489Y1774088D01*
X1276350Y1774901D01*
X1298956Y1774901D01*
X1298956Y1811680D01*
X1290370Y1810308D01*
X1286052Y1811223D01*
X1281633Y1811731D01*
X1281633Y1803704D01*
X1280718Y1799488D01*
X1278128Y1796034D01*
X1274267Y1793951D01*
X1269949Y1793697D01*
X1265936Y1795221D01*
X1262888Y1798320D01*
X1260500Y1802130D01*
X1259332Y1804720D01*
X1258925Y1807514D01*
X1258925Y1811731D01*
X1250238Y1810308D01*
X1246073Y1811172D01*
X1239723Y1811883D01*
X1220876Y1811883D01*
X1214526Y1811172D01*
X1210310Y1810308D01*
X1206042Y1811172D01*
X1201623Y1811680D01*
X1201623Y1807514D01*
X1201267Y1804670D01*
X1200099Y1802079D01*
X1197711Y1798320D01*
X1194663Y1795221D01*
X1190599Y1793646D01*
X1186281Y1793951D01*
X1182471Y1796034D01*
X1179880Y1799488D01*
X1178966Y1803704D01*
X1178966Y1811680D01*
X1170381Y1810308D01*
X1166063Y1811223D01*
X1161643Y1811731D01*
X1161643Y1804670D01*
X1160729Y1800402D01*
X1158138Y1796948D01*
X1154328Y1794865D01*
X1149959Y1794611D01*
X1145946Y1796135D01*
X1142898Y1799234D01*
X1140510Y1803044D01*
X1139342Y1805635D01*
X1138936Y1808429D01*
X1138936Y1811731D01*
X1130960Y1810562D01*
X1126388Y1811578D01*
X1120089Y1812289D01*
X877468Y1812239D01*
X871474Y1811020D01*
X866190Y1808632D01*
X861568Y1805178D01*
X857453Y1800301D01*
X807313Y1725015D01*
X804367Y1719376D01*
X802894Y1713585D01*
X802640Y1709826D01*
X802640Y1647240D01*
X803351Y1640941D01*
X805230Y1635506D01*
X808634Y1630121D01*
X858774Y1567434D01*
X862533Y1563471D01*
X868171Y1559915D01*
X873607Y1557985D01*
X879906Y1557274D01*
X924001Y1557274D01*
X927862Y1556512D01*
X931164Y1554327D01*
X933399Y1551025D01*
X934161Y1547114D01*
G37*
G36*
X1321663Y1690319D02*
G01*
X1326032Y1690776D01*
X1331518Y1692706D01*
X1336395Y1695805D01*
X1340510Y1699869D01*
X1343558Y1704797D01*
X1345488Y1710232D01*
X1346200Y1716582D01*
X1346200Y1727149D01*
X1321663Y1727149D01*
G37*
G36*
X1321663Y1774850D02*
G01*
X1346200Y1774850D01*
X1346200Y1785416D01*
X1345488Y1791716D01*
X1343558Y1797202D01*
X1340510Y1802079D01*
X1336395Y1806193D01*
X1331518Y1809292D01*
X1326032Y1811172D01*
X1321663Y1811680D01*
G37*
G36*
X980846Y1998116D02*
G01*
X999744Y1998116D01*
X1006043Y1998827D01*
X1010310Y1999742D01*
X1014526Y1998827D01*
X1020876Y1998116D01*
X1039723Y1998116D01*
X1050239Y1999691D01*
X1054557Y1998776D01*
X1058926Y1998319D01*
X1058926Y2002536D01*
X1059332Y2005330D01*
X1061669Y2009800D01*
X1064514Y2012746D01*
X1068273Y2014372D01*
X1072337Y2014372D01*
X1076096Y2012746D01*
X1078890Y2009800D01*
X1081227Y2005330D01*
X1081633Y2002485D01*
X1081633Y1998319D01*
X1090371Y1999691D01*
X1094536Y1998827D01*
X1100836Y1998116D01*
X1119733Y1998116D01*
X1126032Y1998827D01*
X1130300Y1999742D01*
X1134567Y1998827D01*
X1140866Y1998116D01*
X1159764Y1998116D01*
X1170279Y1999691D01*
X1174546Y1998776D01*
X1178966Y1998319D01*
X1178966Y2002485D01*
X1179322Y2005279D01*
X1181709Y2009800D01*
X1184503Y2012746D01*
X1188262Y2014321D01*
X1192326Y2014321D01*
X1196086Y2012746D01*
X1198930Y2009800D01*
X1201267Y2005330D01*
X1201623Y2002485D01*
X1201623Y1998319D01*
X1210360Y1999691D01*
X1214526Y1998827D01*
X1220876Y1998116D01*
X1239723Y1998116D01*
X1246022Y1998827D01*
X1250289Y1999691D01*
X1254556Y1998827D01*
X1260856Y1998116D01*
X1279702Y1998116D01*
X1290218Y1999691D01*
X1294536Y1998776D01*
X1298956Y1998319D01*
X1298956Y2002536D01*
X1299362Y2005330D01*
X1300480Y2007920D01*
X1302867Y2011730D01*
X1305915Y2014829D01*
X1309979Y2016353D01*
X1314297Y2016048D01*
X1318107Y2014016D01*
X1320698Y2010562D01*
X1321663Y2006295D01*
X1321663Y1998319D01*
X1326032Y1998776D01*
X1331518Y2000707D01*
X1336395Y2003806D01*
X1340510Y2007870D01*
X1343558Y2012797D01*
X1345488Y2018233D01*
X1346200Y2024583D01*
X1346200Y2035149D01*
X1316380Y2035149D01*
X1312468Y2035911D01*
X1309166Y2038096D01*
X1306982Y2041398D01*
X1306220Y2045309D01*
X1306220Y2072690D01*
X1306982Y2076551D01*
X1309166Y2079853D01*
X1312468Y2082088D01*
X1316380Y2082850D01*
X1346200Y2082850D01*
X1346200Y2093417D01*
X1345488Y2099716D01*
X1343558Y2105202D01*
X1340510Y2110079D01*
X1336395Y2114194D01*
X1331518Y2117293D01*
X1326032Y2119172D01*
X1319733Y2119884D01*
X1316278Y2119884D01*
X1312367Y2120646D01*
X1309065Y2122881D01*
X1306880Y2126183D01*
X1306118Y2130044D01*
X1305915Y2387244D01*
X1306525Y2390648D01*
X1308201Y2393645D01*
X1310741Y2395931D01*
X1420520Y2463444D01*
X1426006Y2467559D01*
X1431086Y2473198D01*
X1434846Y2479700D01*
X1437132Y2486812D01*
X1437995Y2494788D01*
X1437995Y2510790D01*
X1439062Y2515311D01*
X1445361Y2527909D01*
X1447241Y2530551D01*
X1449882Y2533192D01*
X1452981Y2538069D01*
X1454912Y2543556D01*
X1455623Y2549855D01*
X1455623Y2655925D01*
X1454912Y2662275D01*
X1452981Y2667711D01*
X1449882Y2672638D01*
X1445818Y2676702D01*
X1440891Y2679801D01*
X1435455Y2681681D01*
X1429105Y2682392D01*
X1377086Y2682392D01*
X1370736Y2681681D01*
X1365300Y2679801D01*
X1360982Y2677109D01*
X1357477Y2675737D01*
X1353718Y2675737D01*
X1350213Y2677109D01*
X1345895Y2679801D01*
X1340459Y2681681D01*
X1335430Y2682240D01*
X1331163Y2683764D01*
X1327962Y2686913D01*
X1326438Y2691180D01*
X1326946Y2695702D01*
X1329334Y2699512D01*
X1341831Y2712110D01*
X1347114Y2719070D01*
X1350873Y2726639D01*
X1353210Y2734767D01*
X1353566Y2738526D01*
X1355140Y2746959D01*
X1356817Y2750921D01*
X1360017Y2753868D01*
X1364183Y2755188D01*
X1368501Y2754680D01*
X1370736Y2753868D01*
X1377086Y2753156D01*
X1429105Y2753156D01*
X1435455Y2753868D01*
X1440891Y2755798D01*
X1445818Y2758897D01*
X1449882Y2762961D01*
X1452981Y2767888D01*
X1454912Y2773324D01*
X1455623Y2779674D01*
X1455623Y2885998D01*
X1455420Y2889402D01*
X1451610Y2924048D01*
X1452016Y2928213D01*
X1454150Y2931922D01*
X1457553Y2934411D01*
X1461668Y2935274D01*
X1481683Y2935325D01*
X1490319Y2936544D01*
X1498346Y2939237D01*
X1505712Y2943352D01*
X1512620Y2949092D01*
X1536852Y2973374D01*
X1542186Y2980436D01*
X1545945Y2988005D01*
X1548231Y2996133D01*
X1549095Y3005023D01*
X1549044Y3029712D01*
X1547825Y3038449D01*
X1545132Y3046476D01*
X1541018Y3053842D01*
X1535277Y3060750D01*
X1516888Y3079140D01*
X1514652Y3082442D01*
X1513890Y3086354D01*
X1514703Y3090265D01*
X1516938Y3093567D01*
X1536852Y3113328D01*
X1542186Y3120390D01*
X1545945Y3127959D01*
X1548231Y3136087D01*
X1549095Y3144977D01*
X1549044Y3169666D01*
X1547825Y3178403D01*
X1545132Y3186430D01*
X1541018Y3193796D01*
X1535277Y3200704D01*
X1510995Y3224936D01*
X1503934Y3230270D01*
X1496364Y3234029D01*
X1488135Y3236366D01*
X1481785Y3237128D01*
X1473149Y3237179D01*
X1469186Y3237992D01*
X1465884Y3240328D01*
X1463751Y3243732D01*
X1463090Y3247694D01*
X1464056Y3251657D01*
X1465986Y3255772D01*
X1467662Y3261055D01*
X1468272Y3263696D01*
X1468983Y3269437D01*
X1468983Y3331768D01*
X1468272Y3337509D01*
X1467662Y3340150D01*
X1465935Y3345637D01*
X1464868Y3348126D01*
X1462125Y3353206D01*
X1460601Y3355441D01*
X1457045Y3359861D01*
X1452016Y3364890D01*
X1449781Y3368192D01*
X1449019Y3372104D01*
X1449019Y3474516D01*
X1449781Y3478428D01*
X1451965Y3481730D01*
X1455267Y3483914D01*
X1459179Y3484676D01*
X1691284Y3484676D01*
X1695145Y3483914D01*
X1698447Y3481730D01*
X1786280Y3393897D01*
X1788464Y3390595D01*
X1789226Y3386734D01*
X1789226Y3263087D01*
X1790090Y3254197D01*
X1791055Y3250742D01*
X1791411Y3247999D01*
X1791411Y3177489D01*
X1792224Y3168954D01*
X1794408Y3161233D01*
X1798015Y3154019D01*
X1802892Y3147568D01*
X1808835Y3142132D01*
X1815693Y3137916D01*
X1823212Y3135020D01*
X1831136Y3133496D01*
X1839163Y3133496D01*
X1847088Y3135020D01*
X1854606Y3137916D01*
X1861566Y3142234D01*
X1865020Y3143554D01*
X1868779Y3143554D01*
X1872234Y3142234D01*
X1879193Y3137916D01*
X1886712Y3135020D01*
X1894636Y3133547D01*
X1902663Y3133547D01*
X1910588Y3135020D01*
X1918106Y3137916D01*
X1925066Y3142234D01*
X1928571Y3143605D01*
X1932279Y3143605D01*
X1935784Y3142234D01*
X1942693Y3137966D01*
X1946910Y3136341D01*
X1946910Y3199942D01*
X1944471Y3202228D01*
X1942896Y3205124D01*
X1942338Y3208426D01*
X1942338Y3247948D01*
X1942744Y3250742D01*
X1943709Y3254197D01*
X1944573Y3263087D01*
X1944573Y3291535D01*
X1945182Y3294989D01*
X1946910Y3298037D01*
X1946910Y3369614D01*
X1945182Y3372662D01*
X1944573Y3376117D01*
X1944522Y3437128D01*
X1943303Y3445865D01*
X1940610Y3453892D01*
X1936496Y3461258D01*
X1930755Y3468166D01*
X1758391Y3640480D01*
X1751330Y3645814D01*
X1743760Y3649573D01*
X1735632Y3651859D01*
X1726742Y3652723D01*
X1333804Y3652723D01*
X1330198Y3653383D01*
X1327048Y3655314D01*
X1324762Y3658209D01*
X1323695Y3661765D01*
X1324000Y3665423D01*
X1326032Y3673398D01*
X1326845Y3683000D01*
X1326032Y3692601D01*
X1323644Y3701948D01*
X1319631Y3710736D01*
X1314246Y3718712D01*
X1307592Y3725672D01*
X1299819Y3731412D01*
X1291183Y3735781D01*
X1281988Y3738575D01*
X1272387Y3739794D01*
X1262786Y3739387D01*
X1253337Y3737356D01*
X1244396Y3733800D01*
X1236167Y3728720D01*
X1228953Y3722319D01*
X1222857Y3714851D01*
X1218184Y3706418D01*
X1214628Y3696258D01*
X1213205Y3693566D01*
X1205788Y3683711D01*
X1083919Y3561791D01*
X1078585Y3554729D01*
X1074826Y3547160D01*
X1072489Y3539032D01*
X1071676Y3530142D01*
X1071727Y2766822D01*
X1072946Y2758084D01*
X1075639Y2750058D01*
X1079754Y2742692D01*
X1085443Y2735783D01*
X1096314Y2724962D01*
X1098499Y2721711D01*
X1099261Y2717800D01*
X1098499Y2713888D01*
X1096314Y2710637D01*
X1027023Y2641295D01*
X1021689Y2634234D01*
X1017930Y2626664D01*
X1015644Y2618536D01*
X1014780Y2609646D01*
X1014780Y2587396D01*
X1014272Y2584145D01*
X999286Y2539441D01*
X997407Y2536088D01*
X994460Y2533700D01*
X990853Y2532583D01*
X987044Y2532837D01*
X983640Y2534462D01*
X976731Y2541727D01*
X971803Y2544775D01*
X966368Y2546705D01*
X960018Y2547416D01*
X946962Y2547416D01*
X946962Y2505354D01*
X976934Y2505354D01*
X980490Y2504694D01*
X983640Y2502865D01*
X985875Y2500020D01*
X986993Y2496566D01*
X986840Y2492908D01*
X985672Y2487828D01*
X984808Y2476144D01*
X984808Y2457805D01*
X984046Y2453944D01*
X981811Y2450642D01*
X978509Y2448407D01*
X974648Y2447645D01*
X946962Y2447645D01*
X946962Y2405583D01*
X960018Y2405583D01*
X966368Y2406294D01*
X971296Y2408021D01*
X975106Y2408580D01*
X978814Y2407666D01*
X981964Y2405481D01*
X984046Y2402230D01*
X984808Y2398420D01*
X984758Y2345791D01*
X986028Y2334412D01*
X988974Y2323439D01*
X993546Y2313025D01*
X997966Y2305761D01*
X1001471Y2301189D01*
X1003046Y2298242D01*
X1003604Y2294991D01*
X1003604Y2222855D01*
X1004468Y2211171D01*
X1007008Y2200148D01*
X1011123Y2189581D01*
X1016812Y2179777D01*
X1023874Y2170887D01*
X1032205Y2163165D01*
X1041552Y2156764D01*
X1051763Y2151888D01*
X1062634Y2148535D01*
X1073810Y2146808D01*
X1085189Y2146808D01*
X1096365Y2148535D01*
X1107236Y2151888D01*
X1117447Y2156764D01*
X1126794Y2163165D01*
X1135126Y2170887D01*
X1142187Y2179777D01*
X1147876Y2189581D01*
X1151991Y2200148D01*
X1154531Y2211171D01*
X1155395Y2222855D01*
X1155344Y2332278D01*
X1154531Y2341118D01*
X1154125Y2343556D01*
X1151991Y2352192D01*
X1151229Y2354529D01*
X1147826Y2362708D01*
X1146708Y2364943D01*
X1142238Y2372360D01*
X1138783Y2376779D01*
X1137158Y2379726D01*
X1136599Y2383028D01*
X1136599Y2476144D01*
X1135735Y2487828D01*
X1133195Y2498852D01*
X1129080Y2509418D01*
X1126896Y2513888D01*
X1126490Y2516428D01*
X1126337Y2524048D01*
X1125118Y2529890D01*
X1107236Y2583789D01*
X1106728Y2587498D01*
X1107592Y2591104D01*
X1109675Y2594152D01*
X1143203Y2627680D01*
X1146505Y2629916D01*
X1150416Y2630678D01*
X1154277Y2629916D01*
X1157579Y2627680D01*
X1159814Y2624378D01*
X1160576Y2620518D01*
X1160576Y2549906D01*
X1161288Y2543556D01*
X1163167Y2538120D01*
X1168857Y2529890D01*
X1176121Y2515311D01*
X1177188Y2510790D01*
X1177188Y2483104D01*
X1178052Y2475128D01*
X1180338Y2468016D01*
X1184148Y2461412D01*
X1188008Y2456942D01*
X1191514Y2453436D01*
X1193698Y2450134D01*
X1194460Y2446223D01*
X1194460Y2130044D01*
X1193698Y2126183D01*
X1191514Y2122881D01*
X1188212Y2120646D01*
X1184300Y2119884D01*
X1180846Y2119884D01*
X1170330Y2118309D01*
X1166063Y2119223D01*
X1159764Y2119934D01*
X1140866Y2119934D01*
X1134567Y2119223D01*
X1130300Y2118360D01*
X1126032Y2119223D01*
X1119733Y2119934D01*
X1100836Y2119934D01*
X1094536Y2119223D01*
X1090218Y2118309D01*
X1086053Y2119172D01*
X1081633Y2119680D01*
X1081633Y2115566D01*
X1081227Y2112772D01*
X1078890Y2108250D01*
X1076096Y2105304D01*
X1072337Y2103729D01*
X1068273Y2103729D01*
X1064514Y2105304D01*
X1061669Y2108250D01*
X1059332Y2112721D01*
X1058926Y2115566D01*
X1058926Y2119680D01*
X1050340Y2118309D01*
X1046022Y2119223D01*
X1039723Y2119934D01*
X1020876Y2119934D01*
X1014526Y2119223D01*
X1010310Y2118360D01*
X1006043Y2119223D01*
X999744Y2119934D01*
X980846Y2119934D01*
X974547Y2119223D01*
X970229Y2118309D01*
X966063Y2119172D01*
X961644Y2119680D01*
X961644Y2115566D01*
X961237Y2112721D01*
X960069Y2110130D01*
X957732Y2106371D01*
X954684Y2103272D01*
X950620Y2101697D01*
X946302Y2102002D01*
X942492Y2104034D01*
X939850Y2107539D01*
X938936Y2111756D01*
X938936Y2119680D01*
X934567Y2119172D01*
X929081Y2117293D01*
X924204Y2114194D01*
X920089Y2110079D01*
X916990Y2105202D01*
X915111Y2099716D01*
X914400Y2093417D01*
X914400Y2082850D01*
X944219Y2082850D01*
X948131Y2082038D01*
X951433Y2079853D01*
X953617Y2076551D01*
X954379Y2072690D01*
X954379Y2045309D01*
X953617Y2041398D01*
X951433Y2038096D01*
X948131Y2035911D01*
X944219Y2035149D01*
X914400Y2035149D01*
X914400Y2024532D01*
X915111Y2018233D01*
X916990Y2012746D01*
X920089Y2007870D01*
X924204Y2003755D01*
X929081Y2000707D01*
X934567Y1998776D01*
X938936Y1998268D01*
X938936Y2006295D01*
X939850Y2010562D01*
X942492Y2014016D01*
X946302Y2016099D01*
X950620Y2016353D01*
X954684Y2014829D01*
X957732Y2011730D01*
X960069Y2007920D01*
X961237Y2005330D01*
X961644Y2002536D01*
X961644Y1998268D01*
X970381Y1999691D01*
X974547Y1998827D01*
G37*
G36*
X1414983Y2356916D02*
G01*
X1457045Y2356916D01*
X1457045Y2396490D01*
X1441450Y2396490D01*
X1435150Y2395778D01*
X1429664Y2393848D01*
X1424787Y2390800D01*
X1420672Y2386685D01*
X1417624Y2381808D01*
X1415694Y2376322D01*
X1414983Y2370023D01*
G37*
G36*
X1514754Y2356916D02*
G01*
X1556816Y2356916D01*
X1556816Y2370023D01*
X1556105Y2376322D01*
X1554175Y2381808D01*
X1551076Y2386685D01*
X1547012Y2390800D01*
X1542084Y2393848D01*
X1536649Y2395778D01*
X1530299Y2396490D01*
X1514754Y2396490D01*
G37*
G36*
X881176Y2405583D02*
G01*
X894283Y2405583D01*
X894283Y2447645D01*
X854710Y2447645D01*
X854710Y2432050D01*
X855421Y2425750D01*
X857300Y2420264D01*
X860399Y2415387D01*
X864514Y2411272D01*
X869391Y2408224D01*
X874877Y2406294D01*
G37*
G36*
X854710Y2505354D02*
G01*
X894283Y2505354D01*
X894283Y2547416D01*
X881176Y2547416D01*
X874877Y2546705D01*
X869391Y2544775D01*
X864514Y2541727D01*
X860399Y2537612D01*
X857300Y2532735D01*
X855421Y2527249D01*
X854710Y2520950D01*
G37*
G36*
X2661716Y2657754D02*
G01*
X2701290Y2657754D01*
X2701290Y2673299D01*
X2700578Y2679649D01*
X2698648Y2685084D01*
X2695600Y2690012D01*
X2691485Y2694076D01*
X2686608Y2697175D01*
X2681122Y2699105D01*
X2674823Y2699816D01*
X2661716Y2699816D01*
G37*
G36*
X1791462Y2770733D02*
G01*
X1819910Y2770733D01*
X1819910Y2832658D01*
X1815693Y2831033D01*
X1808835Y2826816D01*
X1802892Y2821381D01*
X1798015Y2814929D01*
X1794459Y2807716D01*
X1792224Y2799994D01*
X1791462Y2791510D01*
G37*
G36*
X2432050Y2848610D02*
G01*
X2447645Y2848610D01*
X2447645Y2888183D01*
X2405583Y2888183D01*
X2405583Y2875076D01*
X2406294Y2868777D01*
X2408224Y2863291D01*
X2411272Y2858414D01*
X2415387Y2854299D01*
X2420264Y2851200D01*
X2425750Y2849321D01*
G37*
G36*
X2505354Y2848610D02*
G01*
X2520950Y2848610D01*
X2527249Y2849321D01*
X2532735Y2851200D01*
X2537612Y2854299D01*
X2541727Y2858414D01*
X2544775Y2863291D01*
X2546705Y2868777D01*
X2547416Y2875076D01*
X2547416Y2888183D01*
X2505354Y2888183D01*
G37*
G36*
X2405583Y2940862D02*
G01*
X2447645Y2940862D01*
X2447645Y2978404D01*
X2448407Y2982315D01*
X2450642Y2985617D01*
X2453944Y2987802D01*
X2457805Y2988564D01*
X2495194Y2988564D01*
X2499055Y2987802D01*
X2502357Y2985617D01*
X2504592Y2982315D01*
X2505354Y2978404D01*
X2505354Y2940862D01*
X2547416Y2940862D01*
X2547416Y2953918D01*
X2546705Y2960268D01*
X2544775Y2965704D01*
X2541727Y2970631D01*
X2537612Y2974695D01*
X2535732Y2975914D01*
X2532786Y2978708D01*
X2531160Y2982468D01*
X2531160Y2986532D01*
X2532786Y2990291D01*
X2535732Y2993085D01*
X2537612Y2994304D01*
X2541727Y2998368D01*
X2544775Y3003296D01*
X2546705Y3008731D01*
X2547416Y3015081D01*
X2547416Y3093923D01*
X2546705Y3100222D01*
X2544775Y3105708D01*
X2541727Y3110585D01*
X2537612Y3114700D01*
X2532735Y3117799D01*
X2527249Y3119678D01*
X2520950Y3120390D01*
X2432050Y3120390D01*
X2425750Y3119678D01*
X2416556Y3116122D01*
X2413152Y3115919D01*
X2409901Y3116834D01*
X2407107Y3118815D01*
X2351887Y3174034D01*
X2349601Y3177489D01*
X2326233Y3237280D01*
X2325573Y3240938D01*
X2325573Y3262172D01*
X2324709Y3271062D01*
X2323744Y3274618D01*
X2323338Y3277412D01*
X2323338Y3322472D01*
X2322525Y3330956D01*
X2320340Y3338728D01*
X2316734Y3345942D01*
X2311908Y3352342D01*
X2305964Y3357778D01*
X2299106Y3361994D01*
X2291588Y3364941D01*
X2283663Y3366414D01*
X2275636Y3366414D01*
X2274062Y3366109D01*
X2269642Y3366262D01*
X2265730Y3368294D01*
X2263038Y3371799D01*
X2262073Y3376117D01*
X2262073Y3468979D01*
X2262733Y3472586D01*
X2264664Y3475786D01*
X2267661Y3478022D01*
X2271217Y3479088D01*
X2279396Y3479901D01*
X2285339Y3481120D01*
X2290622Y3483559D01*
X2295194Y3487115D01*
X2297480Y3489655D01*
X2347264Y3551123D01*
X2350719Y3556508D01*
X2352649Y3561943D01*
X2353360Y3567684D01*
X2352751Y3573424D01*
X2352040Y3575558D01*
X2351481Y3579571D01*
X2352598Y3583482D01*
X2355189Y3586683D01*
X2358796Y3588562D01*
X2362860Y3588918D01*
X2365044Y3588664D01*
X2370785Y3589223D01*
X2376271Y3591102D01*
X2381199Y3594150D01*
X2385720Y3598621D01*
X2393950Y3608781D01*
X2361285Y3635248D01*
X2337663Y3606088D01*
X2334615Y3603548D01*
X2330805Y3602380D01*
X2326843Y3602736D01*
X2323338Y3604564D01*
X2294331Y3628085D01*
X2291791Y3631133D01*
X2290572Y3634943D01*
X2290978Y3638854D01*
X2292807Y3642360D01*
X2316429Y3671570D01*
X2283764Y3698036D01*
X2275535Y3687876D01*
X2272080Y3682492D01*
X2270150Y3677056D01*
X2269439Y3671315D01*
X2270048Y3665575D01*
X2270760Y3663442D01*
X2271318Y3659428D01*
X2270201Y3655517D01*
X2267610Y3652316D01*
X2264003Y3650437D01*
X2259939Y3650081D01*
X2257755Y3650335D01*
X2252014Y3649726D01*
X2246528Y3647897D01*
X2241600Y3644849D01*
X2237079Y3640378D01*
X2222957Y3622954D01*
X2219756Y3620312D01*
X2215794Y3619195D01*
X2211679Y3619754D01*
X2208123Y3621938D01*
X2205736Y3625291D01*
X2204923Y3629355D01*
X2205024Y3639616D01*
X2206650Y3650538D01*
X2212644Y3664051D01*
X2215032Y3673398D01*
X2215896Y3683000D01*
X2215032Y3692601D01*
X2212644Y3701948D01*
X2208631Y3710736D01*
X2203246Y3718712D01*
X2196592Y3725672D01*
X2188819Y3731412D01*
X2180183Y3735781D01*
X2170988Y3738575D01*
X2161438Y3739845D01*
X2151786Y3739387D01*
X2142337Y3737356D01*
X2133396Y3733800D01*
X2125167Y3728720D01*
X2117953Y3722370D01*
X2111857Y3714851D01*
X2109216Y3710127D01*
X2106269Y3706825D01*
X2102205Y3705098D01*
X2097786Y3705250D01*
X2093874Y3707231D01*
X2091182Y3710736D01*
X2090216Y3715054D01*
X2090216Y3726637D01*
X2048154Y3726637D01*
X2048154Y3689096D01*
X2047392Y3685184D01*
X2045157Y3681882D01*
X2041855Y3679698D01*
X2037994Y3678936D01*
X2000605Y3678936D01*
X1996744Y3679698D01*
X1993442Y3681882D01*
X1991207Y3685184D01*
X1990445Y3689096D01*
X1990445Y3726637D01*
X1948383Y3726637D01*
X1948383Y3713581D01*
X1949094Y3707231D01*
X1951024Y3701796D01*
X1954072Y3696868D01*
X1958187Y3692804D01*
X1960067Y3691585D01*
X1963013Y3688791D01*
X1964588Y3685032D01*
X1964588Y3680968D01*
X1963013Y3677208D01*
X1960067Y3674414D01*
X1958187Y3673246D01*
X1954123Y3669131D01*
X1951024Y3664254D01*
X1949094Y3658768D01*
X1948383Y3652469D01*
X1948383Y3573576D01*
X1949094Y3567277D01*
X1951024Y3561791D01*
X1956104Y3554171D01*
X1978660Y3509010D01*
X1979726Y3504488D01*
X1979726Y3376117D01*
X1979117Y3372662D01*
X1977389Y3369614D01*
X1977389Y3298037D01*
X1979117Y3294989D01*
X1979726Y3291535D01*
X1979726Y3263087D01*
X1980590Y3254197D01*
X1981555Y3250742D01*
X1981962Y3247948D01*
X1981962Y3208426D01*
X1981403Y3205124D01*
X1979828Y3202228D01*
X1977389Y3199942D01*
X1977389Y3136341D01*
X1981606Y3137966D01*
X1988515Y3142234D01*
X1992020Y3143605D01*
X1995728Y3143605D01*
X1999234Y3142234D01*
X2006193Y3137916D01*
X2013712Y3135020D01*
X2021636Y3133547D01*
X2029663Y3133547D01*
X2037588Y3135020D01*
X2045106Y3137916D01*
X2052066Y3142234D01*
X2055520Y3143554D01*
X2059279Y3143554D01*
X2062734Y3142234D01*
X2069693Y3137916D01*
X2077212Y3135020D01*
X2085136Y3133547D01*
X2093163Y3133547D01*
X2101088Y3135020D01*
X2108606Y3137916D01*
X2115566Y3142234D01*
X2119020Y3143554D01*
X2122779Y3143554D01*
X2126234Y3142234D01*
X2133193Y3137916D01*
X2140712Y3135020D01*
X2148636Y3133547D01*
X2156663Y3133547D01*
X2164588Y3135020D01*
X2172106Y3137916D01*
X2179015Y3142234D01*
X2182520Y3143554D01*
X2186228Y3143554D01*
X2189734Y3142234D01*
X2196693Y3137916D01*
X2204212Y3135020D01*
X2212136Y3133496D01*
X2220163Y3133496D01*
X2228088Y3135020D01*
X2235606Y3137916D01*
X2242566Y3142234D01*
X2246071Y3143605D01*
X2249779Y3143605D01*
X2253742Y3141929D01*
X2255570Y3140506D01*
X2375204Y3020923D01*
X2382266Y3015589D01*
X2389936Y3011779D01*
X2393848Y3010560D01*
X2397201Y3008782D01*
X2414930Y2994609D01*
X2417267Y2993085D01*
X2420213Y2990291D01*
X2421839Y2986532D01*
X2421839Y2982468D01*
X2420213Y2978708D01*
X2417267Y2975914D01*
X2415387Y2974695D01*
X2411272Y2970631D01*
X2408224Y2965704D01*
X2406294Y2960268D01*
X2405583Y2953918D01*
G37*
G36*
X2427122Y3649726D02*
G01*
X2435352Y3659886D01*
X2438806Y3665270D01*
X2440736Y3670706D01*
X2441448Y3676446D01*
X2440838Y3682237D01*
X2438958Y3687673D01*
X2435910Y3692601D01*
X2431440Y3697173D01*
X2419350Y3706977D01*
X2394458Y3676192D01*
G37*
G36*
X2349601Y3712514D02*
G01*
X2374493Y3743248D01*
X2362403Y3753053D01*
X2357018Y3756507D01*
X2351582Y3758437D01*
X2345842Y3759149D01*
X2340102Y3758539D01*
X2334615Y3756660D01*
X2329688Y3753612D01*
X2325166Y3749141D01*
X2316937Y3738981D01*
G37*
G36*
X1948383Y3779316D02*
G01*
X1990445Y3779316D01*
X1990445Y3818890D01*
X1974850Y3818890D01*
X1968550Y3818178D01*
X1963064Y3816299D01*
X1958187Y3813200D01*
X1954072Y3809085D01*
X1951024Y3804208D01*
X1949094Y3798722D01*
X1948383Y3792423D01*
G37*
G36*
X2048154Y3779316D02*
G01*
X2090216Y3779316D01*
X2090216Y3792423D01*
X2089505Y3798722D01*
X2087575Y3804208D01*
X2084527Y3809085D01*
X2080412Y3813200D01*
X2075535Y3816299D01*
X2070049Y3818178D01*
X2063750Y3818890D01*
X2048154Y3818890D01*
G37*

%LPD*%
G36*
X1277366Y2460650D02*
G01*
X1273302Y2460853D01*
X1269644Y2462682D01*
X1267002Y2465781D01*
X1265783Y2469642D01*
X1265428Y2472791D01*
X1263142Y2479903D01*
X1259332Y2486507D01*
X1255471Y2490978D01*
X1251966Y2494483D01*
X1249781Y2497785D01*
X1249019Y2501696D01*
X1249019Y2510790D01*
X1250086Y2515311D01*
X1253947Y2523083D01*
X1256588Y2526385D01*
X1260297Y2528316D01*
X1264513Y2528620D01*
X1268476Y2527147D01*
X1270304Y2526030D01*
X1275740Y2524099D01*
X1282090Y2523388D01*
X1288440Y2523388D01*
X1288440Y2569768D01*
X1275740Y2569768D01*
X1271828Y2570530D01*
X1268577Y2572715D01*
X1266342Y2576017D01*
X1265580Y2579928D01*
X1265580Y2625902D01*
X1266342Y2629763D01*
X1268577Y2633065D01*
X1271828Y2635250D01*
X1275740Y2636062D01*
X1288440Y2636062D01*
X1288440Y2664256D01*
X1289304Y2668371D01*
X1291742Y2671775D01*
X1295400Y2673908D01*
X1301242Y2675839D01*
X1308608Y2679954D01*
X1311097Y2682036D01*
X1314450Y2683865D01*
X1318209Y2684322D01*
X1321917Y2683408D01*
X1324965Y2681173D01*
X1327048Y2677922D01*
X1327759Y2674213D01*
X1327759Y2636062D01*
X1340408Y2636062D01*
X1344320Y2635250D01*
X1347622Y2633065D01*
X1349806Y2629763D01*
X1350568Y2625902D01*
X1350568Y2579928D01*
X1349806Y2576017D01*
X1347622Y2572715D01*
X1344320Y2570530D01*
X1340408Y2569768D01*
X1327759Y2569768D01*
X1327759Y2523388D01*
X1334109Y2523388D01*
X1340459Y2524099D01*
X1346403Y2526182D01*
X1347978Y2526944D01*
X1352245Y2528011D01*
X1356563Y2527147D01*
X1360119Y2524556D01*
X1362202Y2520696D01*
X1362506Y2516327D01*
X1360932Y2512263D01*
X1357782Y2509215D01*
X1281226Y2462072D01*
G37*

%LPD*%
G36*
X2505100Y2230323D02*
G01*
X2501239Y2231085D01*
X2497937Y2233269D01*
X2495702Y2236571D01*
X2494940Y2240483D01*
X2494940Y2266137D01*
X2482240Y2266137D01*
X2478379Y2266899D01*
X2475077Y2269134D01*
X2472893Y2272436D01*
X2472080Y2276297D01*
X2472080Y2322271D01*
X2472893Y2326182D01*
X2475077Y2329484D01*
X2478379Y2331669D01*
X2482240Y2332431D01*
X2494940Y2332431D01*
X2494940Y2378811D01*
X2488590Y2378811D01*
X2482240Y2378100D01*
X2476804Y2376170D01*
X2472486Y2373477D01*
X2468727Y2372055D01*
X2464663Y2372207D01*
X2461006Y2373934D01*
X2459075Y2375408D01*
X2410968Y2404160D01*
X2409037Y2405684D01*
X2312568Y2502154D01*
X2310384Y2505456D01*
X2309622Y2509316D01*
X2310384Y2513228D01*
X2312568Y2516530D01*
X2315870Y2518714D01*
X2319782Y2519476D01*
X2389784Y2519476D01*
X2393645Y2518714D01*
X2396947Y2516530D01*
X2496108Y2417419D01*
X2503170Y2412085D01*
X2510739Y2408326D01*
X2518867Y2406040D01*
X2527757Y2405176D01*
X2551328Y2405176D01*
X2555494Y2404313D01*
X2558897Y2401824D01*
X2561031Y2398115D01*
X2561437Y2393899D01*
X2560624Y2386482D01*
X2559608Y2383028D01*
X2557373Y2380132D01*
X2554325Y2378151D01*
X2550769Y2377440D01*
X2546959Y2378100D01*
X2540609Y2378811D01*
X2534259Y2378811D01*
X2534259Y2332431D01*
X2546959Y2332431D01*
X2550820Y2331669D01*
X2554122Y2329484D01*
X2556357Y2326182D01*
X2557119Y2322271D01*
X2557119Y2276297D01*
X2556357Y2272436D01*
X2554122Y2269134D01*
X2550820Y2266899D01*
X2546959Y2266137D01*
X2534259Y2266137D01*
X2534259Y2240483D01*
X2533446Y2236571D01*
X2531262Y2233269D01*
X2527960Y2231085D01*
X2524099Y2230323D01*
G37*

%LPD*%
G36*
X2124100Y2230323D02*
G01*
X2120239Y2231085D01*
X2116937Y2233269D01*
X2114702Y2236571D01*
X2113940Y2240483D01*
X2113940Y2266137D01*
X2101240Y2266137D01*
X2097379Y2266899D01*
X2094077Y2269134D01*
X2091893Y2272436D01*
X2091080Y2276297D01*
X2091080Y2322271D01*
X2091893Y2326182D01*
X2094077Y2329484D01*
X2097379Y2331669D01*
X2101240Y2332431D01*
X2113940Y2332431D01*
X2113940Y2378811D01*
X2107590Y2378811D01*
X2101240Y2378100D01*
X2097735Y2376881D01*
X2093366Y2376322D01*
X2089150Y2377744D01*
X2085949Y2380742D01*
X2084324Y2384856D01*
X2083307Y2391410D01*
X2080564Y2399538D01*
X2076450Y2406904D01*
X2070709Y2413812D01*
X2008835Y2475687D01*
X2006650Y2478938D01*
X2005888Y2482850D01*
X2006650Y2486761D01*
X2008835Y2490012D01*
X2043887Y2525064D01*
X2047138Y2527249D01*
X2051050Y2528011D01*
X2054961Y2527249D01*
X2058212Y2525064D01*
X2177897Y2405380D01*
X2180285Y2401570D01*
X2180793Y2397099D01*
X2179624Y2386482D01*
X2178608Y2383028D01*
X2176373Y2380132D01*
X2173325Y2378151D01*
X2169769Y2377440D01*
X2165959Y2378100D01*
X2159609Y2378811D01*
X2153259Y2378811D01*
X2153259Y2332431D01*
X2165959Y2332431D01*
X2169820Y2331669D01*
X2173122Y2329484D01*
X2175357Y2326182D01*
X2176119Y2322271D01*
X2176119Y2276297D01*
X2175357Y2272436D01*
X2173122Y2269134D01*
X2169820Y2266899D01*
X2165959Y2266137D01*
X2153259Y2266137D01*
X2153259Y2240483D01*
X2152446Y2236571D01*
X2150262Y2233269D01*
X2146960Y2231085D01*
X2143099Y2230323D01*
G37*

%LPD*%
G36*
X1743100Y2230323D02*
G01*
X1739239Y2231085D01*
X1735937Y2233269D01*
X1733702Y2236571D01*
X1732940Y2240483D01*
X1732940Y2266137D01*
X1720240Y2266137D01*
X1716379Y2266899D01*
X1713077Y2269134D01*
X1710893Y2272385D01*
X1710080Y2276297D01*
X1710080Y2322271D01*
X1710893Y2326182D01*
X1713077Y2329484D01*
X1716379Y2331669D01*
X1720240Y2332431D01*
X1732940Y2332431D01*
X1732940Y2387701D01*
X1733702Y2391613D01*
X1735937Y2394915D01*
X1784350Y2443327D01*
X1787652Y2445512D01*
X1791512Y2446274D01*
X1795424Y2445512D01*
X1798726Y2443327D01*
X1800910Y2440025D01*
X1801672Y2436114D01*
X1801622Y2413762D01*
X1798624Y2386482D01*
X1797608Y2383028D01*
X1795373Y2380132D01*
X1792325Y2378151D01*
X1788769Y2377440D01*
X1784959Y2378100D01*
X1778609Y2378811D01*
X1772259Y2378811D01*
X1772259Y2332431D01*
X1784959Y2332431D01*
X1788820Y2331669D01*
X1792122Y2329484D01*
X1794357Y2326182D01*
X1795119Y2322271D01*
X1795119Y2276297D01*
X1794357Y2272385D01*
X1792122Y2269134D01*
X1788820Y2266899D01*
X1784959Y2266137D01*
X1772259Y2266137D01*
X1772259Y2240483D01*
X1771497Y2236571D01*
X1769262Y2233269D01*
X1765960Y2231085D01*
X1762099Y2230323D01*
G37*

%LPD*%
G36*
X1156716Y1727149D02*
G01*
X1152804Y1727911D01*
X1149502Y1730095D01*
X1147318Y1733397D01*
X1146556Y1737309D01*
X1146556Y1764741D01*
X1147318Y1768602D01*
X1149502Y1771904D01*
X1152804Y1774139D01*
X1156716Y1774901D01*
X1184249Y1774850D01*
X1188110Y1774037D01*
X1191412Y1771853D01*
X1193596Y1768551D01*
X1194409Y1764690D01*
X1194409Y1737309D01*
X1193596Y1733397D01*
X1191412Y1730095D01*
X1188110Y1727911D01*
X1184249Y1727149D01*
G37*

%LPD*%
G36*
X1401064Y350926D02*
G01*
X1397000Y351485D01*
X1393494Y353669D01*
X1391158Y357022D01*
X1390345Y361035D01*
X1390345Y436168D01*
X1390497Y438099D01*
X1392529Y448462D01*
X1394053Y452221D01*
X1395831Y454863D01*
X1399844Y463651D01*
X1402232Y472998D01*
X1403096Y482600D01*
X1402232Y492201D01*
X1399844Y501548D01*
X1395831Y510336D01*
X1390446Y518312D01*
X1383792Y525272D01*
X1376019Y531012D01*
X1367383Y535381D01*
X1358188Y538175D01*
X1348638Y539445D01*
X1338986Y538988D01*
X1329537Y536956D01*
X1320596Y533400D01*
X1312367Y528320D01*
X1305153Y521970D01*
X1299057Y514451D01*
X1296111Y511200D01*
X1292047Y509473D01*
X1287627Y509676D01*
X1283716Y511708D01*
X1281074Y515162D01*
X1280109Y519480D01*
X1280058Y803910D01*
X1278839Y812647D01*
X1276146Y820674D01*
X1271981Y828141D01*
X1268018Y833170D01*
X1261313Y839927D01*
X1259128Y843229D01*
X1258366Y847090D01*
X1259128Y850950D01*
X1261313Y854252D01*
X1267917Y860958D01*
X1273200Y867918D01*
X1276959Y875487D01*
X1279245Y883615D01*
X1280109Y892505D01*
X1280058Y943864D01*
X1278839Y952601D01*
X1276146Y960628D01*
X1271981Y968095D01*
X1268018Y973124D01*
X1261313Y979881D01*
X1259128Y983183D01*
X1258366Y987044D01*
X1259128Y990904D01*
X1261313Y994206D01*
X1267917Y1000912D01*
X1273200Y1007871D01*
X1276959Y1015441D01*
X1279245Y1023569D01*
X1280109Y1032459D01*
X1280109Y1299870D01*
X1280871Y1303731D01*
X1283055Y1307033D01*
X1895652Y1919630D01*
X1898954Y1921814D01*
X1902815Y1922576D01*
X2008378Y1922627D01*
X2017115Y1923846D01*
X2025142Y1926539D01*
X2032507Y1930654D01*
X2039416Y1936394D01*
X2072284Y1969312D01*
X2077618Y1976374D01*
X2081428Y1984044D01*
X2082088Y1986280D01*
X2084070Y1989836D01*
X2087219Y1992325D01*
X2091131Y1993392D01*
X2095195Y1992833D01*
X2101240Y1990699D01*
X2107590Y1989988D01*
X2159609Y1989988D01*
X2167026Y1990852D01*
X2171141Y1990445D01*
X2174748Y1988413D01*
X2177288Y1985162D01*
X2178304Y1981098D01*
X2177592Y1977034D01*
X2175306Y1973529D01*
X1769719Y1567891D01*
X1764385Y1560830D01*
X1759051Y1549958D01*
X1756511Y1547520D01*
X1753260Y1546098D01*
X1749704Y1545844D01*
X1742744Y1546656D01*
X1712163Y1546656D01*
X1712163Y1498346D01*
X1747316Y1498346D01*
X1751228Y1497584D01*
X1754530Y1495348D01*
X1756714Y1492046D01*
X1757476Y1488186D01*
X1757476Y1438300D01*
X1756714Y1434388D01*
X1754530Y1431086D01*
X1751228Y1428902D01*
X1747316Y1428140D01*
X1712163Y1428140D01*
X1712163Y1379829D01*
X1742744Y1379829D01*
X1746199Y1380236D01*
X1750415Y1379778D01*
X1754124Y1377696D01*
X1756613Y1374292D01*
X1757476Y1370126D01*
X1757476Y1331264D01*
X1756714Y1327404D01*
X1754530Y1324102D01*
X1503019Y1071575D01*
X1497685Y1064514D01*
X1493926Y1056944D01*
X1491640Y1048816D01*
X1490776Y1039926D01*
X1490827Y966368D01*
X1492046Y957630D01*
X1494840Y949147D01*
X1505407Y925118D01*
X1508709Y919530D01*
X1510690Y916940D01*
X1512316Y913739D01*
X1512773Y910183D01*
X1511960Y906678D01*
X1509928Y903681D01*
X1503019Y896518D01*
X1497685Y889508D01*
X1493926Y881938D01*
X1491640Y873810D01*
X1490776Y864920D01*
X1490827Y813562D01*
X1492046Y804824D01*
X1494739Y796798D01*
X1498904Y789330D01*
X1502867Y784301D01*
X1509572Y777544D01*
X1511757Y774242D01*
X1512519Y770382D01*
X1511757Y766521D01*
X1509572Y763219D01*
X1502968Y756513D01*
X1497685Y749554D01*
X1493926Y741984D01*
X1491640Y733856D01*
X1490776Y724966D01*
X1490827Y673608D01*
X1492046Y664870D01*
X1494739Y656844D01*
X1498904Y649376D01*
X1502867Y644347D01*
X1509572Y637590D01*
X1511757Y634288D01*
X1512519Y630428D01*
X1511757Y626567D01*
X1509572Y623265D01*
X1502968Y616559D01*
X1497685Y609600D01*
X1493926Y602030D01*
X1491640Y593902D01*
X1490776Y585012D01*
X1490827Y533654D01*
X1492046Y524916D01*
X1494739Y516890D01*
X1498854Y509524D01*
X1504594Y502615D01*
X1514652Y492658D01*
X1517192Y489407D01*
X1518208Y485444D01*
X1517599Y481431D01*
X1515465Y477977D01*
X1421333Y378307D01*
X1415846Y371297D01*
X1411935Y363778D01*
X1410208Y358089D01*
X1408226Y354482D01*
X1405026Y351942D01*
G37*

%LPC*%
G36*
X1593850Y1379829D02*
G01*
X1624431Y1379829D01*
X1624431Y1428140D01*
X1567383Y1428140D01*
X1567383Y1406296D01*
X1568094Y1399997D01*
X1570024Y1394510D01*
X1573072Y1389634D01*
X1577187Y1385519D01*
X1582064Y1382471D01*
X1587550Y1380540D01*
G37*
G36*
X1567383Y1498346D02*
G01*
X1624431Y1498346D01*
X1624431Y1546656D01*
X1593850Y1546656D01*
X1587550Y1545945D01*
X1582064Y1544015D01*
X1577187Y1540916D01*
X1573072Y1536852D01*
X1570024Y1531924D01*
X1568094Y1526489D01*
X1567383Y1520190D01*
G37*

%LPD*%
G36*
X879348Y1786382D02*
G01*
X828548Y1710182D01*
X828548Y1646682D01*
X879348Y1583182D01*
X1082548Y1583182D01*
X1107948Y1608582D01*
X1120648Y1633982D01*
X1120648Y1786382D01*
G37*
G36*
X1747062Y2402230D02*
G01*
X1738477Y2389022D01*
X1766722Y2360777D01*
X1779930Y2369362D01*
G37*
G36*
X2139137Y2414930D02*
G01*
X2106269Y2382062D01*
X2119477Y2373477D01*
X2147722Y2401722D01*
G37*
G36*
X2456637Y2440330D02*
G01*
X2423769Y2407462D01*
X2441397Y2394407D01*
X2469692Y2422702D01*
G37*
G36*
X1462633Y2443276D02*
G01*
X1465884Y2421585D01*
X1505915Y2421585D01*
X1509166Y2443276D01*
G37*
G36*
X1465884Y2506014D02*
G01*
X1462633Y2484323D01*
X1509166Y2484323D01*
X1505915Y2506014D01*
G37*
G36*
X1465884Y1947214D02*
G01*
X1462633Y1925523D01*
X1509166Y1925523D01*
X1505915Y1947214D01*
G37*
G36*
X1322120Y463092D02*
G01*
X1324406Y441299D01*
X1364437Y439572D01*
X1368552Y461111D01*
G37*
G36*
X2619756Y2799588D02*
G01*
X2591460Y2771394D01*
X2604465Y2753715D01*
X2637383Y2786532D01*
G37*
G36*
X2658719Y2735122D02*
G01*
X2612186Y2735021D01*
X2615488Y2713329D01*
X2655519Y2713431D01*
G37*
G36*
X2382062Y3875430D02*
G01*
X2369007Y3857802D01*
X2397302Y3829507D01*
X2414930Y3842562D01*
G37*
G36*
X2003653Y3860952D02*
G01*
X1999284Y3839565D01*
X2039315Y3826916D01*
X2048002Y3846931D01*
G37*
G36*
X1881733Y3852976D02*
G01*
X1884984Y3831285D01*
X1925015Y3831285D01*
X1928266Y3852976D01*
G37*
G36*
X2135733Y3662476D02*
G01*
X2138984Y3640785D01*
X2179015Y3640785D01*
X2182266Y3662476D01*
G37*
G36*
X973023Y1928266D02*
G01*
X973023Y1881733D01*
X994714Y1894992D01*
X994714Y1915007D01*
G37*
G36*
X1198930Y2153513D02*
G01*
X1159103Y2129434D01*
X1180236Y2116836D01*
X1200251Y2128926D01*
G37*
G36*
X919937Y2160930D02*
G01*
X887069Y2128062D01*
X911758Y2122068D01*
X925931Y2136241D01*
G37*
G36*
X1315262Y2135530D02*
G01*
X1309268Y2110841D01*
X1323441Y2096668D01*
X1348130Y2102662D01*
G37*
G36*
X1165758Y1560931D02*
G01*
X1141069Y1554937D01*
X1173937Y1522069D01*
X1179931Y1546758D01*
G37*
G36*
X1292758Y1687931D02*
G01*
X1268069Y1681937D01*
X1300937Y1649069D01*
X1306931Y1673758D01*
G37*
G36*
X1175562Y1906930D02*
G01*
X1169568Y1882241D01*
X1183741Y1868068D01*
X1208430Y1874062D01*
G37*
G36*
X1302562Y1906930D02*
G01*
X1296568Y1882241D01*
X1310741Y1868068D01*
X1335430Y1874062D01*
G37*
G36*
X1298092Y2545283D02*
G01*
X1279398Y2528468D01*
X1323746Y2514447D01*
X1318107Y2538984D01*
G37*
G36*
X1100988Y297027D02*
G01*
X1104188Y275336D01*
X1144219Y275234D01*
X1147521Y296926D01*
G37*
G36*
X1239062Y3684930D02*
G01*
X1226007Y3667302D01*
X1254302Y3639007D01*
X1271930Y3652062D01*
G37*
G36*
X1188110Y2549296D02*
G01*
X1203096Y2519273D01*
X1223111Y2519273D01*
X1238097Y2549296D01*
G37*
G36*
X1283106Y2549296D02*
G01*
X1298092Y2519273D01*
X1318107Y2519273D01*
X1333093Y2549296D01*
G37*
G36*
X1377086Y2549296D02*
G01*
X1392072Y2519273D01*
X1412087Y2519273D01*
X1427073Y2549296D01*
G37*
G36*
X1383080Y2946298D02*
G01*
X1376476Y2886303D01*
X1429715Y2886303D01*
X1423111Y2946298D01*
G37*
G36*
X1281480Y2779115D02*
G01*
X1288084Y2743200D01*
X1328115Y2743200D01*
X1334719Y2779115D01*
G37*
G36*
X1193088Y2946298D02*
G01*
X1186484Y2886303D01*
X1239672Y2886303D01*
X1233119Y2946298D01*
G37*
G36*
X1827580Y2412898D02*
G01*
X1820976Y2352903D01*
X1874215Y2352903D01*
X1867611Y2412898D01*
G37*
G36*
X1732584Y2374900D02*
G01*
X1725980Y2352903D01*
X1779219Y2352903D01*
X1772615Y2374900D01*
G37*
G36*
X1637588Y2381504D02*
G01*
X1630984Y2352903D01*
X1684172Y2352903D01*
X1677619Y2381504D01*
G37*
G36*
X1630984Y2015896D02*
G01*
X1637588Y1955901D01*
X1677619Y1955901D01*
X1684172Y2015896D01*
G37*
G36*
X1732584Y2165096D02*
G01*
X1725980Y2123084D01*
X1779219Y2123084D01*
X1772615Y2165096D01*
G37*
G36*
X1820976Y2039823D02*
G01*
X1784400Y1990496D01*
X1823415Y1972919D01*
X1874215Y2015896D01*
G37*
G36*
X2208580Y2412898D02*
G01*
X2201976Y2352903D01*
X2255215Y2352903D01*
X2248611Y2412898D01*
G37*
G36*
X2113584Y2387600D02*
G01*
X2106980Y2352903D01*
X2160168Y2352903D01*
X2153615Y2387600D01*
G37*
G36*
X2018588Y2380996D02*
G01*
X2011984Y2352903D01*
X2065223Y2352903D01*
X2058619Y2380996D01*
G37*
G36*
X2011984Y2015896D02*
G01*
X2018588Y2000504D01*
X2058619Y2000504D01*
X2065223Y2015896D01*
G37*
G36*
X2113584Y2183079D02*
G01*
X2106980Y2123084D01*
X2160168Y2123084D01*
X2153615Y2183079D01*
G37*
G36*
X2201976Y2015896D02*
G01*
X2208580Y1961896D01*
X2248611Y1961896D01*
X2255215Y2015896D01*
G37*
G36*
X2589580Y2412898D02*
G01*
X2582976Y2352903D01*
X2636215Y2352903D01*
X2629611Y2412898D01*
G37*
G36*
X2488234Y2404160D02*
G01*
X2440482Y2395321D01*
X2487980Y2343099D01*
X2541168Y2352903D01*
G37*
G36*
X2393848Y2384247D02*
G01*
X2367330Y2354173D01*
X2392984Y2292502D01*
X2446223Y2352903D01*
G37*
G36*
X2392984Y2015896D02*
G01*
X2399588Y1975104D01*
X2439619Y1975104D01*
X2446223Y2015896D01*
G37*
G36*
X2494584Y2183079D02*
G01*
X2487980Y2123084D01*
X2541168Y2123084D01*
X2534615Y2183079D01*
G37*
G36*
X2582976Y2015896D02*
G01*
X2589580Y1974596D01*
X2629611Y1974596D01*
X2636215Y2015896D01*
G37*
G36*
X2431491Y3094482D02*
G01*
X2406396Y3074619D01*
X2406396Y3034588D01*
X2431491Y3014522D01*
G37*
G36*
X2521508Y2931668D02*
G01*
X2439466Y2874518D01*
X2511247Y2851404D01*
X2544622Y2874670D01*
G37*
G36*
X1999284Y3853027D02*
G01*
X1974291Y3792982D01*
X2064308Y3792982D01*
X2039315Y3853027D01*
G37*
G36*
X1975662Y3573018D02*
G01*
X2005634Y3512972D01*
X2045665Y3512972D01*
X2064308Y3573018D01*
G37*
G36*
X1040688Y2581503D02*
G01*
X1020622Y2521508D01*
X1100582Y2521508D01*
X1080719Y2581503D01*
G37*
G36*
X1465884Y2430576D02*
G01*
X1440891Y2370582D01*
X1530908Y2370582D01*
X1505915Y2430576D01*
G37*
G36*
X1440891Y2150618D02*
G01*
X1465884Y2090623D01*
X1505915Y2090623D01*
X1530908Y2150618D01*
G37*
G36*
X1530908Y2230628D02*
G01*
X1530908Y2150618D01*
X1590903Y2164384D01*
X1590903Y2204415D01*
G37*
G36*
X1654352Y327710D02*
G01*
X1644294Y267716D01*
X1704289Y267716D01*
X1694383Y327710D01*
G37*
G36*
X1544370Y327710D02*
G01*
X1534312Y267716D01*
X1594307Y267716D01*
X1584401Y327710D01*
G37*
G36*
X1434388Y327710D02*
G01*
X1424279Y267716D01*
X1484325Y267716D01*
X1474419Y327710D01*
G37*
G36*
X1324406Y327710D02*
G01*
X1314297Y267716D01*
X1374292Y267716D01*
X1364437Y327710D01*
G37*
G36*
X1214170Y327710D02*
G01*
X1204315Y267716D01*
X1264310Y267716D01*
X1254201Y327710D01*
G37*
G36*
X1104188Y317500D02*
G01*
X1094333Y267766D01*
X1154328Y267766D01*
X1144219Y317500D01*
G37*
G36*
X994206Y327710D02*
G01*
X984300Y267716D01*
X1044295Y267716D01*
X1034237Y327710D01*
G37*
G36*
X884224Y327710D02*
G01*
X874318Y267716D01*
X934313Y267716D01*
X924255Y327710D01*
G37*
G36*
X2615488Y2733903D02*
G01*
X2595372Y2673908D01*
X2675382Y2673908D01*
X2655519Y2733903D01*
G37*
G36*
X2455367Y2583891D02*
G01*
X2475280Y2572004D01*
X2515311Y2572004D01*
X2535377Y2583891D01*
G37*
G36*
X2335326Y3760927D02*
G01*
X2320848Y3702659D01*
X2415590Y3676650D01*
X2375357Y3749954D01*
G37*
G36*
X2207209Y3562350D02*
G01*
X2202027Y3527958D01*
X2231796Y3501186D01*
X2277160Y3505708D01*
G37*
G36*
X2297430Y3239820D02*
G01*
X2274824Y3159912D01*
X2310942Y3121812D01*
X2328265Y3161030D01*
G37*
G36*
X2297430Y2723540D02*
G01*
X2275687Y2628696D01*
X2297277Y2614777D01*
X2318258Y2650337D01*
G37*
G36*
X1817370Y2703525D02*
G01*
X1786788Y2627833D01*
X1804924Y2589428D01*
X1840382Y2629052D01*
G37*
D10*
X1168400Y2717800D02*
G01*
X1117597Y2768602D01*
X1117597Y3530592D01*
X1269997Y3682992D01*
X2159000Y3683000D02*
G01*
X2159000Y3571052D01*
X2216150Y3513902D01*
X2355341Y3673855D02*
G01*
X2355341Y3815842D01*
X2413000Y3873500D01*
X2019300Y3753104D02*
G01*
X2019300Y3860800D01*
X2032000Y3873500D01*
X2216150Y3262629D02*
G01*
X2216150Y3513836D01*
X2267458Y3565144D01*
X2476500Y2914395D02*
G01*
X2635504Y2755645D01*
X2635504Y2755645D02*
G01*
X2635504Y2628900D01*
X2635504Y2628900D01*
X2279650Y3262629D02*
G01*
X2279650Y3181350D01*
X2406395Y3054604D01*
X2476500Y3054604D01*
X1485900Y2190495D02*
G01*
X1485900Y1905000D01*
X1485900Y2330704D02*
G01*
X1485900Y2463800D01*
X1771904Y2184400D02*
G01*
X1485900Y2184400D01*
X1485900Y2190495D01*
X2514600Y2069592D02*
G01*
X2514600Y2184400D01*
X1898650Y2731770D02*
G01*
X1898650Y2622550D01*
X1657604Y2381504D01*
X1657604Y2299207D01*
X1962150Y2731770D02*
G01*
X1962150Y2597150D01*
X1847595Y2482595D01*
X1847595Y2299207D01*
X2038604Y2299207D02*
G01*
X2038604Y2299207D01*
X2038604Y2299207D01*
X2038604Y2380995D01*
X1955800Y2463800D01*
X1955800Y2501900D01*
X2025650Y2571750D01*
X2025650Y2731770D01*
X2089150Y2731770D02*
G01*
X2089150Y2559050D01*
X2228595Y2419604D01*
X2228595Y2299207D01*
D11*
X950213Y2058923D02*
G01*
X950213Y2097786D01*
X889000Y2159000D01*
X1190244Y2058923D02*
G01*
X1190244Y2137155D01*
X1168400Y2159000D01*
X1310386Y2058923D02*
G01*
X1310386Y2097786D01*
X1346200Y2133600D01*
X1308100Y2602992D02*
G01*
X1308100Y2514600D01*
X1295400Y2501900D01*
D12*
X1060704Y2348484D02*
G01*
X1060704Y2476500D01*
X1079500Y2222500D02*
G01*
X1079500Y2329624D01*
X1060602Y2348522D01*
D10*
X1346200Y482600D02*
G01*
X1344421Y480821D01*
X1344421Y187705D01*
X1124204Y187705D02*
G01*
X1124204Y317500D01*
X1835150Y2731770D02*
G01*
X1835150Y2647950D01*
X1778000Y2590800D01*
X1562100Y2590800D01*
X1485900Y2514600D01*
X1485900Y2463800D01*
X1060704Y2476500D02*
G01*
X1060704Y2610104D01*
X1168400Y2717800D01*
X1282700Y2717800D01*
X1308100Y2743200D01*
X1308100Y2832607D01*
X2133600Y2069592D02*
G01*
X2133600Y2184400D01*
X2019300Y3612895D02*
G01*
X2025650Y3606545D01*
X2025650Y3262629D01*
X1752600Y2299207D02*
G01*
X1752600Y2374900D01*
X1778000Y2400300D01*
X2133600Y2299207D02*
G01*
X2133600Y2387600D01*
X2108200Y2413000D01*
X2152650Y2731770D02*
G01*
X2152650Y2597150D01*
X2419604Y2330195D01*
X2419604Y2299207D01*
X2609595Y2299207D02*
G01*
X2609595Y2432304D01*
X2590800Y2451100D01*
X2527300Y2451100D01*
X2413000Y2565400D01*
X2273300Y2565400D01*
X2216150Y2622550D01*
X2216150Y2731770D01*
X2495295Y2628900D02*
G01*
X2495295Y2572004D01*
X2552700Y2514600D01*
X2641600Y2514600D01*
X2692400Y2463800D01*
X2692400Y2235200D01*
X2641600Y2184400D01*
X1771904Y2184400D01*
X1752600Y2165095D01*
X1752600Y2069592D01*
X2514600Y2299207D02*
G01*
X2514600Y2349500D01*
X2425700Y2438400D01*
X2279650Y2731770D02*
G01*
X2279650Y2660650D01*
X2311400Y2628900D01*
X2495295Y2628900D01*
X1962150Y3262629D02*
G01*
X1962150Y3498850D01*
X1905000Y3556000D01*
X1905000Y3873500D01*
D11*
X1190294Y1750999D02*
G01*
X1190294Y1743405D01*
X1270254Y1751076D02*
G01*
X1270254Y1841754D01*
X1333500Y1905000D01*
X1310386Y1751076D02*
G01*
X1310386Y1691386D01*
X1270000Y1651000D01*
X1270254Y2058923D02*
G01*
X1270000Y2413000D01*
X1402079Y2494279D01*
X1402079Y2602992D01*
X1230376Y2058923D02*
G01*
X1230376Y2465323D01*
X1213104Y2482595D01*
X1213104Y2602992D01*
X1070355Y2058923D02*
G01*
X1070355Y1972055D01*
X1003300Y1905000D01*
X952500Y1905000D01*
D10*
X1835150Y3262629D02*
G01*
X1835150Y3409950D01*
X1714500Y3530600D01*
X1435100Y3530600D01*
X1403095Y3498595D01*
X1403095Y3342386D01*
X1409700Y3335528D01*
X1416304Y3335528D01*
X1423162Y3328923D01*
X1423162Y3272281D01*
X1416304Y3265678D01*
X1409700Y3265678D01*
X1403095Y3258820D01*
X1403095Y3214623D01*
X1426463Y3191255D01*
X1479804Y3191255D01*
X1503171Y3167887D01*
X1503171Y3144520D01*
X1479804Y3121405D01*
X1426463Y3121405D01*
X1403095Y3098037D01*
X1403095Y3074670D01*
X1426463Y3051302D01*
X1479804Y3051302D01*
X1503171Y3027934D01*
X1503171Y3004565D01*
X1479804Y2981197D01*
X1426463Y2981197D01*
X1403095Y2958084D01*
X1403095Y2832607D01*
X1213104Y2832607D02*
G01*
X1213104Y3492500D01*
X1270000Y3556000D01*
X1320800Y3606800D01*
X1727200Y3606800D01*
X1898650Y3435350D01*
X1898650Y3262629D01*
X1657604Y2069592D02*
G01*
X1657604Y1917700D01*
X904239Y1164336D01*
X904239Y1118362D01*
X894334Y1108455D01*
X884173Y1108455D01*
X874268Y1098550D01*
X874268Y1048512D01*
X884173Y1038352D01*
X894334Y1038352D01*
X904239Y1028445D01*
X904239Y978407D01*
X894334Y968502D01*
X884173Y968502D01*
X874268Y958342D01*
X874268Y908304D01*
X884173Y898397D01*
X894334Y898397D01*
X904239Y888492D01*
X904239Y838454D01*
X894334Y828547D01*
X884173Y828547D01*
X874268Y818387D01*
X874268Y768350D01*
X884173Y758444D01*
X894334Y758444D01*
X904239Y748537D01*
X904239Y698500D01*
X894334Y688339D01*
X884173Y688339D01*
X874268Y678434D01*
X874268Y628395D01*
X884173Y618489D01*
X894334Y618489D01*
X904239Y608329D01*
X904239Y558545D01*
X894334Y548386D01*
X884173Y548386D01*
X874268Y538479D01*
X874268Y488442D01*
X884173Y478536D01*
X894334Y478536D01*
X904239Y468376D01*
X904239Y187705D01*
X1847595Y2069592D02*
G01*
X1847595Y2025395D01*
X1014221Y1192021D01*
X1014221Y1082039D01*
X1024128Y1072134D01*
X1034287Y1072134D01*
X1044194Y1062228D01*
X1044194Y1012189D01*
X1034287Y1002284D01*
X1024128Y1002284D01*
X1014221Y992123D01*
X1014221Y942086D01*
X1024128Y932179D01*
X1034287Y932179D01*
X1044194Y922020D01*
X1044194Y872236D01*
X1034287Y862076D01*
X1024128Y862076D01*
X1014221Y852170D01*
X1014221Y802131D01*
X1024128Y792226D01*
X1034287Y792226D01*
X1044194Y782065D01*
X1044194Y732028D01*
X1034287Y722121D01*
X1024128Y722121D01*
X1014221Y712215D01*
X1014221Y662178D01*
X1024128Y652271D01*
X1034287Y652271D01*
X1044194Y642112D01*
X1044194Y592073D01*
X1034287Y582168D01*
X1024128Y582168D01*
X1014221Y572262D01*
X1014221Y187705D01*
X2038604Y2069592D02*
G01*
X2038604Y2000504D01*
X2006600Y1968500D01*
X1879600Y1968500D01*
X1234186Y1323086D01*
X1234186Y1032002D01*
X1224279Y1022095D01*
X1214120Y1022095D01*
X1204213Y1012189D01*
X1204213Y962152D01*
X1214120Y951992D01*
X1224279Y951992D01*
X1234186Y942086D01*
X1234186Y892047D01*
X1224279Y882142D01*
X1214120Y882142D01*
X1204213Y871981D01*
X1204213Y821944D01*
X1214120Y812037D01*
X1224279Y812037D01*
X1234186Y802131D01*
X1234186Y187705D01*
X1564386Y187705D02*
G01*
X1564386Y332486D01*
X1879600Y647700D01*
X1879600Y688594D01*
X1872995Y695197D01*
X1866392Y695197D01*
X1859534Y701802D01*
X1859534Y758444D01*
X1866392Y765302D01*
X1872995Y765302D01*
X1879600Y771905D01*
X1879600Y828547D01*
X1872995Y835152D01*
X1866392Y835152D01*
X1859534Y841755D01*
X1859534Y898397D01*
X1866392Y905255D01*
X1872995Y905255D01*
X1879600Y911860D01*
X1879600Y968502D01*
X1872995Y975105D01*
X1866392Y975105D01*
X1859534Y981963D01*
X1859534Y1038605D01*
X1866392Y1045210D01*
X1872995Y1045210D01*
X1879600Y1051813D01*
X1879600Y1524000D01*
X2260600Y1905000D01*
X2349500Y1905000D01*
X2419604Y1975104D01*
X2419604Y2069592D01*
X1454404Y187705D02*
G01*
X1454404Y346455D01*
X1566671Y465328D01*
X1566671Y515365D01*
X1556765Y525526D01*
X1546605Y525526D01*
X1536700Y535431D01*
X1536700Y585470D01*
X1546605Y595376D01*
X1556765Y595376D01*
X1566671Y605281D01*
X1566671Y655320D01*
X1556765Y665479D01*
X1546605Y665479D01*
X1536700Y675386D01*
X1536700Y725423D01*
X1546605Y735329D01*
X1556765Y735329D01*
X1566671Y745489D01*
X1566671Y795528D01*
X1556765Y805434D01*
X1546605Y805434D01*
X1536700Y815339D01*
X1536700Y865378D01*
X1546605Y875537D01*
X1556765Y875537D01*
X1566671Y885444D01*
X1566671Y935481D01*
X1556765Y945387D01*
X1546605Y945387D01*
X1536700Y967994D01*
X1536700Y1040384D01*
X1803400Y1308100D01*
X1803400Y1536700D01*
X2228595Y1961895D01*
X2228595Y2069592D01*
X1674368Y187705D02*
G01*
X1674368Y328168D01*
X1955800Y609600D01*
X1955800Y1511300D01*
X2286000Y1841500D01*
X2476500Y1841500D01*
X2609595Y1974595D01*
X2609595Y2069592D01*
D11*
X1190244Y1751076D02*
G01*
X1190244Y1571244D01*
X1143000Y1524000D01*
X1150365Y1751076D02*
G01*
X1150365Y1848865D01*
X1206500Y1905000D01*
D13*
G01*
X1213104Y2602890D03*
G01*
X1308100Y2602890D03*
G01*
X1403095Y2602890D03*
G01*
X1403095Y2832684D03*
G01*
X1308100Y2832684D03*
G01*
X1213104Y2832684D03*
G01*
X1847595Y2299309D03*
G01*
X1752600Y2299309D03*
G01*
X1657604Y2299309D03*
G01*
X1657604Y2069490D03*
G01*
X1752600Y2069490D03*
G01*
X1847595Y2069515D03*
G01*
X2228595Y2299309D03*
G01*
X2133600Y2299309D03*
G01*
X2038604Y2299309D03*
G01*
X2038604Y2069490D03*
G01*
X2133600Y2069490D03*
G01*
X2228595Y2069515D03*
G01*
X2609595Y2299309D03*
G01*
X2514600Y2299309D03*
G01*
X2419604Y2299309D03*
G01*
X2419604Y2069490D03*
G01*
X2514600Y2069490D03*
G01*
X2609595Y2069515D03*
D14*
G01*
X2279650Y3249980D03*
D15*
G01*
X2216150Y3249955D03*
G01*
X2152650Y3249955D03*
G01*
X2089150Y3249955D03*
G01*
X2025650Y3249955D03*
D14*
G01*
X1962150Y3249980D03*
D15*
G01*
X1898650Y3249955D03*
G01*
X1835150Y3249955D03*
G01*
X2279650Y2719019D03*
G01*
X2216150Y2719019D03*
D14*
G01*
X2152650Y2719019D03*
G01*
X2089150Y2719019D03*
G01*
X2025650Y2719019D03*
G01*
X1962150Y2719019D03*
G01*
X1898650Y2719019D03*
G01*
X1835150Y2719019D03*
D17*
G01*
X2476500Y3054502D03*
G01*
X2476500Y2914497D03*
G01*
X2019300Y3753002D03*
G01*
X2019300Y3612997D03*
D18*
G01*
X920597Y2476500D03*
G01*
X1060602Y2476500D03*
D17*
G01*
X1485900Y2330602D03*
G01*
X1485900Y2190597D03*
D19*
G01*
X1674291Y187705D03*
G01*
X1564309Y187705D03*
G01*
X1454302Y187705D03*
G01*
X1344295Y187705D03*
G01*
X1234287Y187705D03*
G01*
X1124305Y187731D03*
G01*
X1014298Y187705D03*
G01*
X904290Y187705D03*
D20*
G01*
X669797Y235762D03*
D21*
G01*
X2098802Y250748D03*
D20*
G01*
X2098802Y1383741D03*
D22*
G01*
X1668297Y1463243D03*
G01*
X890295Y1463243D03*
D23*
G01*
X710311Y1350746D03*
D24*
G01*
X710311Y450748D03*
D18*
G01*
X2635402Y2628900D03*
G01*
X2495397Y2628900D03*
D25*
G01*
X2355452Y3673900D03*
G01*
X2267351Y3565093D03*
D26*
G01*
X1310309Y2059000D03*
G01*
X1310309Y1750999D03*
G01*
X1270304Y2059025D03*
G01*
X1270304Y1751025D03*
G01*
X1230299Y2059025D03*
G01*
X1230299Y1750999D03*
G01*
X1190294Y2059000D03*
G01*
X1190294Y1750999D03*
G01*
X1150289Y2059025D03*
G01*
X1150289Y1751025D03*
G01*
X1110284Y2059025D03*
G01*
X1110284Y1751025D03*
G01*
X1070305Y2059000D03*
G01*
X1070305Y1751025D03*
G01*
X1030300Y2059025D03*
G01*
X1030300Y1751025D03*
G01*
X990295Y2059025D03*
G01*
X990295Y1751025D03*
G01*
X950290Y2059000D03*
G01*
X950290Y1751025D03*
D27*
G01*
X2514600Y241300D03*
G01*
X266700Y241300D03*
D28*
G01*
X1778000Y2400300D03*
G01*
X2108200Y2413000D03*
G01*
X2425700Y2438400D03*
G01*
X1485900Y2463800D03*
G01*
X1485900Y1905000D03*
G01*
X1346200Y482600D03*
G01*
X2635402Y2755595D03*
G01*
X2667000Y2857500D03*
G01*
X2667000Y2984500D03*
G01*
X2667000Y3111500D03*
G01*
X2667000Y3238500D03*
G01*
X2667000Y3365500D03*
G01*
X2667000Y3492500D03*
G01*
X2667000Y3619500D03*
G01*
X2667000Y3746500D03*
G01*
X2667000Y3873500D03*
G01*
X2540000Y3873500D03*
G01*
X2413000Y3873500D03*
G01*
X2286000Y3873500D03*
G01*
X2159000Y3873500D03*
G01*
X2032000Y3873500D03*
G01*
X1905000Y3873500D03*
G01*
X1714500Y3873500D03*
G01*
X1587500Y3873500D03*
G01*
X1333500Y3873500D03*
G01*
X1206500Y3873500D03*
G01*
X1079500Y3873500D03*
G01*
X1016000Y3810000D03*
G01*
X889000Y3810000D03*
G01*
X952500Y3873500D03*
G01*
X889000Y3683000D03*
G01*
X889000Y3556000D03*
G01*
X952500Y3746500D03*
G01*
X2159000Y3683000D03*
G01*
X889000Y1714500D03*
G01*
X889000Y1651000D03*
G01*
X952500Y1651000D03*
G01*
X1016000Y1651000D03*
G01*
X1079500Y1651000D03*
G01*
X1079500Y2222500D03*
G01*
X889000Y3429000D03*
G01*
X889000Y3302000D03*
G01*
X889000Y3175000D03*
G01*
X889000Y3048000D03*
G01*
X889000Y2921000D03*
G01*
X889000Y2794000D03*
G01*
X889000Y2667000D03*
G01*
X127000Y1587500D03*
G01*
X203200Y1651000D03*
G01*
X279400Y1714500D03*
G01*
X355600Y1778000D03*
G01*
X431800Y1841500D03*
G01*
X508000Y1905000D03*
G01*
X584200Y1968500D03*
G01*
X952500Y1905000D03*
G01*
X1168400Y2159000D03*
G01*
X889000Y2159000D03*
G01*
X1346200Y2133600D03*
G01*
X1143000Y1524000D03*
G01*
X1270000Y1651000D03*
G01*
X1206500Y1905000D03*
G01*
X1333500Y1905000D03*
G01*
X2667000Y1905000D03*
G01*
X2667000Y1778000D03*
G01*
X2667000Y1651000D03*
G01*
X2667000Y1524000D03*
G01*
X2667000Y1397000D03*
G01*
X2667000Y1079500D03*
G01*
X2667000Y1206500D03*
G01*
X2603500Y1143000D03*
G01*
X2540000Y1079500D03*
G01*
X2603500Y1333500D03*
G01*
X2540000Y1397000D03*
G01*
X2603500Y1460500D03*
G01*
X2476500Y1460500D03*
G01*
X2476500Y1333500D03*
G01*
X127000Y1460500D03*
G01*
X127000Y1333500D03*
G01*
X127000Y1206500D03*
G01*
X127000Y1079500D03*
G01*
X190500Y1143000D03*
G01*
X190500Y1270000D03*
G01*
X190500Y1397000D03*
G01*
X254000Y1460500D03*
G01*
X254000Y1333500D03*
G01*
X254000Y1206500D03*
G01*
X254000Y1079500D03*
G01*
X2222500Y127000D03*
G01*
X2222500Y254000D03*
G01*
X2222500Y381000D03*
G01*
X2222500Y508000D03*
G01*
X2222500Y635000D03*
G01*
X2286000Y698500D03*
G01*
X1295400Y2501900D03*
G01*
X1060602Y2348509D03*
G01*
X1124305Y317500D03*
G01*
X1689100Y1562100D03*
G01*
X1460500Y3873500D03*
G01*
X127000Y571500D03*
G01*
X190500Y635000D03*
G01*
X254000Y571500D03*
G01*
X317500Y635000D03*
G01*
X381000Y571500D03*
G01*
X444500Y635000D03*
G01*
X508000Y698500D03*
G01*
X444500Y825500D03*
G01*
X508000Y889000D03*
G01*
X444500Y1016000D03*
G01*
X508000Y1079500D03*
G01*
X444500Y1143000D03*
G01*
X1270000Y3683000D03*
M02*
