G04 Layer: TopSilkscreenLayer*
G04 EasyEDA v6.5.54, 2026-02-14 17:59:59*
G04 2bbe276c55c74596aa95547dd797203b,b56bf7277742442884ecbff68b5c164c,10*
G04 Gerber Generator version 0.2*
G04 Scale: 100 percent, Rotated: No, Reflected: No *
G04 Dimensions in millimeters *
G04 leading zeros omitted , absolute positions ,4 integer and 5 decimal *
%FSLAX45Y45*%
%MOMM*%

%ADD10C,0.0500*%
%ADD11C,0.1524*%
%ADD12C,0.2540*%
%ADD13C,0.3000*%
%ADD14C,0.0154*%

%LPD*%
D10*
X1066551Y3543289D02*
G01*
X1018799Y3543289D01*
X1066551Y3543289D02*
G01*
X1066551Y3522715D01*
X1064265Y3516111D01*
X1061979Y3513825D01*
X1057407Y3511539D01*
X1050549Y3511539D01*
X1045977Y3513825D01*
X1043691Y3516111D01*
X1041405Y3522715D01*
X1041405Y3543289D01*
X1050549Y3485123D02*
G01*
X1048263Y3489695D01*
X1043691Y3494267D01*
X1036833Y3496553D01*
X1032261Y3496553D01*
X1025657Y3494267D01*
X1021085Y3489695D01*
X1018799Y3485123D01*
X1018799Y3478265D01*
X1021085Y3473693D01*
X1025657Y3469121D01*
X1032261Y3466835D01*
X1036833Y3466835D01*
X1043691Y3469121D01*
X1048263Y3473693D01*
X1050549Y3478265D01*
X1050549Y3485123D01*
X1066551Y3451849D02*
G01*
X1018799Y3451849D01*
X1050549Y3434577D02*
G01*
X1018799Y3421115D01*
X1050549Y3407399D02*
G01*
X1018799Y3421115D01*
X1009655Y3425687D01*
X1005083Y3430005D01*
X1002797Y3434577D01*
X1002797Y3436863D01*
X1050549Y3392413D02*
G01*
X1002797Y3392413D01*
X1043691Y3392413D02*
G01*
X1048263Y3387841D01*
X1050549Y3383269D01*
X1050549Y3376411D01*
X1048263Y3371839D01*
X1043691Y3367267D01*
X1036833Y3365235D01*
X1032261Y3365235D01*
X1025657Y3367267D01*
X1021085Y3371839D01*
X1018799Y3376411D01*
X1018799Y3383269D01*
X1021085Y3387841D01*
X1025657Y3392413D01*
X1066551Y3349995D02*
G01*
X1018799Y3349995D01*
X1041405Y3349995D02*
G01*
X1048263Y3343391D01*
X1050549Y3338819D01*
X1050549Y3331961D01*
X1048263Y3327389D01*
X1041405Y3325103D01*
X1018799Y3325103D01*
X1036833Y3310117D02*
G01*
X1036833Y3282939D01*
X1041405Y3282939D01*
X1045977Y3285225D01*
X1048263Y3287257D01*
X1050549Y3291829D01*
X1050549Y3298687D01*
X1048263Y3303259D01*
X1043691Y3307831D01*
X1036833Y3310117D01*
X1032261Y3310117D01*
X1025657Y3307831D01*
X1021085Y3303259D01*
X1018799Y3298687D01*
X1018799Y3291829D01*
X1021085Y3287257D01*
X1025657Y3282939D01*
X1066551Y3267953D02*
G01*
X1064265Y3265667D01*
X1066551Y3263381D01*
X1068837Y3265667D01*
X1066551Y3267953D01*
X1050549Y3265667D02*
G01*
X1018799Y3265667D01*
X1066551Y3220963D02*
G01*
X1018799Y3220963D01*
X1043691Y3220963D02*
G01*
X1048263Y3225535D01*
X1050549Y3230107D01*
X1050549Y3236965D01*
X1048263Y3241537D01*
X1043691Y3246109D01*
X1036833Y3248395D01*
X1032261Y3248395D01*
X1025657Y3246109D01*
X1021085Y3241537D01*
X1018799Y3236965D01*
X1018799Y3230107D01*
X1021085Y3225535D01*
X1025657Y3220963D01*
X1036833Y3205977D02*
G01*
X1036833Y3178799D01*
X1041405Y3178799D01*
X1045977Y3181085D01*
X1048263Y3183371D01*
X1050549Y3187943D01*
X1050549Y3194547D01*
X1048263Y3199119D01*
X1043691Y3203691D01*
X1036833Y3205977D01*
X1032261Y3205977D01*
X1025657Y3203691D01*
X1021085Y3199119D01*
X1018799Y3194547D01*
X1018799Y3187943D01*
X1021085Y3183371D01*
X1025657Y3178799D01*
X1043691Y3138667D02*
G01*
X1048263Y3140953D01*
X1050549Y3147811D01*
X1050549Y3154669D01*
X1048263Y3161527D01*
X1043691Y3163813D01*
X1039119Y3161527D01*
X1036833Y3156955D01*
X1034547Y3145525D01*
X1032261Y3140953D01*
X1027689Y3138667D01*
X1025657Y3138667D01*
X1021085Y3140953D01*
X1018799Y3147811D01*
X1018799Y3154669D01*
X1021085Y3161527D01*
X1025657Y3163813D01*
X1050549Y3088629D02*
G01*
X1018799Y3088629D01*
X1036833Y3088629D02*
G01*
X1043691Y3086597D01*
X1048263Y3082025D01*
X1050549Y3077453D01*
X1050549Y3070595D01*
X1036833Y3055609D02*
G01*
X1036833Y3028177D01*
X1041405Y3028177D01*
X1045977Y3030463D01*
X1048263Y3032749D01*
X1050549Y3037321D01*
X1050549Y3044179D01*
X1048263Y3048751D01*
X1043691Y3053323D01*
X1036833Y3055609D01*
X1032261Y3055609D01*
X1025657Y3053323D01*
X1021085Y3048751D01*
X1018799Y3044179D01*
X1018799Y3037321D01*
X1021085Y3032749D01*
X1025657Y3028177D01*
X1050549Y3013191D02*
G01*
X1018799Y2999729D01*
X1050549Y2986013D02*
G01*
X1018799Y2999729D01*
X1029975Y2968741D02*
G01*
X1027689Y2971027D01*
X1025657Y2968741D01*
X1027689Y2966455D01*
X1029975Y2968741D01*
X1066551Y2924291D02*
G01*
X1066551Y2946897D01*
X1045977Y2949183D01*
X1048263Y2946897D01*
X1050549Y2940039D01*
X1050549Y2933181D01*
X1048263Y2926577D01*
X1043691Y2922005D01*
X1036833Y2919719D01*
X1032261Y2919719D01*
X1025657Y2922005D01*
X1021085Y2926577D01*
X1018799Y2933181D01*
X1018799Y2940039D01*
X1021085Y2946897D01*
X1023371Y2949183D01*
X1027689Y2951469D01*
X801878Y1638045D02*
G01*
X779271Y1638045D01*
X776986Y1617471D01*
X779271Y1619757D01*
X786129Y1622044D01*
X792987Y1622044D01*
X799592Y1619757D01*
X804163Y1615186D01*
X806450Y1608328D01*
X806450Y1603755D01*
X804163Y1597152D01*
X799592Y1592579D01*
X792987Y1590294D01*
X786129Y1590294D01*
X779271Y1592579D01*
X776986Y1594865D01*
X774700Y1599437D01*
X821436Y1622044D02*
G01*
X835152Y1590294D01*
X848868Y1622044D02*
G01*
X835152Y1590294D01*
X1005078Y2679445D02*
G01*
X982471Y2679445D01*
X980186Y2658871D01*
X982471Y2661157D01*
X989329Y2663444D01*
X996187Y2663444D01*
X1002792Y2661157D01*
X1007363Y2656586D01*
X1009650Y2649728D01*
X1009650Y2645155D01*
X1007363Y2638552D01*
X1002792Y2633979D01*
X996187Y2631694D01*
X989329Y2631694D01*
X982471Y2633979D01*
X980186Y2636265D01*
X977900Y2640837D01*
X1024636Y2663444D02*
G01*
X1038352Y2631694D01*
X1052068Y2663444D02*
G01*
X1038352Y2631694D01*
X2097277Y3441445D02*
G01*
X2074672Y3441445D01*
X2072386Y3420871D01*
X2074672Y3423157D01*
X2081529Y3425444D01*
X2088388Y3425444D01*
X2094991Y3423157D01*
X2099563Y3418586D01*
X2101850Y3411728D01*
X2101850Y3407155D01*
X2099563Y3400552D01*
X2094991Y3395979D01*
X2088388Y3393694D01*
X2081529Y3393694D01*
X2074672Y3395979D01*
X2072386Y3398265D01*
X2070100Y3402837D01*
X2116836Y3425444D02*
G01*
X2130552Y3393694D01*
X2144268Y3425444D02*
G01*
X2130552Y3393694D01*
X2205481Y3425444D02*
G01*
X2200909Y3423157D01*
X2196338Y3418586D01*
X2194306Y3411728D01*
X2194306Y3407155D01*
X2196338Y3400552D01*
X2200909Y3395979D01*
X2205481Y3393694D01*
X2212340Y3393694D01*
X2216911Y3395979D01*
X2221484Y3400552D01*
X2223770Y3407155D01*
X2223770Y3411728D01*
X2221484Y3418586D01*
X2216911Y3423157D01*
X2212340Y3425444D01*
X2205481Y3425444D01*
X2238756Y3425444D02*
G01*
X2238756Y3393694D01*
X2238756Y3416300D02*
G01*
X2245613Y3423157D01*
X2250186Y3425444D01*
X2257043Y3425444D01*
X2261361Y3423157D01*
X2263647Y3416300D01*
X2263647Y3393694D01*
X2313686Y3425444D02*
G01*
X2313686Y3377692D01*
X2313686Y3418586D02*
G01*
X2318258Y3423157D01*
X2322829Y3425444D01*
X2329688Y3425444D01*
X2334259Y3423157D01*
X2338831Y3418586D01*
X2341118Y3411728D01*
X2341118Y3407155D01*
X2338831Y3400552D01*
X2334259Y3395979D01*
X2329688Y3393694D01*
X2322829Y3393694D01*
X2318258Y3395979D01*
X2313686Y3400552D01*
X2356104Y3441445D02*
G01*
X2358390Y3439160D01*
X2360675Y3441445D01*
X2358390Y3443731D01*
X2356104Y3441445D01*
X2358390Y3425444D02*
G01*
X2358390Y3393694D01*
X2375661Y3425444D02*
G01*
X2375661Y3393694D01*
X2375661Y3416300D02*
G01*
X2382265Y3423157D01*
X2386838Y3425444D01*
X2393695Y3425444D01*
X2398268Y3423157D01*
X2400554Y3416300D01*
X2400554Y3393694D01*
X2450591Y3432302D02*
G01*
X2455163Y3434587D01*
X2462022Y3441445D01*
X2462022Y3393694D01*
X2490470Y3441445D02*
G01*
X2483611Y3439160D01*
X2479293Y3432302D01*
X2477008Y3420871D01*
X2477008Y3414013D01*
X2479293Y3402837D01*
X2483611Y3395979D01*
X2490470Y3393694D01*
X2495041Y3393694D01*
X2501900Y3395979D01*
X2506472Y3402837D01*
X2508758Y3414013D01*
X2508758Y3420871D01*
X2506472Y3432302D01*
X2501900Y3439160D01*
X2495041Y3441445D01*
X2490470Y3441445D01*
X1299971Y88645D02*
G01*
X1324863Y88645D01*
X1311402Y70357D01*
X1318005Y70357D01*
X1322578Y68071D01*
X1324863Y65786D01*
X1327150Y58928D01*
X1327150Y54355D01*
X1324863Y47752D01*
X1320292Y43179D01*
X1313687Y40894D01*
X1306829Y40894D01*
X1299971Y43179D01*
X1297686Y45465D01*
X1295400Y50037D01*
X1344421Y52070D02*
G01*
X1342136Y50037D01*
X1344421Y47752D01*
X1346707Y50037D01*
X1344421Y52070D01*
X1366265Y88645D02*
G01*
X1391412Y88645D01*
X1377695Y70357D01*
X1384554Y70357D01*
X1389126Y68071D01*
X1391412Y65786D01*
X1393697Y58928D01*
X1393697Y54355D01*
X1391412Y47752D01*
X1386839Y43179D01*
X1379981Y40894D01*
X1373123Y40894D01*
X1366265Y43179D01*
X1363979Y45465D01*
X1361694Y50037D01*
X1408684Y72644D02*
G01*
X1422145Y40894D01*
X1435862Y72644D02*
G01*
X1422145Y40894D01*
X2328672Y2742945D02*
G01*
X2353563Y2742945D01*
X2340102Y2724657D01*
X2346706Y2724657D01*
X2351277Y2722371D01*
X2353563Y2720086D01*
X2355850Y2713228D01*
X2355850Y2708655D01*
X2353563Y2702052D01*
X2348991Y2697479D01*
X2342388Y2695194D01*
X2335529Y2695194D01*
X2328672Y2697479D01*
X2326386Y2699765D01*
X2324100Y2704337D01*
X2373122Y2706370D02*
G01*
X2370836Y2704337D01*
X2373122Y2702052D01*
X2375408Y2704337D01*
X2373122Y2706370D01*
X2394965Y2742945D02*
G01*
X2420111Y2742945D01*
X2406395Y2724657D01*
X2413254Y2724657D01*
X2417825Y2722371D01*
X2420111Y2720086D01*
X2422397Y2713228D01*
X2422397Y2708655D01*
X2420111Y2702052D01*
X2415540Y2697479D01*
X2408681Y2695194D01*
X2401824Y2695194D01*
X2394965Y2697479D01*
X2392679Y2699765D01*
X2390393Y2704337D01*
X2437384Y2726944D02*
G01*
X2450845Y2695194D01*
X2464561Y2726944D02*
G01*
X2450845Y2695194D01*
D11*
X1601205Y2781287D02*
G01*
X1492239Y2781287D01*
X1601205Y2781287D02*
G01*
X1601205Y2744965D01*
X1596125Y2729217D01*
X1585711Y2719057D01*
X1575297Y2713723D01*
X1559549Y2708643D01*
X1533641Y2708643D01*
X1518147Y2713723D01*
X1507733Y2719057D01*
X1497319Y2729217D01*
X1492239Y2744965D01*
X1492239Y2781287D01*
X1580377Y2674353D02*
G01*
X1585711Y2663939D01*
X1601205Y2648191D01*
X1492239Y2648191D01*
X1841497Y1891273D02*
G01*
X1841497Y2000239D01*
X1841497Y1891273D02*
G01*
X1805175Y1891273D01*
X1789429Y1896353D01*
X1779262Y1906767D01*
X1773933Y1917181D01*
X1768855Y1932929D01*
X1768855Y1958837D01*
X1773933Y1974331D01*
X1779262Y1984745D01*
X1789429Y1995159D01*
X1805175Y2000239D01*
X1841497Y2000239D01*
X1729231Y1917181D02*
G01*
X1729231Y1912101D01*
X1724149Y1901687D01*
X1718815Y1896353D01*
X1708398Y1891273D01*
X1687829Y1891273D01*
X1677415Y1896353D01*
X1672081Y1901687D01*
X1666999Y1912101D01*
X1666999Y1922515D01*
X1672081Y1932929D01*
X1682490Y1948423D01*
X1734565Y2000239D01*
X1661665Y2000239D01*
X2209789Y1891273D02*
G01*
X2209789Y2000239D01*
X2209789Y1891273D02*
G01*
X2173467Y1891273D01*
X2157719Y1896353D01*
X2147559Y1906767D01*
X2142225Y1917181D01*
X2137145Y1932929D01*
X2137145Y1958837D01*
X2142225Y1974331D01*
X2147559Y1984745D01*
X2157719Y1995159D01*
X2173467Y2000239D01*
X2209789Y2000239D01*
X2092441Y1891273D02*
G01*
X2035291Y1891273D01*
X2066279Y1932929D01*
X2050785Y1932929D01*
X2040371Y1938009D01*
X2035291Y1943089D01*
X2029957Y1958837D01*
X2029957Y1969251D01*
X2035291Y1984745D01*
X2045705Y1995159D01*
X2061199Y2000239D01*
X2076693Y2000239D01*
X2092441Y1995159D01*
X2097521Y1990079D01*
X2102855Y1979665D01*
X2603489Y1891273D02*
G01*
X2603489Y2000239D01*
X2603489Y1891273D02*
G01*
X2567167Y1891273D01*
X2551419Y1896353D01*
X2541259Y1906767D01*
X2535925Y1917181D01*
X2530845Y1932929D01*
X2530845Y1958837D01*
X2535925Y1974331D01*
X2541259Y1984745D01*
X2551419Y1995159D01*
X2567167Y2000239D01*
X2603489Y2000239D01*
X2444485Y1891273D02*
G01*
X2496555Y1963917D01*
X2418577Y1963917D01*
X2444485Y1891273D02*
G01*
X2444485Y2000239D01*
X1779013Y3035292D02*
G01*
X1701035Y3035292D01*
X1685538Y3030204D01*
X1675127Y3019800D01*
X1670044Y3004045D01*
X1670044Y2993623D01*
X1675127Y2978142D01*
X1685538Y2967720D01*
X1701035Y2962650D01*
X1779013Y2962650D01*
X1758185Y2928353D02*
G01*
X1763519Y2917944D01*
X1779013Y2902193D01*
X1670044Y2902193D01*
X2515097Y3224011D02*
G01*
X2525511Y3229345D01*
X2535925Y3239759D01*
X2541005Y3249919D01*
X2541005Y3270747D01*
X2535925Y3281161D01*
X2525511Y3291575D01*
X2515097Y3296909D01*
X2499349Y3301989D01*
X2473441Y3301989D01*
X2457947Y3296909D01*
X2447533Y3291575D01*
X2437119Y3281161D01*
X2432039Y3270747D01*
X2432039Y3249919D01*
X2437119Y3239759D01*
X2447533Y3229345D01*
X2457947Y3224011D01*
X2520177Y3189721D02*
G01*
X2525511Y3179307D01*
X2541005Y3163813D01*
X2432039Y3163813D01*
X1836077Y3657892D02*
G01*
X1825663Y3652558D01*
X1815249Y3642144D01*
X1810169Y3631984D01*
X1810169Y3611156D01*
X1815249Y3600742D01*
X1825663Y3590328D01*
X1836077Y3584994D01*
X1851825Y3579914D01*
X1877733Y3579914D01*
X1893227Y3584994D01*
X1903641Y3590328D01*
X1914055Y3600742D01*
X1919135Y3611156D01*
X1919135Y3631984D01*
X1914055Y3642144D01*
X1903641Y3652558D01*
X1893227Y3657892D01*
X1836077Y3697262D02*
G01*
X1830997Y3697262D01*
X1820583Y3702596D01*
X1815249Y3707676D01*
X1810169Y3718090D01*
X1810169Y3738918D01*
X1815249Y3749332D01*
X1820583Y3754412D01*
X1830997Y3759746D01*
X1841411Y3759746D01*
X1851825Y3754412D01*
X1867319Y3743998D01*
X1919135Y3692182D01*
X1919135Y3764826D01*
X890778Y2337307D02*
G01*
X885444Y2347721D01*
X875029Y2358136D01*
X864870Y2363215D01*
X844042Y2363215D01*
X833628Y2358136D01*
X823213Y2347721D01*
X817879Y2337307D01*
X812800Y2321560D01*
X812800Y2295652D01*
X817879Y2280157D01*
X823213Y2269744D01*
X833628Y2259329D01*
X844042Y2254250D01*
X864870Y2254250D01*
X875029Y2259329D01*
X885444Y2269744D01*
X890778Y2280157D01*
X935481Y2363215D02*
G01*
X992631Y2363215D01*
X961389Y2321560D01*
X976884Y2321560D01*
X987297Y2316479D01*
X992631Y2311400D01*
X997712Y2295652D01*
X997712Y2285237D01*
X992631Y2269744D01*
X982218Y2259329D01*
X966470Y2254250D01*
X950976Y2254250D01*
X935481Y2259329D01*
X930147Y2264410D01*
X925068Y2274823D01*
X1301529Y2244300D02*
G01*
X1291115Y2238966D01*
X1280701Y2228552D01*
X1275621Y2218392D01*
X1275621Y2197564D01*
X1280701Y2187150D01*
X1291115Y2176736D01*
X1301529Y2171402D01*
X1317277Y2166322D01*
X1343185Y2166322D01*
X1358679Y2171402D01*
X1369093Y2176736D01*
X1379507Y2187150D01*
X1384587Y2197564D01*
X1384587Y2218392D01*
X1379507Y2228552D01*
X1369093Y2238966D01*
X1358679Y2244300D01*
X1275621Y2330406D02*
G01*
X1348265Y2278590D01*
X1348265Y2356568D01*
X1275621Y2330406D02*
G01*
X1384587Y2330406D01*
X1880872Y1639318D02*
G01*
X1880872Y1556260D01*
X1875538Y1540512D01*
X1870458Y1535432D01*
X1860044Y1530352D01*
X1849630Y1530352D01*
X1839216Y1535432D01*
X1833882Y1540512D01*
X1828802Y1556260D01*
X1828802Y1566674D01*
X1920242Y1613410D02*
G01*
X1920242Y1618490D01*
X1925322Y1628904D01*
X1930656Y1634238D01*
X1941070Y1639318D01*
X1961898Y1639318D01*
X1972312Y1634238D01*
X1977392Y1628904D01*
X1982472Y1618490D01*
X1982472Y1608076D01*
X1977392Y1597662D01*
X1966978Y1582168D01*
X1915162Y1530352D01*
X1987806Y1530352D01*
X2579872Y2819902D02*
G01*
X2574538Y2830316D01*
X2564124Y2840730D01*
X2553964Y2845810D01*
X2533136Y2845810D01*
X2522722Y2840730D01*
X2512308Y2830316D01*
X2506974Y2819902D01*
X2501894Y2804154D01*
X2501894Y2778246D01*
X2506974Y2762752D01*
X2512308Y2752338D01*
X2522722Y2741924D01*
X2533136Y2736844D01*
X2553964Y2736844D01*
X2564124Y2741924D01*
X2574538Y2752338D01*
X2579872Y2762752D01*
X2676392Y2845810D02*
G01*
X2624576Y2845810D01*
X2619242Y2799074D01*
X2624576Y2804154D01*
X2640070Y2809488D01*
X2655564Y2809488D01*
X2671312Y2804154D01*
X2681726Y2793994D01*
X2686806Y2778246D01*
X2686806Y2767832D01*
X2681726Y2752338D01*
X2671312Y2741924D01*
X2655564Y2736844D01*
X2640070Y2736844D01*
X2624576Y2741924D01*
X2619242Y2747004D01*
X2614162Y2757418D01*
X2456093Y3596667D02*
G01*
X2444643Y3599075D01*
X2429997Y3597536D01*
X2419654Y3592837D01*
X2406548Y3576652D01*
X2403942Y3565362D01*
X2405481Y3550714D01*
X2410218Y3540015D01*
X2419258Y3526157D01*
X2439393Y3509853D01*
X2454633Y3504049D01*
X2466080Y3501641D01*
X2480729Y3503180D01*
X2491229Y3508077D01*
X2504338Y3524265D01*
X2506784Y3535357D01*
X2505245Y3550003D01*
X2500508Y3560704D01*
X2508742Y3678232D02*
G01*
X2497452Y3680838D01*
X2483594Y3671796D01*
X2477201Y3663901D01*
X2471237Y3648466D01*
X2476921Y3630462D01*
X2493860Y3610208D01*
X2513995Y3593904D01*
X2533378Y3584745D01*
X2548023Y3586284D01*
X2561882Y3595326D01*
X2565079Y3599273D01*
X2570883Y3614511D01*
X2569344Y3629159D01*
X2560657Y3643055D01*
X2556512Y3646411D01*
X2541115Y3652017D01*
X2526469Y3650477D01*
X2512771Y3641633D01*
X2509573Y3637686D01*
X2503611Y3622250D01*
X2505151Y3607602D01*
X2513995Y3593904D01*
X685289Y1830517D02*
G01*
X674875Y1825183D01*
X664461Y1814769D01*
X659381Y1804609D01*
X659381Y1783781D01*
X664461Y1773367D01*
X674875Y1762953D01*
X685289Y1757619D01*
X701037Y1752539D01*
X726945Y1752539D01*
X742439Y1757619D01*
X752853Y1762953D01*
X763267Y1773367D01*
X768347Y1783781D01*
X768347Y1804609D01*
X763267Y1814769D01*
X752853Y1825183D01*
X742439Y1830517D01*
X659381Y1896049D02*
G01*
X664461Y1885635D01*
X674875Y1875221D01*
X685289Y1869887D01*
X701037Y1864807D01*
X726945Y1864807D01*
X742439Y1869887D01*
X752853Y1875221D01*
X763267Y1885635D01*
X768347Y1896049D01*
X768347Y1916623D01*
X763267Y1927037D01*
X752853Y1937451D01*
X742439Y1942785D01*
X726945Y1947865D01*
X701037Y1947865D01*
X685289Y1942785D01*
X674875Y1937451D01*
X664461Y1927037D01*
X659381Y1916623D01*
X659381Y1896049D01*
X659381Y1982155D02*
G01*
X768347Y1982155D01*
X659381Y1982155D02*
G01*
X768347Y2054799D01*
X659381Y2054799D02*
G01*
X768347Y2054799D01*
X680209Y2089089D02*
G01*
X674875Y2099503D01*
X659381Y2115251D01*
X768347Y2115251D01*
X1462016Y2628874D02*
G01*
X1462016Y2806715D01*
X1154178Y2628874D02*
G01*
X1154178Y2806715D01*
X1598678Y2273310D02*
G01*
X1598678Y2095472D01*
X1906516Y2273310D02*
G01*
X1906516Y2095472D01*
X1979675Y2273315D02*
G01*
X1979675Y2095474D01*
X2287513Y2273315D02*
G01*
X2287513Y2095474D01*
X2360675Y2273315D02*
G01*
X2360675Y2095474D01*
X2668513Y2273315D02*
G01*
X2668513Y2095474D01*
X1804527Y2832595D02*
G01*
X1804527Y3136384D01*
X2310264Y3136384D01*
X2310264Y2832595D01*
X1804527Y2832595D01*
D12*
X2547457Y2956481D02*
G01*
X2547457Y2876483D01*
X2547503Y3012526D02*
G01*
X2547503Y3092523D01*
X2405489Y2956481D02*
G01*
X2405489Y2876483D01*
X2405537Y3012526D02*
G01*
X2405537Y3092523D01*
X2516474Y2845508D02*
G01*
X2436469Y2845508D01*
X2436522Y3123501D02*
G01*
X2516525Y3123501D01*
X2090257Y3654981D02*
G01*
X2090257Y3574983D01*
X2090303Y3711026D02*
G01*
X2090303Y3791023D01*
X1948289Y3654981D02*
G01*
X1948289Y3574983D01*
X1948337Y3711026D02*
G01*
X1948337Y3791023D01*
X2059274Y3544008D02*
G01*
X1979269Y3544008D01*
X1979322Y3822001D02*
G01*
X2059325Y3822001D01*
X1018618Y2547457D02*
G01*
X1098616Y2547457D01*
X962573Y2547503D02*
G01*
X882576Y2547503D01*
X1018618Y2405489D02*
G01*
X1098616Y2405489D01*
X962573Y2405537D02*
G01*
X882576Y2405537D01*
X1129591Y2516474D02*
G01*
X1129591Y2436469D01*
X851598Y2436522D02*
G01*
X851598Y2516525D01*
X1556857Y2232581D02*
G01*
X1556857Y2152583D01*
X1556903Y2288626D02*
G01*
X1556903Y2368623D01*
X1414889Y2232581D02*
G01*
X1414889Y2152583D01*
X1414937Y2288626D02*
G01*
X1414937Y2368623D01*
X1525874Y2121608D02*
G01*
X1445869Y2121608D01*
X1445922Y2399601D02*
G01*
X1525925Y2399601D01*
X1758800Y1495501D02*
G01*
X2018190Y1495501D01*
X677303Y10749D02*
G01*
X677303Y112641D01*
X677303Y546369D02*
G01*
X677303Y1277635D01*
X677303Y1443865D02*
G01*
X677303Y1495501D01*
X792187Y1495501D01*
X999299Y1440502D02*
G01*
X1494302Y1440502D01*
X2091301Y10749D02*
G01*
X2091301Y112633D01*
X2091301Y408863D02*
G01*
X2091301Y1260637D01*
X834306Y285503D02*
G01*
X834306Y10500D01*
X677303Y10500D01*
X1714301Y725502D02*
G01*
X1054303Y725502D01*
X1714301Y835505D02*
G01*
X1054303Y835505D01*
X2091301Y10749D02*
G01*
X1769305Y10749D01*
X1769305Y285503D01*
X2537376Y2557937D02*
G01*
X2457378Y2557937D01*
X2593421Y2557891D02*
G01*
X2673418Y2557891D01*
X2537376Y2699905D02*
G01*
X2457378Y2699905D01*
X2593421Y2699857D02*
G01*
X2673418Y2699857D01*
X2426403Y2588920D02*
G01*
X2426403Y2668925D01*
X2704396Y2668871D02*
G01*
X2704396Y2588869D01*
X2348910Y3553071D02*
G01*
X2298567Y3490899D01*
X2384216Y3596596D02*
G01*
X2434562Y3658765D01*
X2238580Y3642413D02*
G01*
X2188237Y3580244D01*
X2273889Y3685938D02*
G01*
X2324232Y3748107D01*
X2254996Y3486327D02*
G01*
X2192820Y3536675D01*
X2367808Y3752682D02*
G01*
X2429982Y3702334D01*
X1460299Y1760994D02*
G01*
X1460299Y2048995D01*
X800295Y1760994D02*
G01*
X800295Y2048995D01*
X1460299Y1760994D02*
G01*
X1343411Y1760994D01*
X917183Y1760994D02*
G01*
X800295Y1760994D01*
X1460299Y2048995D02*
G01*
X1343411Y2048995D01*
X917183Y2048995D02*
G01*
X800295Y2048995D01*
X1410307Y1864995D02*
G01*
X850313Y1864995D01*
X850313Y1945004D01*
X1410307Y1945004D01*
X1410307Y1864995D01*
G75*
G01*
X2405537Y3092519D02*
G02*
X2436523Y3123501I30983J0D01*
G75*
G01*
X2516520Y3123501D02*
G02*
X2547503Y3092519I0J-30982D01*
G75*
G01*
X2547457Y2876489D02*
G02*
X2516475Y2845509I-30982J3D01*
G75*
G01*
X2436477Y2845509D02*
G02*
X2405489Y2876489I-5J30983D01*
G75*
G01*
X1948337Y3791019D02*
G02*
X1979323Y3822001I30983J0D01*
G75*
G01*
X2059320Y3822001D02*
G02*
X2090303Y3791019I0J-30982D01*
G75*
G01*
X2090257Y3574989D02*
G02*
X2059275Y3544009I-30982J3D01*
G75*
G01*
X1979277Y3544009D02*
G02*
X1948289Y3574989I-5J30983D01*
G75*
G01*
X882581Y2405537D02*
G02*
X851599Y2436523I0J30983D01*
G75*
G01*
X851599Y2516520D02*
G02*
X882581Y2547503I30982J0D01*
G75*
G01*
X1098611Y2547457D02*
G02*
X1129591Y2516475I-3J-30982D01*
G75*
G01*
X1129591Y2436477D02*
G02*
X1098611Y2405489I-30983J-5D01*
G75*
G01*
X1414937Y2368619D02*
G02*
X1445923Y2399601I30983J0D01*
G75*
G01*
X1525920Y2399601D02*
G02*
X1556903Y2368619I0J-30982D01*
G75*
G01*
X1556857Y2152589D02*
G02*
X1525875Y2121609I-30982J3D01*
G75*
G01*
X1445877Y2121609D02*
G02*
X1414889Y2152589I-5J30983D01*
G75*
G01*
X1714302Y835503D02*
G02*
X1714246Y725564I-401J-54970D01*
G75*
G01*
X1054303Y725503D02*
G02*
X1054354Y835546I26J55021D01*
G75*
G01*
X834304Y285504D02*
G02*
X1769364Y285382I467482J-367825D01*
G75*
G01*
X2673413Y2699857D02*
G02*
X2704396Y2668872I1J-30982D01*
G75*
G01*
X2704396Y2588875D02*
G02*
X2673413Y2557892I-30982J0D01*
G75*
G01*
X2457384Y2557937D02*
G02*
X2426404Y2588920I2J30983D01*
G75*
G01*
X2426404Y2668918D02*
G02*
X2457384Y2699906I30982J5D01*
G75*
G01*
X2324230Y3748105D02*
G02*
X2367808Y3752682I24077J-19499D01*
G75*
G01*
X2429977Y3702340D02*
G02*
X2434557Y3658763I-19498J-24078D01*
G75*
G01*
X2298570Y3490905D02*
G02*
X2254997Y3486328I-24075J19501D01*
G75*
G01*
X2192825Y3536671D02*
G02*
X2188240Y3580249I19494J24081D01*
D13*
G75*
G01
X1156284Y2587650D02*
G03X1156284Y2587650I-15011J0D01*
G75*
G01
X1934439Y2314550D02*
G03X1934439Y2314550I-15011J0D01*
G75*
G01
X2315439Y2314550D02*
G03X2315439Y2314550I-15011J0D01*
G75*
G01
X2696439Y2314550D02*
G03X2696439Y2314550I-15011J0D01*
G75*
G01
X1787144Y2719019D02*
G03X1787144Y2719019I-15011J0D01*
G75*
G01
X1867941Y2874823D02*
G03X1867941Y2874823I-15011J0D01*
D12*
G75*
G01
X1689989Y51511D02*
G03X1689989Y51511I-12700J0D01*
G75*
G01
X1370305Y2084984D02*
G03X1370305Y2084984I-10008J0D01*
M02*
