G04 Layer: TopSilkscreenLayer*
G04 EasyEDA Pro v3.2.148, 2026-08-17 02:33:26*
G04 Gerber Generator version 0.3*
G04 Scale: 100 percent, Rotated: No, Reflected: No*
G04 Dimensions in millimeters*
G04 Leading zeros omitted, absolute positions, 4 integers and 5 decimals*
G04 Generated by one-click*
G04 Object Configs: Pad,Via,Track,Text,Image,Dimension,BoardOutline,BoardCutout,CopperFilled,SolidRegion,FPCStiffener,Line,PlaneZone,ComponentProperty,ComponentSilkscreen,TearDrop*
G04 Layer Configs: 1,2,3,4,5,6,7,8,9,10,11,13,14,56*
G04 Copper Areas: 0*
%FSLAX45Y45*%
%MOMM*%
%ADD10C,0.05*%
%ADD11C,0.1524*%
%ADD12C,0.254*%
%ADD13C,0.3*%
%ADD14C,0.4594*%
G75*


G04 Text Start*
G54D10*
G01X1016962Y3837460D02*
G01X961082Y3837460D01*
G01X1016962Y3787930D02*
G01X961082Y3787930D01*
G01X990292Y3787930D02*
G01X995626Y3793264D01*
G01X998166Y3798344D01*
G01X998166Y3806472D01*
G01X995626Y3811806D01*
G01X990292Y3817140D01*
G01X982418Y3819680D01*
G01X977084Y3819680D01*
G01X968956Y3817140D01*
G01X963876Y3811806D01*
G01X961082Y3806472D01*
G01X961082Y3798344D01*
G01X963876Y3793264D01*
G01X968956Y3787930D01*
G01X982418Y3770150D02*
G01X982418Y3738400D01*
G01X987752Y3738400D01*
G01X993086Y3740940D01*
G01X995626Y3743734D01*
G01X998166Y3748814D01*
G01X998166Y3756942D01*
G01X995626Y3762276D01*
G01X990292Y3767610D01*
G01X982418Y3770150D01*
G01X977084Y3770150D01*
G01X968956Y3767610D01*
G01X963876Y3762276D01*
G01X961082Y3756942D01*
G01X961082Y3748814D01*
G01X963876Y3743734D01*
G01X968956Y3738400D01*
G01X998166Y3688870D02*
G01X961082Y3688870D01*
G01X990292Y3688870D02*
G01X995626Y3694204D01*
G01X998166Y3699284D01*
G01X998166Y3707412D01*
G01X995626Y3712746D01*
G01X990292Y3718080D01*
G01X982418Y3720620D01*
G01X977084Y3720620D01*
G01X968956Y3718080D01*
G01X963876Y3712746D01*
G01X961082Y3707412D01*
G01X961082Y3699284D01*
G01X963876Y3694204D01*
G01X968956Y3688870D01*
G01X1016962Y3611654D02*
G01X961082Y3611654D01*
G01X990292Y3611654D02*
G01X995626Y3606320D01*
G01X998166Y3600986D01*
G01X998166Y3593112D01*
G01X995626Y3587778D01*
G01X990292Y3582444D01*
G01X982418Y3579650D01*
G01X977084Y3579650D01*
G01X968956Y3582444D01*
G01X963876Y3587778D01*
G01X961082Y3593112D01*
G01X961082Y3600986D01*
G01X963876Y3606320D01*
G01X968956Y3611654D01*
G01X998166Y3559330D02*
G01X961082Y3543328D01*
G01X998166Y3527326D02*
G01X961082Y3543328D01*
G01X950414Y3548662D01*
G01X945080Y3553996D01*
G01X942540Y3559330D01*
G01X942540Y3561870D01*
G01X1016962Y3450110D02*
G01X961082Y3450110D01*
G01X1016962Y3450110D02*
G01X1016962Y3426234D01*
G01X1014168Y3418106D01*
G01X1011628Y3415566D01*
G01X1006294Y3412772D01*
G01X998166Y3412772D01*
G01X993086Y3415566D01*
G01X990292Y3418106D01*
G01X987752Y3426234D01*
G01X987752Y3450110D01*
G01X998166Y3381784D02*
G01X995626Y3387118D01*
G01X990292Y3392452D01*
G01X982418Y3394992D01*
G01X977084Y3394992D01*
G01X968956Y3392452D01*
G01X963876Y3387118D01*
G01X961082Y3381784D01*
G01X961082Y3373656D01*
G01X963876Y3368576D01*
G01X968956Y3363242D01*
G01X977084Y3360448D01*
G01X982418Y3360448D01*
G01X990292Y3363242D01*
G01X995626Y3368576D01*
G01X998166Y3373656D01*
G01X998166Y3381784D01*
G01X1016962Y3342668D02*
G01X961082Y3342668D01*
G01X998166Y3322348D02*
G01X961082Y3306346D01*
G01X998166Y3290344D02*
G01X961082Y3306346D01*
G01X950414Y3311680D01*
G01X945080Y3317014D01*
G01X942540Y3322348D01*
G01X942540Y3324888D01*
G01X998166Y3272564D02*
G01X942540Y3272564D01*
G01X990292Y3272564D02*
G01X995626Y3267230D01*
G01X998166Y3261896D01*
G01X998166Y3254022D01*
G01X995626Y3248688D01*
G01X990292Y3243354D01*
G01X982418Y3240814D01*
G01X977084Y3240814D01*
G01X968956Y3243354D01*
G01X963876Y3248688D01*
G01X961082Y3254022D01*
G01X961082Y3261896D01*
G01X963876Y3267230D01*
G01X968956Y3272564D01*
G01X1016962Y3223034D02*
G01X961082Y3223034D01*
G01X987752Y3223034D02*
G01X995626Y3215160D01*
G01X998166Y3209826D01*
G01X998166Y3201698D01*
G01X995626Y3196618D01*
G01X987752Y3193824D01*
G01X961082Y3193824D01*
G01X982418Y3176044D02*
G01X982418Y3144294D01*
G01X987752Y3144294D01*
G01X993086Y3146834D01*
G01X995626Y3149628D01*
G01X998166Y3154708D01*
G01X998166Y3162836D01*
G01X995626Y3168170D01*
G01X990292Y3173504D01*
G01X982418Y3176044D01*
G01X977084Y3176044D01*
G01X968956Y3173504D01*
G01X963876Y3168170D01*
G01X961082Y3162836D01*
G01X961082Y3154708D01*
G01X963876Y3149628D01*
G01X968956Y3144294D01*
G01X1016962Y3126514D02*
G01X1014168Y3123974D01*
G01X1016962Y3121180D01*
G01X1019502Y3123974D01*
G01X1016962Y3126514D01*
G01X998166Y3123974D02*
G01X961082Y3123974D01*
G01X1016962Y3071650D02*
G01X961082Y3071650D01*
G01X990292Y3071650D02*
G01X995626Y3076984D01*
G01X998166Y3082064D01*
G01X998166Y3090192D01*
G01X995626Y3095526D01*
G01X990292Y3100860D01*
G01X982418Y3103400D01*
G01X977084Y3103400D01*
G01X968956Y3100860D01*
G01X963876Y3095526D01*
G01X961082Y3090192D01*
G01X961082Y3082064D01*
G01X963876Y3076984D01*
G01X968956Y3071650D01*
G01X982418Y3053870D02*
G01X982418Y3022120D01*
G01X987752Y3022120D01*
G01X993086Y3024660D01*
G01X995626Y3027454D01*
G01X998166Y3032534D01*
G01X998166Y3040662D01*
G01X995626Y3045996D01*
G01X990292Y3051330D01*
G01X982418Y3053870D01*
G01X977084Y3053870D01*
G01X968956Y3051330D01*
G01X963876Y3045996D01*
G01X961082Y3040662D01*
G01X961082Y3032534D01*
G01X963876Y3027454D01*
G01X968956Y3022120D01*
G01X990292Y2975130D02*
G01X995626Y2977924D01*
G01X998166Y2985798D01*
G01X998166Y2993672D01*
G01X995626Y3001800D01*
G01X990292Y3004340D01*
G01X984958Y3001800D01*
G01X982418Y2996466D01*
G01X979624Y2983004D01*
G01X977084Y2977924D01*
G01X971750Y2975130D01*
G01X968956Y2975130D01*
G01X963876Y2977924D01*
G01X961082Y2985798D01*
G01X961082Y2993672D01*
G01X963876Y3001800D01*
G01X968956Y3004340D01*
G01X926792Y3837460D02*
G01X871166Y3837460D01*
G01X926792Y3837460D02*
G01X926792Y3818918D01*
G01X924252Y3811044D01*
G01X918918Y3805710D01*
G01X913584Y3802916D01*
G01X905710Y3800376D01*
G01X892248Y3800376D01*
G01X884374Y3802916D01*
G01X879040Y3805710D01*
G01X873706Y3811044D01*
G01X871166Y3818918D01*
G01X871166Y3837460D01*
G01X892248Y3782596D02*
G01X892248Y3750846D01*
G01X897582Y3750846D01*
G01X902916Y3753386D01*
G01X905710Y3756180D01*
G01X908250Y3761260D01*
G01X908250Y3769388D01*
G01X905710Y3774722D01*
G01X900376Y3780056D01*
G01X892248Y3782596D01*
G01X886914Y3782596D01*
G01X879040Y3780056D01*
G01X873706Y3774722D01*
G01X871166Y3769388D01*
G01X871166Y3761260D01*
G01X873706Y3756180D01*
G01X879040Y3750846D01*
G01X900376Y3703856D02*
G01X905710Y3706650D01*
G01X908250Y3714524D01*
G01X908250Y3722398D01*
G01X905710Y3730526D01*
G01X900376Y3733066D01*
G01X895042Y3730526D01*
G01X892248Y3725192D01*
G01X889708Y3711730D01*
G01X886914Y3706650D01*
G01X881834Y3703856D01*
G01X879040Y3703856D01*
G01X873706Y3706650D01*
G01X871166Y3714524D01*
G01X871166Y3722398D01*
G01X873706Y3730526D01*
G01X879040Y3733066D01*
G01X926792Y3686076D02*
G01X924252Y3683536D01*
G01X926792Y3680742D01*
G01X929586Y3683536D01*
G01X926792Y3686076D01*
G01X908250Y3683536D02*
G01X871166Y3683536D01*
G01X908250Y3631212D02*
G01X865832Y3631212D01*
G01X857704Y3633752D01*
G01X855164Y3636546D01*
G01X852624Y3641626D01*
G01X852624Y3649754D01*
G01X855164Y3655088D01*
G01X900376Y3631212D02*
G01X905710Y3636546D01*
G01X908250Y3641626D01*
G01X908250Y3649754D01*
G01X905710Y3655088D01*
G01X900376Y3660422D01*
G01X892248Y3662962D01*
G01X886914Y3662962D01*
G01X879040Y3660422D01*
G01X873706Y3655088D01*
G01X871166Y3649754D01*
G01X871166Y3641626D01*
G01X873706Y3636546D01*
G01X879040Y3631212D01*
G01X908250Y3613432D02*
G01X871166Y3613432D01*
G01X897582Y3613432D02*
G01X905710Y3605558D01*
G01X908250Y3600224D01*
G01X908250Y3592096D01*
G01X905710Y3587016D01*
G01X897582Y3584222D01*
G01X871166Y3584222D01*
G01X892248Y3566442D02*
G01X892248Y3534692D01*
G01X897582Y3534692D01*
G01X902916Y3537232D01*
G01X905710Y3540026D01*
G01X908250Y3545106D01*
G01X908250Y3553234D01*
G01X905710Y3558568D01*
G01X900376Y3563902D01*
G01X892248Y3566442D01*
G01X886914Y3566442D01*
G01X879040Y3563902D01*
G01X873706Y3558568D01*
G01X871166Y3553234D01*
G01X871166Y3545106D01*
G01X873706Y3540026D01*
G01X879040Y3534692D01*
G01X926792Y3485162D02*
G01X871166Y3485162D01*
G01X900376Y3485162D02*
G01X905710Y3490496D01*
G01X908250Y3495576D01*
G01X908250Y3503704D01*
G01X905710Y3509038D01*
G01X900376Y3514372D01*
G01X892248Y3516912D01*
G01X886914Y3516912D01*
G01X879040Y3514372D01*
G01X873706Y3509038D01*
G01X871166Y3503704D01*
G01X871166Y3495576D01*
G01X873706Y3490496D01*
G01X879040Y3485162D01*
G01X926792Y3407946D02*
G01X871166Y3407946D01*
G01X926792Y3407946D02*
G01X926792Y3384070D01*
G01X924252Y3375942D01*
G01X921458Y3373402D01*
G01X916124Y3370608D01*
G01X911044Y3370608D01*
G01X905710Y3373402D01*
G01X902916Y3375942D01*
G01X900376Y3384070D01*
G01X900376Y3407946D02*
G01X900376Y3384070D01*
G01X897582Y3375942D01*
G01X895042Y3373402D01*
G01X889708Y3370608D01*
G01X881834Y3370608D01*
G01X876500Y3373402D01*
G01X873706Y3375942D01*
G01X871166Y3384070D01*
G01X871166Y3407946D01*
G01X908250Y3350288D02*
G01X871166Y3334286D01*
G01X908250Y3318284D02*
G01X871166Y3334286D01*
G01X860498Y3339620D01*
G01X855164Y3344954D01*
G01X852624Y3350288D01*
G01X852624Y3352828D01*
G01X926792Y3241068D02*
G01X871166Y3241068D01*
G01X926792Y3241068D02*
G01X871166Y3219732D01*
G01X926792Y3198650D02*
G01X871166Y3219732D01*
G01X926792Y3198650D02*
G01X871166Y3198650D01*
G01X908250Y3180870D02*
G01X881834Y3180870D01*
G01X873706Y3178330D01*
G01X871166Y3172996D01*
G01X871166Y3164868D01*
G01X873706Y3159534D01*
G01X881834Y3151660D01*
G01X908250Y3151660D02*
G01X871166Y3151660D01*
G01X892248Y3133880D02*
G01X892248Y3102130D01*
G01X897582Y3102130D01*
G01X902916Y3104670D01*
G01X905710Y3107464D01*
G01X908250Y3112544D01*
G01X908250Y3120672D01*
G01X905710Y3126006D01*
G01X900376Y3131340D01*
G01X892248Y3133880D01*
G01X886914Y3133880D01*
G01X879040Y3131340D01*
G01X873706Y3126006D01*
G01X871166Y3120672D01*
G01X871166Y3112544D01*
G01X873706Y3107464D01*
G01X879040Y3102130D01*
G01X908250Y3084350D02*
G01X871166Y3084350D01*
G01X892248Y3084350D02*
G01X900376Y3081810D01*
G01X905710Y3076476D01*
G01X908250Y3071142D01*
G01X908250Y3063014D01*
G01X926792Y3037360D02*
G01X881834Y3037360D01*
G01X873706Y3034566D01*
G01X871166Y3029232D01*
G01X871166Y3023898D01*
G01X908250Y3045234D02*
G01X908250Y3026692D01*
G01X908250Y2992910D02*
G01X905710Y2998244D01*
G01X900376Y3003578D01*
G01X892248Y3006118D01*
G01X886914Y3006118D01*
G01X879040Y3003578D01*
G01X873706Y2998244D01*
G01X871166Y2992910D01*
G01X871166Y2984782D01*
G01X873706Y2979702D01*
G01X879040Y2974368D01*
G01X886914Y2971574D01*
G01X892248Y2971574D01*
G01X900376Y2974368D01*
G01X905710Y2979702D01*
G01X908250Y2984782D01*
G01X908250Y2992910D01*
G01X913584Y2913916D02*
G01X918918Y2916710D01*
G01X924252Y2922044D01*
G01X926792Y2927378D01*
G01X926792Y2937792D01*
G01X924252Y2943126D01*
G01X918918Y2948460D01*
G01X913584Y2951254D01*
G01X905710Y2953794D01*
G01X892248Y2953794D01*
G01X884374Y2951254D01*
G01X879040Y2948460D01*
G01X873706Y2943126D01*
G01X871166Y2937792D01*
G01X871166Y2927378D01*
G01X873706Y2922044D01*
G01X879040Y2916710D01*
G01X884374Y2913916D01*
G01X892248Y2913916D01*
G01X892248Y2927378D02*
G01X892248Y2913916D01*
G01X926792Y2896136D02*
G01X871166Y2896136D01*
G01X926792Y2896136D02*
G01X926792Y2872260D01*
G01X924252Y2864386D01*
G01X921458Y2861592D01*
G01X916124Y2859052D01*
G01X911044Y2859052D01*
G01X905710Y2861592D01*
G01X902916Y2864386D01*
G01X900376Y2872260D01*
G01X900376Y2896136D02*
G01X900376Y2872260D01*
G01X897582Y2864386D01*
G01X895042Y2861592D01*
G01X889708Y2859052D01*
G01X881834Y2859052D01*
G01X876500Y2861592D01*
G01X873706Y2864386D01*
G01X871166Y2872260D01*
G01X871166Y2896136D01*
G01X908250Y2781836D02*
G01X871166Y2781836D01*
G01X892248Y2781836D02*
G01X900376Y2779042D01*
G01X905710Y2773708D01*
G01X908250Y2768628D01*
G01X908250Y2760500D01*
G01X892248Y2742720D02*
G01X892248Y2710970D01*
G01X897582Y2710970D01*
G01X902916Y2713510D01*
G01X905710Y2716304D01*
G01X908250Y2721384D01*
G01X908250Y2729512D01*
G01X905710Y2734846D01*
G01X900376Y2740180D01*
G01X892248Y2742720D01*
G01X886914Y2742720D01*
G01X879040Y2740180D01*
G01X873706Y2734846D01*
G01X871166Y2729512D01*
G01X871166Y2721384D01*
G01X873706Y2716304D01*
G01X879040Y2710970D01*
G01X908250Y2693190D02*
G01X871166Y2677188D01*
G01X908250Y2661440D02*
G01X871166Y2677188D01*
G01X884374Y2641120D02*
G01X881834Y2643660D01*
G01X879040Y2641120D01*
G01X881834Y2638326D01*
G01X884374Y2641120D01*
G01X926792Y2607338D02*
G01X924252Y2615212D01*
G01X918918Y2618006D01*
G01X913584Y2618006D01*
G01X908250Y2615212D01*
G01X905710Y2609878D01*
G01X902916Y2599210D01*
G01X900376Y2591336D01*
G01X895042Y2586002D01*
G01X889708Y2583462D01*
G01X881834Y2583462D01*
G01X876500Y2586002D01*
G01X873706Y2588796D01*
G01X871166Y2596670D01*
G01X871166Y2607338D01*
G01X873706Y2615212D01*
G01X876500Y2618006D01*
G01X881834Y2620546D01*
G01X889708Y2620546D01*
G01X895042Y2618006D01*
G01X900376Y2612672D01*
G01X902916Y2604544D01*
G01X905710Y2594130D01*
G01X908250Y2588796D01*
G01X913584Y2586002D01*
G01X918918Y2586002D01*
G01X924252Y2588796D01*
G01X926792Y2596670D01*
G01X926792Y2607338D01*
G01X2079304Y3811910D02*
G01X2065334Y3811910D01*
G01X2063810Y3799210D01*
G01X2065334Y3800734D01*
G01X2069652Y3802004D01*
G01X2073716Y3802004D01*
G01X2078034Y3800734D01*
G01X2080828Y3797686D01*
G01X2082098Y3793622D01*
G01X2082098Y3790828D01*
G01X2080828Y3786510D01*
G01X2078034Y3783716D01*
G01X2073716Y3782446D01*
G01X2069652Y3782446D01*
G01X2065334Y3783716D01*
G01X2063810Y3785240D01*
G01X2062540Y3788034D01*
G01X2093782Y3802004D02*
G01X2102164Y3782446D01*
G01X2110800Y3802004D02*
G01X2102164Y3782446D01*
G01X1009904Y1682750D02*
G01X995934Y1682750D01*
G01X994410Y1670050D01*
G01X995934Y1671574D01*
G01X1000252Y1672844D01*
G01X1004316Y1672844D01*
G01X1008634Y1671574D01*
G01X1011428Y1668526D01*
G01X1012698Y1664462D01*
G01X1012698Y1661668D01*
G01X1011428Y1657350D01*
G01X1008634Y1654556D01*
G01X1004316Y1653286D01*
G01X1000252Y1653286D01*
G01X995934Y1654556D01*
G01X994410Y1656080D01*
G01X993140Y1658874D01*
G01X1024382Y1672844D02*
G01X1032764Y1653286D01*
G01X1041400Y1672844D02*
G01X1032764Y1653286D01*
G01X2030984Y3501390D02*
G01X2017014Y3501390D01*
G01X2015490Y3488690D01*
G01X2017014Y3490214D01*
G01X2021332Y3491484D01*
G01X2025396Y3491484D01*
G01X2029714Y3490214D01*
G01X2032508Y3487166D01*
G01X2033778Y3483102D01*
G01X2033778Y3480308D01*
G01X2032508Y3475990D01*
G01X2029714Y3473196D01*
G01X2025396Y3471926D01*
G01X2021332Y3471926D01*
G01X2017014Y3473196D01*
G01X2015490Y3474720D01*
G01X2014220Y3477514D01*
G01X2045462Y3491484D02*
G01X2053844Y3471926D01*
G01X2062480Y3491484D02*
G01X2053844Y3471926D01*
G01X2112772Y3491484D02*
G01X2109978Y3490214D01*
G01X2107184Y3487166D01*
G01X2105660Y3483102D01*
G01X2105660Y3480308D01*
G01X2107184Y3475990D01*
G01X2109978Y3473196D01*
G01X2112772Y3471926D01*
G01X2117090Y3471926D01*
G01X2119884Y3473196D01*
G01X2122678Y3475990D01*
G01X2123948Y3480308D01*
G01X2123948Y3483102D01*
G01X2122678Y3487166D01*
G01X2119884Y3490214D01*
G01X2117090Y3491484D01*
G01X2112772Y3491484D01*
G01X2135632Y3491484D02*
G01X2135632Y3471926D01*
G01X2135632Y3485896D02*
G01X2139950Y3490214D01*
G01X2142744Y3491484D01*
G01X2147062Y3491484D01*
G01X2149856Y3490214D01*
G01X2151126Y3485896D01*
G01X2151126Y3471926D01*
G01X2194306Y3491484D02*
G01X2194306Y3462020D01*
G01X2194306Y3487166D02*
G01X2197100Y3490214D01*
G01X2199894Y3491484D01*
G01X2204212Y3491484D01*
G01X2207006Y3490214D01*
G01X2209800Y3487166D01*
G01X2211324Y3483102D01*
G01X2211324Y3480308D01*
G01X2209800Y3475990D01*
G01X2207006Y3473196D01*
G01X2204212Y3471926D01*
G01X2199894Y3471926D01*
G01X2197100Y3473196D01*
G01X2194306Y3475990D01*
G01X2223008Y3501390D02*
G01X2224532Y3499866D01*
G01X2225802Y3501390D01*
G01X2224532Y3502660D01*
G01X2223008Y3501390D01*
G01X2224532Y3491484D02*
G01X2224532Y3471926D01*
G01X2237486Y3491484D02*
G01X2237486Y3471926D01*
G01X2237486Y3485896D02*
G01X2241804Y3490214D01*
G01X2244598Y3491484D01*
G01X2248916Y3491484D01*
G01X2251710Y3490214D01*
G01X2252980Y3485896D01*
G01X2252980Y3471926D01*
G01X2296160Y3495802D02*
G01X2298954Y3497072D01*
G01X2303272Y3501390D01*
G01X2303272Y3471926D01*
G01X2323338Y3501390D02*
G01X2319274Y3499866D01*
G01X2316480Y3495802D01*
G01X2314956Y3488690D01*
G01X2314956Y3484372D01*
G01X2316480Y3477514D01*
G01X2319274Y3473196D01*
G01X2323338Y3471926D01*
G01X2326386Y3471926D01*
G01X2330450Y3473196D01*
G01X2333244Y3477514D01*
G01X2334768Y3484372D01*
G01X2334768Y3488690D01*
G01X2333244Y3495802D01*
G01X2330450Y3499866D01*
G01X2326386Y3501390D01*
G01X2323338Y3501390D01*
G01X1305334Y41910D02*
G01X1320828Y41910D01*
G01X1312446Y30734D01*
G01X1316510Y30734D01*
G01X1319304Y29210D01*
G01X1320828Y27686D01*
G01X1322098Y23622D01*
G01X1322098Y20828D01*
G01X1320828Y16510D01*
G01X1318034Y13716D01*
G01X1313716Y12446D01*
G01X1309652Y12446D01*
G01X1305334Y13716D01*
G01X1303810Y15240D01*
G01X1302540Y18034D01*
G01X1335306Y19304D02*
G01X1333782Y18034D01*
G01X1335306Y16510D01*
G01X1336576Y18034D01*
G01X1335306Y19304D01*
G01X1351054Y41910D02*
G01X1366548Y41910D01*
G01X1358166Y30734D01*
G01X1362484Y30734D01*
G01X1365278Y29210D01*
G01X1366548Y27686D01*
G01X1368072Y23622D01*
G01X1368072Y20828D01*
G01X1366548Y16510D01*
G01X1363754Y13716D01*
G01X1359690Y12446D01*
G01X1355372Y12446D01*
G01X1351054Y13716D01*
G01X1349784Y15240D01*
G01X1348260Y18034D01*
G01X1379756Y32004D02*
G01X1388138Y12446D01*
G01X1396774Y32004D02*
G01X1388138Y12446D01*
G01X2675334Y2691910D02*
G01X2690828Y2691910D01*
G01X2682446Y2680734D01*
G01X2686510Y2680734D01*
G01X2689304Y2679210D01*
G01X2690828Y2677686D01*
G01X2692098Y2673622D01*
G01X2692098Y2670828D01*
G01X2690828Y2666510D01*
G01X2688034Y2663716D01*
G01X2683716Y2662446D01*
G01X2679652Y2662446D01*
G01X2675334Y2663716D01*
G01X2673810Y2665240D01*
G01X2672540Y2668034D01*
G01X2705306Y2669304D02*
G01X2703782Y2668034D01*
G01X2705306Y2666510D01*
G01X2706576Y2668034D01*
G01X2705306Y2669304D01*
G01X2721054Y2691910D02*
G01X2736548Y2691910D01*
G01X2728166Y2680734D01*
G01X2732484Y2680734D01*
G01X2735278Y2679210D01*
G01X2736548Y2677686D01*
G01X2738072Y2673622D01*
G01X2738072Y2670828D01*
G01X2736548Y2666510D01*
G01X2733754Y2663716D01*
G01X2729690Y2662446D01*
G01X2725372Y2662446D01*
G01X2721054Y2663716D01*
G01X2719784Y2665240D01*
G01X2718260Y2668034D01*
G01X2749756Y2682004D02*
G01X2758138Y2662446D01*
G01X2766774Y2682004D02*
G01X2758138Y2662446D01*
G54D11*
G01X1908302Y3807460D02*
G01X1905254Y3813810D01*
G01X1898904Y3819906D01*
G01X1892808Y3822954D01*
G01X1880362Y3822954D01*
G01X1874266Y3819906D01*
G01X1867916Y3813810D01*
G01X1864868Y3807460D01*
G01X1861820Y3798316D01*
G01X1861820Y3782822D01*
G01X1864868Y3773424D01*
G01X1867916Y3767328D01*
G01X1874266Y3760978D01*
G01X1880362Y3757930D01*
G01X1892808Y3757930D01*
G01X1898904Y3760978D01*
G01X1905254Y3767328D01*
G01X1908302Y3773424D01*
G01X1941576Y3807460D02*
G01X1941576Y3810508D01*
G01X1944624Y3816858D01*
G01X1947672Y3819906D01*
G01X1953768Y3822954D01*
G01X1966214Y3822954D01*
G01X1972564Y3819906D01*
G01X1975612Y3816858D01*
G01X1978660Y3810508D01*
G01X1978660Y3804412D01*
G01X1975612Y3798316D01*
G01X1969262Y3788918D01*
G01X1938528Y3757930D01*
G01X1981708Y3757930D01*
G01X1145540Y2720594D02*
G01X1145540Y2655570D01*
G01X1145540Y2720594D02*
G01X1167130Y2720594D01*
G01X1176528Y2717546D01*
G01X1182624Y2711450D01*
G01X1185672Y2705100D01*
G01X1188974Y2695956D01*
G01X1188974Y2680462D01*
G01X1185672Y2671064D01*
G01X1182624Y2664968D01*
G01X1176528Y2658618D01*
G01X1167130Y2655570D01*
G01X1145540Y2655570D01*
G01X1219200Y2708148D02*
G01X1225296Y2711450D01*
G01X1234440Y2720594D01*
G01X1234440Y2655570D01*
G01X1658620Y2593594D02*
G01X1658620Y2528570D01*
G01X1658620Y2593594D02*
G01X1680210Y2593594D01*
G01X1689608Y2590546D01*
G01X1695704Y2584450D01*
G01X1698752Y2578100D01*
G01X1702054Y2568956D01*
G01X1702054Y2553462D01*
G01X1698752Y2544064D01*
G01X1695704Y2537968D01*
G01X1689608Y2531618D01*
G01X1680210Y2528570D01*
G01X1658620Y2528570D01*
G01X1735328Y2578100D02*
G01X1735328Y2581148D01*
G01X1738376Y2587498D01*
G01X1741424Y2590546D01*
G01X1747520Y2593594D01*
G01X1759966Y2593594D01*
G01X1766316Y2590546D01*
G01X1769364Y2587498D01*
G01X1772412Y2581148D01*
G01X1772412Y2575052D01*
G01X1769364Y2568956D01*
G01X1763014Y2559558D01*
G01X1732280Y2528570D01*
G01X1775460Y2528570D01*
G01X2024380Y2593594D02*
G01X2024380Y2528570D01*
G01X2024380Y2593594D02*
G01X2045970Y2593594D01*
G01X2055368Y2590546D01*
G01X2061464Y2584450D01*
G01X2064512Y2578100D01*
G01X2067814Y2568956D01*
G01X2067814Y2553462D01*
G01X2064512Y2544064D01*
G01X2061464Y2537968D01*
G01X2055368Y2531618D01*
G01X2045970Y2528570D01*
G01X2024380Y2528570D01*
G01X2104136Y2593594D02*
G01X2138172Y2593594D01*
G01X2119630Y2568956D01*
G01X2128774Y2568956D01*
G01X2135124Y2565908D01*
G01X2138172Y2562606D01*
G01X2141220Y2553462D01*
G01X2141220Y2547112D01*
G01X2138172Y2537968D01*
G01X2132076Y2531618D01*
G01X2122678Y2528570D01*
G01X2113280Y2528570D01*
G01X2104136Y2531618D01*
G01X2101088Y2534920D01*
G01X2098040Y2541016D01*
G01X2390140Y2593594D02*
G01X2390140Y2528570D01*
G01X2390140Y2593594D02*
G01X2411730Y2593594D01*
G01X2421128Y2590546D01*
G01X2427224Y2584450D01*
G01X2430272Y2578100D01*
G01X2433574Y2568956D01*
G01X2433574Y2553462D01*
G01X2430272Y2544064D01*
G01X2427224Y2537968D01*
G01X2421128Y2531618D01*
G01X2411730Y2528570D01*
G01X2390140Y2528570D01*
G01X2494534Y2593594D02*
G01X2463800Y2550414D01*
G01X2510028Y2550414D01*
G01X2494534Y2593594D02*
G01X2494534Y2528570D01*
G01X2075688Y1663954D02*
G01X2075688Y1614424D01*
G01X2072640Y1605280D01*
G01X2069592Y1601978D01*
G01X2063242Y1598930D01*
G01X2057146Y1598930D01*
G01X2050796Y1601978D01*
G01X2047748Y1605280D01*
G01X2044700Y1614424D01*
G01X2044700Y1620774D01*
G01X2108962Y1648460D02*
G01X2108962Y1651508D01*
G01X2112010Y1657858D01*
G01X2115058Y1660906D01*
G01X2121154Y1663954D01*
G01X2133600Y1663954D01*
G01X2139950Y1660906D01*
G01X2142998Y1657858D01*
G01X2146046Y1651508D01*
G01X2146046Y1645412D01*
G01X2142998Y1639316D01*
G01X2136648Y1629918D01*
G01X2105914Y1598930D01*
G01X2149094Y1598930D01*
G01X1780540Y3233674D02*
G01X1780540Y3187192D01*
G01X1783588Y3178048D01*
G01X1789938Y3171698D01*
G01X1799082Y3168650D01*
G01X1805432Y3168650D01*
G01X1814576Y3171698D01*
G01X1820672Y3178048D01*
G01X1823974Y3187192D01*
G01X1823974Y3233674D01*
G01X1854200Y3221228D02*
G01X1860296Y3224530D01*
G01X1869440Y3233674D01*
G01X1869440Y3168650D01*
G01X841248Y2156714D02*
G01X841248Y2107184D01*
G01X838200Y2098040D01*
G01X835152Y2094738D01*
G01X828802Y2091690D01*
G01X822706Y2091690D01*
G01X816356Y2094738D01*
G01X813308Y2098040D01*
G01X810260Y2107184D01*
G01X810260Y2113534D01*
G01X871474Y2144268D02*
G01X877570Y2147570D01*
G01X886714Y2156714D01*
G01X886714Y2091690D01*
G01X2334102Y2688740D02*
G01X2331054Y2695090D01*
G01X2324704Y2701186D01*
G01X2318608Y2704234D01*
G01X2306162Y2704234D01*
G01X2300066Y2701186D01*
G01X2293716Y2695090D01*
G01X2290668Y2688740D01*
G01X2287620Y2679596D01*
G01X2287620Y2664102D01*
G01X2290668Y2654704D01*
G01X2293716Y2648608D01*
G01X2300066Y2642258D01*
G01X2306162Y2639210D01*
G01X2318608Y2639210D01*
G01X2324704Y2642258D01*
G01X2331054Y2648608D01*
G01X2334102Y2654704D01*
G01X2401412Y2704234D02*
G01X2370424Y2704234D01*
G01X2367376Y2676548D01*
G01X2370424Y2679596D01*
G01X2379568Y2682644D01*
G01X2388966Y2682644D01*
G01X2398364Y2679596D01*
G01X2404460Y2673246D01*
G01X2407508Y2664102D01*
G01X2407508Y2657752D01*
G01X2404460Y2648608D01*
G01X2398364Y2642258D01*
G01X2388966Y2639210D01*
G01X2379568Y2639210D01*
G01X2370424Y2642258D01*
G01X2367376Y2645560D01*
G01X2364328Y2651656D01*
G01X2661260Y3354102D02*
G01X2654910Y3351054D01*
G01X2648814Y3344704D01*
G01X2645766Y3338608D01*
G01X2645766Y3326162D01*
G01X2648814Y3320066D01*
G01X2654910Y3313716D01*
G01X2661260Y3310668D01*
G01X2670404Y3307620D01*
G01X2685898Y3307620D01*
G01X2695296Y3310668D01*
G01X2701392Y3313716D01*
G01X2707742Y3320066D01*
G01X2710790Y3326162D01*
G01X2710790Y3338608D01*
G01X2707742Y3344704D01*
G01X2701392Y3351054D01*
G01X2695296Y3354102D01*
G01X2658212Y3384328D02*
G01X2654910Y3390424D01*
G01X2645766Y3399568D01*
G01X2710790Y3399568D01*
G01X2304102Y3908740D02*
G01X2301054Y3915090D01*
G01X2294704Y3921186D01*
G01X2288608Y3924234D01*
G01X2276162Y3924234D01*
G01X2270066Y3921186D01*
G01X2263716Y3915090D01*
G01X2260668Y3908740D01*
G01X2257620Y3899596D01*
G01X2257620Y3884102D01*
G01X2260668Y3874704D01*
G01X2263716Y3868608D01*
G01X2270066Y3862258D01*
G01X2276162Y3859210D01*
G01X2288608Y3859210D01*
G01X2294704Y3862258D01*
G01X2301054Y3868608D01*
G01X2304102Y3874704D01*
G01X2340424Y3924234D02*
G01X2374460Y3924234D01*
G01X2355918Y3899596D01*
G01X2365062Y3899596D01*
G01X2371412Y3896548D01*
G01X2374460Y3893246D01*
G01X2377508Y3884102D01*
G01X2377508Y3877752D01*
G01X2374460Y3868608D01*
G01X2368364Y3862258D01*
G01X2358966Y3859210D01*
G01X2349568Y3859210D01*
G01X2340424Y3862258D01*
G01X2337376Y3865560D01*
G01X2334328Y3871656D01*
G01X2711260Y2954102D02*
G01X2704910Y2951054D01*
G01X2698814Y2944704D01*
G01X2695766Y2938608D01*
G01X2695766Y2926162D01*
G01X2698814Y2920066D01*
G01X2704910Y2913716D01*
G01X2711260Y2910668D01*
G01X2720404Y2907620D01*
G01X2735898Y2907620D01*
G01X2745296Y2910668D01*
G01X2751392Y2913716D01*
G01X2757742Y2920066D01*
G01X2760790Y2926162D01*
G01X2760790Y2938608D01*
G01X2757742Y2944704D01*
G01X2751392Y2951054D01*
G01X2745296Y2954102D01*
G01X2695766Y3015062D02*
G01X2738946Y2984328D01*
G01X2738946Y3030556D01*
G01X2695766Y3015062D02*
G01X2760790Y3015062D01*
G04 Text End*

G04 PolygonModel Start*
G54D12*
G01X2029538Y3723476D02*
G01X2109537Y3723478D01*
G01X1973494Y3723523D02*
G01X1893496Y3723524D01*
G01X2029540Y3581509D02*
G01X2109536Y3581509D01*
G01X1973494Y3581557D02*
G01X1893497Y3581557D01*
G01X2140510Y3692495D02*
G01X2140511Y3612489D01*
G01X1862519Y3612543D02*
G01X1862519Y3692546D01*
G01X1893501Y3581556D02*
G02X1862519Y3612543I1J30983D01*
G01X1862519Y3692539D02*
G02X1893501Y3723522I30983J-0D01*
G01X2109531Y3723477D02*
G02X2140510Y3692495I-4J-30983D01*
G01X2140512Y3612496D02*
G02X2109530Y3581508I-30983J-5D01*
G54D11*
G01X1105921Y2542560D02*
G01X1105921Y2364720D01*
G01X1413759Y2542560D02*
G01X1413759Y2364720D01*
G01X1942079Y2240260D02*
G01X1942079Y2418100D01*
G01X1634241Y2240260D02*
G01X1634241Y2418100D01*
G01X2307839Y2240260D02*
G01X2307839Y2418100D01*
G01X2000001Y2240260D02*
G01X2000001Y2418100D01*
G01X2673599Y2240260D02*
G01X2673599Y2418100D01*
G01X2365761Y2240260D02*
G01X2365761Y2418100D01*
G54D12*
G01X1758800Y1495501D02*
G01X2018190Y1495501D01*
G01X677304Y10749D02*
G01X677304Y112641D01*
G01X677304Y546369D02*
G01X677304Y1277635D01*
G01X677304Y1443866D02*
G01X677304Y1495501D01*
G01X792188Y1495501D01*
G01X999300Y1440503D02*
G01X1494302Y1440503D01*
G01X2091301Y10749D02*
G01X2091301Y112634D01*
G01X2091301Y408864D02*
G01X2091301Y1260638D01*
G01X834306Y285504D02*
G01X834306Y10500D01*
G01X677304Y10500D01*
G01X1714302Y725503D02*
G01X1054303Y725503D01*
G01X1714302Y835505D02*
G01X1054303Y835505D01*
G01X2091301Y10749D02*
G01X1769306Y10749D01*
G01X1769306Y285504D01*
G01X1714302Y835503D02*
G02X1714246Y725564I-401J-54969D01*
G01X1054303Y725503D02*
G02X1054354Y835546I25J55021D01*
G01X834304Y285504D02*
G02X1769364Y285382I467482J-367825D01*
G54D11*
G01X1903590Y2934211D02*
G01X1903590Y3237989D01*
G01X2409330Y3237989D01*
G01X2409330Y2934211D01*
G01X1903590Y2934211D01*
G54D12*
G01X1473002Y1761000D02*
G01X1473002Y2049000D01*
G01X812998Y1761000D02*
G01X812998Y2049000D01*
G01X1473002Y1761000D02*
G01X1356114Y1761000D01*
G01X929886Y1761000D02*
G01X812998Y1761000D01*
G01X1473002Y2049000D02*
G01X1356114Y2049000D01*
G01X929886Y2049000D02*
G01X812998Y2049000D01*
G01X1423010Y1865000D02*
G01X863016Y1865000D01*
G01X863016Y1945010D01*
G01X1423010Y1945010D01*
G01X1423010Y1865000D01*
G54D11*
G01X2420246Y2787862D02*
G01X2420246Y2837861D01*
G01X2504724Y2772619D02*
G01X2435484Y2772619D01*
G01X2519964Y2837861D02*
G01X2519964Y2787862D01*
G01X2519751Y2932139D02*
G01X2519751Y2882139D01*
G01X2420038Y2882139D02*
G01X2420038Y2932139D01*
G01X2435273Y2947381D02*
G01X2504516Y2947381D01*
G01X2420036Y2932139D02*
G02X2435276Y2947379I15240J0D01*
G01X2504516Y2947379D02*
G02X2519756Y2932139I0J-15240D01*
G01X2519964Y2787862D02*
G02X2504724Y2772622I-15240J0D01*
G01X2435484Y2772622D02*
G02X2420244Y2787862I0J15240D01*
G54D12*
G01X2610957Y3261981D02*
G01X2610957Y3181984D01*
G01X2611003Y3318026D02*
G01X2611003Y3398024D01*
G01X2468989Y3261981D02*
G01X2468989Y3181984D01*
G01X2469037Y3318026D02*
G01X2469037Y3398024D01*
G01X2579975Y3151009D02*
G01X2499970Y3151009D01*
G01X2500023Y3429002D02*
G01X2580025Y3429002D01*
G01X2469037Y3398019D02*
G02X2500023Y3429002I30983J0D01*
G01X2580020Y3429002D02*
G02X2611003Y3398019I0J-30983D01*
G01X2610957Y3181989D02*
G02X2579975Y3151009I-30983J3D01*
G01X2499977Y3151009D02*
G02X2468989Y3181989I-5J30983D01*
G01X2249042Y3718019D02*
G01X2249042Y3798016D01*
G01X2248997Y3661974D02*
G01X2248997Y3581976D01*
G01X2391011Y3718019D02*
G01X2391011Y3798016D01*
G01X2390962Y3661974D02*
G01X2390962Y3581976D01*
G01X2280025Y3828991D02*
G01X2360030Y3828991D01*
G01X2359977Y3550998D02*
G01X2279975Y3550998D01*
G01X2390962Y3581981D02*
G02X2359977Y3550998I-30983J0D01*
G01X2279980Y3550998D02*
G02X2248997Y3581981I0J30983D01*
G01X2249042Y3798011D02*
G02X2280025Y3828991I30983J-3D01*
G01X2360023Y3828991D02*
G02X2391011Y3798011I5J-30983D01*
G01X2660957Y2861981D02*
G01X2660957Y2781984D01*
G01X2661003Y2918026D02*
G01X2661003Y2998024D01*
G01X2518989Y2861981D02*
G01X2518989Y2781984D01*
G01X2519037Y2918026D02*
G01X2519037Y2998024D01*
G01X2629974Y2751009D02*
G01X2549970Y2751009D01*
G01X2550023Y3029002D02*
G01X2630025Y3029002D01*
G01X2519037Y2998019D02*
G02X2550023Y3029002I30983J0D01*
G01X2630020Y3029002D02*
G02X2661003Y2998019I0J-30983D01*
G01X2660957Y2781989D02*
G02X2629974Y2751009I-30983J3D01*
G01X2549977Y2751009D02*
G02X2518989Y2781989I-5J30983D01*

G04 Circle Start*
G54D13*
G01X1411656Y2583790D02*
G03X1441679Y2583790I15011J0D01*
G03X1411656Y2583790I-15011J0D01*
G01X1606321Y2199030D02*
G03X1636344Y2199030I15011J0D01*
G03X1606321Y2199030I-15011J0D01*
G01X1972081Y2199030D02*
G03X2002104Y2199030I15011J0D01*
G03X1972081Y2199030I-15011J0D01*
G01X2337841Y2199030D02*
G03X2367864Y2199030I15011J0D01*
G03X2337841Y2199030I-15011J0D01*
G54D12*
G01X1664589Y51511D02*
G03X1689989Y51511I12700J0D01*
G03X1664589Y51511I-12700J0D01*
G54D13*
G01X1856181Y2820619D02*
G03X1886204Y2820619I15011J0D01*
G03X1856181Y2820619I-15011J0D01*
G01X1936979Y2976423D02*
G03X1967001Y2976423I15011J0D01*
G03X1936979Y2976423I-15011J0D01*
G54D12*
G01X1362989Y2084989D02*
G03X1383005Y2084989I10008J0D01*
G03X1362989Y2084989I-10008J0D01*
G04 Circle End*

M02*

