G04 Layer: DrillDrawingLayer*
G04 EasyEDA Pro v3.2.148, 2026-08-17 02:33:26*
G04 Gerber Generator version 0.3*
G04 Scale: 100 percent, Rotated: No, Reflected: No*
G04 Dimensions in millimeters*
G04 Leading zeros omitted, absolute positions, 4 integers and 5 decimals*
G04 Generated by one-click*
G04 Object Configs: Pad,Via,Track,Text,Image,Dimension,BoardOutline,BoardCutout,CopperFilled,SolidRegion,FPCStiffener,Line,PlaneZone,ComponentProperty,ComponentSilkscreen,TearDrop*
G04 Layer Configs: 1,2,3,4,5,6,7,8,9,10,11,13,14,56*
G04 Copper Areas: 0*
%FSLAX45Y45*%
%MOMM*%
%AMIconRect*4,1,4,0.28,-0.28,-0.28,-0.28,-0.28,0.28,0.28,0.28,0.28,-0.28,0*4,0,4,0.233333,-0.233333,0.233333,0.233333,-0.233333,0.233333,-0.233333,-0.233333,0.233333,-0.233333,0*%
%AMIconTriangle*4,1,3,-0.339593,0.240473,0.339593,0.240473,0,-0.37884,-0.339593,0.240473,0*4,0,3,-0.265673,0.19404,0,-0.27342,0.266233,0.19404,-0.265673,0.19404,0*%
%ADD10IconRect*%
%ADD11C,0.616X0.522667*%
%ADD12IconTriangle*%
%ADD13C,0.2032*%
%ADD14C,0.254*%
G75*


G04 Drill Drawing Start*
G54D10*
G01X229500Y224400D03*
G01X2529590Y224400D03*
G54D11*
G01X219300Y851700D03*
G01X2532600Y844600D03*
G54D12*
G01X74600Y100000D03*
G01X74600Y300000D03*
G01X74600Y400000D03*
G01X74600Y500000D03*
G01X74600Y600000D03*
G01X74600Y700000D03*
G01X74600Y1000000D03*
G01X74600Y1100000D03*
G01X74600Y1200000D03*
G01X74600Y1300000D03*
G01X74600Y1400000D03*
G01X74600Y1500000D03*
G01X300000Y1700000D03*
G01X500000Y1900000D03*
G01X700000Y2100000D03*
G01X800000Y3500000D03*
G01X800000Y3700000D03*
G01X800000Y3900000D03*
G01X800322Y1761000D03*
G01X802640Y1681480D03*
G01X802640Y2463545D03*
G01X869859Y2463545D03*
G01X871442Y1761000D03*
G01X873760Y1681480D03*
G01X1000000Y3900000D03*
G01X1193800Y598781D03*
G01X1193800Y1097280D03*
G01X1200000Y3100000D03*
G01X1200000Y3900000D03*
G01X1259840Y2235200D03*
G01X1344295Y83185D03*
G01X1400000Y3100000D03*
G01X1400000Y3900000D03*
G01X1564640Y599440D03*
G01X1564640Y1097280D03*
G01X1600000Y3900000D03*
G01X1722120Y3622040D03*
G01X1722120Y3686237D03*
G01X1788160Y2342135D03*
G01X1798320Y2560320D03*
G01X1950720Y599440D03*
G01X1950720Y1097280D03*
G01X1971040Y2545080D03*
G01X2153920Y2616200D03*
G01X2155618Y2342135D03*
G01X2200000Y3900000D03*
G01X2250000Y3190000D03*
G01X2331720Y2545080D03*
G01X2443480Y2717800D03*
G01X2499360Y3698240D03*
G01X2500000Y3900000D03*
G01X2518824Y2560320D03*
G01X2520629Y2342135D03*
G01X2618311Y2717800D03*
G01X2700000Y100000D03*
G01X2700000Y200000D03*
G01X2700000Y300000D03*
G01X2700000Y400000D03*
G01X2700000Y500000D03*
G01X2700000Y600000D03*
G01X2700000Y700000D03*
G01X2700000Y800000D03*
G01X2700000Y900000D03*
G01X2700000Y1000000D03*
G01X2700000Y1100000D03*
G01X2700000Y1200000D03*
G01X2700000Y1300000D03*
G01X2700000Y1400000D03*
G01X2700000Y1500000D03*
G01X2700000Y1800000D03*
G01X2700000Y3500000D03*
G01X2700000Y3700000D03*
G01X2700000Y3900000D03*
G01X2717800Y2342137D03*
G04 Drill Drawing End*

G04 Text Start*
G54D13*
G01X5100446Y3778294D02*
G01X5100446Y3658152D01*
G01X5100446Y3778294D02*
G01X5146166Y3658152D01*
G01X5191886Y3778294D02*
G01X5146166Y3658152D01*
G01X5191886Y3778294D02*
G01X5191886Y3658152D01*
G01X5308218Y3738162D02*
G01X5308218Y3658152D01*
G01X5308218Y3721144D02*
G01X5296788Y3732574D01*
G01X5285358Y3738162D01*
G01X5268340Y3738162D01*
G01X5256910Y3732574D01*
G01X5245480Y3721144D01*
G01X5239638Y3703872D01*
G01X5239638Y3692442D01*
G01X5245480Y3675424D01*
G01X5256910Y3663994D01*
G01X5268340Y3658152D01*
G01X5285358Y3658152D01*
G01X5296788Y3663994D01*
G01X5308218Y3675424D01*
G01X5355970Y3738162D02*
G01X5355970Y3658152D01*
G01X5355970Y3703872D02*
G01X5361812Y3721144D01*
G01X5373242Y3732574D01*
G01X5384672Y3738162D01*
G01X5401690Y3738162D01*
G01X5449442Y3778294D02*
G01X5449442Y3658152D01*
G01X5506592Y3738162D02*
G01X5449442Y3681012D01*
G01X5472302Y3703872D02*
G01X5512434Y3658152D01*
G01X6637726Y3749592D02*
G01X6631884Y3761022D01*
G01X6620454Y3772452D01*
G01X6609024Y3778294D01*
G01X6586164Y3778294D01*
G01X6574734Y3772452D01*
G01X6563304Y3761022D01*
G01X6557716Y3749592D01*
G01X6551874Y3732574D01*
G01X6551874Y3703872D01*
G01X6557716Y3686854D01*
G01X6563304Y3675424D01*
G01X6574734Y3663994D01*
G01X6586164Y3658152D01*
G01X6609024Y3658152D01*
G01X6620454Y3663994D01*
G01X6631884Y3675424D01*
G01X6637726Y3686854D01*
G01X6714180Y3738162D02*
G01X6702750Y3732574D01*
G01X6691320Y3721144D01*
G01X6685478Y3703872D01*
G01X6685478Y3692442D01*
G01X6691320Y3675424D01*
G01X6702750Y3663994D01*
G01X6714180Y3658152D01*
G01X6731198Y3658152D01*
G01X6742628Y3663994D01*
G01X6754058Y3675424D01*
G01X6759900Y3692442D01*
G01X6759900Y3703872D01*
G01X6754058Y3721144D01*
G01X6742628Y3732574D01*
G01X6731198Y3738162D01*
G01X6714180Y3738162D01*
G01X6807652Y3738162D02*
G01X6807652Y3681012D01*
G01X6813494Y3663994D01*
G01X6824924Y3658152D01*
G01X6841942Y3658152D01*
G01X6853372Y3663994D01*
G01X6870644Y3681012D01*
G01X6870644Y3738162D02*
G01X6870644Y3658152D01*
G01X6918396Y3738162D02*
G01X6918396Y3658152D01*
G01X6918396Y3715302D02*
G01X6935668Y3732574D01*
G01X6947098Y3738162D01*
G01X6964116Y3738162D01*
G01X6975546Y3732574D01*
G01X6981388Y3715302D01*
G01X6981388Y3658152D01*
G01X7046412Y3778294D02*
G01X7046412Y3681012D01*
G01X7052000Y3663994D01*
G01X7063430Y3658152D01*
G01X7074860Y3658152D01*
G01X7029140Y3738162D02*
G01X7069272Y3738162D01*
G01X8046047Y3761022D02*
G01X8034617Y3772452D01*
G01X8017599Y3778294D01*
G01X7994739Y3778294D01*
G01X7977467Y3772452D01*
G01X7966037Y3761022D01*
G01X7966037Y3749592D01*
G01X7971879Y3738162D01*
G01X7977467Y3732574D01*
G01X7988897Y3726732D01*
G01X8023187Y3715302D01*
G01X8034617Y3709714D01*
G01X8040459Y3703872D01*
G01X8046047Y3692442D01*
G01X8046047Y3675424D01*
G01X8034617Y3663994D01*
G01X8017599Y3658152D01*
G01X7994739Y3658152D01*
G01X7977467Y3663994D01*
G01X7966037Y3675424D01*
G01X8093799Y3778294D02*
G01X8099641Y3772452D01*
G01X8105229Y3778294D01*
G01X8099641Y3783882D01*
G01X8093799Y3778294D01*
G01X8099641Y3738162D02*
G01X8099641Y3658152D01*
G01X8215973Y3738162D02*
G01X8152981Y3658152D01*
G01X8152981Y3738162D02*
G01X8215973Y3738162D01*
G01X8152981Y3658152D02*
G01X8215973Y3658152D01*
G01X8263725Y3703872D02*
G01X8332305Y3703872D01*
G01X8332305Y3715302D01*
G01X8326717Y3726732D01*
G01X8320875Y3732574D01*
G01X8309445Y3738162D01*
G01X8292427Y3738162D01*
G01X8280997Y3732574D01*
G01X8269567Y3721144D01*
G01X8263725Y3703872D01*
G01X8263725Y3692442D01*
G01X8269567Y3675424D01*
G01X8280997Y3663994D01*
G01X8292427Y3658152D01*
G01X8309445Y3658152D01*
G01X8320875Y3663994D01*
G01X8332305Y3675424D01*
G01X11859495Y3778294D02*
G01X11859495Y3658152D01*
G01X11859495Y3778294D02*
G01X11911057Y3778294D01*
G01X11928075Y3772452D01*
G01X11933917Y3766864D01*
G01X11939505Y3755434D01*
G01X11939505Y3738162D01*
G01X11933917Y3726732D01*
G01X11928075Y3721144D01*
G01X11911057Y3715302D01*
G01X11859495Y3715302D01*
G01X11987257Y3778294D02*
G01X11987257Y3658152D01*
G01X12103589Y3738162D02*
G01X12103589Y3658152D01*
G01X12103589Y3721144D02*
G01X12092159Y3732574D01*
G01X12080729Y3738162D01*
G01X12063711Y3738162D01*
G01X12052281Y3732574D01*
G01X12040851Y3721144D01*
G01X12035009Y3703872D01*
G01X12035009Y3692442D01*
G01X12040851Y3675424D01*
G01X12052281Y3663994D01*
G01X12063711Y3658152D01*
G01X12080729Y3658152D01*
G01X12092159Y3663994D01*
G01X12103589Y3675424D01*
G01X12168613Y3778294D02*
G01X12168613Y3681012D01*
G01X12174201Y3663994D01*
G01X12185631Y3658152D01*
G01X12197061Y3658152D01*
G01X12151341Y3738162D02*
G01X12191473Y3738162D01*
G01X12244813Y3703872D02*
G01X12313393Y3703872D01*
G01X12313393Y3715302D01*
G01X12307805Y3726732D01*
G01X12301963Y3732574D01*
G01X12290533Y3738162D01*
G01X12273515Y3738162D01*
G01X12262085Y3732574D01*
G01X12250655Y3721144D01*
G01X12244813Y3703872D01*
G01X12244813Y3692442D01*
G01X12250655Y3675424D01*
G01X12262085Y3663994D01*
G01X12273515Y3658152D01*
G01X12290533Y3658152D01*
G01X12301963Y3663994D01*
G01X12313393Y3675424D01*
G01X12429725Y3778294D02*
G01X12429725Y3658152D01*
G01X12429725Y3721144D02*
G01X12418295Y3732574D01*
G01X12406865Y3738162D01*
G01X12389847Y3738162D01*
G01X12378417Y3732574D01*
G01X12366987Y3721144D01*
G01X12361145Y3703872D01*
G01X12361145Y3692442D01*
G01X12366987Y3675424D01*
G01X12378417Y3663994D01*
G01X12389847Y3658152D01*
G01X12406865Y3658152D01*
G01X12418295Y3663994D01*
G01X12429725Y3675424D01*
G01X13400912Y3761022D02*
G01X13389482Y3772452D01*
G01X13372464Y3778294D01*
G01X13349604Y3778294D01*
G01X13332332Y3772452D01*
G01X13320902Y3761022D01*
G01X13320902Y3749592D01*
G01X13326744Y3738162D01*
G01X13332332Y3732574D01*
G01X13343762Y3726732D01*
G01X13378052Y3715302D01*
G01X13389482Y3709714D01*
G01X13395324Y3703872D01*
G01X13400912Y3692442D01*
G01X13400912Y3675424D01*
G01X13389482Y3663994D01*
G01X13372464Y3658152D01*
G01X13349604Y3658152D01*
G01X13332332Y3663994D01*
G01X13320902Y3675424D01*
G01X13448664Y3778294D02*
G01X13448664Y3658152D01*
G01X13448664Y3715302D02*
G01X13465936Y3732574D01*
G01X13477366Y3738162D01*
G01X13494384Y3738162D01*
G01X13505814Y3732574D01*
G01X13511656Y3715302D01*
G01X13511656Y3658152D01*
G01X13627988Y3738162D02*
G01X13627988Y3658152D01*
G01X13627988Y3721144D02*
G01X13616558Y3732574D01*
G01X13605128Y3738162D01*
G01X13588110Y3738162D01*
G01X13576680Y3732574D01*
G01X13565250Y3721144D01*
G01X13559408Y3703872D01*
G01X13559408Y3692442D01*
G01X13565250Y3675424D01*
G01X13576680Y3663994D01*
G01X13588110Y3658152D01*
G01X13605128Y3658152D01*
G01X13616558Y3663994D01*
G01X13627988Y3675424D01*
G01X13675740Y3738162D02*
G01X13675740Y3618274D01*
G01X13675740Y3721144D02*
G01X13687170Y3732574D01*
G01X13698600Y3738162D01*
G01X13715872Y3738162D01*
G01X13727302Y3732574D01*
G01X13738732Y3721144D01*
G01X13744320Y3703872D01*
G01X13744320Y3692442D01*
G01X13738732Y3675424D01*
G01X13727302Y3663994D01*
G01X13715872Y3658152D01*
G01X13698600Y3658152D01*
G01X13687170Y3663994D01*
G01X13675740Y3675424D01*
G01X13792072Y3703872D02*
G01X13860652Y3703872D01*
G01X13860652Y3715302D01*
G01X13855064Y3726732D01*
G01X13849222Y3732574D01*
G01X13837792Y3738162D01*
G01X13820774Y3738162D01*
G01X13809344Y3732574D01*
G01X13797914Y3721144D01*
G01X13792072Y3703872D01*
G01X13792072Y3692442D01*
G01X13797914Y3675424D01*
G01X13809344Y3663994D01*
G01X13820774Y3658152D01*
G01X13837792Y3658152D01*
G01X13849222Y3663994D01*
G01X13860652Y3675424D01*
G01X14752083Y3778294D02*
G01X14797803Y3658152D01*
G01X14843523Y3778294D02*
G01X14797803Y3658152D01*
G01X14891275Y3778294D02*
G01X14897117Y3772452D01*
G01X14902705Y3778294D01*
G01X14897117Y3783882D01*
G01X14891275Y3778294D01*
G01X14897117Y3738162D02*
G01X14897117Y3658152D01*
G01X15019037Y3738162D02*
G01X15019037Y3658152D01*
G01X15019037Y3721144D02*
G01X15007607Y3732574D01*
G01X14996177Y3738162D01*
G01X14979159Y3738162D01*
G01X14967729Y3732574D01*
G01X14956299Y3721144D01*
G01X14950457Y3703872D01*
G01X14950457Y3692442D01*
G01X14956299Y3675424D01*
G01X14967729Y3663994D01*
G01X14979159Y3658152D01*
G01X14996177Y3658152D01*
G01X15007607Y3663994D01*
G01X15019037Y3675424D01*
G01X15169659Y3801154D02*
G01X15066789Y3618274D01*
G01X15217411Y3778294D02*
G01X15217411Y3658152D01*
G01X15217411Y3778294D02*
G01X15268973Y3778294D01*
G01X15285991Y3772452D01*
G01X15291833Y3766864D01*
G01X15297421Y3755434D01*
G01X15297421Y3738162D01*
G01X15291833Y3726732D01*
G01X15285991Y3721144D01*
G01X15268973Y3715302D01*
G01X15217411Y3715302D01*
G01X15413753Y3738162D02*
G01X15413753Y3658152D01*
G01X15413753Y3721144D02*
G01X15402323Y3732574D01*
G01X15390893Y3738162D01*
G01X15373875Y3738162D01*
G01X15362445Y3732574D01*
G01X15351015Y3721144D01*
G01X15345173Y3703872D01*
G01X15345173Y3692442D01*
G01X15351015Y3675424D01*
G01X15362445Y3663994D01*
G01X15373875Y3658152D01*
G01X15390893Y3658152D01*
G01X15402323Y3663994D01*
G01X15413753Y3675424D01*
G01X15530085Y3778294D02*
G01X15530085Y3658152D01*
G01X15530085Y3721144D02*
G01X15518655Y3732574D01*
G01X15507225Y3738162D01*
G01X15490207Y3738162D01*
G01X15478777Y3732574D01*
G01X15467347Y3721144D01*
G01X15461505Y3703872D01*
G01X15461505Y3692442D01*
G01X15467347Y3675424D01*
G01X15478777Y3663994D01*
G01X15490207Y3658152D01*
G01X15507225Y3658152D01*
G01X15518655Y3663994D01*
G01X15530085Y3675424D01*
G01X16421262Y3778294D02*
G01X16421262Y3658152D01*
G01X16421262Y3778294D02*
G01X16472824Y3778294D01*
G01X16489842Y3772452D01*
G01X16495684Y3766864D01*
G01X16501272Y3755434D01*
G01X16501272Y3738162D01*
G01X16495684Y3726732D01*
G01X16489842Y3721144D01*
G01X16472824Y3715302D01*
G01X16421262Y3715302D01*
G01X16617604Y3738162D02*
G01X16617604Y3658152D01*
G01X16617604Y3721144D02*
G01X16606174Y3732574D01*
G01X16594744Y3738162D01*
G01X16577726Y3738162D01*
G01X16566296Y3732574D01*
G01X16554866Y3721144D01*
G01X16549024Y3703872D01*
G01X16549024Y3692442D01*
G01X16554866Y3675424D01*
G01X16566296Y3663994D01*
G01X16577726Y3658152D01*
G01X16594744Y3658152D01*
G01X16606174Y3663994D01*
G01X16617604Y3675424D01*
G01X16733936Y3778294D02*
G01X16733936Y3658152D01*
G01X16733936Y3721144D02*
G01X16722506Y3732574D01*
G01X16711076Y3738162D01*
G01X16694058Y3738162D01*
G01X16682628Y3732574D01*
G01X16671198Y3721144D01*
G01X16665356Y3703872D01*
G01X16665356Y3692442D01*
G01X16671198Y3675424D01*
G01X16682628Y3663994D01*
G01X16694058Y3658152D01*
G01X16711076Y3658152D01*
G01X16722506Y3663994D01*
G01X16733936Y3675424D01*
G01X16989714Y3761022D02*
G01X16978284Y3772452D01*
G01X16961266Y3778294D01*
G01X16938406Y3778294D01*
G01X16921134Y3772452D01*
G01X16909704Y3761022D01*
G01X16909704Y3749592D01*
G01X16915546Y3738162D01*
G01X16921134Y3732574D01*
G01X16932564Y3726732D01*
G01X16966854Y3715302D01*
G01X16978284Y3709714D01*
G01X16984126Y3703872D01*
G01X16989714Y3692442D01*
G01X16989714Y3675424D01*
G01X16978284Y3663994D01*
G01X16961266Y3658152D01*
G01X16938406Y3658152D01*
G01X16921134Y3663994D01*
G01X16909704Y3675424D01*
G01X17037466Y3778294D02*
G01X17037466Y3658152D01*
G01X17037466Y3715302D02*
G01X17054738Y3732574D01*
G01X17066168Y3738162D01*
G01X17083186Y3738162D01*
G01X17094616Y3732574D01*
G01X17100458Y3715302D01*
G01X17100458Y3658152D01*
G01X17216790Y3738162D02*
G01X17216790Y3658152D01*
G01X17216790Y3721144D02*
G01X17205360Y3732574D01*
G01X17193930Y3738162D01*
G01X17176912Y3738162D01*
G01X17165482Y3732574D01*
G01X17154052Y3721144D01*
G01X17148210Y3703872D01*
G01X17148210Y3692442D01*
G01X17154052Y3675424D01*
G01X17165482Y3663994D01*
G01X17176912Y3658152D01*
G01X17193930Y3658152D01*
G01X17205360Y3663994D01*
G01X17216790Y3675424D01*
G01X17264542Y3738162D02*
G01X17264542Y3618274D01*
G01X17264542Y3721144D02*
G01X17275972Y3732574D01*
G01X17287402Y3738162D01*
G01X17304674Y3738162D01*
G01X17316104Y3732574D01*
G01X17327534Y3721144D01*
G01X17333122Y3703872D01*
G01X17333122Y3692442D01*
G01X17327534Y3675424D01*
G01X17316104Y3663994D01*
G01X17304674Y3658152D01*
G01X17287402Y3658152D01*
G01X17275972Y3663994D01*
G01X17264542Y3675424D01*
G01X17380874Y3703872D02*
G01X17449454Y3703872D01*
G01X17449454Y3715302D01*
G01X17443866Y3726732D01*
G01X17438024Y3732574D01*
G01X17426594Y3738162D01*
G01X17409576Y3738162D01*
G01X17398146Y3732574D01*
G01X17386716Y3721144D01*
G01X17380874Y3703872D01*
G01X17380874Y3692442D01*
G01X17386716Y3675424D01*
G01X17398146Y3663994D01*
G01X17409576Y3658152D01*
G01X17426594Y3658152D01*
G01X17438024Y3663994D01*
G01X17449454Y3675424D01*
G01X18340631Y3778294D02*
G01X18340631Y3658152D01*
G01X18340631Y3658152D02*
G01X18409211Y3658152D01*
G01X18525543Y3738162D02*
G01X18525543Y3658152D01*
G01X18525543Y3721144D02*
G01X18514113Y3732574D01*
G01X18502683Y3738162D01*
G01X18485665Y3738162D01*
G01X18474235Y3732574D01*
G01X18462805Y3721144D01*
G01X18456963Y3703872D01*
G01X18456963Y3692442D01*
G01X18462805Y3675424D01*
G01X18474235Y3663994D01*
G01X18485665Y3658152D01*
G01X18502683Y3658152D01*
G01X18514113Y3663994D01*
G01X18525543Y3675424D01*
G01X18579137Y3738162D02*
G01X18613427Y3658152D01*
G01X18647717Y3738162D02*
G01X18613427Y3658152D01*
G01X18601997Y3635292D01*
G01X18590567Y3623862D01*
G01X18579137Y3618274D01*
G01X18573295Y3618274D01*
G01X18695469Y3703872D02*
G01X18764049Y3703872D01*
G01X18764049Y3715302D01*
G01X18758461Y3726732D01*
G01X18752619Y3732574D01*
G01X18741189Y3738162D01*
G01X18724171Y3738162D01*
G01X18712741Y3732574D01*
G01X18701311Y3721144D01*
G01X18695469Y3703872D01*
G01X18695469Y3692442D01*
G01X18701311Y3675424D01*
G01X18712741Y3663994D01*
G01X18724171Y3658152D01*
G01X18741189Y3658152D01*
G01X18752619Y3663994D01*
G01X18764049Y3675424D01*
G01X18811801Y3738162D02*
G01X18811801Y3658152D01*
G01X18811801Y3703872D02*
G01X18817643Y3721144D01*
G01X18829073Y3732574D01*
G01X18840503Y3738162D01*
G01X18857521Y3738162D01*
G01X19033289Y3778294D02*
G01X19033289Y3658152D01*
G01X19033289Y3778294D02*
G01X19084851Y3778294D01*
G01X19101869Y3772452D01*
G01X19107711Y3766864D01*
G01X19113299Y3755434D01*
G01X19113299Y3738162D01*
G01X19107711Y3726732D01*
G01X19101869Y3721144D01*
G01X19084851Y3715302D01*
G01X19033289Y3715302D01*
G01X19229631Y3738162D02*
G01X19229631Y3658152D01*
G01X19229631Y3721144D02*
G01X19218201Y3732574D01*
G01X19206771Y3738162D01*
G01X19189753Y3738162D01*
G01X19178323Y3732574D01*
G01X19166893Y3721144D01*
G01X19161051Y3703872D01*
G01X19161051Y3692442D01*
G01X19166893Y3675424D01*
G01X19178323Y3663994D01*
G01X19189753Y3658152D01*
G01X19206771Y3658152D01*
G01X19218201Y3663994D01*
G01X19229631Y3675424D01*
G01X19277383Y3778294D02*
G01X19283225Y3772452D01*
G01X19288813Y3778294D01*
G01X19283225Y3783882D01*
G01X19277383Y3778294D01*
G01X19283225Y3738162D02*
G01X19283225Y3658152D01*
G01X19336565Y3738162D02*
G01X19336565Y3658152D01*
G01X19336565Y3703872D02*
G01X19342407Y3721144D01*
G01X19353837Y3732574D01*
G01X19365267Y3738162D01*
G01X19382285Y3738162D01*
G01X6557716Y3169021D02*
G01X6557716Y3174863D01*
G01X6563304Y3186293D01*
G01X6569146Y3191881D01*
G01X6580576Y3197723D01*
G01X6603436Y3197723D01*
G01X6614866Y3191881D01*
G01X6620454Y3186293D01*
G01X6626296Y3174863D01*
G01X6626296Y3163433D01*
G01X6620454Y3152003D01*
G01X6609024Y3134731D01*
G01X6551874Y3077581D01*
G01X6631884Y3077581D01*
G01X7994739Y3197723D02*
G01X7977467Y3191881D01*
G01X7971879Y3180451D01*
G01X7971879Y3169021D01*
G01X7977467Y3157591D01*
G01X7988897Y3152003D01*
G01X8011757Y3146161D01*
G01X8029029Y3140573D01*
G01X8040459Y3129143D01*
G01X8046047Y3117713D01*
G01X8046047Y3100441D01*
G01X8040459Y3089011D01*
G01X8034617Y3083423D01*
G01X8017599Y3077581D01*
G01X7994739Y3077581D01*
G01X7977467Y3083423D01*
G01X7971879Y3089011D01*
G01X7966037Y3100441D01*
G01X7966037Y3117713D01*
G01X7971879Y3129143D01*
G01X7983309Y3140573D01*
G01X8000327Y3146161D01*
G01X8023187Y3152003D01*
G01X8034617Y3157591D01*
G01X8040459Y3169021D01*
G01X8040459Y3180451D01*
G01X8034617Y3191881D01*
G01X8017599Y3197723D01*
G01X7994739Y3197723D01*
G01X8128089Y3197723D02*
G01X8111071Y3191881D01*
G01X8099641Y3174863D01*
G01X8093799Y3146161D01*
G01X8093799Y3129143D01*
G01X8099641Y3100441D01*
G01X8111071Y3083423D01*
G01X8128089Y3077581D01*
G01X8139519Y3077581D01*
G01X8156791Y3083423D01*
G01X8168221Y3100441D01*
G01X8173809Y3129143D01*
G01X8173809Y3146161D01*
G01X8168221Y3174863D01*
G01X8156791Y3191881D01*
G01X8139519Y3197723D01*
G01X8128089Y3197723D01*
G01X8227403Y3106283D02*
G01X8221561Y3100441D01*
G01X8227403Y3094853D01*
G01X8232991Y3100441D01*
G01X8227403Y3106283D01*
G01X8315033Y3197723D02*
G01X8298015Y3191881D01*
G01X8286585Y3174863D01*
G01X8280743Y3146161D01*
G01X8280743Y3129143D01*
G01X8286585Y3100441D01*
G01X8298015Y3083423D01*
G01X8315033Y3077581D01*
G01X8326463Y3077581D01*
G01X8343735Y3083423D01*
G01X8355165Y3100441D01*
G01X8360753Y3129143D01*
G01X8360753Y3146161D01*
G01X8355165Y3174863D01*
G01X8343735Y3191881D01*
G01X8326463Y3197723D01*
G01X8315033Y3197723D01*
G01X8408505Y3157591D02*
G01X8471497Y3077581D01*
G01X8471497Y3157591D02*
G01X8408505Y3077581D01*
G01X8547951Y3197723D02*
G01X8530679Y3191881D01*
G01X8525091Y3180451D01*
G01X8525091Y3169021D01*
G01X8530679Y3157591D01*
G01X8542109Y3152003D01*
G01X8564969Y3146161D01*
G01X8582241Y3140573D01*
G01X8593671Y3129143D01*
G01X8599259Y3117713D01*
G01X8599259Y3100441D01*
G01X8593671Y3089011D01*
G01X8587829Y3083423D01*
G01X8570811Y3077581D01*
G01X8547951Y3077581D01*
G01X8530679Y3083423D01*
G01X8525091Y3089011D01*
G01X8519249Y3100441D01*
G01X8519249Y3117713D01*
G01X8525091Y3129143D01*
G01X8536521Y3140573D01*
G01X8553539Y3146161D01*
G01X8576399Y3152003D01*
G01X8587829Y3157591D01*
G01X8593671Y3169021D01*
G01X8593671Y3180451D01*
G01X8587829Y3191881D01*
G01X8570811Y3197723D01*
G01X8547951Y3197723D01*
G01X8681301Y3197723D02*
G01X8664283Y3191881D01*
G01X8652853Y3174863D01*
G01X8647011Y3146161D01*
G01X8647011Y3129143D01*
G01X8652853Y3100441D01*
G01X8664283Y3083423D01*
G01X8681301Y3077581D01*
G01X8692731Y3077581D01*
G01X8710003Y3083423D01*
G01X8721433Y3100441D01*
G01X8727021Y3129143D01*
G01X8727021Y3146161D01*
G01X8721433Y3174863D01*
G01X8710003Y3191881D01*
G01X8692731Y3197723D01*
G01X8681301Y3197723D01*
G01X8780615Y3106283D02*
G01X8774773Y3100441D01*
G01X8780615Y3094853D01*
G01X8786203Y3100441D01*
G01X8780615Y3106283D01*
G01X8868245Y3197723D02*
G01X8851227Y3191881D01*
G01X8839797Y3174863D01*
G01X8833955Y3146161D01*
G01X8833955Y3129143D01*
G01X8839797Y3100441D01*
G01X8851227Y3083423D01*
G01X8868245Y3077581D01*
G01X8879675Y3077581D01*
G01X8896947Y3083423D01*
G01X8908377Y3100441D01*
G01X8913965Y3129143D01*
G01X8913965Y3146161D01*
G01X8908377Y3174863D01*
G01X8896947Y3191881D01*
G01X8879675Y3197723D01*
G01X8868245Y3197723D01*
G01X8961717Y3157591D02*
G01X8961717Y3077581D01*
G01X8961717Y3134731D02*
G01X8978989Y3152003D01*
G01X8990419Y3157591D01*
G01X9007437Y3157591D01*
G01X9018867Y3152003D01*
G01X9024709Y3134731D01*
G01X9024709Y3077581D01*
G01X9024709Y3134731D02*
G01X9041727Y3152003D01*
G01X9053157Y3157591D01*
G01X9070429Y3157591D01*
G01X9081859Y3152003D01*
G01X9087447Y3134731D01*
G01X9087447Y3077581D01*
G01X9135199Y3197723D02*
G01X9141041Y3191881D01*
G01X9146629Y3197723D01*
G01X9141041Y3203311D01*
G01X9135199Y3197723D01*
G01X9141041Y3157591D02*
G01X9141041Y3077581D01*
G01X9194381Y3197723D02*
G01X9194381Y3077581D01*
G01X9282265Y3220583D02*
G01X9270835Y3209153D01*
G01X9259405Y3191881D01*
G01X9247975Y3169021D01*
G01X9242133Y3140573D01*
G01X9242133Y3117713D01*
G01X9247975Y3089011D01*
G01X9259405Y3066151D01*
G01X9270835Y3049133D01*
G01X9282265Y3037703D01*
G01X9335859Y3169021D02*
G01X9335859Y3174863D01*
G01X9341447Y3186293D01*
G01X9347289Y3191881D01*
G01X9358719Y3197723D01*
G01X9381579Y3197723D01*
G01X9393009Y3191881D01*
G01X9398597Y3186293D01*
G01X9404439Y3174863D01*
G01X9404439Y3163433D01*
G01X9398597Y3152003D01*
G01X9387167Y3134731D01*
G01X9330017Y3077581D01*
G01X9410027Y3077581D01*
G01X9463621Y3106283D02*
G01X9457779Y3100441D01*
G01X9463621Y3094853D01*
G01X9469209Y3100441D01*
G01X9463621Y3106283D01*
G01X9551251Y3197723D02*
G01X9534233Y3191881D01*
G01X9522803Y3174863D01*
G01X9516961Y3146161D01*
G01X9516961Y3129143D01*
G01X9522803Y3100441D01*
G01X9534233Y3083423D01*
G01X9551251Y3077581D01*
G01X9562681Y3077581D01*
G01X9579953Y3083423D01*
G01X9591383Y3100441D01*
G01X9596971Y3129143D01*
G01X9596971Y3146161D01*
G01X9591383Y3174863D01*
G01X9579953Y3191881D01*
G01X9562681Y3197723D01*
G01X9551251Y3197723D01*
G01X9656153Y3197723D02*
G01X9719145Y3197723D01*
G01X9684855Y3152003D01*
G01X9701873Y3152003D01*
G01X9713303Y3146161D01*
G01X9719145Y3140573D01*
G01X9724733Y3123301D01*
G01X9724733Y3111871D01*
G01X9719145Y3094853D01*
G01X9707715Y3083423D01*
G01X9690443Y3077581D01*
G01X9673425Y3077581D01*
G01X9656153Y3083423D01*
G01X9650565Y3089011D01*
G01X9644723Y3100441D01*
G01X9778327Y3169021D02*
G01X9778327Y3174863D01*
G01X9783915Y3186293D01*
G01X9789757Y3191881D01*
G01X9801187Y3197723D01*
G01X9824047Y3197723D01*
G01X9835477Y3191881D01*
G01X9841065Y3186293D01*
G01X9846907Y3174863D01*
G01X9846907Y3163433D01*
G01X9841065Y3152003D01*
G01X9829635Y3134731D01*
G01X9772485Y3077581D01*
G01X9852495Y3077581D01*
G01X9900247Y3157591D02*
G01X9963239Y3077581D01*
G01X9963239Y3157591D02*
G01X9900247Y3077581D01*
G01X10016833Y3169021D02*
G01X10016833Y3174863D01*
G01X10022421Y3186293D01*
G01X10028263Y3191881D01*
G01X10039693Y3197723D01*
G01X10062553Y3197723D01*
G01X10073983Y3191881D01*
G01X10079571Y3186293D01*
G01X10085413Y3174863D01*
G01X10085413Y3163433D01*
G01X10079571Y3152003D01*
G01X10068141Y3134731D01*
G01X10010991Y3077581D01*
G01X10091001Y3077581D01*
G01X10144595Y3106283D02*
G01X10138753Y3100441D01*
G01X10144595Y3094853D01*
G01X10150183Y3100441D01*
G01X10144595Y3106283D01*
G01X10232225Y3197723D02*
G01X10215207Y3191881D01*
G01X10203777Y3174863D01*
G01X10197935Y3146161D01*
G01X10197935Y3129143D01*
G01X10203777Y3100441D01*
G01X10215207Y3083423D01*
G01X10232225Y3077581D01*
G01X10243655Y3077581D01*
G01X10260927Y3083423D01*
G01X10272357Y3100441D01*
G01X10277945Y3129143D01*
G01X10277945Y3146161D01*
G01X10272357Y3174863D01*
G01X10260927Y3191881D01*
G01X10243655Y3197723D01*
G01X10232225Y3197723D01*
G01X10337127Y3197723D02*
G01X10400119Y3197723D01*
G01X10365829Y3152003D01*
G01X10382847Y3152003D01*
G01X10394277Y3146161D01*
G01X10400119Y3140573D01*
G01X10405707Y3123301D01*
G01X10405707Y3111871D01*
G01X10400119Y3094853D01*
G01X10388689Y3083423D01*
G01X10371417Y3077581D01*
G01X10354399Y3077581D01*
G01X10337127Y3083423D01*
G01X10331539Y3089011D01*
G01X10325697Y3100441D01*
G01X10459301Y3169021D02*
G01X10459301Y3174863D01*
G01X10464889Y3186293D01*
G01X10470731Y3191881D01*
G01X10482161Y3197723D01*
G01X10505021Y3197723D01*
G01X10516451Y3191881D01*
G01X10522039Y3186293D01*
G01X10527881Y3174863D01*
G01X10527881Y3163433D01*
G01X10522039Y3152003D01*
G01X10510609Y3134731D01*
G01X10453459Y3077581D01*
G01X10533469Y3077581D01*
G01X10581221Y3157591D02*
G01X10581221Y3077581D01*
G01X10581221Y3134731D02*
G01X10598493Y3152003D01*
G01X10609923Y3157591D01*
G01X10626941Y3157591D01*
G01X10638371Y3152003D01*
G01X10644213Y3134731D01*
G01X10644213Y3077581D01*
G01X10644213Y3134731D02*
G01X10661231Y3152003D01*
G01X10672661Y3157591D01*
G01X10689933Y3157591D01*
G01X10701363Y3152003D01*
G01X10706951Y3134731D01*
G01X10706951Y3077581D01*
G01X10754703Y3157591D02*
G01X10754703Y3077581D01*
G01X10754703Y3134731D02*
G01X10771975Y3152003D01*
G01X10783405Y3157591D01*
G01X10800423Y3157591D01*
G01X10811853Y3152003D01*
G01X10817695Y3134731D01*
G01X10817695Y3077581D01*
G01X10817695Y3134731D02*
G01X10834713Y3152003D01*
G01X10846143Y3157591D01*
G01X10863415Y3157591D01*
G01X10874845Y3152003D01*
G01X10880433Y3134731D01*
G01X10880433Y3077581D01*
G01X10928185Y3220583D02*
G01X10939615Y3209153D01*
G01X10951045Y3191881D01*
G01X10962475Y3169021D01*
G01X10968317Y3140573D01*
G01X10968317Y3117713D01*
G01X10962475Y3089011D01*
G01X10951045Y3066151D01*
G01X10939615Y3049133D01*
G01X10928185Y3037703D01*
G01X11859495Y3197723D02*
G01X11859495Y3077581D01*
G01X11859495Y3197723D02*
G01X11911057Y3197723D01*
G01X11928075Y3191881D01*
G01X11933917Y3186293D01*
G01X11939505Y3174863D01*
G01X11939505Y3157591D01*
G01X11933917Y3146161D01*
G01X11928075Y3140573D01*
G01X11911057Y3134731D01*
G01X11859495Y3134731D01*
G01X12027389Y3197723D02*
G01X12027389Y3077581D01*
G01X11987257Y3197723D02*
G01X12067267Y3197723D01*
G01X12115019Y3197723D02*
G01X12115019Y3077581D01*
G01X12195029Y3197723D02*
G01X12195029Y3077581D01*
G01X12115019Y3140573D02*
G01X12195029Y3140573D01*
G01X13320902Y3197723D02*
G01X13320902Y3077581D01*
G01X13320902Y3197723D02*
G01X13372464Y3197723D01*
G01X13389482Y3191881D01*
G01X13395324Y3186293D01*
G01X13400912Y3174863D01*
G01X13400912Y3163433D01*
G01X13395324Y3152003D01*
G01X13389482Y3146161D01*
G01X13372464Y3140573D01*
G01X13320902Y3140573D01*
G01X13361034Y3140573D02*
G01X13400912Y3077581D01*
G01X13477366Y3157591D02*
G01X13465936Y3152003D01*
G01X13454506Y3140573D01*
G01X13448664Y3123301D01*
G01X13448664Y3111871D01*
G01X13454506Y3094853D01*
G01X13465936Y3083423D01*
G01X13477366Y3077581D01*
G01X13494384Y3077581D01*
G01X13505814Y3083423D01*
G01X13517244Y3094853D01*
G01X13523086Y3111871D01*
G01X13523086Y3123301D01*
G01X13517244Y3140573D01*
G01X13505814Y3152003D01*
G01X13494384Y3157591D01*
G01X13477366Y3157591D01*
G01X13570838Y3157591D02*
G01X13570838Y3100441D01*
G01X13576680Y3083423D01*
G01X13588110Y3077581D01*
G01X13605128Y3077581D01*
G01X13616558Y3083423D01*
G01X13633830Y3100441D01*
G01X13633830Y3157591D02*
G01X13633830Y3077581D01*
G01X13681582Y3157591D02*
G01X13681582Y3077581D01*
G01X13681582Y3134731D02*
G01X13698854Y3152003D01*
G01X13710284Y3157591D01*
G01X13727302Y3157591D01*
G01X13738732Y3152003D01*
G01X13744574Y3134731D01*
G01X13744574Y3077581D01*
G01X13860906Y3197723D02*
G01X13860906Y3077581D01*
G01X13860906Y3140573D02*
G01X13849476Y3152003D01*
G01X13838046Y3157591D01*
G01X13821028Y3157591D01*
G01X13809598Y3152003D01*
G01X13798168Y3140573D01*
G01X13792326Y3123301D01*
G01X13792326Y3111871D01*
G01X13798168Y3094853D01*
G01X13809598Y3083423D01*
G01X13821028Y3077581D01*
G01X13838046Y3077581D01*
G01X13849476Y3083423D01*
G01X13860906Y3094853D01*
G01X14752083Y3197723D02*
G01X14752083Y3077581D01*
G01X14752083Y3197723D02*
G01X14803645Y3197723D01*
G01X14820663Y3191881D01*
G01X14826505Y3186293D01*
G01X14832093Y3174863D01*
G01X14832093Y3157591D01*
G01X14826505Y3146161D01*
G01X14820663Y3140573D01*
G01X14803645Y3134731D01*
G01X14752083Y3134731D01*
G01X14948425Y3157591D02*
G01X14948425Y3077581D01*
G01X14948425Y3140573D02*
G01X14936995Y3152003D01*
G01X14925565Y3157591D01*
G01X14908547Y3157591D01*
G01X14897117Y3152003D01*
G01X14885687Y3140573D01*
G01X14879845Y3123301D01*
G01X14879845Y3111871D01*
G01X14885687Y3094853D01*
G01X14897117Y3083423D01*
G01X14908547Y3077581D01*
G01X14925565Y3077581D01*
G01X14936995Y3083423D01*
G01X14948425Y3094853D01*
G01X15064757Y3197723D02*
G01X15064757Y3077581D01*
G01X15064757Y3140573D02*
G01X15053327Y3152003D01*
G01X15041897Y3157591D01*
G01X15024879Y3157591D01*
G01X15013449Y3152003D01*
G01X15002019Y3140573D01*
G01X14996177Y3123301D01*
G01X14996177Y3111871D01*
G01X15002019Y3094853D01*
G01X15013449Y3083423D01*
G01X15024879Y3077581D01*
G01X15041897Y3077581D01*
G01X15053327Y3083423D01*
G01X15064757Y3094853D01*
G01X16421262Y3197723D02*
G01X16421262Y3077581D01*
G01X16421262Y3197723D02*
G01X16472824Y3197723D01*
G01X16489842Y3191881D01*
G01X16495684Y3186293D01*
G01X16501272Y3174863D01*
G01X16501272Y3163433D01*
G01X16495684Y3152003D01*
G01X16489842Y3146161D01*
G01X16472824Y3140573D01*
G01X16421262Y3140573D01*
G01X16461394Y3140573D02*
G01X16501272Y3077581D01*
G01X16577726Y3157591D02*
G01X16566296Y3152003D01*
G01X16554866Y3140573D01*
G01X16549024Y3123301D01*
G01X16549024Y3111871D01*
G01X16554866Y3094853D01*
G01X16566296Y3083423D01*
G01X16577726Y3077581D01*
G01X16594744Y3077581D01*
G01X16606174Y3083423D01*
G01X16617604Y3094853D01*
G01X16623446Y3111871D01*
G01X16623446Y3123301D01*
G01X16617604Y3140573D01*
G01X16606174Y3152003D01*
G01X16594744Y3157591D01*
G01X16577726Y3157591D01*
G01X16671198Y3157591D02*
G01X16671198Y3100441D01*
G01X16677040Y3083423D01*
G01X16688470Y3077581D01*
G01X16705488Y3077581D01*
G01X16716918Y3083423D01*
G01X16734190Y3100441D01*
G01X16734190Y3157591D02*
G01X16734190Y3077581D01*
G01X16781942Y3157591D02*
G01X16781942Y3077581D01*
G01X16781942Y3134731D02*
G01X16799214Y3152003D01*
G01X16810644Y3157591D01*
G01X16827662Y3157591D01*
G01X16839092Y3152003D01*
G01X16844934Y3134731D01*
G01X16844934Y3077581D01*
G01X16961266Y3197723D02*
G01X16961266Y3077581D01*
G01X16961266Y3140573D02*
G01X16949836Y3152003D01*
G01X16938406Y3157591D01*
G01X16921388Y3157591D01*
G01X16909958Y3152003D01*
G01X16898528Y3140573D01*
G01X16892686Y3123301D01*
G01X16892686Y3111871D01*
G01X16898528Y3094853D01*
G01X16909958Y3083423D01*
G01X16921388Y3077581D01*
G01X16938406Y3077581D01*
G01X16949836Y3083423D01*
G01X16961266Y3094853D01*
G01X18380763Y3197723D02*
G01X18380763Y3077581D01*
G01X18340631Y3197723D02*
G01X18420641Y3197723D01*
G01X18497095Y3157591D02*
G01X18485665Y3152003D01*
G01X18474235Y3140573D01*
G01X18468393Y3123301D01*
G01X18468393Y3111871D01*
G01X18474235Y3094853D01*
G01X18485665Y3083423D01*
G01X18497095Y3077581D01*
G01X18514113Y3077581D01*
G01X18525543Y3083423D01*
G01X18536973Y3094853D01*
G01X18542815Y3111871D01*
G01X18542815Y3123301D01*
G01X18536973Y3140573D01*
G01X18525543Y3152003D01*
G01X18514113Y3157591D01*
G01X18497095Y3157591D01*
G01X18590567Y3157591D02*
G01X18590567Y3037703D01*
G01X18590567Y3140573D02*
G01X18601997Y3152003D01*
G01X18613427Y3157591D01*
G01X18630699Y3157591D01*
G01X18642129Y3152003D01*
G01X18653559Y3140573D01*
G01X18659147Y3123301D01*
G01X18659147Y3111871D01*
G01X18653559Y3094853D01*
G01X18642129Y3083423D01*
G01X18630699Y3077581D01*
G01X18613427Y3077581D01*
G01X18601997Y3083423D01*
G01X18590567Y3094853D01*
G01X18834915Y3197723D02*
G01X18834915Y3077581D01*
G01X18834915Y3077581D02*
G01X18903495Y3077581D01*
G01X19019827Y3157591D02*
G01X19019827Y3077581D01*
G01X19019827Y3140573D02*
G01X19008397Y3152003D01*
G01X18996967Y3157591D01*
G01X18979949Y3157591D01*
G01X18968519Y3152003D01*
G01X18957089Y3140573D01*
G01X18951247Y3123301D01*
G01X18951247Y3111871D01*
G01X18957089Y3094853D01*
G01X18968519Y3083423D01*
G01X18979949Y3077581D01*
G01X18996967Y3077581D01*
G01X19008397Y3083423D01*
G01X19019827Y3094853D01*
G01X19073421Y3157591D02*
G01X19107711Y3077581D01*
G01X19142001Y3157591D02*
G01X19107711Y3077581D01*
G01X19096281Y3054721D01*
G01X19084851Y3043291D01*
G01X19073421Y3037703D01*
G01X19067579Y3037703D01*
G01X19189753Y3123301D02*
G01X19258333Y3123301D01*
G01X19258333Y3134731D01*
G01X19252745Y3146161D01*
G01X19246903Y3152003D01*
G01X19235473Y3157591D01*
G01X19218455Y3157591D01*
G01X19207025Y3152003D01*
G01X19195595Y3140573D01*
G01X19189753Y3123301D01*
G01X19189753Y3111871D01*
G01X19195595Y3094853D01*
G01X19207025Y3083423D01*
G01X19218455Y3077581D01*
G01X19235473Y3077581D01*
G01X19246903Y3083423D01*
G01X19258333Y3094853D01*
G01X19306085Y3157591D02*
G01X19306085Y3077581D01*
G01X19306085Y3123301D02*
G01X19311927Y3140573D01*
G01X19323357Y3152003D01*
G01X19334787Y3157591D01*
G01X19351805Y3157591D01*
G01X19399557Y3129143D02*
G01X19502427Y3129143D01*
G01X19550179Y3197723D02*
G01X19550179Y3077581D01*
G01X19550179Y3197723D02*
G01X19601741Y3197723D01*
G01X19618759Y3191881D01*
G01X19624601Y3186293D01*
G01X19630189Y3174863D01*
G01X19630189Y3163433D01*
G01X19624601Y3152003D01*
G01X19618759Y3146161D01*
G01X19601741Y3140573D01*
G01X19550179Y3140573D02*
G01X19601741Y3140573D01*
G01X19618759Y3134731D01*
G01X19624601Y3129143D01*
G01X19630189Y3117713D01*
G01X19630189Y3100441D01*
G01X19624601Y3089011D01*
G01X19618759Y3083423D01*
G01X19601741Y3077581D01*
G01X19550179Y3077581D01*
G01X19706643Y3157591D02*
G01X19695213Y3152003D01*
G01X19683783Y3140573D01*
G01X19677941Y3123301D01*
G01X19677941Y3111871D01*
G01X19683783Y3094853D01*
G01X19695213Y3083423D01*
G01X19706643Y3077581D01*
G01X19723661Y3077581D01*
G01X19735091Y3083423D01*
G01X19746521Y3094853D01*
G01X19752363Y3111871D01*
G01X19752363Y3123301D01*
G01X19746521Y3140573D01*
G01X19735091Y3152003D01*
G01X19723661Y3157591D01*
G01X19706643Y3157591D01*
G01X19817387Y3197723D02*
G01X19817387Y3100441D01*
G01X19822975Y3083423D01*
G01X19834405Y3077581D01*
G01X19845835Y3077581D01*
G01X19800115Y3157591D02*
G01X19840247Y3157591D01*
G01X19910859Y3197723D02*
G01X19910859Y3100441D01*
G01X19916447Y3083423D01*
G01X19927877Y3077581D01*
G01X19939307Y3077581D01*
G01X19893587Y3157591D02*
G01X19933719Y3157591D01*
G01X20015761Y3157591D02*
G01X20004331Y3152003D01*
G01X19992901Y3140573D01*
G01X19987059Y3123301D01*
G01X19987059Y3111871D01*
G01X19992901Y3094853D01*
G01X20004331Y3083423D01*
G01X20015761Y3077581D01*
G01X20032779Y3077581D01*
G01X20044209Y3083423D01*
G01X20055639Y3094853D01*
G01X20061481Y3111871D01*
G01X20061481Y3123301D01*
G01X20055639Y3140573D01*
G01X20044209Y3152003D01*
G01X20032779Y3157591D01*
G01X20015761Y3157591D01*
G01X20109233Y3157591D02*
G01X20109233Y3077581D01*
G01X20109233Y3134731D02*
G01X20126505Y3152003D01*
G01X20137935Y3157591D01*
G01X20154953Y3157591D01*
G01X20166383Y3152003D01*
G01X20172225Y3134731D01*
G01X20172225Y3077581D01*
G01X20172225Y3134731D02*
G01X20189243Y3152003D01*
G01X20200673Y3157591D01*
G01X20217945Y3157591D01*
G01X20229375Y3152003D01*
G01X20234963Y3134731D01*
G01X20234963Y3077581D01*
G01X20410731Y3197723D02*
G01X20410731Y3077581D01*
G01X20410731Y3077581D02*
G01X20479311Y3077581D01*
G01X20595643Y3157591D02*
G01X20595643Y3077581D01*
G01X20595643Y3140573D02*
G01X20584213Y3152003D01*
G01X20572783Y3157591D01*
G01X20555765Y3157591D01*
G01X20544335Y3152003D01*
G01X20532905Y3140573D01*
G01X20527063Y3123301D01*
G01X20527063Y3111871D01*
G01X20532905Y3094853D01*
G01X20544335Y3083423D01*
G01X20555765Y3077581D01*
G01X20572783Y3077581D01*
G01X20584213Y3083423D01*
G01X20595643Y3094853D01*
G01X20649237Y3157591D02*
G01X20683527Y3077581D01*
G01X20717817Y3157591D02*
G01X20683527Y3077581D01*
G01X20672097Y3054721D01*
G01X20660667Y3043291D01*
G01X20649237Y3037703D01*
G01X20643395Y3037703D01*
G01X20765569Y3123301D02*
G01X20834149Y3123301D01*
G01X20834149Y3134731D01*
G01X20828561Y3146161D01*
G01X20822719Y3152003D01*
G01X20811289Y3157591D01*
G01X20794271Y3157591D01*
G01X20782841Y3152003D01*
G01X20771411Y3140573D01*
G01X20765569Y3123301D01*
G01X20765569Y3111871D01*
G01X20771411Y3094853D01*
G01X20782841Y3083423D01*
G01X20794271Y3077581D01*
G01X20811289Y3077581D01*
G01X20822719Y3083423D01*
G01X20834149Y3094853D01*
G01X20881901Y3157591D02*
G01X20881901Y3077581D01*
G01X20881901Y3123301D02*
G01X20887743Y3140573D01*
G01X20899173Y3152003D01*
G01X20910603Y3157591D01*
G01X20927621Y3157591D01*
G01X6557716Y2588449D02*
G01X6557716Y2594291D01*
G01X6563304Y2605721D01*
G01X6569146Y2611309D01*
G01X6580576Y2617151D01*
G01X6603436Y2617151D01*
G01X6614866Y2611309D01*
G01X6620454Y2605721D01*
G01X6626296Y2594291D01*
G01X6626296Y2582861D01*
G01X6620454Y2571431D01*
G01X6609024Y2554159D01*
G01X6551874Y2497009D01*
G01X6631884Y2497009D01*
G01X7994739Y2617151D02*
G01X7977467Y2611309D01*
G01X7971879Y2599879D01*
G01X7971879Y2588449D01*
G01X7977467Y2577019D01*
G01X7988897Y2571431D01*
G01X8011757Y2565589D01*
G01X8029029Y2560001D01*
G01X8040459Y2548571D01*
G01X8046047Y2537141D01*
G01X8046047Y2519869D01*
G01X8040459Y2508439D01*
G01X8034617Y2502851D01*
G01X8017599Y2497009D01*
G01X7994739Y2497009D01*
G01X7977467Y2502851D01*
G01X7971879Y2508439D01*
G01X7966037Y2519869D01*
G01X7966037Y2537141D01*
G01X7971879Y2548571D01*
G01X7983309Y2560001D01*
G01X8000327Y2565589D01*
G01X8023187Y2571431D01*
G01X8034617Y2577019D01*
G01X8040459Y2588449D01*
G01X8040459Y2599879D01*
G01X8034617Y2611309D01*
G01X8017599Y2617151D01*
G01X7994739Y2617151D01*
G01X8128089Y2617151D02*
G01X8111071Y2611309D01*
G01X8099641Y2594291D01*
G01X8093799Y2565589D01*
G01X8093799Y2548571D01*
G01X8099641Y2519869D01*
G01X8111071Y2502851D01*
G01X8128089Y2497009D01*
G01X8139519Y2497009D01*
G01X8156791Y2502851D01*
G01X8168221Y2519869D01*
G01X8173809Y2548571D01*
G01X8173809Y2565589D01*
G01X8168221Y2594291D01*
G01X8156791Y2611309D01*
G01X8139519Y2617151D01*
G01X8128089Y2617151D01*
G01X8227403Y2525711D02*
G01X8221561Y2519869D01*
G01X8227403Y2514281D01*
G01X8232991Y2519869D01*
G01X8227403Y2525711D01*
G01X8315033Y2617151D02*
G01X8298015Y2611309D01*
G01X8286585Y2594291D01*
G01X8280743Y2565589D01*
G01X8280743Y2548571D01*
G01X8286585Y2519869D01*
G01X8298015Y2502851D01*
G01X8315033Y2497009D01*
G01X8326463Y2497009D01*
G01X8343735Y2502851D01*
G01X8355165Y2519869D01*
G01X8360753Y2548571D01*
G01X8360753Y2565589D01*
G01X8355165Y2594291D01*
G01X8343735Y2611309D01*
G01X8326463Y2617151D01*
G01X8315033Y2617151D01*
G01X8408505Y2577019D02*
G01X8408505Y2497009D01*
G01X8408505Y2554159D02*
G01X8425777Y2571431D01*
G01X8437207Y2577019D01*
G01X8454225Y2577019D01*
G01X8465655Y2571431D01*
G01X8471497Y2554159D01*
G01X8471497Y2497009D01*
G01X8471497Y2554159D02*
G01X8488515Y2571431D01*
G01X8499945Y2577019D01*
G01X8517217Y2577019D01*
G01X8528647Y2571431D01*
G01X8534235Y2554159D01*
G01X8534235Y2497009D01*
G01X8581987Y2617151D02*
G01X8587829Y2611309D01*
G01X8593417Y2617151D01*
G01X8587829Y2622739D01*
G01X8581987Y2617151D01*
G01X8587829Y2577019D02*
G01X8587829Y2497009D01*
G01X8641169Y2617151D02*
G01X8641169Y2497009D01*
G01X8729053Y2640011D02*
G01X8717623Y2628581D01*
G01X8706193Y2611309D01*
G01X8694763Y2588449D01*
G01X8688921Y2560001D01*
G01X8688921Y2537141D01*
G01X8694763Y2508439D01*
G01X8706193Y2485579D01*
G01X8717623Y2468561D01*
G01X8729053Y2457131D01*
G01X8782647Y2588449D02*
G01X8782647Y2594291D01*
G01X8788235Y2605721D01*
G01X8794077Y2611309D01*
G01X8805507Y2617151D01*
G01X8828367Y2617151D01*
G01X8839797Y2611309D01*
G01X8845385Y2605721D01*
G01X8851227Y2594291D01*
G01X8851227Y2582861D01*
G01X8845385Y2571431D01*
G01X8833955Y2554159D01*
G01X8776805Y2497009D01*
G01X8856815Y2497009D01*
G01X8910409Y2525711D02*
G01X8904567Y2519869D01*
G01X8910409Y2514281D01*
G01X8915997Y2519869D01*
G01X8910409Y2525711D01*
G01X8998039Y2617151D02*
G01X8981021Y2611309D01*
G01X8969591Y2594291D01*
G01X8963749Y2565589D01*
G01X8963749Y2548571D01*
G01X8969591Y2519869D01*
G01X8981021Y2502851D01*
G01X8998039Y2497009D01*
G01X9009469Y2497009D01*
G01X9026741Y2502851D01*
G01X9038171Y2519869D01*
G01X9043759Y2548571D01*
G01X9043759Y2565589D01*
G01X9038171Y2594291D01*
G01X9026741Y2611309D01*
G01X9009469Y2617151D01*
G01X8998039Y2617151D01*
G01X9102941Y2617151D02*
G01X9165933Y2617151D01*
G01X9131643Y2571431D01*
G01X9148661Y2571431D01*
G01X9160091Y2565589D01*
G01X9165933Y2560001D01*
G01X9171521Y2542729D01*
G01X9171521Y2531299D01*
G01X9165933Y2514281D01*
G01X9154503Y2502851D01*
G01X9137231Y2497009D01*
G01X9120213Y2497009D01*
G01X9102941Y2502851D01*
G01X9097353Y2508439D01*
G01X9091511Y2519869D01*
G01X9225115Y2588449D02*
G01X9225115Y2594291D01*
G01X9230703Y2605721D01*
G01X9236545Y2611309D01*
G01X9247975Y2617151D01*
G01X9270835Y2617151D01*
G01X9282265Y2611309D01*
G01X9287853Y2605721D01*
G01X9293695Y2594291D01*
G01X9293695Y2582861D01*
G01X9287853Y2571431D01*
G01X9276423Y2554159D01*
G01X9219273Y2497009D01*
G01X9299283Y2497009D01*
G01X9347035Y2577019D02*
G01X9347035Y2497009D01*
G01X9347035Y2554159D02*
G01X9364307Y2571431D01*
G01X9375737Y2577019D01*
G01X9392755Y2577019D01*
G01X9404185Y2571431D01*
G01X9410027Y2554159D01*
G01X9410027Y2497009D01*
G01X9410027Y2554159D02*
G01X9427045Y2571431D01*
G01X9438475Y2577019D01*
G01X9455747Y2577019D01*
G01X9467177Y2571431D01*
G01X9472765Y2554159D01*
G01X9472765Y2497009D01*
G01X9520517Y2577019D02*
G01X9520517Y2497009D01*
G01X9520517Y2554159D02*
G01X9537789Y2571431D01*
G01X9549219Y2577019D01*
G01X9566237Y2577019D01*
G01X9577667Y2571431D01*
G01X9583509Y2554159D01*
G01X9583509Y2497009D01*
G01X9583509Y2554159D02*
G01X9600527Y2571431D01*
G01X9611957Y2577019D01*
G01X9629229Y2577019D01*
G01X9640659Y2571431D01*
G01X9646247Y2554159D01*
G01X9646247Y2497009D01*
G01X9693999Y2640011D02*
G01X9705429Y2628581D01*
G01X9716859Y2611309D01*
G01X9728289Y2588449D01*
G01X9734131Y2560001D01*
G01X9734131Y2537141D01*
G01X9728289Y2508439D01*
G01X9716859Y2485579D01*
G01X9705429Y2468561D01*
G01X9693999Y2457131D01*
G01X11859495Y2617151D02*
G01X11859495Y2497009D01*
G01X11859495Y2617151D02*
G01X11939505Y2497009D01*
G01X11939505Y2617151D02*
G01X11939505Y2497009D01*
G01X11987257Y2617151D02*
G01X11987257Y2497009D01*
G01X11987257Y2617151D02*
G01X12038819Y2617151D01*
G01X12055837Y2611309D01*
G01X12061679Y2605721D01*
G01X12067267Y2594291D01*
G01X12067267Y2577019D01*
G01X12061679Y2565589D01*
G01X12055837Y2560001D01*
G01X12038819Y2554159D01*
G01X11987257Y2554159D01*
G01X12155151Y2617151D02*
G01X12155151Y2497009D01*
G01X12115019Y2617151D02*
G01X12195029Y2617151D01*
G01X12242781Y2617151D02*
G01X12242781Y2497009D01*
G01X12322791Y2617151D02*
G01X12322791Y2497009D01*
G01X12242781Y2560001D02*
G01X12322791Y2560001D01*
G01X13320902Y2617151D02*
G01X13320902Y2497009D01*
G01X13320902Y2617151D02*
G01X13372464Y2617151D01*
G01X13389482Y2611309D01*
G01X13395324Y2605721D01*
G01X13400912Y2594291D01*
G01X13400912Y2582861D01*
G01X13395324Y2571431D01*
G01X13389482Y2565589D01*
G01X13372464Y2560001D01*
G01X13320902Y2560001D01*
G01X13361034Y2560001D02*
G01X13400912Y2497009D01*
G01X13477366Y2577019D02*
G01X13465936Y2571431D01*
G01X13454506Y2560001D01*
G01X13448664Y2542729D01*
G01X13448664Y2531299D01*
G01X13454506Y2514281D01*
G01X13465936Y2502851D01*
G01X13477366Y2497009D01*
G01X13494384Y2497009D01*
G01X13505814Y2502851D01*
G01X13517244Y2514281D01*
G01X13523086Y2531299D01*
G01X13523086Y2542729D01*
G01X13517244Y2560001D01*
G01X13505814Y2571431D01*
G01X13494384Y2577019D01*
G01X13477366Y2577019D01*
G01X13570838Y2577019D02*
G01X13570838Y2519869D01*
G01X13576680Y2502851D01*
G01X13588110Y2497009D01*
G01X13605128Y2497009D01*
G01X13616558Y2502851D01*
G01X13633830Y2519869D01*
G01X13633830Y2577019D02*
G01X13633830Y2497009D01*
G01X13681582Y2577019D02*
G01X13681582Y2497009D01*
G01X13681582Y2554159D02*
G01X13698854Y2571431D01*
G01X13710284Y2577019D01*
G01X13727302Y2577019D01*
G01X13738732Y2571431D01*
G01X13744574Y2554159D01*
G01X13744574Y2497009D01*
G01X13860906Y2617151D02*
G01X13860906Y2497009D01*
G01X13860906Y2560001D02*
G01X13849476Y2571431D01*
G01X13838046Y2577019D01*
G01X13821028Y2577019D01*
G01X13809598Y2571431D01*
G01X13798168Y2560001D01*
G01X13792326Y2542729D01*
G01X13792326Y2531299D01*
G01X13798168Y2514281D01*
G01X13809598Y2502851D01*
G01X13821028Y2497009D01*
G01X13838046Y2497009D01*
G01X13849476Y2502851D01*
G01X13860906Y2514281D01*
G01X14752083Y2617151D02*
G01X14797803Y2497009D01*
G01X14843523Y2617151D02*
G01X14797803Y2497009D01*
G01X14891275Y2617151D02*
G01X14897117Y2611309D01*
G01X14902705Y2617151D01*
G01X14897117Y2622739D01*
G01X14891275Y2617151D01*
G01X14897117Y2577019D02*
G01X14897117Y2497009D01*
G01X15019037Y2577019D02*
G01X15019037Y2497009D01*
G01X15019037Y2560001D02*
G01X15007607Y2571431D01*
G01X14996177Y2577019D01*
G01X14979159Y2577019D01*
G01X14967729Y2571431D01*
G01X14956299Y2560001D01*
G01X14950457Y2542729D01*
G01X14950457Y2531299D01*
G01X14956299Y2514281D01*
G01X14967729Y2502851D01*
G01X14979159Y2497009D01*
G01X14996177Y2497009D01*
G01X15007607Y2502851D01*
G01X15019037Y2514281D01*
G01X18380763Y2617151D02*
G01X18380763Y2497009D01*
G01X18340631Y2617151D02*
G01X18420641Y2617151D01*
G01X18497095Y2577019D02*
G01X18485665Y2571431D01*
G01X18474235Y2560001D01*
G01X18468393Y2542729D01*
G01X18468393Y2531299D01*
G01X18474235Y2514281D01*
G01X18485665Y2502851D01*
G01X18497095Y2497009D01*
G01X18514113Y2497009D01*
G01X18525543Y2502851D01*
G01X18536973Y2514281D01*
G01X18542815Y2531299D01*
G01X18542815Y2542729D01*
G01X18536973Y2560001D01*
G01X18525543Y2571431D01*
G01X18514113Y2577019D01*
G01X18497095Y2577019D01*
G01X18590567Y2577019D02*
G01X18590567Y2457131D01*
G01X18590567Y2560001D02*
G01X18601997Y2571431D01*
G01X18613427Y2577019D01*
G01X18630699Y2577019D01*
G01X18642129Y2571431D01*
G01X18653559Y2560001D01*
G01X18659147Y2542729D01*
G01X18659147Y2531299D01*
G01X18653559Y2514281D01*
G01X18642129Y2502851D01*
G01X18630699Y2497009D01*
G01X18613427Y2497009D01*
G01X18601997Y2502851D01*
G01X18590567Y2514281D01*
G01X18834915Y2617151D02*
G01X18834915Y2497009D01*
G01X18834915Y2497009D02*
G01X18903495Y2497009D01*
G01X19019827Y2577019D02*
G01X19019827Y2497009D01*
G01X19019827Y2560001D02*
G01X19008397Y2571431D01*
G01X18996967Y2577019D01*
G01X18979949Y2577019D01*
G01X18968519Y2571431D01*
G01X18957089Y2560001D01*
G01X18951247Y2542729D01*
G01X18951247Y2531299D01*
G01X18957089Y2514281D01*
G01X18968519Y2502851D01*
G01X18979949Y2497009D01*
G01X18996967Y2497009D01*
G01X19008397Y2502851D01*
G01X19019827Y2514281D01*
G01X19073421Y2577019D02*
G01X19107711Y2497009D01*
G01X19142001Y2577019D02*
G01X19107711Y2497009D01*
G01X19096281Y2474149D01*
G01X19084851Y2462719D01*
G01X19073421Y2457131D01*
G01X19067579Y2457131D01*
G01X19189753Y2542729D02*
G01X19258333Y2542729D01*
G01X19258333Y2554159D01*
G01X19252745Y2565589D01*
G01X19246903Y2571431D01*
G01X19235473Y2577019D01*
G01X19218455Y2577019D01*
G01X19207025Y2571431D01*
G01X19195595Y2560001D01*
G01X19189753Y2542729D01*
G01X19189753Y2531299D01*
G01X19195595Y2514281D01*
G01X19207025Y2502851D01*
G01X19218455Y2497009D01*
G01X19235473Y2497009D01*
G01X19246903Y2502851D01*
G01X19258333Y2514281D01*
G01X19306085Y2577019D02*
G01X19306085Y2497009D01*
G01X19306085Y2542729D02*
G01X19311927Y2560001D01*
G01X19323357Y2571431D01*
G01X19334787Y2577019D01*
G01X19351805Y2577019D01*
G01X19399557Y2548571D02*
G01X19502427Y2548571D01*
G01X19550179Y2617151D02*
G01X19550179Y2497009D01*
G01X19550179Y2617151D02*
G01X19601741Y2617151D01*
G01X19618759Y2611309D01*
G01X19624601Y2605721D01*
G01X19630189Y2594291D01*
G01X19630189Y2582861D01*
G01X19624601Y2571431D01*
G01X19618759Y2565589D01*
G01X19601741Y2560001D01*
G01X19550179Y2560001D02*
G01X19601741Y2560001D01*
G01X19618759Y2554159D01*
G01X19624601Y2548571D01*
G01X19630189Y2537141D01*
G01X19630189Y2519869D01*
G01X19624601Y2508439D01*
G01X19618759Y2502851D01*
G01X19601741Y2497009D01*
G01X19550179Y2497009D01*
G01X19706643Y2577019D02*
G01X19695213Y2571431D01*
G01X19683783Y2560001D01*
G01X19677941Y2542729D01*
G01X19677941Y2531299D01*
G01X19683783Y2514281D01*
G01X19695213Y2502851D01*
G01X19706643Y2497009D01*
G01X19723661Y2497009D01*
G01X19735091Y2502851D01*
G01X19746521Y2514281D01*
G01X19752363Y2531299D01*
G01X19752363Y2542729D01*
G01X19746521Y2560001D01*
G01X19735091Y2571431D01*
G01X19723661Y2577019D01*
G01X19706643Y2577019D01*
G01X19817387Y2617151D02*
G01X19817387Y2519869D01*
G01X19822975Y2502851D01*
G01X19834405Y2497009D01*
G01X19845835Y2497009D01*
G01X19800115Y2577019D02*
G01X19840247Y2577019D01*
G01X19910859Y2617151D02*
G01X19910859Y2519869D01*
G01X19916447Y2502851D01*
G01X19927877Y2497009D01*
G01X19939307Y2497009D01*
G01X19893587Y2577019D02*
G01X19933719Y2577019D01*
G01X20015761Y2577019D02*
G01X20004331Y2571431D01*
G01X19992901Y2560001D01*
G01X19987059Y2542729D01*
G01X19987059Y2531299D01*
G01X19992901Y2514281D01*
G01X20004331Y2502851D01*
G01X20015761Y2497009D01*
G01X20032779Y2497009D01*
G01X20044209Y2502851D01*
G01X20055639Y2514281D01*
G01X20061481Y2531299D01*
G01X20061481Y2542729D01*
G01X20055639Y2560001D01*
G01X20044209Y2571431D01*
G01X20032779Y2577019D01*
G01X20015761Y2577019D01*
G01X20109233Y2577019D02*
G01X20109233Y2497009D01*
G01X20109233Y2554159D02*
G01X20126505Y2571431D01*
G01X20137935Y2577019D01*
G01X20154953Y2577019D01*
G01X20166383Y2571431D01*
G01X20172225Y2554159D01*
G01X20172225Y2497009D01*
G01X20172225Y2554159D02*
G01X20189243Y2571431D01*
G01X20200673Y2577019D01*
G01X20217945Y2577019D01*
G01X20229375Y2571431D01*
G01X20234963Y2554159D01*
G01X20234963Y2497009D01*
G01X20410731Y2617151D02*
G01X20410731Y2497009D01*
G01X20410731Y2497009D02*
G01X20479311Y2497009D01*
G01X20595643Y2577019D02*
G01X20595643Y2497009D01*
G01X20595643Y2560001D02*
G01X20584213Y2571431D01*
G01X20572783Y2577019D01*
G01X20555765Y2577019D01*
G01X20544335Y2571431D01*
G01X20532905Y2560001D01*
G01X20527063Y2542729D01*
G01X20527063Y2531299D01*
G01X20532905Y2514281D01*
G01X20544335Y2502851D01*
G01X20555765Y2497009D01*
G01X20572783Y2497009D01*
G01X20584213Y2502851D01*
G01X20595643Y2514281D01*
G01X20649237Y2577019D02*
G01X20683527Y2497009D01*
G01X20717817Y2577019D02*
G01X20683527Y2497009D01*
G01X20672097Y2474149D01*
G01X20660667Y2462719D01*
G01X20649237Y2457131D01*
G01X20643395Y2457131D01*
G01X20765569Y2542729D02*
G01X20834149Y2542729D01*
G01X20834149Y2554159D01*
G01X20828561Y2565589D01*
G01X20822719Y2571431D01*
G01X20811289Y2577019D01*
G01X20794271Y2577019D01*
G01X20782841Y2571431D01*
G01X20771411Y2560001D01*
G01X20765569Y2542729D01*
G01X20765569Y2531299D01*
G01X20771411Y2514281D01*
G01X20782841Y2502851D01*
G01X20794271Y2497009D01*
G01X20811289Y2497009D01*
G01X20822719Y2502851D01*
G01X20834149Y2514281D01*
G01X20881901Y2577019D02*
G01X20881901Y2497009D01*
G01X20881901Y2542729D02*
G01X20887743Y2560001D01*
G01X20899173Y2571431D01*
G01X20910603Y2577019D01*
G01X20927621Y2577019D01*
G01X6631884Y2036580D02*
G01X6574734Y1916438D01*
G01X6551874Y2036580D02*
G01X6631884Y2036580D01*
G01X6736786Y2036580D02*
G01X6679636Y1956570D01*
G01X6765488Y1956570D01*
G01X6736786Y2036580D02*
G01X6736786Y1916438D01*
G01X7966037Y2013720D02*
G01X7977467Y2019308D01*
G01X7994739Y2036580D01*
G01X7994739Y1916438D01*
G01X8048333Y2007878D02*
G01X8048333Y2013720D01*
G01X8053921Y2025150D01*
G01X8059763Y2030738D01*
G01X8071193Y2036580D01*
G01X8094053Y2036580D01*
G01X8105483Y2030738D01*
G01X8111071Y2025150D01*
G01X8116913Y2013720D01*
G01X8116913Y2002290D01*
G01X8111071Y1990860D01*
G01X8099641Y1973588D01*
G01X8042491Y1916438D01*
G01X8122501Y1916438D01*
G01X8176095Y1945140D02*
G01X8170253Y1939298D01*
G01X8176095Y1933710D01*
G01X8181683Y1939298D01*
G01X8176095Y1945140D01*
G01X8235277Y2007878D02*
G01X8235277Y2013720D01*
G01X8240865Y2025150D01*
G01X8246707Y2030738D01*
G01X8258137Y2036580D01*
G01X8280997Y2036580D01*
G01X8292427Y2030738D01*
G01X8298015Y2025150D01*
G01X8303857Y2013720D01*
G01X8303857Y2002290D01*
G01X8298015Y1990860D01*
G01X8286585Y1973588D01*
G01X8229435Y1916438D01*
G01X8309445Y1916438D01*
G01X8357197Y1996448D02*
G01X8357197Y1916438D01*
G01X8357197Y1973588D02*
G01X8374469Y1990860D01*
G01X8385899Y1996448D01*
G01X8402917Y1996448D01*
G01X8414347Y1990860D01*
G01X8420189Y1973588D01*
G01X8420189Y1916438D01*
G01X8420189Y1973588D02*
G01X8437207Y1990860D01*
G01X8448637Y1996448D01*
G01X8465909Y1996448D01*
G01X8477339Y1990860D01*
G01X8482927Y1973588D01*
G01X8482927Y1916438D01*
G01X8530679Y2036580D02*
G01X8536521Y2030738D01*
G01X8542109Y2036580D01*
G01X8536521Y2042168D01*
G01X8530679Y2036580D01*
G01X8536521Y1996448D02*
G01X8536521Y1916438D01*
G01X8589861Y2036580D02*
G01X8589861Y1916438D01*
G01X8677745Y2059440D02*
G01X8666315Y2048010D01*
G01X8654885Y2030738D01*
G01X8643455Y2007878D01*
G01X8637613Y1979430D01*
G01X8637613Y1956570D01*
G01X8643455Y1927868D01*
G01X8654885Y1905008D01*
G01X8666315Y1887990D01*
G01X8677745Y1876560D01*
G01X8759787Y2036580D02*
G01X8742769Y2030738D01*
G01X8731339Y2013720D01*
G01X8725497Y1985018D01*
G01X8725497Y1968000D01*
G01X8731339Y1939298D01*
G01X8742769Y1922280D01*
G01X8759787Y1916438D01*
G01X8771217Y1916438D01*
G01X8788489Y1922280D01*
G01X8799919Y1939298D01*
G01X8805507Y1968000D01*
G01X8805507Y1985018D01*
G01X8799919Y2013720D01*
G01X8788489Y2030738D01*
G01X8771217Y2036580D01*
G01X8759787Y2036580D01*
G01X8859101Y1945140D02*
G01X8853259Y1939298D01*
G01X8859101Y1933710D01*
G01X8864689Y1939298D01*
G01X8859101Y1945140D01*
G01X8923871Y2036580D02*
G01X8986863Y2036580D01*
G01X8952573Y1990860D01*
G01X8969591Y1990860D01*
G01X8981021Y1985018D01*
G01X8986863Y1979430D01*
G01X8992451Y1962158D01*
G01X8992451Y1950728D01*
G01X8986863Y1933710D01*
G01X8975433Y1922280D01*
G01X8958161Y1916438D01*
G01X8941143Y1916438D01*
G01X8923871Y1922280D01*
G01X8918283Y1927868D01*
G01X8912441Y1939298D01*
G01X9040203Y2013720D02*
G01X9051633Y2019308D01*
G01X9068905Y2036580D01*
G01X9068905Y1916438D01*
G01X9150947Y2036580D02*
G01X9133929Y2030738D01*
G01X9122499Y2013720D01*
G01X9116657Y1985018D01*
G01X9116657Y1968000D01*
G01X9122499Y1939298D01*
G01X9133929Y1922280D01*
G01X9150947Y1916438D01*
G01X9162377Y1916438D01*
G01X9179649Y1922280D01*
G01X9191079Y1939298D01*
G01X9196667Y1968000D01*
G01X9196667Y1985018D01*
G01X9191079Y2013720D01*
G01X9179649Y2030738D01*
G01X9162377Y2036580D01*
G01X9150947Y2036580D01*
G01X9244419Y1996448D02*
G01X9244419Y1916438D01*
G01X9244419Y1973588D02*
G01X9261691Y1990860D01*
G01X9273121Y1996448D01*
G01X9290139Y1996448D01*
G01X9301569Y1990860D01*
G01X9307411Y1973588D01*
G01X9307411Y1916438D01*
G01X9307411Y1973588D02*
G01X9324429Y1990860D01*
G01X9335859Y1996448D01*
G01X9353131Y1996448D01*
G01X9364561Y1990860D01*
G01X9370149Y1973588D01*
G01X9370149Y1916438D01*
G01X9417901Y1996448D02*
G01X9417901Y1916438D01*
G01X9417901Y1973588D02*
G01X9435173Y1990860D01*
G01X9446603Y1996448D01*
G01X9463621Y1996448D01*
G01X9475051Y1990860D01*
G01X9480893Y1973588D01*
G01X9480893Y1916438D01*
G01X9480893Y1973588D02*
G01X9497911Y1990860D01*
G01X9509341Y1996448D01*
G01X9526613Y1996448D01*
G01X9538043Y1990860D01*
G01X9543631Y1973588D01*
G01X9543631Y1916438D01*
G01X9591383Y2059440D02*
G01X9602813Y2048010D01*
G01X9614243Y2030738D01*
G01X9625673Y2007878D01*
G01X9631515Y1979430D01*
G01X9631515Y1956570D01*
G01X9625673Y1927868D01*
G01X9614243Y1905008D01*
G01X9602813Y1887990D01*
G01X9591383Y1876560D01*
G01X11859495Y2036580D02*
G01X11859495Y1916438D01*
G01X11859495Y2036580D02*
G01X11911057Y2036580D01*
G01X11928075Y2030738D01*
G01X11933917Y2025150D01*
G01X11939505Y2013720D01*
G01X11939505Y1996448D01*
G01X11933917Y1985018D01*
G01X11928075Y1979430D01*
G01X11911057Y1973588D01*
G01X11859495Y1973588D01*
G01X12027389Y2036580D02*
G01X12027389Y1916438D01*
G01X11987257Y2036580D02*
G01X12067267Y2036580D01*
G01X12115019Y2036580D02*
G01X12115019Y1916438D01*
G01X12195029Y2036580D02*
G01X12195029Y1916438D01*
G01X12115019Y1979430D02*
G01X12195029Y1979430D01*
G01X13320902Y2036580D02*
G01X13320902Y1916438D01*
G01X13320902Y2036580D02*
G01X13372464Y2036580D01*
G01X13389482Y2030738D01*
G01X13395324Y2025150D01*
G01X13400912Y2013720D01*
G01X13400912Y2002290D01*
G01X13395324Y1990860D01*
G01X13389482Y1985018D01*
G01X13372464Y1979430D01*
G01X13320902Y1979430D01*
G01X13361034Y1979430D02*
G01X13400912Y1916438D01*
G01X13477366Y1996448D02*
G01X13465936Y1990860D01*
G01X13454506Y1979430D01*
G01X13448664Y1962158D01*
G01X13448664Y1950728D01*
G01X13454506Y1933710D01*
G01X13465936Y1922280D01*
G01X13477366Y1916438D01*
G01X13494384Y1916438D01*
G01X13505814Y1922280D01*
G01X13517244Y1933710D01*
G01X13523086Y1950728D01*
G01X13523086Y1962158D01*
G01X13517244Y1979430D01*
G01X13505814Y1990860D01*
G01X13494384Y1996448D01*
G01X13477366Y1996448D01*
G01X13570838Y1996448D02*
G01X13570838Y1939298D01*
G01X13576680Y1922280D01*
G01X13588110Y1916438D01*
G01X13605128Y1916438D01*
G01X13616558Y1922280D01*
G01X13633830Y1939298D01*
G01X13633830Y1996448D02*
G01X13633830Y1916438D01*
G01X13681582Y1996448D02*
G01X13681582Y1916438D01*
G01X13681582Y1973588D02*
G01X13698854Y1990860D01*
G01X13710284Y1996448D01*
G01X13727302Y1996448D01*
G01X13738732Y1990860D01*
G01X13744574Y1973588D01*
G01X13744574Y1916438D01*
G01X13860906Y2036580D02*
G01X13860906Y1916438D01*
G01X13860906Y1979430D02*
G01X13849476Y1990860D01*
G01X13838046Y1996448D01*
G01X13821028Y1996448D01*
G01X13809598Y1990860D01*
G01X13798168Y1979430D01*
G01X13792326Y1962158D01*
G01X13792326Y1950728D01*
G01X13798168Y1933710D01*
G01X13809598Y1922280D01*
G01X13821028Y1916438D01*
G01X13838046Y1916438D01*
G01X13849476Y1922280D01*
G01X13860906Y1933710D01*
G01X14752083Y2036580D02*
G01X14797803Y1916438D01*
G01X14843523Y2036580D02*
G01X14797803Y1916438D01*
G01X14891275Y2036580D02*
G01X14897117Y2030738D01*
G01X14902705Y2036580D01*
G01X14897117Y2042168D01*
G01X14891275Y2036580D01*
G01X14897117Y1996448D02*
G01X14897117Y1916438D01*
G01X15019037Y1996448D02*
G01X15019037Y1916438D01*
G01X15019037Y1979430D02*
G01X15007607Y1990860D01*
G01X14996177Y1996448D01*
G01X14979159Y1996448D01*
G01X14967729Y1990860D01*
G01X14956299Y1979430D01*
G01X14950457Y1962158D01*
G01X14950457Y1950728D01*
G01X14956299Y1933710D01*
G01X14967729Y1922280D01*
G01X14979159Y1916438D01*
G01X14996177Y1916438D01*
G01X15007607Y1922280D01*
G01X15019037Y1933710D01*
G01X18380763Y2036580D02*
G01X18380763Y1916438D01*
G01X18340631Y2036580D02*
G01X18420641Y2036580D01*
G01X18497095Y1996448D02*
G01X18485665Y1990860D01*
G01X18474235Y1979430D01*
G01X18468393Y1962158D01*
G01X18468393Y1950728D01*
G01X18474235Y1933710D01*
G01X18485665Y1922280D01*
G01X18497095Y1916438D01*
G01X18514113Y1916438D01*
G01X18525543Y1922280D01*
G01X18536973Y1933710D01*
G01X18542815Y1950728D01*
G01X18542815Y1962158D01*
G01X18536973Y1979430D01*
G01X18525543Y1990860D01*
G01X18514113Y1996448D01*
G01X18497095Y1996448D01*
G01X18590567Y1996448D02*
G01X18590567Y1876560D01*
G01X18590567Y1979430D02*
G01X18601997Y1990860D01*
G01X18613427Y1996448D01*
G01X18630699Y1996448D01*
G01X18642129Y1990860D01*
G01X18653559Y1979430D01*
G01X18659147Y1962158D01*
G01X18659147Y1950728D01*
G01X18653559Y1933710D01*
G01X18642129Y1922280D01*
G01X18630699Y1916438D01*
G01X18613427Y1916438D01*
G01X18601997Y1922280D01*
G01X18590567Y1933710D01*
G01X18834915Y2036580D02*
G01X18834915Y1916438D01*
G01X18834915Y1916438D02*
G01X18903495Y1916438D01*
G01X19019827Y1996448D02*
G01X19019827Y1916438D01*
G01X19019827Y1979430D02*
G01X19008397Y1990860D01*
G01X18996967Y1996448D01*
G01X18979949Y1996448D01*
G01X18968519Y1990860D01*
G01X18957089Y1979430D01*
G01X18951247Y1962158D01*
G01X18951247Y1950728D01*
G01X18957089Y1933710D01*
G01X18968519Y1922280D01*
G01X18979949Y1916438D01*
G01X18996967Y1916438D01*
G01X19008397Y1922280D01*
G01X19019827Y1933710D01*
G01X19073421Y1996448D02*
G01X19107711Y1916438D01*
G01X19142001Y1996448D02*
G01X19107711Y1916438D01*
G01X19096281Y1893578D01*
G01X19084851Y1882148D01*
G01X19073421Y1876560D01*
G01X19067579Y1876560D01*
G01X19189753Y1962158D02*
G01X19258333Y1962158D01*
G01X19258333Y1973588D01*
G01X19252745Y1985018D01*
G01X19246903Y1990860D01*
G01X19235473Y1996448D01*
G01X19218455Y1996448D01*
G01X19207025Y1990860D01*
G01X19195595Y1979430D01*
G01X19189753Y1962158D01*
G01X19189753Y1950728D01*
G01X19195595Y1933710D01*
G01X19207025Y1922280D01*
G01X19218455Y1916438D01*
G01X19235473Y1916438D01*
G01X19246903Y1922280D01*
G01X19258333Y1933710D01*
G01X19306085Y1996448D02*
G01X19306085Y1916438D01*
G01X19306085Y1962158D02*
G01X19311927Y1979430D01*
G01X19323357Y1990860D01*
G01X19334787Y1996448D01*
G01X19351805Y1996448D01*
G01X19399557Y1968000D02*
G01X19502427Y1968000D01*
G01X19550179Y2036580D02*
G01X19550179Y1916438D01*
G01X19550179Y2036580D02*
G01X19601741Y2036580D01*
G01X19618759Y2030738D01*
G01X19624601Y2025150D01*
G01X19630189Y2013720D01*
G01X19630189Y2002290D01*
G01X19624601Y1990860D01*
G01X19618759Y1985018D01*
G01X19601741Y1979430D01*
G01X19550179Y1979430D02*
G01X19601741Y1979430D01*
G01X19618759Y1973588D01*
G01X19624601Y1968000D01*
G01X19630189Y1956570D01*
G01X19630189Y1939298D01*
G01X19624601Y1927868D01*
G01X19618759Y1922280D01*
G01X19601741Y1916438D01*
G01X19550179Y1916438D01*
G01X19706643Y1996448D02*
G01X19695213Y1990860D01*
G01X19683783Y1979430D01*
G01X19677941Y1962158D01*
G01X19677941Y1950728D01*
G01X19683783Y1933710D01*
G01X19695213Y1922280D01*
G01X19706643Y1916438D01*
G01X19723661Y1916438D01*
G01X19735091Y1922280D01*
G01X19746521Y1933710D01*
G01X19752363Y1950728D01*
G01X19752363Y1962158D01*
G01X19746521Y1979430D01*
G01X19735091Y1990860D01*
G01X19723661Y1996448D01*
G01X19706643Y1996448D01*
G01X19817387Y2036580D02*
G01X19817387Y1939298D01*
G01X19822975Y1922280D01*
G01X19834405Y1916438D01*
G01X19845835Y1916438D01*
G01X19800115Y1996448D02*
G01X19840247Y1996448D01*
G01X19910859Y2036580D02*
G01X19910859Y1939298D01*
G01X19916447Y1922280D01*
G01X19927877Y1916438D01*
G01X19939307Y1916438D01*
G01X19893587Y1996448D02*
G01X19933719Y1996448D01*
G01X20015761Y1996448D02*
G01X20004331Y1990860D01*
G01X19992901Y1979430D01*
G01X19987059Y1962158D01*
G01X19987059Y1950728D01*
G01X19992901Y1933710D01*
G01X20004331Y1922280D01*
G01X20015761Y1916438D01*
G01X20032779Y1916438D01*
G01X20044209Y1922280D01*
G01X20055639Y1933710D01*
G01X20061481Y1950728D01*
G01X20061481Y1962158D01*
G01X20055639Y1979430D01*
G01X20044209Y1990860D01*
G01X20032779Y1996448D01*
G01X20015761Y1996448D01*
G01X20109233Y1996448D02*
G01X20109233Y1916438D01*
G01X20109233Y1973588D02*
G01X20126505Y1990860D01*
G01X20137935Y1996448D01*
G01X20154953Y1996448D01*
G01X20166383Y1990860D01*
G01X20172225Y1973588D01*
G01X20172225Y1916438D01*
G01X20172225Y1973588D02*
G01X20189243Y1990860D01*
G01X20200673Y1996448D01*
G01X20217945Y1996448D01*
G01X20229375Y1990860D01*
G01X20234963Y1973588D01*
G01X20234963Y1916438D01*
G01X20410731Y2036580D02*
G01X20410731Y1916438D01*
G01X20410731Y1916438D02*
G01X20479311Y1916438D01*
G01X20595643Y1996448D02*
G01X20595643Y1916438D01*
G01X20595643Y1979430D02*
G01X20584213Y1990860D01*
G01X20572783Y1996448D01*
G01X20555765Y1996448D01*
G01X20544335Y1990860D01*
G01X20532905Y1979430D01*
G01X20527063Y1962158D01*
G01X20527063Y1950728D01*
G01X20532905Y1933710D01*
G01X20544335Y1922280D01*
G01X20555765Y1916438D01*
G01X20572783Y1916438D01*
G01X20584213Y1922280D01*
G01X20595643Y1933710D01*
G01X20649237Y1996448D02*
G01X20683527Y1916438D01*
G01X20717817Y1996448D02*
G01X20683527Y1916438D01*
G01X20672097Y1893578D01*
G01X20660667Y1882148D01*
G01X20649237Y1876560D01*
G01X20643395Y1876560D01*
G01X20765569Y1962158D02*
G01X20834149Y1962158D01*
G01X20834149Y1973588D01*
G01X20828561Y1985018D01*
G01X20822719Y1990860D01*
G01X20811289Y1996448D01*
G01X20794271Y1996448D01*
G01X20782841Y1990860D01*
G01X20771411Y1979430D01*
G01X20765569Y1962158D01*
G01X20765569Y1950728D01*
G01X20771411Y1933710D01*
G01X20782841Y1922280D01*
G01X20794271Y1916438D01*
G01X20811289Y1916438D01*
G01X20822719Y1922280D01*
G01X20834149Y1933710D01*
G01X20881901Y1996448D02*
G01X20881901Y1916438D01*
G01X20881901Y1962158D02*
G01X20887743Y1979430D01*
G01X20899173Y1990860D01*
G01X20910603Y1996448D01*
G01X20927621Y1996448D01*

G04 Image Start*
G36*
G01X5258269Y2389701D02*
G01X5250529Y2389112D01*
G01X5242686Y2388914D01*
G01X5234843Y2389112D01*
G01X5227102Y2389701D01*
G01X5219475Y2390670D01*
G01X5211970Y2392010D01*
G01X5197364Y2395765D01*
G01X5183362Y2400889D01*
G01X5170040Y2407307D01*
G01X5157474Y2414940D01*
G01X5145742Y2423713D01*
G01X5134920Y2433548D01*
G01X5125084Y2444371D01*
G01X5116311Y2456103D01*
G01X5108678Y2468668D01*
G01X5102261Y2481990D01*
G01X5097137Y2495992D01*
G01X5093382Y2510598D01*
G01X5092042Y2518103D01*
G01X5091072Y2525731D01*
G01X5090484Y2533471D01*
G01X5090286Y2541314D01*
G01X5115686Y2541314D01*
G01X5116343Y2528348D01*
G01X5118270Y2515751D01*
G01X5121405Y2503590D01*
G01X5125682Y2491927D01*
G01X5131037Y2480828D01*
G01X5137405Y2470357D01*
G01X5144723Y2460577D01*
G01X5152925Y2451554D01*
G01X5161949Y2443351D01*
G01X5171728Y2436033D01*
G01X5182200Y2429665D01*
G01X5193299Y2424310D01*
G01X5204961Y2420033D01*
G01X5217123Y2416899D01*
G01X5217123Y2416899D01*
G01X5229719Y2414971D01*
G01X5242686Y2414314D01*
G01X5255652Y2414971D01*
G01X5268248Y2416899D01*
G01X5280410Y2420033D01*
G01X5292072Y2424310D01*
G01X5303172Y2429665D01*
G01X5313643Y2436033D01*
G01X5323423Y2443351D01*
G01X5332446Y2451554D01*
G01X5340649Y2460577D01*
G01X5347966Y2470357D01*
G01X5354335Y2480828D01*
G01X5359690Y2491927D01*
G01X5363966Y2503590D01*
G01X5367101Y2515751D01*
G01X5369029Y2528348D01*
G01X5369686Y2541314D01*
G01X5369029Y2554281D01*
G01X5367101Y2566877D01*
G01X5363966Y2579038D01*
G01X5359690Y2590701D01*
G01X5354335Y2601800D01*
G01X5347966Y2612272D01*
G01X5340649Y2622051D01*
G01X5332446Y2631075D01*
G01X5323423Y2639277D01*
G01X5313643Y2646595D01*
G01X5303172Y2652963D01*
G01X5292072Y2658318D01*
G01X5280410Y2662595D01*
G01X5268248Y2665729D01*
G01X5255652Y2667657D01*
G01X5242686Y2668314D01*
G01X5229719Y2667657D01*
G01X5217123Y2665729D01*
G01X5204961Y2662595D01*
G01X5193299Y2658318D01*
G01X5182200Y2652963D01*
G01X5171728Y2646595D01*
G01X5161949Y2639277D01*
G01X5152925Y2631075D01*
G01X5144723Y2622051D01*
G01X5137405Y2612272D01*
G01X5131037Y2601800D01*
G01X5125682Y2590701D01*
G01X5121405Y2579038D01*
G01X5118270Y2566877D01*
G01X5116343Y2554281D01*
G01X5115686Y2541314D01*
G01X5090286Y2541314D01*
G01X5090484Y2549157D01*
G01X5091072Y2556897D01*
G01X5092042Y2564525D01*
G01X5093382Y2572030D01*
G01X5097137Y2586636D01*
G01X5102261Y2600638D01*
G01X5108678Y2613960D01*
G01X5116311Y2626526D01*
G01X5125084Y2638258D01*
G01X5134920Y2649080D01*
G01X5145742Y2658916D01*
G01X5157474Y2667689D01*
G01X5170040Y2675322D01*
G01X5183362Y2681739D01*
G01X5197364Y2686863D01*
G01X5211970Y2690618D01*
G01X5219475Y2691958D01*
G01X5227102Y2692927D01*
G01X5234843Y2693516D01*
G01X5242686Y2693714D01*
G01X5250529Y2693516D01*
G01X5258269Y2692927D01*
G01X5265896Y2691958D01*
G01X5273402Y2690618D01*
G01X5288008Y2686863D01*
G01X5302010Y2681739D01*
G01X5315332Y2675322D01*
G01X5327897Y2667689D01*
G01X5339629Y2658916D01*
G01X5350452Y2649080D01*
G01X5360287Y2638258D01*
G01X5369060Y2626526D01*
G01X5376693Y2613960D01*
G01X5383110Y2600638D01*
G01X5388235Y2586636D01*
G01X5391990Y2572030D01*
G01X5393330Y2564525D01*
G01X5394299Y2556897D01*
G01X5394887Y2549157D01*
G01X5395086Y2541314D01*
G01X5394887Y2533471D01*
G01X5394299Y2525731D01*
G01X5393330Y2518103D01*
G01X5391990Y2510598D01*
G01X5388235Y2495992D01*
G01X5383110Y2481990D01*
G01X5376693Y2468668D01*
G01X5369060Y2456103D01*
G01X5360287Y2444371D01*
G01X5350452Y2433548D01*
G01X5339629Y2423713D01*
G01X5327897Y2414940D01*
G01X5315332Y2407307D01*
G01X5302010Y2400889D01*
G01X5288008Y2395765D01*
G01X5273402Y2392010D01*
G01X5265896Y2390670D01*
G01X5258269Y2389701D01*
G37*
G36*
G01X5090286Y2113143D02*
G01X5395086Y2113143D01*
G01X5242686Y1849186D01*
G01X5104951Y2087743D01*
G01X5134278Y2087743D01*
G01X5242686Y1899986D01*
G01X5351093Y2087743D01*
G01X5351093Y2087743D01*
G01X5134278Y2087743D01*
G01X5104951Y2087743D01*
G01X5090286Y2113143D01*
G37*
G36*
G01X5090286Y3274286D02*
G01X5369686Y3274286D01*
G01X5369686Y2994886D01*
G01X5090286Y2994886D01*
G01X5090286Y3248886D01*
G01X5115686Y3248886D01*
G01X5115686Y3020286D01*
G01X5344286Y3020286D01*
G01X5344286Y3248886D01*
G01X5344286Y3248886D01*
G01X5115686Y3248886D01*
G01X5090286Y3248886D01*
G01X5090286Y3274286D01*
G37*

G04 PolygonModel Start*
G54D14*
G01X4800000Y1677714D02*
G01X21518353Y1677714D01*
G01X4800000Y2258286D02*
G01X21518353Y2258286D01*
G01X4800000Y2838857D02*
G01X21518353Y2838857D01*
G01X4800000Y3419428D02*
G01X21518353Y3419428D01*
G01X4800000Y4000000D02*
G01X21518353Y4000000D01*
G01X4800000Y4000000D02*
G01X4800000Y1703114D01*
G01X6251429Y4000000D02*
G01X6251429Y1703114D01*
G01X7665592Y4000000D02*
G01X7665592Y1703114D01*
G01X11559049Y4000000D02*
G01X11559049Y1703114D01*
G01X13020456Y4000000D02*
G01X13020456Y1703114D01*
G01X14451637Y4000000D02*
G01X14451637Y1703114D01*
G01X16120816Y4000000D02*
G01X16120816Y1703114D01*
G01X18040185Y4000000D02*
G01X18040185Y1703114D01*
G01X21518353Y4000000D02*
G01X21518353Y1703114D01*

M02*

