G04 Layer: BottomSilkscreenLayer*
G04 EasyEDA v6.5.54, 2026-02-02 14:17:09*
G04 bcfb6501049744fd9474f124fab8c73b,b56bf7277742442884ecbff68b5c164c,10*
G04 Gerber Generator version 0.2*
G04 Scale: 100 percent, Rotated: No, Reflected: No *
G04 Dimensions in millimeters *
G04 leading zeros omitted , absolute positions ,4 integer and 5 decimal *
%FSLAX45Y45*%
%MOMM*%

%ADD10C,0.0500*%
%ADD11C,0.0117*%

%LPD*%
D10*
X1001521Y1930145D02*
G01*
X1024128Y1930145D01*
X1026413Y1909571D01*
X1024128Y1911857D01*
X1017270Y1914144D01*
X1010412Y1914144D01*
X1003807Y1911857D01*
X999236Y1907286D01*
X996950Y1900428D01*
X996950Y1895855D01*
X999236Y1889252D01*
X1003807Y1884679D01*
X1010412Y1882394D01*
X1017270Y1882394D01*
X1024128Y1884679D01*
X1026413Y1886965D01*
X1028700Y1891537D01*
X981963Y1914144D02*
G01*
X968247Y1882394D01*
X954531Y1914144D02*
G01*
X968247Y1882394D01*
X1598421Y3758945D02*
G01*
X1621028Y3758945D01*
X1623313Y3738371D01*
X1621028Y3740657D01*
X1614170Y3742944D01*
X1607312Y3742944D01*
X1600707Y3740657D01*
X1596136Y3736086D01*
X1593850Y3729228D01*
X1593850Y3724655D01*
X1596136Y3718052D01*
X1600707Y3713479D01*
X1607312Y3711194D01*
X1614170Y3711194D01*
X1621028Y3713479D01*
X1623313Y3715765D01*
X1625600Y3720337D01*
X1578863Y3742944D02*
G01*
X1565147Y3711194D01*
X1551431Y3742944D02*
G01*
X1565147Y3711194D01*
X1671828Y1650745D02*
G01*
X1646936Y1650745D01*
X1660397Y1632457D01*
X1653794Y1632457D01*
X1649221Y1630171D01*
X1646936Y1627886D01*
X1644650Y1621028D01*
X1644650Y1616455D01*
X1646936Y1609852D01*
X1651507Y1605279D01*
X1658112Y1602994D01*
X1664970Y1602994D01*
X1671828Y1605279D01*
X1674113Y1607565D01*
X1676400Y1612137D01*
X1627378Y1614170D02*
G01*
X1629663Y1612137D01*
X1627378Y1609852D01*
X1625092Y1612137D01*
X1627378Y1614170D01*
X1605534Y1650745D02*
G01*
X1580387Y1650745D01*
X1594104Y1632457D01*
X1587245Y1632457D01*
X1582673Y1630171D01*
X1580387Y1627886D01*
X1578102Y1621028D01*
X1578102Y1616455D01*
X1580387Y1609852D01*
X1584960Y1605279D01*
X1591818Y1602994D01*
X1598676Y1602994D01*
X1605534Y1605279D01*
X1607820Y1607565D01*
X1610105Y1612137D01*
X1563115Y1634744D02*
G01*
X1549654Y1602994D01*
X1535937Y1634744D02*
G01*
X1549654Y1602994D01*
M02*
