G04 Layer: TopPasteMaskLayer*
G04 EasyEDA v6.5.54, 2026-02-02 14:17:09*
G04 bcfb6501049744fd9474f124fab8c73b,b56bf7277742442884ecbff68b5c164c,10*
G04 Gerber Generator version 0.2*
G04 Scale: 100 percent, Rotated: No, Reflected: No *
G04 Dimensions in millimeters *
G04 leading zeros omitted , absolute positions ,4 integer and 5 decimal *
%FSLAX45Y45*%
%MOMM*%

%AMMACRO1*21,1,$1,$2,0,0,$3*%
%ADD10R,0.5320X1.0720*%
%ADD11O,0.3556X1.814805*%
%ADD12O,0.356006X1.815008*%
%ADD13R,0.9000X0.8000*%
%ADD14R,0.8000X0.9000*%
%ADD15R,0.6000X1.6000*%
%ADD16R,0.0155X1.6000*%
%ADD17R,1.1500X2.2000*%
%ADD18R,1.1500X2.5000*%
%ADD19R,1.5000X1.1500*%
%ADD20R,1.1600X1.2000*%
%ADD21R,1.1600X1.2500*%
%ADD22MACRO1,0.8X0.9X51.0001*%
%ADD23R,0.2000X0.7000*%

%LPD*%
D10*
G01*
X1213104Y2602890D03*
G01*
X1308100Y2602890D03*
G01*
X1403095Y2602890D03*
G01*
X1403095Y2832684D03*
G01*
X1308100Y2832684D03*
G01*
X1213104Y2832684D03*
G01*
X1847595Y2299309D03*
G01*
X1752600Y2299309D03*
G01*
X1657604Y2299309D03*
G01*
X1657604Y2069490D03*
G01*
X1752600Y2069490D03*
G01*
X1847595Y2069515D03*
G01*
X2228595Y2299309D03*
G01*
X2133600Y2299309D03*
G01*
X2038604Y2299309D03*
G01*
X2038604Y2069490D03*
G01*
X2133600Y2069490D03*
G01*
X2228595Y2069515D03*
G01*
X2609595Y2299309D03*
G01*
X2514600Y2299309D03*
G01*
X2419604Y2299309D03*
G01*
X2419604Y2069490D03*
G01*
X2514600Y2069490D03*
G01*
X2609595Y2069515D03*
D11*
G01*
X2279650Y3249980D03*
D12*
G01*
X2216150Y3249955D03*
G01*
X2152650Y3249955D03*
G01*
X2089150Y3249955D03*
G01*
X2025650Y3249955D03*
D11*
G01*
X1962150Y3249980D03*
D12*
G01*
X1898650Y3249955D03*
G01*
X1835150Y3249955D03*
G01*
X2279650Y2719019D03*
G01*
X2216150Y2719019D03*
D11*
G01*
X2152650Y2719019D03*
G01*
X2089150Y2719019D03*
G01*
X2025650Y2719019D03*
G01*
X1962150Y2719019D03*
G01*
X1898650Y2719019D03*
G01*
X1835150Y2719019D03*
D13*
G01*
X2476500Y3054502D03*
G01*
X2476500Y2914497D03*
G01*
X2019300Y3753002D03*
G01*
X2019300Y3612997D03*
D14*
G01*
X920597Y2476500D03*
G01*
X1060602Y2476500D03*
D13*
G01*
X1485900Y2330602D03*
G01*
X1485900Y2190597D03*
D15*
G01*
X1674291Y187705D03*
G01*
X1564309Y187705D03*
G01*
X1454302Y187705D03*
G01*
X1344295Y187705D03*
G01*
X1234287Y187705D03*
G01*
X1124305Y187731D03*
G01*
X1014298Y187705D03*
G01*
X904290Y187705D03*
D17*
G01*
X669797Y235762D03*
D18*
G01*
X2098802Y250748D03*
D17*
G01*
X2098802Y1383741D03*
D19*
G01*
X1668297Y1463243D03*
G01*
X890295Y1463243D03*
D20*
G01*
X710311Y1350746D03*
D21*
G01*
X710311Y450748D03*
D14*
G01*
X2635402Y2628900D03*
G01*
X2495397Y2628900D03*
D22*
G01*
X2355452Y3673900D03*
G01*
X2267351Y3565093D03*
D23*
G01*
X1310307Y2058995D03*
G01*
X1310307Y1750994D03*
G01*
X1270302Y2059045D03*
G01*
X1270302Y1751045D03*
G01*
X1230297Y2059045D03*
G01*
X1230297Y1750994D03*
G01*
X1190292Y2058995D03*
G01*
X1190292Y1750994D03*
G01*
X1150287Y2059045D03*
G01*
X1150287Y1751045D03*
G01*
X1110307Y2059045D03*
G01*
X1110307Y1751045D03*
G01*
X1070302Y2058995D03*
G01*
X1070302Y1751045D03*
G01*
X1030297Y2059045D03*
G01*
X1030297Y1751045D03*
G01*
X990292Y2059045D03*
G01*
X990292Y1751045D03*
G01*
X950287Y2058995D03*
G01*
X950287Y1751045D03*
M02*
