;TYPE=PLATED
;Layer: PTH_Through
;EasyEDA Pro v2.2.46.11, 2026-02-17 18:28:56
;Gerber Generator version 0.3
M48
METRIC,LZ,0000.00000
;Hole size 1 = 0.30988 METRIC
T01C0.30988
;Hole size 2 = 2.03200 METRIC
T02C2.03200
%
G05
G90
T01
X8.0264Y16.8148
X8.00322Y17.61
X17.2212Y36.2204
X21.55618Y23.42135
X25.20629Y23.42135
X17.8816Y23.42135
X17.2212Y36.86237
X19.7104Y25.4508
X21.5392Y26.162
X23.3172Y25.4508
X13.44295Y0.83185
X27.178Y23.42137
X12.5984Y22.352
X24.4348Y27.178
X26.18311Y27.178
X0.746Y15.0
X0.746Y14.0
X0.746Y13.0
X0.746Y12.0
X0.746Y11.0
X0.746Y10.0
X0.746Y7.0
X0.746Y6.0
X0.746Y1.0
X27.0Y15.0
X27.0Y14.0
X27.0Y13.0
X27.0Y12.0
X27.0Y11.0
X27.0Y10.0
X27.0Y7.0
X27.0Y6.0
X27.0Y5.0
X27.0Y4.0
X27.0Y1.0
X0.746Y5.0
X0.746Y4.0
X0.746Y3.0
X11.938Y10.9728
X11.938Y5.98781
X15.6464Y10.9728
X15.6464Y5.9944
X19.5072Y10.9728
X19.5072Y5.9944
X8.71442Y17.61
X8.7376Y16.8148
X8.0Y39.0
X8.0Y37.0
X8.0Y35.0
X10.0Y39.0
X12.0Y39.0
X14.0Y39.0
X16.0Y39.0
X25.0Y39.0
X27.0Y39.0
X27.0Y37.0
X27.0Y35.0
X22.0Y39.0
X12.0Y31.0
X14.0Y31.0
X3.0Y17.0
X5.0Y19.0
X7.0Y21.0
X27.0Y18.0
X24.9936Y36.9824
X8.0264Y24.63545
X8.69859Y24.63545
X17.9832Y25.6032
X25.18824Y25.6032
X27.0Y3.0
X27.0Y2.0
X27.0Y8.0
X27.0Y9.0
T02
X25.2959Y2.244
X2.295Y2.244
M30