G04 Layer: TopLayer*
G04 EasyEDA Pro v2.2.46.11, 2026-02-17 18:28:56*
G04 Gerber Generator version 0.3*
G04 Scale: 100 percent, Rotated: No, Reflected: No*
G04 Dimensions in millimeters*
G04 Leading zeros omitted, absolute positions, 4 integers and 5 decimals*
G04 Generated by one-click*
%FSLAX45Y45*%
%MOMM*%
%ADD10C,0.2032*%
%ADD11C,0.1524*%
%ADD12C,1.02108*%
%ADD13C,1.524*%
%ADD14R,0.9X0.8*%
%ADD15R,0.8X0.9*%
%ADD16R,0.532X1.07201*%
%ADD17R,0.6086X1.6*%
%ADD18R,0.6X1.6*%
%ADD19R,1.15001X2.2*%
%ADD20R,1.15001X2.49999*%
%ADD21R,1.5X1.15001*%
%ADD22R,1.15999X1.2*%
%ADD23R,1.15999X1.25001*%
%ADD24O,0.3556X1.8148*%
%ADD25O,0.35601X1.81501*%
%ADD26R,0.2X0.7*%
%ADD27C,0.61976*%
%ADD28C,0.3556*%
G75*


G04 Copper Start*
G36*
G01X1123552Y1783080D02*
G01X1127376Y1779255D01*
G01X1127376Y1716000D01*
G01X1127760Y1711584D01*
G01X1127760Y1711088D01*
G01X1077832Y1661160D01*
G01X791608Y1661160D01*
G01X782320Y1670448D01*
G01X782320Y1778872D01*
G01X786528Y1783080D01*
G01X1123552Y1783080D01*
G37*
G36*
G01X723073Y2300000D02*
G01X723073Y2463545D01*
G01X748579Y2463545D01*
G01X750247Y2450218D01*
G01X755149Y2437714D01*
G01X762982Y2426804D01*
G01X773263Y2418162D01*
G01X785357Y2412321D01*
G01X798517Y2409641D01*
G01X811932Y2410288D01*
G01X824774Y2414222D01*
G01X836249Y2421200D01*
G01X846829Y2414634D01*
G01X858630Y2410662D01*
G01X871026Y2409496D01*
G01X883361Y2411197D01*
G01X894979Y2415674D01*
G01X905265Y2422691D01*
G01X1192373Y2422691D01*
G01X1202460Y2412605D01*
G01X1197127Y2414693D01*
G01X1191444Y2415404D01*
G01X1138244Y2415404D01*
G01X1129414Y2413648D01*
G01X1121929Y2408646D01*
G01X1116927Y2401161D01*
G01X1115170Y2392331D01*
G01X1115170Y2285130D01*
G01X1116358Y2277823D01*
G01X1119799Y2271268D01*
G01X1125138Y2266140D01*
G01X1131827Y2262967D01*
G01X1131827Y2238540D01*
G01X1132959Y2229939D01*
G01X1136279Y2221923D01*
G01X1141560Y2215041D01*
G01X1209766Y2146834D01*
G01X1209766Y2059000D01*
G01X1209926Y2055743D01*
G01X1209926Y2024000D01*
G01X1211683Y2015170D01*
G01X1216684Y2007685D01*
G01X1224170Y2002683D01*
G01X1233000Y2000927D01*
G01X1253000Y2000927D01*
G01X1258129Y2001504D01*
G01X1263002Y2003208D01*
G01X1267875Y2001504D01*
G01X1273005Y2000927D01*
G01X1293005Y2000927D01*
G01X1301835Y2002683D01*
G01X1309320Y2007685D01*
G01X1314322Y2015170D01*
G01X1316078Y2024000D01*
G01X1316078Y2055743D01*
G01X1316238Y2059000D01*
G01X1316238Y2153159D01*
G01X1378742Y2215663D01*
G01X1384023Y2222546D01*
G01X1387343Y2230561D01*
G01X1388476Y2239162D01*
G01X1388476Y2263157D01*
G01X1396828Y2267941D01*
G01X1402502Y2275716D01*
G01X1404510Y2285130D01*
G01X1404510Y2392331D01*
G01X1402753Y2401161D01*
G01X1397751Y2408646D01*
G01X1390266Y2413648D01*
G01X1381436Y2415404D01*
G01X1328236Y2415404D01*
G01X1319731Y2413780D01*
G01X1312424Y2409135D01*
G01X1307344Y2402124D01*
G01X1304511Y2406703D01*
G01X1300693Y2410501D01*
G01X1300693Y2413000D01*
G01X1299301Y2423574D01*
G01X1295220Y2433427D01*
G01X1288728Y2441888D01*
G01X1238183Y2492432D01*
G01X1230475Y2498479D01*
G01X1221550Y2502517D01*
G01X1211920Y2504314D01*
G01X1213859Y2509475D01*
G01X1214518Y2514949D01*
G01X1214518Y2622150D01*
G01X1213348Y2629404D01*
G01X1209957Y2635922D01*
G01X1204689Y2641043D01*
G01X1198077Y2644249D01*
G01X1198077Y2661444D01*
G01X1199909Y2659612D01*
G01X1206792Y2654331D01*
G01X1214807Y2651011D01*
G01X1223409Y2649878D01*
G01X1322255Y2649878D01*
G01X1322255Y2644435D01*
G01X1315411Y2641331D01*
G01X1309928Y2636192D01*
G01X1306386Y2629564D01*
G01X1305162Y2622150D01*
G01X1305162Y2514949D01*
G01X1306919Y2506119D01*
G01X1311921Y2498634D01*
G01X1319406Y2493632D01*
G01X1328236Y2491876D01*
G01X1381436Y2491876D01*
G01X1390266Y2493632D01*
G01X1396339Y2497690D01*
G01X1643490Y2497690D01*
G01X1643490Y2390489D01*
G01X1645247Y2381659D01*
G01X1650249Y2374174D01*
G01X1657734Y2369172D01*
G01X1666564Y2367416D01*
G01X1719764Y2367416D01*
G01X1728269Y2369040D01*
G01X1735576Y2373685D01*
G01X1740656Y2380696D01*
G01X1744876Y2374526D01*
G01X1738334Y2363112D01*
G01X1734743Y2350457D01*
G01X1734315Y2337308D01*
G01X1737075Y2324446D01*
G01X1742860Y2312631D01*
G01X1751327Y2302563D01*
G01X1761975Y2294838D01*
G01X1774174Y2289914D01*
G01X1787201Y2288082D01*
G01X1800285Y2289451D01*
G01X1812651Y2293940D01*
G01X1823567Y2301282D01*
G01X2120212Y2301282D01*
G01X2130843Y2294085D01*
G01X2142871Y2289598D01*
G01X2155618Y2288074D01*
G01X2168366Y2289598D01*
G01X2180394Y2294085D01*
G01X2191025Y2301282D01*
G01X2191025Y2301282D01*
G01X2485222Y2301282D01*
G01X2495853Y2294085D01*
G01X2507882Y2289598D01*
G01X2520630Y2288074D01*
G01X2533377Y2289599D01*
G01X2545406Y2294086D01*
G01X2556037Y2301283D01*
G01X2682393Y2301283D01*
G01X2693597Y2293795D01*
G01X2706305Y2289311D01*
G01X2719727Y2288110D01*
G01X2733029Y2290265D01*
G01X2745385Y2295643D01*
G01X2756027Y2303909D01*
G01X2764294Y2314551D01*
G01X2769672Y2326907D01*
G01X2771827Y2340210D01*
G01X2770625Y2353632D01*
G01X2766141Y2366339D01*
G01X2758653Y2377543D01*
G01X2758653Y2748280D01*
G01X2757261Y2758854D01*
G01X2753180Y2768707D01*
G01X2746688Y2777168D01*
G01X2674447Y2849408D01*
G01X2665986Y2855901D01*
G01X2656133Y2859982D01*
G01X2645559Y2861374D01*
G01X2608068Y2861374D01*
G01X2606075Y2869938D01*
G01X2601022Y2877135D01*
G01X2593643Y2881918D01*
G01X2585011Y2883594D01*
G01X2495011Y2883594D01*
G01X2486402Y2881927D01*
G01X2479036Y2877169D01*
G01X2473978Y2870006D01*
G01X2471957Y2861473D01*
G01X2419563Y2861473D01*
G01X2419563Y2893579D01*
G01X2417646Y2905949D01*
G01X2412072Y2917158D01*
G01X2403367Y2926153D01*
G01X2392346Y2932090D01*
G01X2380046Y2934411D01*
G01X2367620Y2932899D01*
G01X2356235Y2927695D01*
G01X2346960Y2919288D01*
G01X2338056Y2927448D01*
G01X2327155Y2932648D01*
G01X2315210Y2934433D01*
G01X2303265Y2932648D01*
G01X2292364Y2927448D01*
G01X2283460Y2919288D01*
G01X2274556Y2927448D01*
G01X2263655Y2932648D01*
G01X2251710Y2934433D01*
G01X2239765Y2932648D01*
G01X2228864Y2927448D01*
G01X2219960Y2919288D01*
G01X2211056Y2927448D01*
G01X2200155Y2932648D01*
G01X2188210Y2934433D01*
G01X2176265Y2932648D01*
G01X2165364Y2927448D01*
G01X2156460Y2919288D01*
G01X2147556Y2927448D01*
G01X2136655Y2932648D01*
G01X2124710Y2934433D01*
G01X2112765Y2932648D01*
G01X2101864Y2927448D01*
G01X2092960Y2919288D01*
G01X2084056Y2927448D01*
G01X2073155Y2932648D01*
G01X2061210Y2934433D01*
G01X2049265Y2932648D01*
G01X2038364Y2927448D01*
G01X2029460Y2919288D01*
G01X2020185Y2927695D01*
G01X2008800Y2932899D01*
G01X1996374Y2934411D01*
G01X1984074Y2932090D01*
G01X1973053Y2926153D01*
G01X1964348Y2917158D01*
G01X1958774Y2905949D01*
G01X1956857Y2893579D01*
G01X1956857Y2747659D01*
G01X1958808Y2735183D01*
G01X1964477Y2723899D01*
G01X1964477Y2722676D01*
G01X1916634Y2674833D01*
G01X1747520Y2674833D01*
G01X1738919Y2673701D01*
G01X1730903Y2670381D01*
G01X1724020Y2665100D01*
G01X1669664Y2610744D01*
G01X1664383Y2603861D01*
G01X1661063Y2595845D01*
G01X1659931Y2587244D01*
G01X1659931Y2519789D01*
G01X1653319Y2516583D01*
G01X1648051Y2511462D01*
G01X1644660Y2504944D01*
G01X1643490Y2497690D01*
G01X1396339Y2497690D01*
G01X1397751Y2498634D01*
G01X1402753Y2506119D01*
G01X1404510Y2514949D01*
G01X1404510Y2622150D01*
G01X1402537Y2631485D01*
G01X1396956Y2639224D01*
G01X1388722Y2644043D01*
G01X1388722Y2668743D01*
G01X1387589Y2677345D01*
G01X1384269Y2685360D01*
G01X1378988Y2692243D01*
G01X1364619Y2706611D01*
G01X1357737Y2711893D01*
G01X1349721Y2715212D01*
G01X1341120Y2716345D01*
G01X1242273Y2716345D01*
G01X1242273Y2729945D01*
G01X1242615Y2730287D01*
G01X1620009Y2730287D01*
G01X1628611Y2731419D01*
G01X1636626Y2734739D01*
G01X1643509Y2740020D01*
G01X1715140Y2811651D01*
G01X1720421Y2818534D01*
G01X1723741Y2826549D01*
G01X1724873Y2835151D01*
G01X1724873Y3451305D01*
G01X1735375Y3461807D01*
G01X1884884Y3461807D01*
G01X1899928Y3446763D01*
G01X1895019Y3436112D01*
G01X1893336Y3424505D01*
G01X1893336Y3278605D01*
G01X1895255Y3266229D01*
G01X1900832Y3255014D01*
G01X1909543Y3246014D01*
G01X1920569Y3240075D01*
G01X1932877Y3237753D01*
G01X1945310Y3239268D01*
G01X1956700Y3244476D01*
G01X1965979Y3252888D01*
G01X1975257Y3244490D01*
G01X1986642Y3239295D01*
G01X1999065Y3237790D01*
G01X2011361Y3240115D01*
G01X2022376Y3246054D01*
G01X2031077Y3255048D01*
G01X2036647Y3266254D01*
G01X2038563Y3278621D01*
G01X2038563Y3424541D01*
G01X2036594Y3437073D01*
G01X2030875Y3448396D01*
G01X2029415Y3456233D01*
G01X2026130Y3463497D01*
G01X2021210Y3469769D01*
G01X1936879Y3554100D01*
G01X1929996Y3559381D01*
G01X1921981Y3562701D01*
G01X1913379Y3563833D01*
G01X1706880Y3563833D01*
G01X1698279Y3562701D01*
G01X1690263Y3559381D01*
G01X1683380Y3554100D01*
G01X1632580Y3503300D01*
G01X1627299Y3496417D01*
G01X1623979Y3488401D01*
G01X1622847Y3479800D01*
G01X1622847Y2863646D01*
G01X1591514Y2832313D01*
G01X1591514Y2832313D01*
G01X1214120Y2832313D01*
G01X1205519Y2831181D01*
G01X1197503Y2827861D01*
G01X1190620Y2822580D01*
G01X1141344Y2773304D01*
G01X1136063Y2766421D01*
G01X1132743Y2758405D01*
G01X1131611Y2749804D01*
G01X1131611Y2644249D01*
G01X1124999Y2641043D01*
G01X1119731Y2635922D01*
G01X1116340Y2629404D01*
G01X1115170Y2622150D01*
G01X1115170Y2514949D01*
G01X1115818Y2509521D01*
G01X1117724Y2504398D01*
G01X905265Y2504398D01*
G01X894979Y2511415D01*
G01X883361Y2515893D01*
G01X871026Y2517593D01*
G01X858630Y2516427D01*
G01X846829Y2512455D01*
G01X836249Y2505889D01*
G01X824774Y2512867D01*
G01X811932Y2516802D01*
G01X798517Y2517449D01*
G01X785357Y2514769D01*
G01X773263Y2508928D01*
G01X762982Y2500285D01*
G01X755149Y2489375D01*
G01X750247Y2476871D01*
G01X748579Y2463545D01*
G01X723073Y2463545D01*
G01X723073Y3681067D01*
G01X1668306Y3681067D01*
G01X1671634Y3666903D01*
G01X1678619Y3654139D01*
G01X1672129Y3642620D01*
G01X1668629Y3629871D01*
G01X1668328Y3616654D01*
G01X1671244Y3603759D01*
G01X1677202Y3591957D01*
G01X1685847Y3581954D01*
G01X1696661Y3574348D01*
G01X1708998Y3569595D01*
G01X1722120Y3567979D01*
G01X1735242Y3569595D01*
G01X1747579Y3574348D01*
G01X1758393Y3581954D01*
G01X1767038Y3591957D01*
G01X1772996Y3603759D01*
G01X1775912Y3616654D01*
G01X1775611Y3629871D01*
G01X1772111Y3642620D01*
G01X1765621Y3654139D01*
G01X1772606Y3666903D01*
G01X1775934Y3681067D01*
G01X1775363Y3695606D01*
G01X1770936Y3709466D01*
G01X1762973Y3721644D01*
G01X1762973Y3752183D01*
G01X1764442Y3753651D01*
G01X2116945Y3753651D01*
G01X2253498Y3617097D01*
G01X2253498Y3573000D01*
G01X2255166Y3564387D01*
G01X2259929Y3557019D01*
G01X2267098Y3551961D01*
G01X2275638Y3549946D01*
G01X2275638Y3457654D01*
G01X2264660Y3463287D01*
G01X2252502Y3465387D01*
G01X2240271Y3463760D01*
G01X2229083Y3458556D01*
G01X2219960Y3450250D01*
G01X2211095Y3458383D01*
G01X2200247Y3463581D01*
G01X2188354Y3465394D01*
G01X2176449Y3463665D01*
G01X2165563Y3458543D01*
G01X2165563Y3599341D01*
G01X2164171Y3609914D01*
G01X2160090Y3619767D01*
G01X2153598Y3628228D01*
G01X2134593Y3647233D01*
G01X2134593Y3697531D01*
G01X2132837Y3706361D01*
G01X2127835Y3713846D01*
G01X2120349Y3718848D01*
G01X2111520Y3720604D01*
G01X2031520Y3720604D01*
G01X2022690Y3718848D01*
G01X2015204Y3713846D01*
G01X2010203Y3706361D01*
G01X2008446Y3697531D01*
G01X2008446Y3607531D01*
G01X2010203Y3598701D01*
G01X2015204Y3591216D01*
G01X2022690Y3586214D01*
G01X2031520Y3584458D01*
G01X2081818Y3584458D01*
G01X2083857Y3582419D01*
G01X2083857Y3278621D01*
G01X2085774Y3266251D01*
G01X2091348Y3255042D01*
G01X2100053Y3246047D01*
G01X2111074Y3240110D01*
G01X2123374Y3237789D01*
G01X2135800Y3239301D01*
G01X2147185Y3244505D01*
G01X2156460Y3252912D01*
G01X2165364Y3244752D01*
G01X2176265Y3239552D01*
G01X2188210Y3237767D01*
G01X2200155Y3239552D01*
G01X2211056Y3244752D01*
G01X2219960Y3252912D01*
G01X2228860Y3244755D01*
G01X2239755Y3239555D01*
G01X2251695Y3237767D01*
G01X2263635Y3239547D01*
G01X2274535Y3244738D01*
G01X2283441Y3252888D01*
G01X2292350Y3244722D01*
G01X2303257Y3239518D01*
G01X2315210Y3237732D01*
G01X2327163Y3239518D01*
G01X2338070Y3244722D01*
G01X2346979Y3252888D01*
G01X2356257Y3244490D01*
G01X2367642Y3239295D01*
G01X2380065Y3237790D01*
G01X2392361Y3240115D01*
G01X2403376Y3246054D01*
G01X2412077Y3255048D01*
G01X2417647Y3266254D01*
G01X2419563Y3278621D01*
G01X2419563Y3310727D01*
G01X2472718Y3310727D01*
G01X2475830Y3303902D01*
G01X2480968Y3298435D01*
G01X2487587Y3294906D01*
G01X2494989Y3293686D01*
G01X2584989Y3293686D01*
G01X2593819Y3295443D01*
G01X2601304Y3300444D01*
G01X2606306Y3307930D01*
G01X2608062Y3316760D01*
G01X2608062Y3396760D01*
G01X2606306Y3405589D01*
G01X2601304Y3413075D01*
G01X2593819Y3418077D01*
G01X2584989Y3419833D01*
G01X2494989Y3419833D01*
G01X2486159Y3418077D01*
G01X2478674Y3413075D01*
G01X2473672Y3405589D01*
G01X2471916Y3396760D01*
G01X2471916Y3392434D01*
G01X2419563Y3392434D01*
G01X2419563Y3424541D01*
G01X2417702Y3436732D01*
G01X2412288Y3447812D01*
G01X2403814Y3456771D01*
G01X2393052Y3462794D01*
G01X2380984Y3465331D01*
G01X2368708Y3464151D01*
G01X2357344Y3459362D01*
G01X2357344Y3549927D01*
G01X2366571Y3549927D01*
G01X2375401Y3551683D01*
G01X2382886Y3556685D01*
G01X2387888Y3564171D01*
G01X2389644Y3573000D01*
G01X2389644Y3653000D01*
G01X2387888Y3661830D01*
G01X2382886Y3669316D01*
G01X2375401Y3674317D01*
G01X2366571Y3676074D01*
G01X2310072Y3676074D01*
G01X2162754Y3823392D01*
G01X2154293Y3829885D01*
G01X2144440Y3833966D01*
G01X2133867Y3835358D01*
G01X1747520Y3835358D01*
G01X1747520Y3835358D01*
G01X1736946Y3833966D01*
G01X1727093Y3829885D01*
G01X1718632Y3823392D01*
G01X1693232Y3797992D01*
G01X1686740Y3789531D01*
G01X1682659Y3779678D01*
G01X1681267Y3769105D01*
G01X1681267Y3721644D01*
G01X1673304Y3709466D01*
G01X1668877Y3695606D01*
G01X1668306Y3681067D01*
G01X723073Y3681067D01*
G01X723073Y3976927D01*
G01X2776927Y3976927D01*
G01X2776927Y23073D01*
G01X23073Y23073D01*
G01X23073Y224400D01*
G01X117486Y224400D01*
G01X119393Y203818D01*
G01X125050Y183936D01*
G01X134264Y165432D01*
G01X146721Y148937D01*
G01X161996Y135011D01*
G01X179571Y124129D01*
G01X198846Y116662D01*
G01X219165Y112864D01*
G01X239835Y112864D01*
G01X260154Y116662D01*
G01X279429Y124129D01*
G01X297003Y135011D01*
G01X312279Y148937D01*
G01X324736Y165432D01*
G01X333950Y183936D01*
G01X339607Y203818D01*
G01X341514Y224400D01*
G01X339607Y244983D01*
G01X333950Y264864D01*
G01X332535Y267706D01*
G01X851218Y267706D01*
G01X851218Y107706D01*
G01X852974Y98876D01*
G01X857976Y91391D01*
G01X865461Y86389D01*
G01X874291Y84633D01*
G01X934291Y84633D01*
G01X943121Y86389D01*
G01X950606Y91391D01*
G01X955608Y98876D01*
G01X957364Y107706D01*
G01X957364Y267706D01*
G01X956222Y274874D01*
G01X952910Y281333D01*
G01X947756Y286443D01*
G01X941269Y289699D01*
G01X962685Y311116D01*
G01X981065Y292736D01*
G01X981065Y290552D01*
G01X973274Y287975D01*
G01X966877Y282835D01*
G01X962684Y275781D01*
G01X961225Y267706D01*
G01X961225Y107706D01*
G01X962981Y98876D01*
G01X967983Y91391D01*
G01X975468Y86389D01*
G01X984298Y84633D01*
G01X1044298Y84633D01*
G01X1053128Y86389D01*
G01X1060613Y91391D01*
G01X1065615Y98876D01*
G01X1067372Y107706D01*
G01X1067372Y267706D01*
G01X1065912Y275781D01*
G01X1061719Y282835D01*
G01X1055323Y287975D01*
G01X1047532Y290552D01*
G01X1047532Y306502D01*
G01X1046399Y315103D01*
G01X1043079Y323118D01*
G01X1037798Y330001D01*
G01X1013673Y354126D01*
G01X1013673Y1109482D01*
G01X1380470Y1476279D01*
G01X1380470Y418012D01*
G01X1371611Y409153D01*
G01X1254760Y409153D01*
G01X1246159Y408021D01*
G01X1238143Y404701D01*
G01X1231260Y399420D01*
G01X1210788Y378947D01*
G01X1205507Y372064D01*
G01X1202187Y364049D01*
G01X1201054Y355448D01*
G01X1201054Y290552D01*
G01X1193263Y287975D01*
G01X1186867Y282835D01*
G01X1182674Y275781D01*
G01X1181214Y267706D01*
G01X1181214Y107706D01*
G01X1182971Y98876D01*
G01X1187972Y91391D01*
G01X1195458Y86389D01*
G01X1204288Y84633D01*
G01X1264288Y84633D01*
G01X1267280Y85228D01*
G01X1290272Y85228D01*
G01X1291661Y70845D01*
G01X1296810Y57343D01*
G01X1305352Y45687D01*
G01X1316677Y36711D01*
G01X1329974Y31055D01*
G01X1344295Y29124D01*
G01X1344295Y29124D01*
G01X1358616Y31055D01*
G01X1371913Y36711D01*
G01X1383238Y45687D01*
G01X1391780Y57343D01*
G01X1396929Y70845D01*
G01X1398318Y85228D01*
G01X1395847Y99466D01*
G01X1397368Y107706D01*
G01X1397368Y267706D01*
G01X1395612Y276536D01*
G01X1390610Y284021D01*
G01X1383125Y289023D01*
G01X1374295Y290779D01*
G01X1314295Y290779D01*
G01X1305465Y289023D01*
G01X1297980Y284021D01*
G01X1292978Y276536D01*
G01X1291222Y267706D01*
G01X1291222Y107706D01*
G01X1292743Y99466D01*
G01X1290272Y85228D01*
G01X1267280Y85228D01*
G01X1273117Y86389D01*
G01X1280603Y91391D01*
G01X1285605Y98876D01*
G01X1287361Y107706D01*
G01X1287361Y267706D01*
G01X1285902Y275781D01*
G01X1281709Y282835D01*
G01X1275312Y287975D01*
G01X1267521Y290552D01*
G01X1267521Y341682D01*
G01X1268526Y342687D01*
G01X1385377Y342687D01*
G01X1393978Y343819D01*
G01X1401994Y347139D01*
G01X1408876Y352420D01*
G01X1415989Y359533D01*
G01X1415989Y289229D01*
G01X1408251Y284281D01*
G01X1403057Y276707D01*
G01X1401229Y267706D01*
G01X1401229Y107706D01*
G01X1402985Y98876D01*
G01X1407987Y91391D01*
G01X1415473Y86389D01*
G01X1424302Y84633D01*
G01X1484302Y84633D01*
G01X1493132Y86389D01*
G01X1500618Y91391D01*
G01X1505619Y98876D01*
G01X1507376Y107706D01*
G01X1507376Y267706D01*
G01X1505619Y276536D01*
G01X1500618Y284021D01*
G01X1493132Y289023D01*
G01X1484302Y290779D01*
G01X1482456Y290779D01*
G01X1482456Y1477801D01*
G01X1805645Y1800990D01*
G01X1805645Y663356D01*
G01X1540810Y398521D01*
G01X1535529Y391639D01*
G01X1532209Y383623D01*
G01X1531076Y375022D01*
G01X1531076Y290552D01*
G01X1523285Y287975D01*
G01X1516889Y282835D01*
G01X1512696Y275781D01*
G01X1511237Y267706D01*
G01X1511237Y107706D01*
G01X1512993Y98876D01*
G01X1517995Y91391D01*
G01X1525480Y86389D01*
G01X1534310Y84633D01*
G01X1594310Y84633D01*
G01X1603140Y86389D01*
G01X1610625Y91391D01*
G01X1615627Y98876D01*
G01X1617383Y107706D01*
G01X1617383Y267706D01*
G01X1615924Y275781D01*
G01X1611731Y282835D01*
G01X1605334Y287975D01*
G01X1597543Y290552D01*
G01X1597543Y361256D01*
G01X1641058Y404771D01*
G01X1641058Y290552D01*
G01X1633267Y287975D01*
G01X1626871Y282835D01*
G01X1622678Y275781D01*
G01X1621219Y267706D01*
G01X1621219Y107706D01*
G01X1622975Y98876D01*
G01X1627977Y91391D01*
G01X1635462Y86389D01*
G01X1644292Y84633D01*
G01X1704292Y84633D01*
G01X1713122Y86389D01*
G01X1720607Y91391D01*
G01X1725609Y98876D01*
G01X1727365Y107706D01*
G01X1727365Y224400D01*
G01X2417576Y224400D01*
G01X2419483Y203818D01*
G01X2425140Y183936D01*
G01X2434354Y165432D01*
G01X2446810Y148937D01*
G01X2462086Y135011D01*
G01X2479661Y124129D01*
G01X2498936Y116662D01*
G01X2519254Y112864D01*
G01X2539925Y112864D01*
G01X2560244Y116662D01*
G01X2579519Y124129D01*
G01X2597093Y135011D01*
G01X2612369Y148937D01*
G01X2624826Y165432D01*
G01X2634040Y183936D01*
G01X2639697Y203818D01*
G01X2641604Y224400D01*
G01X2639697Y244983D01*
G01X2634040Y264864D01*
G01X2624826Y283368D01*
G01X2612369Y299863D01*
G01X2597093Y313789D01*
G01X2579519Y324671D01*
G01X2560244Y332138D01*
G01X2539925Y335936D01*
G01X2519254Y335936D01*
G01X2498936Y332138D01*
G01X2479661Y324671D01*
G01X2462086Y313789D01*
G01X2446810Y299863D01*
G01X2434354Y283368D01*
G01X2425140Y264864D01*
G01X2419483Y244983D01*
G01X2417576Y224400D01*
G01X2417576Y224400D01*
G01X1727365Y224400D01*
G01X1727365Y267706D01*
G01X1725906Y275781D01*
G01X1721713Y282835D01*
G01X1715316Y287975D01*
G01X1707525Y290552D01*
G01X1707525Y421006D01*
G01X1897898Y611379D01*
G01X1903179Y618261D01*
G01X1906499Y626277D01*
G01X1907631Y634878D01*
G01X1907631Y844600D01*
G01X2407927Y844600D01*
G01X2409821Y822951D01*
G01X2415445Y801959D01*
G01X2424630Y782263D01*
G01X2437095Y764462D01*
G01X2452461Y749095D01*
G01X2470263Y736630D01*
G01X2489959Y727445D01*
G01X2510951Y721821D01*
G01X2532600Y719927D01*
G01X2554249Y721821D01*
G01X2575241Y727445D01*
G01X2594937Y736630D01*
G01X2612738Y749095D01*
G01X2628105Y764462D01*
G01X2640570Y782263D01*
G01X2649755Y801959D01*
G01X2655379Y822951D01*
G01X2657273Y844600D01*
G01X2655379Y866249D01*
G01X2649755Y887241D01*
G01X2640570Y906937D01*
G01X2628105Y924739D01*
G01X2612738Y940105D01*
G01X2594937Y952570D01*
G01X2575241Y961755D01*
G01X2554249Y967379D01*
G01X2532600Y969273D01*
G01X2510951Y967379D01*
G01X2489959Y961755D01*
G01X2470263Y952570D01*
G01X2452461Y940105D01*
G01X2437095Y924739D01*
G01X2424630Y906937D01*
G01X2415445Y887241D01*
G01X2409821Y866249D01*
G01X2407927Y844600D01*
G01X2407927Y844600D01*
G01X1907631Y844600D01*
G01X1907631Y1861769D01*
G01X1922872Y1877009D01*
G01X2397355Y1877009D01*
G01X2405956Y1878142D01*
G01X2413971Y1881462D01*
G01X2420854Y1886743D01*
G01X2639700Y2105588D01*
G01X2644981Y2112471D01*
G01X2648301Y2120487D01*
G01X2649433Y2129088D01*
G01X2649433Y2139087D01*
G01X2657247Y2144017D01*
G01X2662500Y2151618D01*
G01X2664350Y2160670D01*
G01X2664350Y2267871D01*
G01X2662593Y2276701D01*
G01X2657591Y2284186D01*
G01X2650106Y2289188D01*
G01X2641276Y2290944D01*
G01X2588076Y2290944D01*
G01X2579246Y2289188D01*
G01X2571761Y2284186D01*
G01X2566759Y2276701D01*
G01X2565002Y2267871D01*
G01X2565002Y2160670D01*
G01X2566780Y2151788D01*
G01X2571840Y2144275D01*
G01X2579402Y2139289D01*
G01X2383589Y1943476D01*
G01X2325755Y1943476D01*
G01X2446660Y2064380D01*
G01X2451941Y2071263D01*
G01X2455261Y2079279D01*
G01X2456393Y2087880D01*
G01X2456393Y2138169D01*
G01X2463544Y2141123D01*
G01X2469316Y2146274D01*
G01X2473061Y2153043D01*
G01X2474358Y2160670D01*
G01X2474358Y2267871D01*
G01X2472601Y2276701D01*
G01X2467599Y2284186D01*
G01X2460114Y2289188D01*
G01X2451284Y2290944D01*
G01X2398084Y2290944D01*
G01X2389254Y2289188D01*
G01X2381769Y2284186D01*
G01X2376767Y2276701D01*
G01X2375010Y2267871D01*
G01X2375010Y2160670D01*
G01X2376860Y2151618D01*
G01X2382113Y2144017D01*
G01X2389927Y2139087D01*
G01X2389927Y2101646D01*
G01X2267276Y1978995D01*
G01X2224114Y1978995D01*
G01X2272416Y2027296D01*
G01X2277697Y2034179D01*
G01X2281017Y2042195D01*
G01X2282149Y2050796D01*
G01X2282149Y2138571D01*
G01X2288761Y2141777D01*
G01X2294029Y2146898D01*
G01X2297420Y2153416D01*
G01X2298590Y2160670D01*
G01X2298590Y2267871D01*
G01X2296833Y2276701D01*
G01X2291831Y2284186D01*
G01X2284346Y2289188D01*
G01X2275516Y2290944D01*
G01X2222316Y2290944D01*
G01X2213486Y2289188D01*
G01X2206001Y2284186D01*
G01X2200999Y2276701D01*
G01X2199242Y2267871D01*
G01X2199242Y2160670D01*
G01X2200412Y2153416D01*
G01X2203803Y2146898D01*
G01X2209071Y2141777D01*
G01X2215683Y2138571D01*
G01X2215683Y2064562D01*
G01X2165636Y2014515D01*
G01X2005634Y2014515D01*
G01X2080900Y2089780D01*
G01X2086181Y2096663D01*
G01X2089501Y2104679D01*
G01X2090633Y2113280D01*
G01X2090633Y2138169D01*
G01X2097784Y2141123D01*
G01X2103556Y2146274D01*
G01X2107301Y2153043D01*
G01X2108598Y2160670D01*
G01X2108598Y2267871D01*
G01X2106841Y2276701D01*
G01X2101839Y2284186D01*
G01X2094354Y2289188D01*
G01X2085524Y2290944D01*
G01X2032324Y2290944D01*
G01X2023494Y2289188D01*
G01X2016009Y2284186D01*
G01X2011007Y2276701D01*
G01X2009250Y2267871D01*
G01X2009250Y2160670D01*
G01X2011100Y2151618D01*
G01X2016353Y2144017D01*
G01X2024167Y2139087D01*
G01X2024167Y2127046D01*
G01X1947155Y2050034D01*
G01X1894969Y2050034D01*
G01X1906656Y2061720D01*
G01X1911937Y2068603D01*
G01X1915257Y2076618D01*
G01X1916389Y2085220D01*
G01X1916389Y2138571D01*
G01X1923001Y2141777D01*
G01X1928269Y2146898D01*
G01X1931660Y2153416D01*
G01X1932830Y2160670D01*
G01X1932830Y2267871D01*
G01X1931073Y2276701D01*
G01X1926071Y2284186D01*
G01X1918586Y2289188D01*
G01X1909756Y2290944D01*
G01X1856556Y2290944D01*
G01X1847726Y2289188D01*
G01X1840241Y2284186D01*
G01X1835239Y2276701D01*
G01X1833482Y2267871D01*
G01X1833482Y2160670D01*
G01X1834652Y2153416D01*
G01X1838043Y2146898D01*
G01X1843311Y2141777D01*
G01X1849923Y2138571D01*
G01X1849923Y2098986D01*
G01X1726397Y1975460D01*
G01X1726397Y2138571D01*
G01X1733009Y2141777D01*
G01X1738277Y2146898D01*
G01X1741668Y2153416D01*
G01X1742838Y2160670D01*
G01X1742838Y2267871D01*
G01X1741081Y2276701D01*
G01X1736079Y2284186D01*
G01X1728594Y2289188D01*
G01X1719764Y2290944D01*
G01X1666564Y2290944D01*
G01X1657734Y2289188D01*
G01X1650249Y2284186D01*
G01X1645247Y2276701D01*
G01X1643490Y2267871D01*
G01X1643490Y2160670D01*
G01X1644660Y2153416D01*
G01X1648051Y2146898D01*
G01X1653319Y2141777D01*
G01X1659931Y2138571D01*
G01X1659931Y1899970D01*
G01X921421Y1161460D01*
G01X921421Y1161460D01*
G01X916140Y1154577D01*
G01X912820Y1146562D01*
G01X911687Y1137961D01*
G01X911687Y354116D01*
G01X880791Y323220D01*
G01X875510Y316337D01*
G01X872190Y308321D01*
G01X871057Y299720D01*
G01X871057Y290552D01*
G01X863266Y287975D01*
G01X856870Y282835D01*
G01X852677Y275781D01*
G01X851218Y267706D01*
G01X332535Y267706D01*
G01X324736Y283368D01*
G01X312279Y299863D01*
G01X297003Y313789D01*
G01X279429Y324671D01*
G01X260154Y332138D01*
G01X239835Y335936D01*
G01X219165Y335936D01*
G01X198846Y332138D01*
G01X179571Y324671D01*
G01X161996Y313789D01*
G01X146721Y299863D01*
G01X134264Y283368D01*
G01X125050Y264864D01*
G01X119393Y244983D01*
G01X117486Y224400D01*
G01X117486Y224400D01*
G01X23073Y224400D01*
G01X23073Y851700D01*
G01X94627Y851700D01*
G01X96521Y830051D01*
G01X102145Y809059D01*
G01X111330Y789363D01*
G01X123795Y771562D01*
G01X139162Y756195D01*
G01X156963Y743730D01*
G01X176659Y734545D01*
G01X197651Y728921D01*
G01X219300Y727027D01*
G01X240949Y728921D01*
G01X261941Y734545D01*
G01X281637Y743730D01*
G01X299439Y756195D01*
G01X314805Y771562D01*
G01X327270Y789363D01*
G01X336455Y809059D01*
G01X342079Y830051D01*
G01X343973Y851700D01*
G01X342079Y873349D01*
G01X336455Y894341D01*
G01X327270Y914037D01*
G01X314805Y931839D01*
G01X299439Y947205D01*
G01X281637Y959670D01*
G01X261941Y968855D01*
G01X240949Y974479D01*
G01X219300Y976373D01*
G01X197651Y974479D01*
G01X176659Y968855D01*
G01X156963Y959670D01*
G01X139162Y947205D01*
G01X123795Y931839D01*
G01X111330Y914037D01*
G01X102145Y894341D01*
G01X96521Y873349D01*
G01X94627Y851700D01*
G01X94627Y851700D01*
G01X23073Y851700D01*
G01X23073Y1590443D01*
G01X193630Y1761000D01*
G01X746261Y1761000D01*
G01X746972Y1752260D01*
G01X749087Y1743750D01*
G01X749087Y1688874D01*
G01X748579Y1681480D01*
G01X749087Y1674086D01*
G01X749087Y1666240D01*
G01X750843Y1657410D01*
G01X755845Y1649925D01*
G01X771085Y1634685D01*
G01X778570Y1629683D01*
G01X787400Y1627927D01*
G01X795246Y1627927D01*
G01X810034Y1627927D01*
G01X866366Y1627927D01*
G01X881154Y1627927D01*
G01X1082040Y1627927D01*
G01X1090870Y1629683D01*
G01X1098355Y1634685D01*
G01X1154235Y1690565D01*
G01X1156296Y1692927D01*
G01X1172990Y1692927D01*
G01X1178119Y1693504D01*
G01X1182992Y1695207D01*
G01X1187865Y1693504D01*
G01X1192995Y1692927D01*
G01X1212995Y1692927D01*
G01X1218124Y1693504D01*
G01X1222997Y1695207D01*
G01X1227870Y1693504D01*
G01X1233000Y1692927D01*
G01X1253000Y1692927D01*
G01X1261830Y1694683D01*
G01X1269315Y1699685D01*
G01X1274317Y1707170D01*
G01X1276073Y1716000D01*
G01X1276073Y1786000D01*
G01X1274317Y1794830D01*
G01X1269315Y1802315D01*
G01X1261830Y1807317D01*
G01X1253000Y1809073D01*
G01X1233000Y1809073D01*
G01X1227870Y1808496D01*
G01X1222997Y1806792D01*
G01X1218124Y1808496D01*
G01X1212995Y1809073D01*
G01X1192995Y1809073D01*
G01X1187865Y1808496D01*
G01X1182992Y1806792D01*
G01X1178119Y1808496D01*
G01X1172990Y1809073D01*
G01X1152990Y1809073D01*
G01X1145730Y1807901D01*
G01X1144075Y1809555D01*
G01X1136590Y1814557D01*
G01X1127760Y1816313D01*
G01X782320Y1816313D01*
G01X773490Y1814557D01*
G01X766005Y1809555D01*
G01X755845Y1799395D01*
G01X750843Y1791910D01*
G01X749087Y1783080D01*
G01X749087Y1778249D01*
G01X746972Y1769739D01*
G01X746261Y1761000D01*
G01X746261Y1761000D01*
G01X193630Y1761000D01*
G01X456631Y2024000D01*
G01X969922Y2024000D01*
G01X971678Y2015170D01*
G01X976680Y2007685D01*
G01X984165Y2002683D01*
G01X992995Y2000927D01*
G01X1012995Y2000927D01*
G01X1018125Y2001504D01*
G01X1022998Y2003208D01*
G01X1027871Y2001504D01*
G01X1033000Y2000927D01*
G01X1033000Y2000927D01*
G01X1053000Y2000927D01*
G01X1061830Y2002683D01*
G01X1069316Y2007685D01*
G01X1074317Y2015170D01*
G01X1076074Y2024000D01*
G01X1089937Y2024000D01*
G01X1091693Y2015170D01*
G01X1096695Y2007685D01*
G01X1104180Y2002683D01*
G01X1113010Y2000927D01*
G01X1133010Y2000927D01*
G01X1138133Y2001503D01*
G01X1143000Y2003202D01*
G01X1147867Y2001503D01*
G01X1152990Y2000927D01*
G01X1152990Y2000927D01*
G01X1172990Y2000927D01*
G01X1181820Y2002683D01*
G01X1189305Y2007685D01*
G01X1194307Y2015170D01*
G01X1196063Y2024000D01*
G01X1196063Y2094000D01*
G01X1194307Y2102830D01*
G01X1189305Y2110315D01*
G01X1181820Y2115317D01*
G01X1172990Y2117073D01*
G01X1152990Y2117073D01*
G01X1147867Y2116498D01*
G01X1143000Y2114799D01*
G01X1138133Y2116498D01*
G01X1133010Y2117073D01*
G01X1113010Y2117073D01*
G01X1104180Y2115317D01*
G01X1096695Y2110315D01*
G01X1091693Y2102830D01*
G01X1089937Y2094000D01*
G01X1089937Y2024000D01*
G01X1076074Y2024000D01*
G01X1076074Y2094000D01*
G01X1074317Y2102830D01*
G01X1069316Y2110315D01*
G01X1061830Y2115317D01*
G01X1053000Y2117073D01*
G01X1033000Y2117073D01*
G01X1027871Y2116496D01*
G01X1022998Y2114793D01*
G01X1018125Y2116496D01*
G01X1012995Y2117073D01*
G01X992995Y2117073D01*
G01X984165Y2115317D01*
G01X976680Y2110315D01*
G01X971678Y2102830D01*
G01X969922Y2094000D01*
G01X969922Y2024000D01*
G01X456631Y2024000D01*
G01X716315Y2283685D01*
G01X721317Y2291170D01*
G01X723073Y2300000D01*
G37*
G36*
G01X1198293Y2252306D02*
G01X1198293Y2263097D01*
G01X1206615Y2267746D01*
G01X1212348Y2275362D01*
G01X1217428Y2268351D01*
G01X1224735Y2263707D01*
G01X1233240Y2262082D01*
G01X1286440Y2262082D01*
G01X1294945Y2263707D01*
G01X1302252Y2268351D01*
G01X1307332Y2275362D01*
G01X1310949Y2269848D01*
G01X1315978Y2265582D01*
G01X1322009Y2262913D01*
G01X1322009Y2252928D01*
G01X1259840Y2190759D01*
G01X1198293Y2252306D01*
G37*
G36*
G01X1875568Y2608367D02*
G01X1859656Y2592456D01*
G01X1854375Y2585573D01*
G01X1851055Y2577557D01*
G01X1849923Y2568956D01*
G01X1849923Y2519789D01*
G01X1844060Y2517087D01*
G01X1839176Y2512866D01*
G01X1835652Y2507458D01*
G01X1830572Y2514469D01*
G01X1823265Y2519113D01*
G01X1814760Y2520738D01*
G01X1761560Y2520738D01*
G01X1753055Y2519113D01*
G01X1745748Y2514469D01*
G01X1740668Y2507458D01*
G01X1737144Y2512866D01*
G01X1732260Y2517087D01*
G01X1726397Y2519789D01*
G01X1726397Y2573478D01*
G01X1761286Y2608367D01*
G01X1875568Y2608367D01*
G37*
G36*
G01X2024878Y2623039D02*
G01X2024167Y2616200D01*
G01X2024167Y2519273D01*
G01X2016353Y2514343D01*
G01X2011100Y2506742D01*
G01X2009250Y2497690D01*
G01X2009250Y2390489D01*
G01X2010504Y2382989D01*
G01X1931576Y2382989D01*
G01X1932830Y2390489D01*
G01X1932830Y2497690D01*
G01X1931660Y2504944D01*
G01X1928269Y2511462D01*
G01X1923001Y2516583D01*
G01X1916389Y2519789D01*
G01X1916389Y2555190D01*
G01X1934006Y2572807D01*
G01X1960880Y2572807D01*
G01X1969481Y2573939D01*
G01X1977497Y2577259D01*
G01X1984380Y2582540D01*
G01X2024878Y2623039D01*
G37*
G36*
G01X2090633Y2520191D02*
G01X2090633Y2602434D01*
G01X2148210Y2660010D01*
G01X2153169Y2666348D01*
G01X2156460Y2673692D01*
G01X2159751Y2666348D01*
G01X2164710Y2660010D01*
G01X2217207Y2607514D01*
G01X2217207Y2520191D01*
G01X2210716Y2517636D01*
G01X2205286Y2513258D01*
G01X2201412Y2507458D01*
G01X2196332Y2514469D01*
G01X2189025Y2519113D01*
G01X2180520Y2520738D01*
G01X2127320Y2520738D01*
G01X2118815Y2519113D01*
G01X2111508Y2514469D01*
G01X2106428Y2507458D01*
G01X2102554Y2513258D01*
G01X2097124Y2517636D01*
G01X2090633Y2520191D01*
G37*
G36*
G01X2298590Y2390489D02*
G01X2298590Y2497690D01*
G01X2296740Y2506742D01*
G01X2291487Y2514343D01*
G01X2283673Y2519273D01*
G01X2283673Y2621280D01*
G01X2283648Y2622582D01*
G01X2329683Y2576546D01*
G01X2336566Y2571265D01*
G01X2344582Y2567945D01*
G01X2353183Y2566812D01*
G01X2380057Y2566812D01*
G01X2395007Y2551863D01*
G01X2395007Y2520557D01*
G01X2387163Y2518015D01*
G01X2380715Y2512878D01*
G01X2376484Y2505802D01*
G01X2375010Y2497690D01*
G01X2375010Y2390489D01*
G01X2376264Y2382989D01*
G01X2297336Y2382989D01*
G01X2298590Y2390489D01*
G37*
G36*
G01X2664350Y2390489D02*
G01X2664350Y2497690D01*
G01X2662694Y2506272D01*
G01X2657965Y2513623D01*
G01X2650841Y2518688D01*
G01X2650841Y2587244D01*
G01X2649708Y2595845D01*
G01X2646388Y2603861D01*
G01X2641107Y2610744D01*
G01X2586751Y2665100D01*
G01X2579868Y2670381D01*
G01X2571853Y2673701D01*
G01X2563251Y2674833D01*
G01X2394137Y2674833D01*
G01X2353304Y2715666D01*
G01X2363144Y2709887D01*
G01X2374198Y2707056D01*
G01X2385605Y2707392D01*
G01X2396473Y2710870D01*
G01X2405956Y2717218D01*
G01X2413313Y2725941D01*
G01X2417970Y2736359D01*
G01X2419563Y2747659D01*
G01X2419563Y2779766D01*
G01X2471950Y2779766D01*
G01X2473917Y2771170D01*
G01X2478965Y2763940D01*
G01X2486356Y2759132D01*
G01X2495011Y2757447D01*
G01X2585011Y2757447D01*
G01X2593643Y2759123D01*
G01X2601022Y2763906D01*
G01X2606075Y2771103D01*
G01X2608068Y2779667D01*
G01X2628637Y2779667D01*
G01X2676947Y2731358D01*
G01X2676947Y2382990D01*
G01X2663097Y2382990D01*
G01X2664350Y2390489D01*
G37*
G36*
G01X2549485Y2608367D02*
G01X2584374Y2573478D01*
G01X2584374Y2520464D01*
G01X2577312Y2518099D01*
G01X2571372Y2513607D01*
G01X2567172Y2507458D01*
G01X2562092Y2514469D01*
G01X2554785Y2519113D01*
G01X2546280Y2520738D01*
G01X2493080Y2520738D01*
G01X2484575Y2519113D01*
G01X2477268Y2514469D01*
G01X2472188Y2507458D01*
G01X2467764Y2513839D01*
G01X2461473Y2518392D01*
G01X2461473Y2565629D01*
G01X2460341Y2574230D01*
G01X2457021Y2582245D01*
G01X2451740Y2589128D01*
G01X2432501Y2608367D01*
G01X2549485Y2608367D01*
G37*
G54D10*
G01X1123552Y1783080D02*
G01X1127376Y1779255D01*
G01X1127376Y1716000D01*
G03X1127760Y1711584I25613J0D01*
G01X1127760Y1711088D01*
G01X1077832Y1661160D01*
G01X791608Y1661160D01*
G01X782320Y1670448D01*
G01X782320Y1778872D01*
G01X786528Y1783080D01*
G01X1123552Y1783080D01*
G54D11*
G01X723073Y2300000D02*
G01X723073Y3976927D01*
G01X2776927Y3976927D01*
G01X2776927Y23073D01*
G01X23073Y23073D01*
G01X23073Y1590443D01*
G01X716315Y2283685D01*
G03X723073Y2300000I-16315J16315D01*
G01X94627Y851700D02*
G03X343973Y851700I124673J0D01*
G03X94627Y851700I-124673J0D01*
G01X117486Y224400D02*
G03X341514Y224400I112014J0D01*
G03X117486Y224400I-112014J0D01*
G01X746261Y1761000D02*
G03X749087Y1743750I54061J0D01*
G01X749087Y1688874D01*
G03X748579Y1681480I53553J-7394D01*
G03X749087Y1674086I54061J0D01*
G01X749087Y1666240D01*
G03X755845Y1649925I23073J0D01*
G01X771085Y1634685D01*
G03X787400Y1627927I16315J16315D01*
G01X795246Y1627927D01*
G03X810034Y1627927I7394J53553D01*
G01X866366Y1627927D01*
G03X881154Y1627927I7394J53553D01*
G01X1082040Y1627927D01*
G03X1098355Y1634685I0J23073D01*
G01X1154235Y1690565D01*
G03X1156296Y1692927I-16315J16315D01*
G01X1172990Y1692927D01*
G03X1182992Y1695207I0J23073D01*
G03X1192995Y1692927I10003J20793D01*
G01X1212995Y1692927D01*
G03X1222997Y1695207I0J23073D01*
G03X1233000Y1692927I10003J20793D01*
G01X1253000Y1692927D01*
G03X1276073Y1716000I0J23073D01*
G01X1276073Y1786000D01*
G03X1253000Y1809073I-23073J0D01*
G01X1233000Y1809073D01*
G03X1222997Y1806792I0J-23073D01*
G03X1212995Y1809073I-10003J-20793D01*
G01X1192995Y1809073D01*
G03X1182992Y1806792I0J-23073D01*
G03X1172990Y1809073I-10003J-20793D01*
G01X1152990Y1809073D01*
G03X1145730Y1807901I0J-23073D01*
G01X1144075Y1809555D01*
G03X1127760Y1816313I-16315J-16315D01*
G01X782320Y1816313D01*
G03X766005Y1809555I0J-23073D01*
G01X755845Y1799395D01*
G03X749087Y1783080I16315J-16315D01*
G01X749087Y1778249D01*
G03X746261Y1761000I51236J-17249D01*
G01X1591514Y2832313D02*
G01X1214120Y2832313D01*
G03X1190620Y2822580I0J-33233D01*
G01X1141344Y2773304D01*
G03X1131611Y2749804I23500J-23500D01*
G01X1131611Y2644249D01*
G03X1115170Y2622150I6633J-22099D01*
G01X1115170Y2514949D01*
G03X1117724Y2504398I23073J0D01*
G01X905265Y2504398D01*
G03X836249Y2505889I-35407J-40853D01*
G03X748579Y2463545I-33609J-42344D01*
G03X836249Y2421200I54061J0D01*
G03X905265Y2422691I33609J42344D01*
G01X1192373Y2422691D01*
G01X1202460Y2412605D01*
G03X1191444Y2415404I-11016J-20274D01*
G01X1138244Y2415404D01*
G03X1115170Y2392331I0J-23073D01*
G01X1115170Y2285130D01*
G03X1131827Y2262967I23073J0D01*
G01X1131827Y2238540D01*
G03X1141560Y2215041I33233J0D01*
G01X1209766Y2146834D01*
G01X1209766Y2059000D01*
G03X1209926Y2055743I33233J0D01*
G01X1209926Y2024000D01*
G03X1233000Y2000927I23073J0D01*
G01X1253000Y2000927D01*
G03X1263002Y2003208I0J23073D01*
G03X1273005Y2000927I10003J20793D01*
G01X1293005Y2000927D01*
G03X1316078Y2024000I0J23073D01*
G01X1316078Y2055743D01*
G03X1316238Y2059000I-33073J3257D01*
G01X1316238Y2153159D01*
G01X1378742Y2215663D01*
G03X1388476Y2239162I-23500J23500D01*
G01X1388476Y2263157D01*
G03X1404510Y2285130I-7040J21973D01*
G01X1404510Y2392331D01*
G03X1381436Y2415404I-23073J0D01*
G01X1328236Y2415404D01*
G03X1307344Y2402124I0J-23073D01*
G03X1300693Y2410501I-20904J-9768D01*
G01X1300693Y2413000D01*
G03X1288728Y2441888I-40853J0D01*
G01X1238183Y2492432D01*
G03X1211920Y2504314I-28888J-28888D01*
G03X1214518Y2514949I-20476J10636D01*
G01X1214518Y2622150D01*
G03X1198077Y2644249I-23073J0D01*
G01X1198077Y2661444D01*
G01X1199909Y2659612D01*
G03X1223409Y2649878I23500J23500D01*
G01X1322255Y2649878D01*
G01X1322255Y2644435D01*
G03X1305162Y2622150I5981J-22285D01*
G01X1305162Y2514949D01*
G03X1328236Y2491876I23073J0D01*
G01X1381436Y2491876D01*
G03X1404510Y2514949I0J23073D01*
G01X1404510Y2622150D01*
G03X1388722Y2644043I-23073J0D01*
G01X1388722Y2668743D01*
G03X1378988Y2692243I-33233J0D01*
G01X1364619Y2706611D01*
G03X1341120Y2716345I-23499J-23500D01*
G01X1242273Y2716345D01*
G01X1242273Y2729945D01*
G01X1242615Y2730287D01*
G01X1620009Y2730287D01*
G03X1643509Y2740020I0J33233D01*
G01X1715140Y2811651D01*
G03X1724873Y2835151I-23500J23500D01*
G01X1724873Y3451305D01*
G01X1735375Y3461807D01*
G01X1884884Y3461807D01*
G01X1899928Y3446763D01*
G03X1893336Y3424505I34282J-22258D01*
G01X1893336Y3278605D01*
G03X1965979Y3252888I40874J0D01*
G03X2038563Y3278621I31731J25732D01*
G01X2038563Y3424541D01*
G03X2030875Y3448396I-40853J0D01*
G03X2021210Y3469769I-33165J-2127D01*
G01X1936879Y3554100D01*
G03X1913379Y3563833I-23500J-23500D01*
G01X1706880Y3563833D01*
G03X1683380Y3554100I0J-33233D01*
G01X1632580Y3503300D01*
G03X1622847Y3479800I23500J-23500D01*
G01X1622847Y2863646D01*
G01X1591514Y2832313D01*
G01X921421Y1161460D02*
G03X911687Y1137961I23500J-23500D01*
G01X911687Y354116D01*
G01X880791Y323220D01*
G03X871057Y299720I23500J-23500D01*
G01X871057Y290552D01*
G03X851218Y267706I3233J-22846D01*
G01X851218Y107706D01*
G03X874291Y84633I23073J0D01*
G01X934291Y84633D01*
G03X957364Y107706I0J23073D01*
G01X957364Y267706D01*
G03X941269Y289699I-23073J0D01*
G01X962685Y311116D01*
G01X981065Y292736D01*
G01X981065Y290552D01*
G03X961225Y267706I3233J-22846D01*
G01X961225Y107706D01*
G03X984298Y84633I23073J0D01*
G01X1044298Y84633D01*
G03X1067372Y107706I0J23073D01*
G01X1067372Y267706D01*
G03X1047532Y290552I-23073J0D01*
G01X1047532Y306502D01*
G03X1037798Y330001I-33233J0D01*
G01X1013673Y354126D01*
G01X1013673Y1109482D01*
G01X1380470Y1476279D01*
G01X1380470Y418012D01*
G01X1371611Y409153D01*
G01X1254760Y409153D01*
G03X1231260Y399420I0J-33233D01*
G01X1210788Y378947D01*
G03X1201054Y355448I23500J-23500D01*
G01X1201054Y290552D01*
G03X1181214Y267706I3233J-22846D01*
G01X1181214Y107706D01*
G03X1204288Y84633I23073J0D01*
G01X1264288Y84633D01*
G03X1287361Y107706I0J23073D01*
G01X1287361Y267706D01*
G03X1267521Y290552I-23073J0D01*
G01X1267521Y341682D01*
G01X1268526Y342687D01*
G01X1385377Y342687D01*
G03X1408876Y352420I0J33233D01*
G01X1415989Y359533D01*
G01X1415989Y289229D01*
G03X1401229Y267706I8313J-21524D01*
G01X1401229Y107706D01*
G03X1424302Y84633I23073J0D01*
G01X1484302Y84633D01*
G03X1507376Y107706I0J23073D01*
G01X1507376Y267706D01*
G03X1484302Y290779I-23073J0D01*
G01X1482456Y290779D01*
G01X1482456Y1477801D01*
G01X1805645Y1800990D01*
G01X1805645Y663356D01*
G01X1540810Y398521D01*
G03X1531076Y375022I23500J-23500D01*
G01X1531076Y290552D01*
G03X1511237Y267706I3233J-22846D01*
G01X1511237Y107706D01*
G03X1534310Y84633I23073J0D01*
G01X1594310Y84633D01*
G03X1617383Y107706I0J23073D01*
G01X1617383Y267706D01*
G03X1597543Y290552I-23073J0D01*
G01X1597543Y361256D01*
G01X1641058Y404771D01*
G01X1641058Y290552D01*
G03X1621219Y267706I3233J-22846D01*
G01X1621219Y107706D01*
G03X1644292Y84633I23073J0D01*
G01X1704292Y84633D01*
G03X1727365Y107706I0J23073D01*
G01X1727365Y267706D01*
G03X1707525Y290552I-23073J0D01*
G01X1707525Y421006D01*
G01X1897898Y611379D01*
G03X1907631Y634878I-23500J23500D01*
G01X1907631Y1861769D01*
G01X1922872Y1877009D01*
G01X2397355Y1877009D01*
G03X2420854Y1886743I0J33233D01*
G01X2639700Y2105588D01*
G03X2649433Y2129088I-23500J23500D01*
G01X2649433Y2139087D01*
G03X2664350Y2160670I-8157J21583D01*
G01X2664350Y2267871D01*
G03X2641276Y2290944I-23073J0D01*
G01X2588076Y2290944D01*
G03X2565002Y2267871I0J-23073D01*
G01X2565002Y2160670D01*
G03X2579402Y2139289I23073J0D01*
G01X2383589Y1943476D01*
G01X2325755Y1943476D01*
G01X2446660Y2064380D01*
G03X2456393Y2087880I-23500J23500D01*
G01X2456393Y2138169D01*
G03X2474358Y2160670I-5109J22501D01*
G01X2474358Y2267871D01*
G03X2451284Y2290944I-23073J0D01*
G01X2398084Y2290944D01*
G03X2375010Y2267871I0J-23073D01*
G01X2375010Y2160670D01*
G03X2389927Y2139087I23073J0D01*
G01X2389927Y2101646D01*
G01X2267276Y1978995D01*
G01X2224114Y1978995D01*
G01X2272416Y2027296D01*
G03X2282149Y2050796I-23500J23500D01*
G01X2282149Y2138571D01*
G03X2298590Y2160670I-6633J22099D01*
G01X2298590Y2267871D01*
G03X2275516Y2290944I-23073J0D01*
G01X2222316Y2290944D01*
G03X2199242Y2267871I0J-23073D01*
G01X2199242Y2160670D01*
G03X2215683Y2138571I23073J0D01*
G01X2215683Y2064562D01*
G01X2165636Y2014515D01*
G01X2005634Y2014515D01*
G01X2080900Y2089780D01*
G03X2090633Y2113280I-23500J23500D01*
G01X2090633Y2138169D01*
G03X2108598Y2160670I-5109J22501D01*
G01X2108598Y2267871D01*
G03X2085524Y2290944I-23073J0D01*
G01X2032324Y2290944D01*
G03X2009250Y2267871I0J-23073D01*
G01X2009250Y2160670D01*
G03X2024167Y2139087I23073J0D01*
G01X2024167Y2127046D01*
G01X1947155Y2050034D01*
G01X1894969Y2050034D01*
G01X1906656Y2061720D01*
G03X1916389Y2085220I-23500J23500D01*
G01X1916389Y2138571D01*
G03X1932830Y2160670I-6633J22099D01*
G01X1932830Y2267871D01*
G03X1909756Y2290944I-23073J0D01*
G01X1856556Y2290944D01*
G03X1833482Y2267871I0J-23073D01*
G01X1833482Y2160670D01*
G03X1849923Y2138571I23073J0D01*
G01X1849923Y2098986D01*
G01X1726397Y1975460D01*
G01X1726397Y2138571D01*
G03X1742838Y2160670I-6633J22099D01*
G01X1742838Y2267871D01*
G03X1719764Y2290944I-23073J0D01*
G01X1666564Y2290944D01*
G03X1643490Y2267871I0J-23073D01*
G01X1643490Y2160670D01*
G03X1659931Y2138571I23073J0D01*
G01X1659931Y1899970D01*
G01X921421Y1161460D01*
G01X1033000Y2000927D02*
G01X1053000Y2000927D01*
G03X1076074Y2024000I0J23073D01*
G01X1076074Y2094000D01*
G03X1053000Y2117073I-23073J0D01*
G01X1033000Y2117073D01*
G03X1022998Y2114793I0J-23073D01*
G03X1012995Y2117073I-10003J-20793D01*
G01X992995Y2117073D01*
G03X969922Y2094000I0J-23073D01*
G01X969922Y2024000D01*
G03X992995Y2000927I23073J0D01*
G01X1012995Y2000927D01*
G03X1022998Y2003208I0J23073D01*
G03X1033000Y2000927I10003J20793D01*
G01X1152990Y2000927D02*
G01X1172990Y2000927D01*
G03X1196063Y2024000I0J23073D01*
G01X1196063Y2094000D01*
G03X1172990Y2117073I-23073J0D01*
G01X1152990Y2117073D01*
G03X1143000Y2114799I0J-23073D01*
G03X1133010Y2117073I-9990J-20799D01*
G01X1113010Y2117073D01*
G03X1089937Y2094000I0J-23073D01*
G01X1089937Y2024000D01*
G03X1113010Y2000927I23073J0D01*
G01X1133010Y2000927D01*
G03X1143000Y2003202I0J23073D01*
G03X1152990Y2000927I9990J20799D01*
G01X1344295Y29124D02*
G03X1395847Y99466I0J54061D01*
G03X1397368Y107706I-21552J8240D01*
G01X1397368Y267706D01*
G03X1374295Y290779I-23073J0D01*
G01X1314295Y290779D01*
G03X1291222Y267706I0J-23073D01*
G01X1291222Y107706D01*
G03X1292743Y99466I23073J0D01*
G03X1344295Y29124I51552J-16281D01*
G01X2191025Y2301282D02*
G01X2485222Y2301282D01*
G03X2556037Y2301283I35407J40853D01*
G01X2682393Y2301283D01*
G03X2756027Y2303909I35407J40853D01*
G03X2758653Y2377543I-38227J38227D01*
G01X2758653Y2748280D01*
G03X2746688Y2777168I-40853J0D01*
G01X2674447Y2849408D01*
G03X2645559Y2861374I-28888J-28888D01*
G01X2608068Y2861374D01*
G03X2585011Y2883594I-23058J-854D01*
G01X2495011Y2883594D01*
G03X2471957Y2861473I0J-23073D01*
G01X2419563Y2861473D01*
G01X2419563Y2893579D01*
G03X2346960Y2919288I-40853J0D01*
G03X2283460Y2919288I-31750J-25709D01*
G03X2219960Y2919288I-31750J-25709D01*
G03X2156460Y2919288I-31750J-25709D01*
G03X2092960Y2919288I-31750J-25709D01*
G03X2029460Y2919288I-31750J-25709D01*
G03X1956857Y2893579I-31750J-25709D01*
G01X1956857Y2747659D01*
G03X1964477Y2723899I40853J0D01*
G01X1964477Y2722676D01*
G01X1916634Y2674833D01*
G01X1747520Y2674833D01*
G03X1724020Y2665100I0J-33233D01*
G01X1669664Y2610744D01*
G03X1659931Y2587244I23500J-23500D01*
G01X1659931Y2519789D01*
G03X1643490Y2497690I6633J-22099D01*
G01X1643490Y2390489D01*
G03X1666564Y2367416I23073J0D01*
G01X1719764Y2367416D01*
G03X1740656Y2380696I0J23073D01*
G03X1744876Y2374526I20904J9768D01*
G03X1751327Y2302563I43284J-32390D01*
G03X1823567Y2301282I36833J39572D01*
G01X2120212Y2301282D01*
G03X2191025Y2301282I35407J40853D01*
G01X1747520Y3835358D02*
G03X1718632Y3823392I0J-40853D01*
G01X1693232Y3797992D01*
G03X1681267Y3769105I28888J-28888D01*
G01X1681267Y3721644D01*
G03X1678619Y3654139I40853J-35407D01*
G03X1722120Y3567979I43501J-32099D01*
G03X1765621Y3654139I0J54061D01*
G03X1762973Y3721644I-43501J32099D01*
G01X1762973Y3752183D01*
G01X1764442Y3753651D01*
G01X2116945Y3753651D01*
G01X2253498Y3617097D01*
G01X2253498Y3573000D01*
G03X2275638Y3549946I23073J0D01*
G01X2275638Y3457654D01*
G03X2219960Y3450250I-23928J-33113D01*
G03X2165563Y3458543I-31750J-25709D01*
G01X2165563Y3599341D01*
G03X2153598Y3628228I-40853J0D01*
G01X2134593Y3647233D01*
G01X2134593Y3697531D01*
G03X2111520Y3720604I-23073J0D01*
G01X2031520Y3720604D01*
G03X2008446Y3697531I0J-23073D01*
G01X2008446Y3607531D01*
G03X2031520Y3584458I23073J0D01*
G01X2081818Y3584458D01*
G01X2083857Y3582419D01*
G01X2083857Y3278621D01*
G03X2156460Y3252912I40853J0D01*
G03X2219960Y3252912I31750J25709D01*
G03X2283441Y3252888I31750J25709D01*
G03X2346979Y3252888I31769J25717D01*
G03X2419563Y3278621I31731J25732D01*
G01X2419563Y3310727D01*
G01X2472718Y3310727D01*
G03X2494989Y3293686I22271J6032D01*
G01X2584989Y3293686D01*
G03X2608062Y3316760I0J23073D01*
G01X2608062Y3396760D01*
G03X2584989Y3419833I-23073J0D01*
G01X2494989Y3419833D01*
G03X2471916Y3396760I0J-23073D01*
G01X2471916Y3392434D01*
G01X2419563Y3392434D01*
G01X2419563Y3424541D01*
G03X2357344Y3459362I-40853J0D01*
G01X2357344Y3549927D01*
G01X2366571Y3549927D01*
G03X2389644Y3573000I0J23073D01*
G01X2389644Y3653000D01*
G03X2366571Y3676074I-23073J0D01*
G01X2310072Y3676074D01*
G01X2162754Y3823392D01*
G03X2133867Y3835358I-28888J-28888D01*
G01X1747520Y3835358D01*
G01X2407927Y844600D02*
G03X2657273Y844600I124673J0D01*
G03X2407927Y844600I-124673J0D01*
G01X2417576Y224400D02*
G03X2641604Y224400I112014J0D01*
G03X2417576Y224400I-112014J0D01*
G01X1198293Y2252306D02*
G01X1198293Y2263097D01*
G03X1212348Y2275362I-6849J22033D01*
G03X1233240Y2262082I20892J9793D01*
G01X1286440Y2262082D01*
G03X1307332Y2275362I0J23073D01*
G03X1322009Y2262913I20904J9768D01*
G01X1322009Y2252928D01*
G01X1259840Y2190759D01*
G01X1198293Y2252306D01*
G01X1212532Y2402533D02*
G01X1212336Y2402124D01*
G01X1211718Y2403347D01*
G01X1212532Y2402533D01*
G01X1875568Y2608367D02*
G01X1859656Y2592456D01*
G03X1849923Y2568956I23500J-23500D01*
G01X1849923Y2519789D01*
G03X1835652Y2507458I6633J-22099D01*
G03X1814760Y2520738I-20892J-9793D01*
G01X1761560Y2520738D01*
G03X1740668Y2507458I0J-23073D01*
G03X1726397Y2519789I-20904J-9768D01*
G01X1726397Y2573478D01*
G01X1761286Y2608367D01*
G01X1875568Y2608367D01*
G01X2024878Y2623039D02*
G03X2024167Y2616200I32522J-6839D01*
G01X2024167Y2519273D01*
G03X2009250Y2497690I8157J-21583D01*
G01X2009250Y2390489D01*
G03X2010504Y2382989I23073J0D01*
G01X1931576Y2382989D01*
G03X1932830Y2390489I-21820J7501D01*
G01X1932830Y2497690D01*
G03X1916389Y2519789I-23073J0D01*
G01X1916389Y2555190D01*
G01X1934006Y2572807D01*
G01X1960880Y2572807D01*
G03X1984380Y2582540I0J33233D01*
G01X2024878Y2623039D01*
G01X2090633Y2520191D02*
G01X2090633Y2602434D01*
G01X2148210Y2660010D01*
G03X2156460Y2673692I-23500J23500D01*
G03X2164710Y2660010I31750J9818D01*
G01X2217207Y2607514D01*
G01X2217207Y2520191D01*
G03X2201412Y2507458I5109J-22501D01*
G03X2180520Y2520738I-20892J-9793D01*
G01X2127320Y2520738D01*
G03X2106428Y2507458I0J-23073D01*
G03X2090633Y2520191I-20904J-9768D01*
G01X2298590Y2390489D02*
G01X2298590Y2497690D01*
G03X2283673Y2519273I-23073J0D01*
G01X2283673Y2621280D01*
G01X2283648Y2622582D01*
G01X2329683Y2576546D01*
G03X2353183Y2566812I23500J23500D01*
G01X2380057Y2566812D01*
G01X2395007Y2551863D01*
G01X2395007Y2520557D01*
G03X2375010Y2497690I3077J-22867D01*
G01X2375010Y2390489D01*
G03X2376264Y2382989I23073J0D01*
G01X2297336Y2382989D01*
G03X2298590Y2390489I-21820J7501D01*
G01X2664350Y2390489D02*
G01X2664350Y2497690D01*
G03X2650841Y2518688I-23073J0D01*
G01X2650841Y2587244D01*
G03X2641107Y2610744I-33233J0D01*
G01X2586751Y2665100D01*
G03X2563251Y2674833I-23500J-23500D01*
G01X2394137Y2674833D01*
G01X2353304Y2715666D01*
G03X2419563Y2747659I25406J31992D01*
G01X2419563Y2779766D01*
G01X2471950Y2779766D01*
G03X2495011Y2757447I23061J755D01*
G01X2585011Y2757447D01*
G03X2608068Y2779667I0J23073D01*
G01X2628637Y2779667D01*
G01X2676947Y2731358D01*
G01X2676947Y2382990D01*
G01X2663097Y2382990D01*
G03X2664350Y2390489I-21821J7499D01*
G01X2549485Y2608367D02*
G01X2584374Y2573478D01*
G01X2584374Y2520464D01*
G03X2567172Y2507458I3702J-22774D01*
G03X2546280Y2520738I-20892J-9793D01*
G01X2493080Y2520738D01*
G03X2472188Y2507458I0J-23073D01*
G03X2461473Y2518392I-20904J-9768D01*
G01X2461473Y2565629D01*
G03X2451740Y2589128I-33233J0D01*
G01X2432501Y2608367D01*
G01X2549485Y2608367D01*
G54D12*
G01X153554Y224400D02*
G01X125106Y224400D01*
G01X305446Y224400D02*
G01X333894Y224400D01*
G01X229500Y300346D02*
G01X229500Y328794D01*
G01X229500Y148454D02*
G01X229500Y120006D01*
G01X2605546Y224400D02*
G01X2633994Y224400D01*
G01X2529600Y300346D02*
G01X2529600Y328794D01*
G01X2529600Y148454D02*
G01X2529600Y120006D01*
G04 Copper End*

G04 Pad Start*
G54D13*
G01X2529600Y224400D03*
G01X229500Y224400D03*
G54D14*
G01X2539989Y3356760D03*
G01X2540011Y3216760D03*
G54D15*
G01X1931520Y3652509D03*
G01X2071520Y3652531D03*
G54D14*
G01X2540011Y2820520D03*
G01X2539989Y2960520D03*
G54D16*
G01X1354836Y2568550D03*
G01X1259840Y2568550D03*
G01X1164844Y2568550D03*
G01X1164844Y2338730D03*
G01X1259840Y2338756D03*
G01X1354836Y2338730D03*
G01X1693164Y2214270D03*
G01X1788160Y2214270D03*
G01X1883156Y2214270D03*
G01X1883156Y2444090D03*
G01X1788160Y2444064D03*
G01X1693164Y2444090D03*
G01X2058924Y2214270D03*
G01X2153920Y2214270D03*
G01X2248916Y2214270D03*
G01X2248916Y2444090D03*
G01X2153920Y2444064D03*
G01X2058924Y2444090D03*
G01X2424684Y2214270D03*
G01X2519680Y2214270D03*
G01X2614676Y2214270D03*
G01X2614676Y2444090D03*
G01X2519680Y2444064D03*
G01X2424684Y2444090D03*
G54D18*
G01X1674292Y187706D03*
G01X1564310Y187706D03*
G01X1454302Y187706D03*
G01X1344295Y187706D03*
G01X1234288Y187706D03*
G01X1124306Y187731D03*
G01X1014298Y187706D03*
G01X904291Y187706D03*
G54D19*
G01X669798Y235763D03*
G54D20*
G01X2098802Y250749D03*
G54D19*
G01X2098802Y1383741D03*
G54D21*
G01X1668297Y1463243D03*
G01X890295Y1463243D03*
G54D22*
G01X710311Y1350747D03*
G54D23*
G01X710311Y450748D03*
G54D24*
G01X2378710Y3351581D03*
G54D25*
G01X2315210Y3351555D03*
G54D24*
G01X2251710Y3351581D03*
G01X2188210Y3351581D03*
G01X2124710Y3351581D03*
G01X2061210Y3351581D03*
G01X1997710Y3351581D03*
G54D25*
G01X1934210Y3351555D03*
G54D24*
G01X2378710Y2820619D03*
G01X2315210Y2820619D03*
G01X2251710Y2820619D03*
G01X2188210Y2820619D03*
G01X2124710Y2820619D03*
G01X2061210Y2820619D03*
G01X1997710Y2820619D03*
G01X1934210Y2820619D03*
G54D14*
G01X2321571Y3613000D03*
G01X2321549Y3753000D03*
G54D26*
G01X1323010Y2059000D03*
G01X1323010Y1751000D03*
G01X1283005Y2059000D03*
G01X1283005Y1751000D03*
G01X1243000Y2059000D03*
G01X1243000Y1751000D03*
G01X1202995Y2059000D03*
G01X1202995Y1751000D03*
G01X1162990Y2059000D03*
G01X1162990Y1751000D03*
G01X1123010Y2059000D03*
G01X1123010Y1751000D03*
G01X1083005Y2059000D03*
G01X1083005Y1751000D03*
G01X1043000Y2059000D03*
G01X1043000Y1751000D03*
G01X1002995Y2059000D03*
G01X1002995Y1751000D03*
G01X962990Y2059000D03*
G01X962990Y1751000D03*
G04 Pad End*

G04 Via Start*
G54D27*
G01X802640Y1681480D03*
G01X800322Y1761000D03*
G01X1722120Y3622040D03*
G01X2155618Y2342135D03*
G01X2520629Y2342135D03*
G01X1788160Y2342135D03*
G01X1722120Y3686237D03*
G01X1971040Y2545080D03*
G01X2153920Y2616200D03*
G01X2331720Y2545080D03*
G01X1344295Y83185D03*
G01X2717800Y2342137D03*
G01X1259840Y2235200D03*
G01X2443480Y2717800D03*
G01X2618311Y2717800D03*
G01X74600Y1500000D03*
G01X74600Y1400000D03*
G01X74600Y1300000D03*
G01X74600Y1200000D03*
G01X74600Y1100000D03*
G01X74600Y1000000D03*
G01X74600Y700000D03*
G01X74600Y600000D03*
G01X74600Y100000D03*
G01X2700000Y1500000D03*
G01X2700000Y1400000D03*
G01X2700000Y1300000D03*
G01X2700000Y1200000D03*
G01X2700000Y1100000D03*
G01X2700000Y1000000D03*
G01X2700000Y700000D03*
G01X2700000Y600000D03*
G01X2700000Y500000D03*
G01X2700000Y400000D03*
G01X2700000Y100000D03*
G01X74600Y500000D03*
G01X74600Y400000D03*
G01X74600Y300000D03*
G01X1193800Y1097280D03*
G01X1193800Y598781D03*
G01X1564640Y1097280D03*
G01X1564640Y599440D03*
G01X1950720Y1097280D03*
G01X1950720Y599440D03*
G01X871442Y1761000D03*
G01X873760Y1681480D03*
G01X800000Y3900000D03*
G01X800000Y3700000D03*
G01X800000Y3500000D03*
G01X1000000Y3900000D03*
G01X1200000Y3900000D03*
G01X1400000Y3900000D03*
G01X1600000Y3900000D03*
G01X2500000Y3900000D03*
G01X2700000Y3900000D03*
G01X2700000Y3700000D03*
G01X2700000Y3500000D03*
G01X2200000Y3900000D03*
G01X1200000Y3100000D03*
G01X1400000Y3100000D03*
G01X300000Y1700000D03*
G01X500000Y1900000D03*
G01X700000Y2100000D03*
G01X2700000Y1800000D03*
G01X2499360Y3698240D03*
G01X802640Y2463545D03*
G01X869859Y2463545D03*
G01X1798320Y2560320D03*
G01X2518824Y2560320D03*
G01X2700000Y300000D03*
G01X2700000Y200000D03*
G01X2700000Y800000D03*
G01X2700000Y900000D03*
G04 Via End*

G04 Track Start*
G54D28*
G01X2378710Y3351581D02*
G01X2549971Y3351581D01*
G01X2550171Y3351380D01*
G01X2378710Y2820619D02*
G01X2539912Y2820619D01*
G54D10*
G01X1355242Y2338324D02*
G01X1354836Y2338730D01*
G01X1165060Y2338515D02*
G01X1164844Y2338730D01*
G01X1243000Y2059000D02*
G01X1243000Y2160600D01*
G01X1165060Y2238540D01*
G01X1165060Y2338515D01*
G01X1283005Y2059000D02*
G01X1283005Y2166925D01*
G01X1355242Y2239162D01*
G01X1355242Y2338324D01*
G01X1656080Y2849880D02*
G01X1605280Y2799080D01*
G01X1656080Y3479800D02*
G01X1656080Y2849880D01*
G01X1706880Y3530600D02*
G01X1656080Y3479800D01*
G01X1605280Y2799080D02*
G01X1214120Y2799080D01*
G01X1164844Y2749804D01*
G01X1164844Y2568550D01*
G01X1721609Y3495040D02*
G01X1691640Y3465071D01*
G01X1997710Y3351581D02*
G01X1997710Y3446269D01*
G01X1913379Y3530600D01*
G01X1706880Y3530600D01*
G01X1898650Y3495040D02*
G01X1721609Y3495040D01*
G01X1934210Y3459480D02*
G01X1898650Y3495040D01*
G01X1934210Y3351555D02*
G01X1934210Y3459480D01*
G01X1209040Y2697480D02*
G01X1223409Y2683111D01*
G01X1341120Y2683111D01*
G01X1355489Y2668743D01*
G01X1355489Y2569202D01*
G01X1354836Y2568550D01*
G01X1209040Y2743711D02*
G01X1209040Y2697480D01*
G01X1228849Y2763520D02*
G01X1209040Y2743711D01*
G01X1691640Y3465071D02*
G01X1691640Y2835151D01*
G01X1620009Y2763520D01*
G01X1228849Y2763520D01*
G01X2124710Y2820619D02*
G01X2124710Y2683510D01*
G01X2057400Y2616200D01*
G01X2057400Y2445614D01*
G01X2058924Y2444090D01*
G54D28*
G01X2155618Y2342135D02*
G01X1788160Y2342135D01*
G01X1788160Y2444064D01*
G01X2155618Y2342135D02*
G01X2155618Y2442366D01*
G01X2153920Y2444064D01*
G54D10*
G01X2188210Y2820619D02*
G01X2188210Y2683510D01*
G01X2250440Y2621280D01*
G01X2250440Y2450694D01*
G01X2248916Y2449170D01*
G01X2248916Y2444090D01*
G54D28*
G01X1349375Y182626D02*
G01X1345608Y178859D01*
G01X1345608Y84498D01*
G01X1344295Y83185D01*
G01X2316491Y3352836D02*
G01X2315210Y3351555D01*
G01X1722120Y3686237D02*
G01X1722120Y3622040D01*
G01X2124710Y3351581D02*
G01X2124710Y3599341D01*
G01X2071520Y3652531D01*
G01X2321571Y3613000D02*
G01X2320451Y3611880D01*
G01X2316491Y3611880D01*
G01X2316491Y3352836D01*
G01X1747520Y3794505D02*
G01X1722120Y3769105D01*
G01X1722120Y3686237D01*
G01X2133867Y3794505D02*
G01X1747520Y3794505D01*
G01X2133867Y3794505D02*
G01X2316490Y3611880D01*
G01X1259840Y2338756D02*
G01X1259840Y2413000D01*
G01X1209295Y2463545D01*
G01X869859Y2463545D01*
G01X802640Y2463545D01*
G54D10*
G01X904291Y187706D02*
G01X904291Y299720D01*
G01X1234288Y187706D02*
G01X1234288Y355448D01*
G01X1254760Y375920D01*
G01X1732280Y1875088D02*
G01X980440Y1123248D01*
G01X1454302Y187706D02*
G01X1449222Y192786D01*
G01X2057400Y2212746D02*
G01X2058924Y2214270D01*
G01X1883156Y2214270D02*
G01X1883156Y2085220D01*
G01X1732280Y1934344D01*
G01X1732280Y1875088D01*
G01X1767840Y1860416D02*
G01X1767840Y1919672D01*
G01X1864969Y2016801D01*
G01X1803359Y1845703D02*
G01X1803359Y1904959D01*
G01X1254760Y375920D02*
G01X1385377Y375920D01*
G01X1449222Y1491566D02*
G01X1803359Y1845703D01*
G01X1449222Y192786D02*
G01X1449222Y1491566D01*
G01X1385377Y375920D02*
G01X1413703Y404246D01*
G01X1413703Y1506279D01*
G01X1767840Y1860416D01*
G01X904291Y299720D02*
G01X944921Y340350D01*
G01X980440Y1123248D02*
G01X980440Y340360D01*
G01X1014298Y306502D02*
G01X1014298Y187706D01*
G01X980440Y340360D02*
G01X1014298Y306502D01*
G01X1693164Y1886204D02*
G01X1693164Y2214270D01*
G01X944921Y1137961D02*
G01X1693164Y1886204D01*
G01X944921Y340350D02*
G01X944921Y1137961D01*
G01X1803359Y1904959D02*
G01X1879681Y1981281D01*
G01X1674292Y187706D02*
G01X1674292Y434772D01*
G01X1874398Y634878D01*
G01X1838879Y649591D02*
G01X1564310Y375022D01*
G01X1564310Y187706D01*
G01X1894394Y1945762D02*
G01X1838879Y1890247D01*
G01X1838879Y649591D01*
G01X1874398Y634878D02*
G01X1874398Y1875534D01*
G01X1909106Y1910243D01*
G01X2397355Y1910243D01*
G01X1879681Y1981281D02*
G01X2179401Y1981281D01*
G01X2248916Y2050796D01*
G01X2248916Y2214270D01*
G01X1864969Y2016801D02*
G01X1960921Y2016801D01*
G01X2057400Y2113280D01*
G01X2057400Y2212746D01*
G01X2281042Y1945762D02*
G01X1894394Y1945762D01*
G01X1997710Y2820619D02*
G01X1997710Y2708910D01*
G01X1930400Y2641600D02*
G01X1747520Y2641600D01*
G01X1693164Y2587244D01*
G01X1693164Y2444090D01*
G01X1997710Y2708910D02*
G01X1930400Y2641600D01*
G54D28*
G01X2520629Y2342135D02*
G01X2155618Y2342135D01*
G01X2520629Y2342135D02*
G01X2520629Y2442531D01*
G01X2519096Y2444064D02*
G01X2514600Y2444064D01*
G54D10*
G01X2423160Y2210714D02*
G01X2423160Y2087880D01*
G01X2281042Y1945762D01*
G01X2397355Y1910243D02*
G01X2616200Y2129088D01*
G01X2616200Y2207666D01*
G01X2380371Y2641600D02*
G01X2563251Y2641600D01*
G01X2617607Y2587244D01*
G01X2313061Y2708910D02*
G01X2380371Y2641600D01*
G01X2617607Y2587244D02*
G01X2617607Y2444090D01*
G01X2313061Y2820619D02*
G01X2313061Y2708910D01*
G01X2061210Y2820619D02*
G01X2061210Y2706370D01*
G01X1960880Y2606040D01*
G01X1920240Y2606040D01*
G01X1883156Y2568956D01*
G01X1883156Y2444090D01*
G01X2252853Y2700376D02*
G01X2353183Y2600046D01*
G01X2252853Y2814625D02*
G01X2252853Y2700376D01*
G01X2353183Y2600046D02*
G01X2393823Y2600046D01*
G01X2428240Y2565629D01*
G01X2428240Y2440762D01*
G54D28*
G01X2645559Y2820521D02*
G01X2540010Y2820520D01*
G01X2520630Y2342137D02*
G01X2717800Y2342137D01*
G01X2717800Y2748280D01*
G01X2645559Y2820521D01*
G04 Track End*

M02*

