G04 Layer: TopPasteMaskLayer*
G04 EasyEDA Pro v2.2.46.11, 2026-02-17 18:28:56*
G04 Gerber Generator version 0.3*
G04 Scale: 100 percent, Rotated: No, Reflected: No*
G04 Dimensions in millimeters*
G04 Leading zeros omitted, absolute positions, 4 integers and 5 decimals*
G04 Generated by one-click*
%FSLAX45Y45*%
%MOMM*%
%ADD10R,0.9X0.8*%
%ADD11R,0.8X0.9*%
%ADD12R,0.532X1.07201*%
%ADD13R,0.6X1.6*%
%ADD14R,1.15001X2.2*%
%ADD15R,1.15001X2.49999*%
%ADD16R,1.5036X1.15001*%
%ADD17R,1.5X1.15001*%
%ADD18R,1.15999X1.2*%
%ADD19R,1.15999X1.25001*%
%ADD20O,0.3556X1.8148*%
%ADD21O,0.35601X1.81501*%
%ADD22R,0.2X0.7*%
G75*


G04 Pad Start*
G54D10*
G01X2539989Y3356760D03*
G01X2540011Y3216760D03*
G54D11*
G01X1931520Y3652509D03*
G01X2071520Y3652531D03*
G54D10*
G01X2540011Y2820520D03*
G01X2539989Y2960520D03*
G54D12*
G01X1354836Y2568550D03*
G01X1259840Y2568550D03*
G01X1164844Y2568550D03*
G01X1164844Y2338730D03*
G01X1259840Y2338756D03*
G01X1354836Y2338730D03*
G01X1693164Y2214270D03*
G01X1788160Y2214270D03*
G01X1883156Y2214270D03*
G01X1883156Y2444090D03*
G01X1788160Y2444064D03*
G01X1693164Y2444090D03*
G01X2058924Y2214270D03*
G01X2153920Y2214270D03*
G01X2248916Y2214270D03*
G01X2248916Y2444090D03*
G01X2153920Y2444064D03*
G01X2058924Y2444090D03*
G01X2424684Y2214270D03*
G01X2519680Y2214270D03*
G01X2614676Y2214270D03*
G01X2614676Y2444090D03*
G01X2519680Y2444064D03*
G01X2424684Y2444090D03*
G54D13*
G01X1674292Y187706D03*
G01X1564310Y187706D03*
G01X1454302Y187706D03*
G01X1344295Y187706D03*
G01X1234288Y187706D03*
G01X1124306Y187731D03*
G01X1014298Y187706D03*
G01X904291Y187706D03*
G54D14*
G01X669798Y235763D03*
G54D15*
G01X2098802Y250749D03*
G54D14*
G01X2098802Y1383741D03*
G54D17*
G01X1668297Y1463243D03*
G01X890295Y1463243D03*
G54D18*
G01X710311Y1350747D03*
G54D19*
G01X710311Y450748D03*
G54D20*
G01X2378710Y3351581D03*
G54D21*
G01X2315210Y3351555D03*
G54D20*
G01X2251710Y3351581D03*
G01X2188210Y3351581D03*
G01X2124710Y3351581D03*
G01X2061210Y3351581D03*
G01X1997710Y3351581D03*
G54D21*
G01X1934210Y3351555D03*
G54D20*
G01X2378710Y2820619D03*
G01X2315210Y2820619D03*
G01X2251710Y2820619D03*
G01X2188210Y2820619D03*
G01X2124710Y2820619D03*
G01X2061210Y2820619D03*
G01X1997710Y2820619D03*
G01X1934210Y2820619D03*
G54D10*
G01X2321571Y3613000D03*
G01X2321549Y3753000D03*
G54D22*
G01X1323010Y2059000D03*
G01X1323010Y1751000D03*
G01X1283005Y2059000D03*
G01X1283005Y1751000D03*
G01X1243000Y2059000D03*
G01X1243000Y1751000D03*
G01X1202995Y2059000D03*
G01X1202995Y1751000D03*
G01X1162990Y2059000D03*
G01X1162990Y1751000D03*
G01X1123010Y2059000D03*
G01X1123010Y1751000D03*
G01X1083005Y2059000D03*
G01X1083005Y1751000D03*
G01X1043000Y2059000D03*
G01X1043000Y1751000D03*
G01X1002995Y2059000D03*
G01X1002995Y1751000D03*
G01X962990Y2059000D03*
G01X962990Y1751000D03*
G04 Pad End*

M02*

