G04 Layer: BottomLayer*
G04 EasyEDA Pro v2.2.46.11, 2026-02-17 18:28:56*
G04 Gerber Generator version 0.3*
G04 Scale: 100 percent, Rotated: No, Reflected: No*
G04 Dimensions in millimeters*
G04 Leading zeros omitted, absolute positions, 4 integers and 5 decimals*
G04 Generated by one-click*
%FSLAX45Y45*%
%MOMM*%
%ADD10C,0.2032*%
%ADD11C,0.1524*%
%ADD12C,1.02108*%
%ADD13C,1.524*%
%ADD14C,0.61976*%
%ADD15C,0.3655*%
%ADD16C,0.3556*%
G75*


G04 Copper Start*
G36*
G01X874632Y1661160D02*
G01X791608Y1661160D01*
G01X782320Y1670448D01*
G01X782320Y3008232D01*
G01X1477408Y3703320D01*
G01X1738232Y3703320D01*
G01X1742440Y3699112D01*
G01X1742440Y3611008D01*
G01X1738232Y3606800D01*
G01X1534160Y3606800D01*
G01X1530272Y3606027D01*
G01X1526976Y3603824D01*
G01X891976Y2968824D01*
G01X889773Y2965528D01*
G01X889000Y2961640D01*
G01X889000Y1675528D01*
G01X874632Y1661160D01*
G37*
G36*
G01X1294763Y124126D02*
G01X1286856Y112001D01*
G01X1281864Y98414D01*
G01X1280039Y84055D01*
G01X1281474Y69651D01*
G01X1286097Y55934D01*
G01X1293673Y43600D01*
G01X1303817Y33274D01*
G01X33274Y33274D01*
G01X33274Y224400D01*
G01X117486Y224400D01*
G01X119393Y203818D01*
G01X125050Y183936D01*
G01X134264Y165432D01*
G01X146721Y148937D01*
G01X161996Y135011D01*
G01X179571Y124129D01*
G01X198846Y116662D01*
G01X219165Y112864D01*
G01X239835Y112864D01*
G01X260154Y116662D01*
G01X279429Y124129D01*
G01X297003Y135011D01*
G01X312279Y148937D01*
G01X324736Y165432D01*
G01X333950Y183936D01*
G01X339607Y203818D01*
G01X341514Y224400D01*
G01X339607Y244983D01*
G01X333950Y264864D01*
G01X324736Y283368D01*
G01X312279Y299863D01*
G01X297003Y313789D01*
G01X279429Y324671D01*
G01X260154Y332138D01*
G01X239835Y335936D01*
G01X219165Y335936D01*
G01X198846Y332138D01*
G01X179571Y324671D01*
G01X161996Y313789D01*
G01X146721Y299863D01*
G01X134264Y283368D01*
G01X125050Y264864D01*
G01X119393Y244983D01*
G01X117486Y224400D01*
G01X117486Y224400D01*
G01X33274Y224400D01*
G01X33274Y851700D01*
G01X84426Y851700D01*
G01X86266Y829501D01*
G01X91734Y807907D01*
G01X100682Y787507D01*
G01X112866Y768859D01*
G01X127952Y752470D01*
G01X145531Y738788D01*
G01X165122Y728186D01*
G01X186190Y720953D01*
G01X208162Y717287D01*
G01X230438Y717287D01*
G01X252410Y720953D01*
G01X273478Y728186D01*
G01X293069Y738788D01*
G01X310648Y752470D01*
G01X325735Y768859D01*
G01X337918Y787507D01*
G01X346866Y807907D01*
G01X352335Y829501D01*
G01X354174Y851700D01*
G01X352335Y873900D01*
G01X346866Y895494D01*
G01X337918Y915893D01*
G01X325735Y934541D01*
G01X310648Y950930D01*
G01X293069Y964612D01*
G01X273478Y975214D01*
G01X252410Y982447D01*
G01X230438Y986113D01*
G01X208162Y986113D01*
G01X186190Y982447D01*
G01X165122Y975214D01*
G01X145531Y964612D01*
G01X127952Y950930D01*
G01X112866Y934541D01*
G01X100682Y915893D01*
G01X91734Y895494D01*
G01X86266Y873900D01*
G01X84426Y851700D01*
G01X84426Y851700D01*
G01X33274Y851700D01*
G01X33274Y1586217D01*
G01X214422Y1767365D01*
G01X736376Y1767365D01*
G01X736376Y1754634D01*
G01X738886Y1742153D01*
G01X738886Y1689544D01*
G01X738886Y1689544D01*
G01X738886Y1673416D01*
G01X738886Y1666240D01*
G01X740020Y1657628D01*
G01X743344Y1649603D01*
G01X748632Y1642712D01*
G01X763872Y1627472D01*
G01X770763Y1622184D01*
G01X778788Y1618860D01*
G01X787400Y1617726D01*
G01X794576Y1617726D01*
G01X810704Y1617726D01*
G01X865696Y1617726D01*
G01X879270Y1617455D01*
G01X892599Y1620041D01*
G01X905086Y1625371D01*
G01X916175Y1633204D01*
G01X925371Y1643193D01*
G01X932263Y1654891D01*
G01X936544Y1667776D01*
G01X938022Y1681272D01*
G01X936631Y1694778D01*
G01X932434Y1707690D01*
G01X932434Y1740761D01*
G01X935338Y1754150D01*
G01X935338Y1767850D01*
G01X932434Y1781239D01*
G01X932434Y2342135D01*
G01X1723898Y2342135D01*
G01X1725765Y2326756D01*
G01X1731259Y2312271D01*
G01X1740059Y2299522D01*
G01X1751655Y2289249D01*
G01X1765372Y2282049D01*
G01X1780414Y2278342D01*
G01X1795906Y2278342D01*
G01X1810948Y2282049D01*
G01X1824665Y2289249D01*
G01X1836261Y2299522D01*
G01X1845061Y2312271D01*
G01X1850555Y2326756D01*
G01X1852422Y2342135D01*
G01X2091356Y2342135D01*
G01X2093224Y2326756D01*
G01X2098717Y2312271D01*
G01X2107518Y2299522D01*
G01X2119114Y2289249D01*
G01X2132831Y2282049D01*
G01X2147873Y2278342D01*
G01X2163364Y2278342D01*
G01X2178406Y2282049D01*
G01X2192123Y2289249D01*
G01X2203719Y2299522D01*
G01X2212520Y2312271D01*
G01X2218013Y2326756D01*
G01X2219880Y2342135D01*
G01X2456367Y2342135D01*
G01X2458234Y2326756D01*
G01X2463728Y2312271D01*
G01X2472528Y2299522D01*
G01X2484124Y2289249D01*
G01X2497841Y2282049D01*
G01X2512883Y2278342D01*
G01X2528375Y2278342D01*
G01X2543416Y2282049D01*
G01X2557134Y2289249D01*
G01X2568729Y2299522D01*
G01X2577530Y2312271D01*
G01X2583023Y2326756D01*
G01X2584891Y2342135D01*
G01X2583023Y2357514D01*
G01X2577530Y2371999D01*
G01X2568729Y2384749D01*
G01X2557134Y2395022D01*
G01X2543416Y2402221D01*
G01X2528375Y2405929D01*
G01X2512883Y2405929D01*
G01X2497841Y2402221D01*
G01X2484124Y2395022D01*
G01X2472528Y2384749D01*
G01X2463728Y2371999D01*
G01X2458234Y2357514D01*
G01X2456367Y2342135D01*
G01X2456367Y2342135D01*
G01X2219880Y2342135D01*
G01X2218013Y2357514D01*
G01X2212520Y2371999D01*
G01X2203719Y2384749D01*
G01X2192123Y2395022D01*
G01X2178406Y2402221D01*
G01X2163364Y2405929D01*
G01X2147873Y2405929D01*
G01X2132831Y2402221D01*
G01X2119114Y2395022D01*
G01X2107518Y2384749D01*
G01X2098717Y2371999D01*
G01X2093224Y2357514D01*
G01X2091356Y2342135D01*
G01X2091356Y2342135D01*
G01X1852422Y2342135D01*
G01X1850555Y2357514D01*
G01X1845061Y2371999D01*
G01X1836261Y2384749D01*
G01X1824665Y2395022D01*
G01X1810948Y2402221D01*
G01X1795906Y2405929D01*
G01X1780414Y2405929D01*
G01X1765372Y2402221D01*
G01X1751655Y2395022D01*
G01X1740059Y2384749D01*
G01X1731259Y2371999D01*
G01X1725765Y2357514D01*
G01X1723898Y2342135D01*
G01X1723898Y2342135D01*
G01X932434Y2342135D01*
G01X932434Y2448919D01*
G01X934121Y2463545D01*
G01X932434Y2478171D01*
G01X932434Y2947857D01*
G01X1547943Y3563366D01*
G01X1695910Y3563366D01*
G01X1709276Y3559075D01*
G01X1723256Y3557788D01*
G01X1737181Y3559568D01*
G01X1750388Y3564329D01*
G01X1758779Y3567654D01*
G01X1765968Y3573112D01*
G01X1776128Y3583272D01*
G01X1781416Y3590163D01*
G01X1784740Y3598188D01*
G01X1785874Y3606800D01*
G01X1785874Y3613976D01*
G01X1785874Y3630104D01*
G01X1785874Y3678173D01*
G01X1785874Y3694301D01*
G01X1785874Y3703320D01*
G01X1784740Y3711932D01*
G01X1781416Y3719957D01*
G01X1776128Y3726848D01*
G01X1765968Y3737008D01*
G01X1759473Y3742064D01*
G01X1751936Y3745370D01*
G01X1743817Y3746725D01*
G01X1733152Y3749545D01*
G01X1722162Y3750499D01*
G01X1711171Y3749560D01*
G01X1700502Y3746754D01*
G01X1473200Y3746754D01*
G01X1464588Y3745620D01*
G01X1456563Y3742296D01*
G01X1449672Y3737008D01*
G01X748632Y3035968D01*
G01X743344Y3029077D01*
G01X740020Y3021052D01*
G01X738886Y3012440D01*
G01X738886Y2471609D01*
G01X738378Y2463545D01*
G01X738886Y2455480D01*
G01X738886Y1779846D01*
G01X736376Y1767365D01*
G01X214422Y1767365D01*
G01X723528Y2276472D01*
G01X728816Y2283363D01*
G01X732140Y2291388D01*
G01X733274Y2300000D01*
G01X733274Y3966726D01*
G01X2766726Y3966726D01*
G01X2766726Y2383800D01*
G01X2756422Y2393497D01*
G01X2744246Y2400705D01*
G01X2730787Y2405073D01*
G01X2716699Y2406389D01*
G01X2702664Y2404591D01*
G01X2689363Y2399764D01*
G01X2677441Y2392144D01*
G01X2667475Y2382099D01*
G01X2659949Y2370117D01*
G01X2655228Y2356778D01*
G01X2653541Y2342730D01*
G01X2654969Y2328652D01*
G01X2659443Y2315229D01*
G01X2666746Y2303110D01*
G01X2666746Y2058227D01*
G01X2122899Y1514381D01*
G01X2114786Y1503807D01*
G01X2109686Y1491494D01*
G01X2107946Y1478280D01*
G01X2107946Y139892D01*
G01X2100388Y132334D01*
G01X1385695Y132334D01*
G01X1373645Y140353D01*
G01X1360105Y145472D01*
G01X1345763Y147430D01*
G01X1331346Y146129D01*
G01X1317587Y141634D01*
G01X1305183Y134174D01*
G01X1294763Y124126D01*
G37*
G36*
G01X2766726Y33274D02*
G01X2138911Y33274D01*
G01X2148928Y38197D01*
G01X2157636Y45179D01*
G01X2195101Y82644D01*
G01X2203214Y93218D01*
G01X2208314Y105531D01*
G01X2210054Y118745D01*
G01X2210054Y224400D01*
G01X2417576Y224400D01*
G01X2419483Y203818D01*
G01X2425140Y183936D01*
G01X2434354Y165432D01*
G01X2446810Y148937D01*
G01X2462086Y135011D01*
G01X2479661Y124129D01*
G01X2498936Y116662D01*
G01X2519254Y112864D01*
G01X2539925Y112864D01*
G01X2560244Y116662D01*
G01X2579519Y124129D01*
G01X2597093Y135011D01*
G01X2612369Y148937D01*
G01X2624826Y165432D01*
G01X2634040Y183936D01*
G01X2639697Y203818D01*
G01X2641604Y224400D01*
G01X2639697Y244983D01*
G01X2634040Y264864D01*
G01X2624826Y283368D01*
G01X2612369Y299863D01*
G01X2597093Y313789D01*
G01X2579519Y324671D01*
G01X2560244Y332138D01*
G01X2539925Y335936D01*
G01X2519254Y335936D01*
G01X2498936Y332138D01*
G01X2479661Y324671D01*
G01X2462086Y313789D01*
G01X2446810Y299863D01*
G01X2434354Y283368D01*
G01X2425140Y264864D01*
G01X2419483Y244983D01*
G01X2417576Y224400D01*
G01X2417576Y224400D01*
G01X2210054Y224400D01*
G01X2210054Y844600D01*
G01X2397726Y844600D01*
G01X2399565Y822401D01*
G01X2405034Y800807D01*
G01X2413982Y780407D01*
G01X2426165Y761759D01*
G01X2441252Y745370D01*
G01X2458831Y731688D01*
G01X2478422Y721086D01*
G01X2499490Y713853D01*
G01X2521462Y710187D01*
G01X2543738Y710187D01*
G01X2565710Y713853D01*
G01X2586778Y721086D01*
G01X2606369Y731688D01*
G01X2623948Y745370D01*
G01X2639035Y761759D01*
G01X2651218Y780407D01*
G01X2660166Y800807D01*
G01X2665634Y822401D01*
G01X2667474Y844600D01*
G01X2665634Y866800D01*
G01X2660166Y888394D01*
G01X2651218Y908793D01*
G01X2639035Y927441D01*
G01X2623948Y943830D01*
G01X2606369Y957512D01*
G01X2586778Y968114D01*
G01X2565710Y975347D01*
G01X2543738Y979013D01*
G01X2521462Y979013D01*
G01X2499490Y975347D01*
G01X2478422Y968114D01*
G01X2458831Y957512D01*
G01X2441252Y943830D01*
G01X2426165Y927441D01*
G01X2413982Y908793D01*
G01X2405034Y888394D01*
G01X2399565Y866800D01*
G01X2397726Y844600D01*
G01X2397726Y844600D01*
G01X2210054Y844600D01*
G01X2210054Y1457133D01*
G01X2753901Y2000979D01*
G01X2761653Y2010938D01*
G01X2766726Y2022494D01*
G01X2766726Y33274D01*
G37*
G54D10*
G01X874632Y1661160D02*
G01X791608Y1661160D01*
G01X782320Y1670448D01*
G01X782320Y3008232D01*
G01X1477408Y3703320D01*
G01X1738232Y3703320D01*
G01X1742440Y3699112D01*
G01X1742440Y3611008D01*
G01X1738232Y3606800D01*
G01X1534160Y3606800D01*
G03X1526976Y3603824I0J-10160D01*
G01X891976Y2968824D01*
G03X889000Y2961640I7184J-7184D01*
G01X889000Y1675528D01*
G01X874632Y1661160D01*
G54D11*
G01X1294763Y124126D02*
G03X1303817Y33274I49532J-40941D01*
G01X33274Y33274D01*
G01X33274Y1586217D01*
G01X723528Y2276472D01*
G03X733274Y2300000I-23528J23528D01*
G01X733274Y3966726D01*
G01X2766726Y3966726D01*
G01X2766726Y2383800D01*
G03X2677441Y2392144I-48926J-41664D01*
G03X2666746Y2303110I40359J-50007D01*
G01X2666746Y2058227D01*
G01X2122899Y1514381D01*
G03X2107946Y1478280I36101J-36101D01*
G01X2107946Y139892D01*
G01X2100388Y132334D01*
G01X1385695Y132334D01*
G03X1294763Y124126I-41400J-49149D01*
G01X84426Y851700D02*
G03X354174Y851700I134874J0D01*
G03X84426Y851700I-134874J0D01*
G01X117486Y224400D02*
G03X341514Y224400I112014J0D01*
G03X117486Y224400I-112014J0D01*
G01X738886Y1689544D02*
G03X738886Y1673416I63754J-8064D01*
G01X738886Y1666240D01*
G03X748632Y1642712I33274J0D01*
G01X763872Y1627472D01*
G03X787400Y1617726I23528J23528D01*
G01X794576Y1617726D01*
G03X810704Y1617726I8064J63754D01*
G01X865696Y1617726D01*
G03X925371Y1643193I8064J63754D01*
G03X932434Y1707690I-51611J38287D01*
G01X932434Y1740761D01*
G03X932434Y1781239I-60992J20239D01*
G01X932434Y2448919D01*
G03X934121Y2463545I-62575J14626D01*
G03X932434Y2478171I-64262J0D01*
G01X932434Y2947857D01*
G01X1547943Y3563366D01*
G01X1695910Y3563366D01*
G03X1723256Y3557788I26210J58674D01*
G03X1750388Y3564329I-1136J64252D01*
G03X1765968Y3573112I-7948J32311D01*
G01X1776128Y3583272D01*
G03X1785874Y3606800I-23528J23528D01*
G01X1785874Y3613976D01*
G03X1785874Y3630104I-63754J8064D01*
G01X1785874Y3678173D01*
G03X1785874Y3694301I-63754J8064D01*
G01X1785874Y3703320D01*
G03X1776128Y3726848I-33274J0D01*
G01X1765968Y3737008D01*
G03X1743817Y3746725I-23528J-23528D01*
G03X1722162Y3750499I-21697J-60488D01*
G03X1700502Y3746754I-42J-64262D01*
G01X1473200Y3746754D01*
G03X1449672Y3737008I0J-33274D01*
G01X748632Y3035968D01*
G03X738886Y3012440I23528J-23528D01*
G01X738886Y2471609D01*
G03X738378Y2463545I63754J-8064D01*
G03X738886Y2455480I64262J0D01*
G01X738886Y1779846D01*
G03X738886Y1742153I61436J-18847D01*
G01X738886Y1689544D01*
G01X1723898Y2342135D02*
G03X1852422Y2342135I64262J0D01*
G03X1723898Y2342135I-64262J0D01*
G01X2091356Y2342135D02*
G03X2219880Y2342135I64262J0D01*
G03X2091356Y2342135I-64262J0D01*
G01X2456367Y2342135D02*
G03X2584891Y2342135I64262J0D01*
G03X2456367Y2342135I-64262J0D01*
G01X2766726Y33274D02*
G01X2138911Y33274D01*
G03X2157636Y45179I-17376J48006D01*
G01X2195101Y82644D01*
G03X2210054Y118745I-36101J36101D01*
G01X2210054Y1457133D01*
G01X2753901Y2000979D01*
G03X2766726Y2022494I-36101J36101D01*
G01X2766726Y33274D01*
G01X2397726Y844600D02*
G03X2667474Y844600I134874J0D01*
G03X2397726Y844600I-134874J0D01*
G01X2417576Y224400D02*
G03X2641604Y224400I112014J0D01*
G03X2417576Y224400I-112014J0D01*
G54D12*
G01X153554Y224400D02*
G01X125106Y224400D01*
G01X305446Y224400D02*
G01X333894Y224400D01*
G01X229500Y300346D02*
G01X229500Y328794D01*
G01X229500Y148454D02*
G01X229500Y120006D01*
G01X2605546Y224400D02*
G01X2633994Y224400D01*
G01X2529600Y300346D02*
G01X2529600Y328794D01*
G01X2529600Y148454D02*
G01X2529600Y120006D01*
G04 Copper End*

G04 Pad Start*
G54D13*
G01X2529600Y224400D03*
G01X229500Y224400D03*
G04 Pad End*

G04 Via Start*
G54D14*
G01X802640Y1681480D03*
G01X800322Y1761000D03*
G01X1722120Y3622040D03*
G01X2155618Y2342135D03*
G01X2520629Y2342135D03*
G01X1788160Y2342135D03*
G01X1722120Y3686237D03*
G01X1971040Y2545080D03*
G01X2153920Y2616200D03*
G01X2331720Y2545080D03*
G01X1344295Y83185D03*
G01X2717800Y2342137D03*
G01X1259840Y2235200D03*
G01X2443480Y2717800D03*
G01X2618311Y2717800D03*
G01X74600Y1500000D03*
G01X74600Y1400000D03*
G01X74600Y1300000D03*
G01X74600Y1200000D03*
G01X74600Y1100000D03*
G01X74600Y1000000D03*
G01X74600Y700000D03*
G01X74600Y600000D03*
G01X74600Y100000D03*
G01X2700000Y1500000D03*
G01X2700000Y1400000D03*
G01X2700000Y1300000D03*
G01X2700000Y1200000D03*
G01X2700000Y1100000D03*
G01X2700000Y1000000D03*
G01X2700000Y700000D03*
G01X2700000Y600000D03*
G01X2700000Y500000D03*
G01X2700000Y400000D03*
G01X2700000Y100000D03*
G01X74600Y500000D03*
G01X74600Y400000D03*
G01X74600Y300000D03*
G01X1193800Y1097280D03*
G01X1193800Y598781D03*
G01X1564640Y1097280D03*
G01X1564640Y599440D03*
G01X1950720Y1097280D03*
G01X1950720Y599440D03*
G01X871442Y1761000D03*
G01X873760Y1681480D03*
G01X800000Y3900000D03*
G01X800000Y3700000D03*
G01X800000Y3500000D03*
G01X1000000Y3900000D03*
G01X1200000Y3900000D03*
G01X1400000Y3900000D03*
G01X1600000Y3900000D03*
G01X2500000Y3900000D03*
G01X2700000Y3900000D03*
G01X2700000Y3700000D03*
G01X2700000Y3500000D03*
G01X2200000Y3900000D03*
G01X1200000Y3100000D03*
G01X1400000Y3100000D03*
G01X300000Y1700000D03*
G01X500000Y1900000D03*
G01X700000Y2100000D03*
G01X2700000Y1800000D03*
G01X2499360Y3698240D03*
G01X802640Y2463545D03*
G01X869859Y2463545D03*
G01X1798320Y2560320D03*
G01X2518824Y2560320D03*
G01X2700000Y300000D03*
G01X2700000Y200000D03*
G01X2700000Y800000D03*
G01X2700000Y900000D03*
G04 Via End*

G04 Track Start*
G54D16*
G01X2159000Y118745D02*
G01X2159000Y1478280D01*
G01X1344295Y83185D02*
G01X1346200Y81280D01*
G01X2121535Y81280D01*
G01X2159000Y118745D01*
G01X2159000Y1478280D02*
G01X2717800Y2037080D01*
G01X2717800Y2342137D01*
G04 Track End*

M02*

