G04 Layer: DrillDrawingLayer*
G04 EasyEDA Pro v2.2.46.11, 2026-02-17 18:28:56*
G04 Gerber Generator version 0.3*
G04 Scale: 100 percent, Rotated: No, Reflected: No*
G04 Dimensions in millimeters*
G04 Leading zeros omitted, absolute positions, 4 integers and 5 decimals*
G04 Generated by one-click*
%FSLAX45Y45*%
%MOMM*%
%AMIconRect*4,1,4,0.28,-0.28,-0.28,-0.28,-0.28,0.28,0.28,0.28,0.28,-0.28,0*4,0,4,0.233333,-0.233333,0.233333,0.233333,-0.233333,0.233333,-0.233333,-0.233333,0.233333,-0.233333,0*%
%AMIconTriangle*4,1,3,-0.339593,0.240473,0.339593,0.240473,0,-0.37884,-0.339593,0.240473,0*4,0,3,-0.265673,0.19404,0,-0.27342,0.266233,0.19404,-0.265673,0.19404,0*%
%ADD10IconRect*%
%ADD11C,0.616X0.522667*%
%ADD12IconTriangle*%
G75*


G04 Drill Drawing Start*
G54D10*
G01X229500Y224400D03*
G01X2529600Y224400D03*
G54D11*
G01X219300Y851700D03*
G01X2532600Y844600D03*
G54D12*
G01X74600Y100000D03*
G01X74600Y300000D03*
G01X74600Y400000D03*
G01X74600Y500000D03*
G01X74600Y600000D03*
G01X74600Y700000D03*
G01X74600Y1000000D03*
G01X74600Y1100000D03*
G01X74600Y1200000D03*
G01X74600Y1300000D03*
G01X74600Y1400000D03*
G01X74600Y1500000D03*
G01X300000Y1700000D03*
G01X500000Y1900000D03*
G01X700000Y2100000D03*
G01X800000Y3500000D03*
G01X800000Y3700000D03*
G01X800000Y3900000D03*
G01X800322Y1761000D03*
G01X802640Y1681480D03*
G01X802640Y2463545D03*
G01X869859Y2463545D03*
G01X871442Y1761000D03*
G01X873760Y1681480D03*
G01X1000000Y3900000D03*
G01X1193800Y598781D03*
G01X1193800Y1097280D03*
G01X1200000Y3100000D03*
G01X1200000Y3900000D03*
G01X1259840Y2235200D03*
G01X1344295Y83185D03*
G01X1400000Y3100000D03*
G01X1400000Y3900000D03*
G01X1564640Y599440D03*
G01X1564640Y1097280D03*
G01X1600000Y3900000D03*
G01X1722120Y3622040D03*
G01X1722120Y3686237D03*
G01X1788160Y2342135D03*
G01X1798320Y2560320D03*
G01X1950720Y599440D03*
G01X1950720Y1097280D03*
G01X1971040Y2545080D03*
G01X2153920Y2616200D03*
G01X2155618Y2342135D03*
G01X2200000Y3900000D03*
G01X2331720Y2545080D03*
G01X2443480Y2717800D03*
G01X2499360Y3698240D03*
G01X2500000Y3900000D03*
G01X2518824Y2560320D03*
G01X2520629Y2342135D03*
G01X2618311Y2717800D03*
G01X2700000Y100000D03*
G01X2700000Y200000D03*
G01X2700000Y300000D03*
G01X2700000Y400000D03*
G01X2700000Y500000D03*
G01X2700000Y600000D03*
G01X2700000Y700000D03*
G01X2700000Y800000D03*
G01X2700000Y900000D03*
G01X2700000Y1000000D03*
G01X2700000Y1100000D03*
G01X2700000Y1200000D03*
G01X2700000Y1300000D03*
G01X2700000Y1400000D03*
G01X2700000Y1500000D03*
G01X2700000Y1800000D03*
G01X2700000Y3500000D03*
G01X2700000Y3700000D03*
G01X2700000Y3900000D03*
G01X2717800Y2342137D03*
G04 Drill Drawing End*

M02*

