G04 Layer: TopSolderMaskLayer*
G04 EasyEDA Pro v2.2.46.11, 2026-02-17 18:28:56*
G04 Gerber Generator version 0.3*
G04 Scale: 100 percent, Rotated: No, Reflected: No*
G04 Dimensions in millimeters*
G04 Leading zeros omitted, absolute positions, 4 integers and 5 decimals*
G04 Generated by one-click*
%FSLAX45Y45*%
%MOMM*%
%AMRoundRect*1,1,$1,$2,$3*1,1,$1,$4,$5*1,1,$1,0-$2,0-$3*1,1,$1,0-$4,0-$5*20,1,$1,$2,$3,$4,$5,0*20,1,$1,$4,$5,0-$2,0-$3,0*20,1,$1,0-$2,0-$3,0-$4,0-$5,0*20,1,$1,0-$4,0-$5,$2,$3,0*4,1,4,$2,$3,$4,$5,0-$2,0-$3,0-$4,0-$5,$2,$3,0*%
%ADD10C,2.524*%
%ADD11RoundRect,0.09131X-0.45514X-0.40514X-0.45514X0.40514*%
%ADD12RoundRect,0.09164X-0.45518X-0.40518X-0.45518X0.40518*%
%ADD13RoundRect,0.09131X-0.40514X0.45514X0.40514X0.45514*%
%ADD14RoundRect,0.09164X-0.40518X0.45518X0.40518X0.45518*%
%ADD15RoundRect,0.08787X-0.27307X0.54307X0.27307X0.54307*%
%ADD16RoundRect,0.0929X-0.27302X0.54302X0.27302X0.54302*%
%ADD17RoundRect,0.08756X-0.27302X0.54302X0.27302X0.54302*%
%ADD18RoundRect,0.08906X-0.30647X0.80647X0.30647X0.80647*%
%ADD19RoundRect,0.08875X-0.30643X0.80642X0.30643X0.80642*%
%ADD20RoundRect,0.09397X-0.57882X1.10381X0.57882X1.10381*%
%ADD21RoundRect,0.09397X-0.57882X1.25381X0.57882X1.25381*%
%ADD22RoundRect,0.09397X-0.75381X-0.57882X-0.75381X0.57882*%
%ADD23RoundRect,0.09403X-0.58378X-0.60378X-0.58378X0.60378*%
%ADD24RoundRect,0.09403X-0.58378X-0.62879X-0.58378X0.62879*%
%ADD25O,0.4572X1.9164*%
%ADD26O,0.45801X1.91701*%
%ADD27RoundRect,0.07502X-0.1125X-0.3625X-0.1125X0.3625*%
G75*


G04 PolygonModel Start*
G36*
G01X2800000Y0D02*
G01X2801520Y1500301D01*
G01X2111510Y1500301D01*
G01X2109990Y699D01*
G01X2800000Y0D01*
G37*
G36*
G01X1742600Y1547500D02*
G01X1742600Y1383500D01*
G01X1567500Y1383500D01*
G01X1567500Y1547500D01*
G01X1742600Y1547500D01*
G37*
G36*
G01X0Y0D02*
G01X0Y1600000D01*
G01X970300Y1600000D01*
G01X970300Y1511612D01*
G01X657922Y1511612D01*
G01X657922Y0D01*
G01X0Y0D01*
G37*

G04 Pad Start*
G54D10*
G01X2529600Y224400D03*
G01X229500Y224400D03*
G54D11*
G01X2539989Y3356760D03*
G54D12*
G01X2540011Y3216760D03*
G54D13*
G01X1931520Y3652509D03*
G54D14*
G01X2071520Y3652531D03*
G54D11*
G01X2540011Y2820520D03*
G54D12*
G01X2539989Y2960520D03*
G54D15*
G01X1354836Y2568550D03*
G54D17*
G01X1259840Y2568550D03*
G54D15*
G01X1164844Y2568550D03*
G54D17*
G01X1164844Y2338730D03*
G54D15*
G01X1259840Y2338756D03*
G54D17*
G01X1354836Y2338730D03*
G54D15*
G01X1693164Y2214270D03*
G54D17*
G01X1788160Y2214270D03*
G54D15*
G01X1883156Y2214270D03*
G54D17*
G01X1883156Y2444090D03*
G54D15*
G01X1788160Y2444064D03*
G54D17*
G01X1693164Y2444090D03*
G54D15*
G01X2058924Y2214270D03*
G54D17*
G01X2153920Y2214270D03*
G54D15*
G01X2248916Y2214270D03*
G54D17*
G01X2248916Y2444090D03*
G54D15*
G01X2153920Y2444064D03*
G54D17*
G01X2058924Y2444090D03*
G54D15*
G01X2424684Y2214270D03*
G54D17*
G01X2519680Y2214270D03*
G54D15*
G01X2614676Y2214270D03*
G54D17*
G01X2614676Y2444090D03*
G54D15*
G01X2519680Y2444064D03*
G54D17*
G01X2424684Y2444090D03*
G54D18*
G01X1674292Y187706D03*
G01X1564310Y187706D03*
G01X1454302Y187706D03*
G01X1344295Y187706D03*
G01X1234288Y187706D03*
G54D19*
G01X1124306Y187731D03*
G54D18*
G01X1014298Y187706D03*
G01X904291Y187706D03*
G54D20*
G01X669798Y235763D03*
G54D21*
G01X2098802Y250749D03*
G54D20*
G01X2098802Y1383741D03*
G54D22*
G01X1668297Y1463243D03*
G01X890295Y1463243D03*
G54D23*
G01X710311Y1350747D03*
G54D24*
G01X710311Y450748D03*
G54D25*
G01X2378710Y3351581D03*
G54D26*
G01X2315210Y3351555D03*
G54D25*
G01X2251710Y3351581D03*
G01X2188210Y3351581D03*
G01X2124710Y3351581D03*
G01X2061210Y3351581D03*
G01X1997710Y3351581D03*
G54D26*
G01X1934210Y3351555D03*
G54D25*
G01X2378710Y2820619D03*
G01X2315210Y2820619D03*
G01X2251710Y2820619D03*
G01X2188210Y2820619D03*
G01X2124710Y2820619D03*
G01X2061210Y2820619D03*
G01X1997710Y2820619D03*
G01X1934210Y2820619D03*
G54D11*
G01X2321571Y3613000D03*
G54D12*
G01X2321549Y3753000D03*
G54D27*
G01X1323010Y2059000D03*
G01X1323010Y1751000D03*
G01X1283005Y2059000D03*
G01X1283005Y1751000D03*
G01X1243000Y2059000D03*
G01X1243000Y1751000D03*
G01X1202995Y2059000D03*
G01X1202995Y1751000D03*
G01X1162990Y2059000D03*
G01X1162990Y1751000D03*
G01X1123010Y2059000D03*
G01X1123010Y1751000D03*
G01X1083005Y2059000D03*
G01X1083005Y1751000D03*
G01X1043000Y2059000D03*
G01X1043000Y1751000D03*
G01X1002995Y2059000D03*
G01X1002995Y1751000D03*
G01X962990Y2059000D03*
G01X962990Y1751000D03*
G04 Pad End*

M02*

